<svg width="38pt" height="38pt" version="1.1" viewBox="54 -2 43 43" xmlns="http://www.w3.org/2000/svg">
 <g>
  <path d="m66.471 4.76a4.7491 4.7491 0 0 1-4.7491 4.7491 4.7491 4.7491 0 0 1-4.7491-4.7491 4.7491 4.7491 0 0 1 4.7491-4.7491 4.7491 4.7491 0 0 1 4.7491 4.7491z"/>
  <path d="m75.011 4.76a3.7993 3.7993 0 0 1-3.7993 3.7993 3.7993 3.7993 0 0 1-3.7993-3.7993 3.7993 3.7993 0 0 1 3.7993-3.7993 3.7993 3.7993 0 0 1 3.7993 3.7993z"/>
  <path d="m83.549 4.76a2.8494 2.8494 0 0 1-2.8494 2.8494 2.8494 2.8494 0 0 1-2.8494-2.8494 2.8494 2.8494 0 0 1 2.8494-2.8494 2.8494 2.8494 0 0 1 2.8494 2.8494z"/>
  <path d="m92.088 4.78a1.8996 1.8996 0 0 1-1.8996 1.8996 1.8996 1.8996 0 0 1-1.8996-1.8996 1.8996 1.8996 0 0 1 1.8996-1.8996 1.8996 1.8996 0 0 1 1.8996 1.8996z"/>
  <path d="m66.471 14.26a4.7491 4.7491 0 0 1-4.7491 4.7491 4.7491 4.7491 0 0 1-4.7491-4.7491 4.7491 4.7491 0 0 1 4.7491-4.7491 4.7491 4.7491 0 0 1 4.7491 4.7491z"/>
  <path d="m75.011 14.26a3.7993 3.7993 0 0 1-3.7993 3.7993 3.7993 3.7993 0 0 1-3.7993-3.7993 3.7993 3.7993 0 0 1 3.7993-3.7993 3.7993 3.7993 0 0 1 3.7993 3.7993z"/>
  <path d="m83.549 14.26a2.8494 2.8494 0 0 1-2.8494 2.8494 2.8494 2.8494 0 0 1-2.8494-2.8494 2.8494 2.8494 0 0 1 2.8494-2.8494 2.8494 2.8494 0 0 1 2.8494 2.8494z"/>
  <path d="m92.088 14.28a1.8996 1.8996 0 0 1-1.8996 1.8996 1.8996 1.8996 0 0 1-1.8996-1.8996 1.8996 1.8996 0 0 1 1.8996-1.8996 1.8996 1.8996 0 0 1 1.8996 1.8996z"/>
  <path d="m66.477 23.75a4.7491 4.7491 0 0 1-4.7491 4.7491 4.7491 4.7491 0 0 1-4.7491-4.7491 4.7491 4.7491 0 0 1 4.7491-4.7491 4.7491 4.7491 0 0 1 4.7491 4.7491z"/>
  <path d="m75.017 23.75a3.7993 3.7993 0 0 1-3.7993 3.7993 3.7993 3.7993 0 0 1-3.7993-3.7993 3.7993 3.7993 0 0 1 3.7993-3.7993 3.7993 3.7993 0 0 1 3.7993 3.7993z"/>
  <path d="m83.555 23.75a2.8494 2.8494 0 0 1-2.8494 2.8494 2.8494 2.8494 0 0 1-2.8494-2.8494 2.8494 2.8494 0 0 1 2.8494-2.8494 2.8494 2.8494 0 0 1 2.8494 2.8494z"/>
  <path d="m92.094 23.77a1.8996 1.8996 0 0 1-1.8996 1.8996 1.8996 1.8996 0 0 1-1.8996-1.8996 1.8996 1.8996 0 0 1 1.8996-1.8996 1.8996 1.8996 0 0 1 1.8996 1.8996z"/>
  <path d="m66.478 33.25a4.7491 4.7491 0 0 1-4.7491 4.7491 4.7491 4.7491 0 0 1-4.7491-4.7491 4.7491 4.7491 0 0 1 4.7491-4.7491 4.7491 4.7491 0 0 1 4.7491 4.7491z"/>
  <path d="m75.017 33.25a3.7993 3.7993 0 0 1-3.7993 3.7993 3.7993 3.7993 0 0 1-3.7993-3.7993 3.7993 3.7993 0 0 1 3.7993-3.7993 3.7993 3.7993 0 0 1 3.7993 3.7993z"/>
  <path d="m83.556 33.25a2.8494 2.8494 0 0 1-2.8494 2.8494 2.8494 2.8494 0 0 1-2.8494-2.8494 2.8494 2.8494 0 0 1 2.8494-2.8494 2.8494 2.8494 0 0 1 2.8494 2.8494z"/>
  <path d="m92.094 33.28a1.8996 1.8996 0 0 1-1.8996 1.8996 1.8996 1.8996 0 0 1-1.8996-1.8996 1.8996 1.8996 0 0 1 1.8996-1.8996 1.8996 1.8996 0 0 1 1.8996 1.8996z"/>
 </g>
</svg>
