<svg width="119.06mm" height="103.19mm" version="1.1" viewBox="0 0 119.06 103.19" xmlns="http://www.w3.org/2000/svg">
 <g transform="translate(9.2604 -195.14)">
  <path d="m103.19 265.25h5.2917l-2.6458 7.9375 2.6458 7.9375h-5.2917m-105.83-15.875h-5.2917l2.6458 7.9375-2.6458 7.9375h5.2917m-1e-7 -18.521h105.83v21.167h-105.83zm52.917-66.146a50.271 50.271 0 0 0-50.271 50.271 50.271 50.271 0 0 0 2.6386 15.875h95.286a50.271 50.271 0 0 0 2.6174-15.875 50.271 50.271 0 0 0-50.271-50.271zm-33.897 87.312a50.271 50.271 0 0 0 33.897 13.229 50.271 50.271 0 0 0 33.909-13.229z" fill="none" stroke="#000" stroke-linejoin="round" stroke-width="2.6458"/>
  <path d="m47.625 230.85 5.2917 7.9375-5.2917 7.9375" fill="none" stroke="#000" stroke-linecap="round" stroke-linejoin="round" stroke-width="2.6458"/>
  <g>
   <path d="m42.342 226.93a3.9688 3.9688 0 0 1-3.9688 3.9688 3.9688 3.9688 0 0 1-3.9688-3.9688 3.9688 3.9688 0 0 1 3.9688-3.9688 3.9688 3.9688 0 0 1 3.9688 3.9688z"/>
   <path d="m25.674 226.93a3.175 3.175 0 0 1-3.175 3.175 3.175 3.175 0 0 1-3.175-3.175 3.175 3.175 0 0 1 3.175-3.175 3.175 3.175 0 0 1 3.175 3.175z"/>
   <path d="m32.817 226.93a2.3812 2.3813 0 0 1-2.3812 2.3813 2.3812 2.3813 0 0 1-2.3812-2.3813 2.3812 2.3813 0 0 1 2.3812-2.3812 2.3812 2.3813 0 0 1 2.3812 2.3812z"/>
   <path d="m16.15 226.93a1.5875 1.5875 0 0 1-1.5875 1.5875 1.5875 1.5875 0 0 1-1.5875-1.5875 1.5875 1.5875 0 0 1 1.5875-1.5875 1.5875 1.5875 0 0 1 1.5875 1.5875z"/>
   <path d="m40.739 234.88a2.3812 2.3812 0 0 1-2.3812 2.3812 2.3812 2.3812 0 0 1-2.3812-2.3812 2.3812 2.3812 0 0 1 2.3812-2.3812 2.3812 2.3812 0 0 1 2.3812 2.3812z"/>
   <path d="m17.745 234.87a3.175 3.175 0 0 1-3.175 3.175 3.175 3.175 0 0 1-3.175-3.175 3.175 3.175 0 0 1 3.175-3.175 3.175 3.175 0 0 1 3.175 3.175z"/>
   <path d="m26.468 234.87a3.9688 3.9688 0 0 1-3.9688 3.9688 3.9688 3.9688 0 0 1-3.9688-3.9688 3.9688 3.9688 0 0 1 3.9688-3.9688 3.9688 3.9688 0 0 1 3.9688 3.9688z"/>
   <path d="m32.016 234.89a1.5875 1.5875 0 0 1-1.5875 1.5875 1.5875 1.5875 0 0 1-1.5875-1.5875 1.5875 1.5875 0 0 1 1.5875-1.5875 1.5875 1.5875 0 0 1 1.5875 1.5875z"/>
   <path d="m34.406 242.8a3.9688 3.9688 0 0 1-3.9688 3.9688 3.9688 3.9688 0 0 1-3.9688-3.9688 3.9688 3.9688 0 0 1 3.9688-3.9688 3.9688 3.9688 0 0 1 3.9688 3.9688z"/>
   <path d="m41.548 242.8a3.175 3.175 0 0 1-3.175 3.175 3.175 3.175 0 0 1-3.175-3.175 3.175 3.175 0 0 1 3.175-3.175 3.175 3.175 0 0 1 3.175 3.175z"/>
   <path d="m16.948 242.8a2.3812 2.3813 0 0 1-2.3812 2.3812 2.3812 2.3813 0 0 1-2.3812-2.3812 2.3812 2.3813 0 0 1 2.3812-2.3813 2.3812 2.3813 0 0 1 2.3812 2.3813z"/>
   <path d="m24.089 242.82a1.5875 1.5875 0 0 1-1.5875 1.5875 1.5875 1.5875 0 0 1-1.5875-1.5875 1.5875 1.5875 0 0 1 1.5875-1.5875 1.5875 1.5875 0 0 1 1.5875 1.5875z"/>
   <path d="m18.537 250.74a3.9688 3.9688 0 0 1-3.9688 3.9688 3.9688 3.9688 0 0 1-3.9688-3.9688 3.9688 3.9688 0 0 1 3.9688-3.9688 3.9688 3.9688 0 0 1 3.9688 3.9688z"/>
   <path d="m33.613 250.74a3.175 3.175 0 0 1-3.175 3.175 3.175 3.175 0 0 1-3.175-3.175 3.175 3.175 0 0 1 3.175-3.175 3.175 3.175 0 0 1 3.175 3.175z"/>
   <path d="m24.885 250.74a2.3812 2.3813 0 0 1-2.3812 2.3812 2.3812 2.3813 0 0 1-2.3812-2.3812 2.3812 2.3813 0 0 1 2.3812-2.3812 2.3812 2.3813 0 0 1 2.3812 2.3812z"/>
   <path d="m39.961 250.76a1.5875 1.5875 0 0 1-1.5875 1.5875 1.5875 1.5875 0 0 1-1.5875-1.5875 1.5875 1.5875 0 0 1 1.5875-1.5875 1.5875 1.5875 0 0 1 1.5875 1.5875z"/>
   <path d="m66.15 226.93a3.9688 3.9688 0 0 1-3.9688 3.9688 3.9688 3.9688 0 0 1-3.9688-3.9688 3.9688 3.9688 0 0 1 3.9688-3.9688 3.9688 3.9688 0 0 1 3.9688 3.9688z"/>
   <path d="m73.285 226.93a3.175 3.175 0 0 1-3.175 3.175 3.175 3.175 0 0 1-3.175-3.175 3.175 3.175 0 0 1 3.175-3.175 3.175 3.175 0 0 1 3.175 3.175z"/>
   <path d="m80.421 226.93a2.3812 2.3813 0 0 1-2.3812 2.3813 2.3812 2.3813 0 0 1-2.3812-2.3813 2.3812 2.3813 0 0 1 2.3812-2.3812 2.3812 2.3813 0 0 1 2.3812 2.3812z"/>
   <path d="m87.557 226.95a1.5875 1.5875 0 0 1-1.5875 1.5875 1.5875 1.5875 0 0 1-1.5875-1.5875 1.5875 1.5875 0 0 1 1.5875-1.5875 1.5875 1.5875 0 0 1 1.5875 1.5875z"/>
   <path d="m66.15 234.87a3.9688 3.9688 0 0 1-3.9688 3.9688 3.9688 3.9688 0 0 1-3.9688-3.9688 3.9688 3.9688 0 0 1 3.9688-3.9688 3.9688 3.9688 0 0 1 3.9688 3.9688z"/>
   <path d="m73.285 234.87a3.175 3.175 0 0 1-3.175 3.175 3.175 3.175 0 0 1-3.175-3.175 3.175 3.175 0 0 1 3.175-3.175 3.175 3.175 0 0 1 3.175 3.175z"/>
   <path d="m80.421 234.87a2.3812 2.3813 0 0 1-2.3812 2.3812 2.3812 2.3813 0 0 1-2.3812-2.3812 2.3812 2.3813 0 0 1 2.3812-2.3812 2.3812 2.3813 0 0 1 2.3812 2.3812z"/>
   <path d="m87.557 234.89a1.5875 1.5875 0 0 1-1.5875 1.5875 1.5875 1.5875 0 0 1-1.5875-1.5875 1.5875 1.5875 0 0 1 1.5875-1.5875 1.5875 1.5875 0 0 1 1.5875 1.5875z"/>
   <path d="m66.154 242.81a3.9688 3.9688 0 0 1-3.9688 3.9688 3.9688 3.9688 0 0 1-3.9688-3.9688 3.9688 3.9688 0 0 1 3.9688-3.9688 3.9688 3.9688 0 0 1 3.9688 3.9688z"/>
   <path d="m73.29 242.81a3.175 3.175 0 0 1-3.175 3.175 3.175 3.175 0 0 1-3.175-3.175 3.175 3.175 0 0 1 3.175-3.175 3.175 3.175 0 0 1 3.175 3.175z"/>
   <path d="m80.426 242.81a2.3812 2.3813 0 0 1-2.3812 2.3812 2.3812 2.3813 0 0 1-2.3812-2.3812 2.3812 2.3813 0 0 1 2.3812-2.3813 2.3812 2.3813 0 0 1 2.3812 2.3813z"/>
   <path d="m87.561 242.83a1.5875 1.5875 0 0 1-1.5875 1.5875 1.5875 1.5875 0 0 1-1.5875-1.5875 1.5875 1.5875 0 0 1 1.5875-1.5875 1.5875 1.5875 0 0 1 1.5875 1.5875z"/>
   <path d="m66.155 250.75a3.9688 3.9688 0 0 1-3.9688 3.9688 3.9688 3.9688 0 0 1-3.9688-3.9688 3.9688 3.9688 0 0 1 3.9688-3.9688 3.9688 3.9688 0 0 1 3.9688 3.9688z"/>
   <path d="m73.29 250.75a3.175 3.175 0 0 1-3.175 3.175 3.175 3.175 0 0 1-3.175-3.175 3.175 3.175 0 0 1 3.175-3.175 3.175 3.175 0 0 1 3.175 3.175z"/>
   <path d="m80.426 250.75a2.3812 2.3813 0 0 1-2.3812 2.3812 2.3812 2.3813 0 0 1-2.3812-2.3812 2.3812 2.3813 0 0 1 2.3812-2.3812 2.3812 2.3813 0 0 1 2.3812 2.3812z"/>
   <path d="m87.562 250.77a1.5875 1.5875 0 0 1-1.5875 1.5875 1.5875 1.5875 0 0 1-1.5875-1.5875 1.5875 1.5875 0 0 1 1.5875-1.5875 1.5875 1.5875 0 0 1 1.5875 1.5875z"/>
  </g>
  <g transform="scale(1.0037 .99634)" stroke-width=".42288" aria-label="ETL.NET">
   <path d="m19.776 270.74q0-0.72735 0.42288-1.1502 0.42288-0.42288 1.1502-0.42288h5.582q0.1184 0.18606 0.20298 0.49054 0.10149 0.30447 0.10149 0.64277 0 0.64277-0.28756 0.91341-0.27064 0.27064-0.72735 0.27064h-3.5691v1.5731h3.8059q0.1184 0.18606 0.20298 0.49054 0.10149 0.28755 0.10149 0.62585 0 0.64277-0.27064 0.91341t-0.72735 0.27064h-3.1124v1.7761h4.3472q0.11841 0.18607 0.20298 0.49054 0.10149 0.30447 0.10149 0.64277 0 0.64277-0.28756 0.93033-0.27064 0.27064-0.72735 0.27064h-4.9392q-0.72735 0-1.1502-0.42288-0.42288-0.42287-0.42288-1.1502z"/>
   <path d="m28.586 271.53q-0.1184-0.18607-0.2199-0.50746-0.10149-0.32138-0.10149-0.6766 0-0.65968 0.28756-0.94724 0.30447-0.28756 0.77809-0.28756h7.375q0.1184 0.18607 0.2199 0.50746 0.10149 0.32138 0.10149 0.6766 0 0.65968-0.30447 0.94724-0.28756 0.28756-0.76118 0.28756h-1.8776v7.8147q-0.18606 0.0507-0.59203 0.10149-0.38905 0.0507-0.77809 0.0507t-0.69352-0.0677q-0.28756-0.0507-0.49054-0.20298-0.20298-0.15224-0.30447-0.42288t-0.10149-0.71043v-6.563z"/>
   <path d="m40.048 279.46q-0.72735 0-1.1502-0.42288-0.42288-0.42287-0.42288-1.1502v-8.7451q0.18606-0.0338 0.59203-0.0846 0.40596-0.0677 0.77809-0.0677 0.38905 0 0.6766 0.0677 0.30447 0.0507 0.50745 0.20298 0.20298 0.15224 0.30447 0.42288t0.10149 0.71043v6.6814h3.8735q0.11841 0.18606 0.2199 0.50745 0.10149 0.30447 0.10149 0.64277 0 0.6766-0.28756 0.96416-0.28756 0.27064-0.76118 0.27064z"/>
   <path d="m46.767 278.04q0-0.71044 0.43979-1.1841t1.201-0.47362 1.201 0.47362 0.43979 1.1841q0 0.71043-0.43979 1.184t-1.201 0.47362-1.201-0.47362-0.43979-1.184z"/>
   <path d="m60.811 279.06q-0.23681 0.23681-0.69352 0.35521-0.43979 0.13532-1.0656 0.13532-0.62586 0-1.1841-0.18606-0.5582-0.18607-0.91341-0.8965l-1.6746-3.4168q-0.25372-0.52436-0.45671-0.98107-0.20298-0.47362-0.43979-1.0826l-0.10149 0.0169q0.06766 0.91342 0.06766 1.8607 0.01692 0.94724 0.01692 1.8606v2.6218q-0.18606 0.0507-0.57511 0.10149-0.37213 0.0507-0.74426 0.0507t-0.65969-0.0507-0.47362-0.20298q-0.18606-0.15223-0.28756-0.40596-0.10149-0.27064-0.10149-0.69351v-8.4575q0.23681-0.33831 0.72735-0.50746t1.0487-0.16915q0.62586 0 1.1841 0.20298 0.57511 0.18607 0.91341 0.87959l1.6915 3.4168q0.25372 0.52437 0.45671 0.99799 0.20298 0.45671 0.43979 1.0656l0.08458-0.0169q-0.06766-0.91341-0.08458-1.8268-0.01691-0.91341-0.01691-1.8268v-2.7402q0.18606-0.0507 0.5582-0.10149 0.38905-0.0507 0.76118-0.0507 0.74426 0 1.1333 0.27064 0.38905 0.25373 0.38905 1.0826z"/>
   <path d="m63.022 270.74q0-0.72735 0.42288-1.1502 0.42288-0.42288 1.1502-0.42288h5.582q0.1184 0.18606 0.20298 0.49054 0.10149 0.30447 0.10149 0.64277 0 0.64277-0.28756 0.91341-0.27064 0.27064-0.72735 0.27064h-3.5691v1.5731h3.8059q0.1184 0.18606 0.20298 0.49054 0.10149 0.28755 0.10149 0.62585 0 0.64277-0.27064 0.91341t-0.72735 0.27064h-3.1124v1.7761h4.3472q0.1184 0.18607 0.20298 0.49054 0.10149 0.30447 0.10149 0.64277 0 0.64277-0.28756 0.93033-0.27064 0.27064-0.72735 0.27064h-4.9392q-0.72735 0-1.1502-0.42288-0.42288-0.42287-0.42288-1.1502z"/>
   <path d="m71.831 271.53q-0.11841-0.18607-0.2199-0.50746-0.10149-0.32138-0.10149-0.6766 0-0.65968 0.28756-0.94724 0.30447-0.28756 0.77809-0.28756h7.375q0.11841 0.18607 0.2199 0.50746 0.10149 0.32138 0.10149 0.6766 0 0.65968-0.30447 0.94724-0.28756 0.28756-0.76118 0.28756h-1.8776v7.8147q-0.18606 0.0507-0.59203 0.10149-0.38905 0.0507-0.77809 0.0507t-0.69352-0.0677q-0.28756-0.0507-0.49054-0.20298-0.20298-0.15224-0.30447-0.42288t-0.10149-0.71043v-6.563z"/>
  </g>
 </g>
</svg>
