<svg width="636" height="300" viewBox="0 0 636 300" fill="none" xmlns="http://www.w3.org/2000/svg">
<path d="M506 230.19C409.67 257.18 239.74 271.57 183.6 245.93C112.24 213.33 213.73 179.15 281.11 191.9C338.59 202.77 374.56 200.67 417.9 194.85C511.59 182.24 577.99 210.02 506 230.19Z" fill="url(#paint0_linear)"/>
<path d="M238.64 100.42H235.08V243.48H238.64V100.42Z" fill="#BBB8B4"/>
<path d="M295.9 100.34H292.34V243.48H295.9V100.34Z" fill="#BBB8B4"/>
<path d="M353.16 77.4901H349.6V243.49H353.16V77.4901Z" fill="#BBB8B4"/>
<path d="M410.42 109.62H406.86V243.48H410.42V109.62Z" fill="#BBB8B4"/>
<path d="M410.29 208.59H235.08V243.48H410.29V208.59Z" fill="#9C9894"/>
<path d="M410.29 208.59L453.37 203.06V237.48L410.29 243.48V208.59Z" fill="#B3AFAB"/>
<path d="M362.12 120.49H236.82V124.05H362.12V120.49Z" fill="#BBB8B4"/>
<path d="M408.05 149.51H236.82V153.07H408.05V149.51Z" fill="#BBB8B4"/>
<path d="M408.93 178.52H236.82V182.08H408.93V178.52Z" fill="#BBB8B4"/>
<path d="M524.35 219L517.33 226.88C515.45 228.97 512.23 229.13 510.14 227.25C508.05 225.37 507.89 222.15 509.77 220.06L518.41 210.56L524.35 219Z" fill="#8A6FE8"/>
<path d="M545.31 233.72L509.47 242.88C508.45 243.14 507.4 242.52 507.14 241.5L503.33 226.58C503.07 225.56 503.69 224.51 504.71 224.25L540.55 215.09C541.57 214.83 542.62 215.45 542.88 216.47L546.69 231.39C546.96 232.42 546.34 233.46 545.31 233.72Z" fill="#4A4844"/>
<path d="M492.27 239.93L513.19 234.58C513.91 234.4 514.65 234.83 514.83 235.55C515.01 236.27 514.58 237.01 513.86 237.19L492.94 242.54C492.22 242.72 491.48 242.29 491.3 241.57C491.12 240.85 491.55 240.12 492.27 239.93Z" fill="#4A4844"/>
<path d="M508.17 232.89L503.72 234.03C503.2 234.16 502.67 233.85 502.54 233.33L501.55 229.47C501.42 228.95 501.73 228.42 502.25 228.29L506.7 227.15C507.22 227.02 507.75 227.33 507.88 227.85L508.87 231.71C509 232.23 508.69 232.76 508.17 232.89Z" fill="#4A4844"/>
<path d="M430.74 235.65C430.64 226.67 431.92 208.44 441.19 193.17L450.25 198.67C441.84 212.52 441.21 228.68 441.4 235.73C441.42 236.32 435.99 236.84 430.74 235.65Z" fill="url(#paint1_linear)"/>
<path d="M441.4 235.64L433.01 235.6L425.17 280.49L442.02 280.57C443.3 280.57 444.27 279.54 444.19 278.26L441.4 235.64Z" fill="#522CD5"/>
<path d="M407.21 268.68C405.75 269.83 405.78 271.49 405.89 273.25L406.24 278.63C406.3 279.59 407.14 280.38 408.11 280.39L425.67 280.47C426.76 280.47 427.59 279.59 427.51 278.5L427.39 272.93C427.26 270.9 427.94 270.16 429.51 268.25C432.2 264.99 440.14 247.21 439.39 235.63L430.75 235.59C430.16 242.46 421.09 257.73 407.21 268.68Z" fill="url(#paint2_linear)"/>
<path d="M405.89 273.25C405.81 272.02 405.79 270.85 406.27 269.85L428.17 269.95C427.57 270.84 427.31 271.62 427.39 272.92L427.51 278.49C427.58 279.58 426.75 280.46 425.67 280.46L408.11 280.38C407.15 280.38 406.31 279.59 406.24 278.62L405.89 273.25Z" fill="url(#paint3_radial)"/>
<path d="M472.86 242.36L483.57 241.03L477.54 192.56L466.82 193.89L472.86 242.36Z" fill="url(#paint4_linear)"/>
<path d="M482.8 235.28L474.31 235.24L471.96 280.63L489.01 280.71C490.31 280.71 491.16 279.67 490.92 278.37L482.8 235.28Z" fill="#522CD5"/>
<path d="M458.11 268.86C456.8 270.04 456.83 271.56 457.17 273.34L458.19 278.78C458.37 279.75 459.32 280.55 460.29 280.56L484.67 280.67C485.78 280.67 486.5 279.78 486.29 278.68L485.42 273.04C485.04 270.99 485.33 270.39 485.29 267.76C485.22 262.84 482.94 246.98 480.74 235.27L471.99 235.23C472.28 242.18 469.26 258.75 458.11 268.86Z" fill="url(#paint5_linear)"/>
<path d="M485.43 273.04L486.3 278.68C486.51 279.78 485.78 280.68 484.68 280.67L460.3 280.56C459.32 280.56 458.38 279.76 458.2 278.78L457.18 273.34C456.94 272.05 456.86 270.9 457.34 269.91L485.27 270.04C485.21 271.04 485.18 271.75 485.43 273.04Z" fill="url(#paint6_radial)"/>
<path d="M423.53 167.35L423.7 156.98C410.64 156.76 400.96 152.88 394.92 145.46C383.98 132 387.82 111.09 387.87 110.88L377.69 108.93C377.49 109.98 372.93 134.84 386.88 152C394.94 161.91 407.27 167.07 423.53 167.35Z" fill="#8A6FE8"/>
<path d="M407.36 163.36C406.03 148.59 410.28 137.69 410.28 137.69L406.95 137.14L406.88 137.06C415.96 111.88 441.99 95.9901 469.33 100.54C500.14 105.66 520.97 134.79 515.84 165.6C510.72 196.41 481.59 217.24 450.78 212.11C426.47 208.07 408.38 189.08 404.35 166.11C404.29 165.15 404.58 163.5 407.36 163.36Z" fill="url(#paint7_radial)"/>
<path d="M407.27 176.58L503.47 192.58C500.7 195.89 497.57 198.86 494.15 201.44L413.23 187.98C410.82 184.43 408.82 180.6 407.27 176.58Z" fill="#D8CFF7"/>
<path d="M535.34 215.34L537.02 225.76C537.45 228.54 535.54 231.14 532.76 231.57C529.98 232 527.38 230.09 526.95 227.31L525.23 216.63L535.34 215.34Z" fill="#8A6FE8"/>
<path d="M528.58 216.51L529.99 226.97C530.35 229.76 528.37 232.31 525.58 232.67C522.79 233.03 520.24 231.05 519.88 228.26L518.43 217.54L528.58 216.51Z" fill="#8A6FE8"/>
<path d="M537.96 212.22L541.74 222.07C542.73 224.7 541.39 227.64 538.76 228.63C536.13 229.62 533.19 228.28 532.2 225.65L528.33 215.55L537.96 212.22Z" fill="#8A6FE8"/>
<path d="M530.94 216.52C535.14 207.93 537.6 193.25 530.67 180.12C526.46 172.15 517.24 162.04 497.19 159.14L495.55 169.24C507.72 171 517.66 177.39 521.95 185.51C526.59 194.31 525.6 205.2 522.31 211.91L530.94 216.52Z" fill="url(#paint8_linear)"/>
<path d="M493.33 173.4C499.07 173.4 503.72 168.75 503.72 163.01C503.72 157.27 499.07 152.62 493.33 152.62C487.59 152.62 482.94 157.27 482.94 163.01C482.94 168.75 487.59 173.4 493.33 173.4Z" fill="url(#paint9_radial)"/>
<path d="M528.03 222.08C533.91 222.08 538.69 217.31 538.69 211.42C538.69 205.53 533.92 200.76 528.03 200.76C522.14 200.76 517.37 205.53 517.37 211.42C517.37 217.31 522.14 222.08 528.03 222.08Z" fill="url(#paint10_radial)"/>
<path d="M407.36 163.36C406.04 148.78 410.18 137.97 410.28 137.7L468.16 147.32C468.16 147.32 471.87 147.56 471.31 150.89C470.76 154.22 469.06 163.61 467.32 174.02C466.97 176.16 465.04 176.9 463.66 176.67C463.67 176.67 413.18 168.27 407.36 163.36Z" fill="url(#paint11_radial)"/>
<path d="M442.22 169.18C442.22 169.18 434.49 160.65 432.97 159.06C431.45 157.47 429.94 157.14 428.12 158.25C426.3 159.36 416.23 164.85 416.23 164.85L442.22 169.18Z" fill="#A08BE8"/>
<path d="M404.47 166.79C404.47 166.79 403.42 163.56 407.36 163.36C407.36 163.34 464.27 172.78 464.27 172.78C465.6 173 467.43 172.49 467.79 171.23C467.63 172.15 467.48 173.08 467.32 174.02C467 175.96 465.38 176.75 464.06 176.71C463.93 176.71 463.8 176.7 463.66 176.68L459.77 176.03L404.47 166.79Z" fill="#512BD4"/>
<path d="M420.31 151.97C420.92 147.91 419.46 144.32 417.04 143.95C414.63 143.59 412.17 146.58 411.56 150.64C410.95 154.7 412.41 158.29 414.82 158.66C417.24 159.03 419.69 156.03 420.31 151.97Z" fill="#512BD4"/>
<path d="M416.63 147.43C417.96 149.29 417.53 151.87 415.67 153.2C414.4 154.11 412.78 154.19 411.47 153.56C411.38 152.64 411.41 151.66 411.56 150.64C411.86 148.65 412.61 146.92 413.57 145.71C414.75 145.8 415.88 146.39 416.63 147.43Z" fill="#8065E0"/>
<path d="M455.42 157.96C456.15 153.92 454.8 150.29 452.4 149.85C449.99 149.41 447.45 152.34 446.72 156.38C445.99 160.42 447.34 164.06 449.74 164.49C452.14 164.93 454.68 162.01 455.42 157.96Z" fill="#512BD4"/>
<path d="M451.71 153.51C453.04 155.37 452.61 157.95 450.75 159.28C449.48 160.18 447.88 160.27 446.57 159.65C446.47 158.63 446.5 157.53 446.71 156.38C447.04 154.54 447.75 152.95 448.65 151.78C449.83 151.88 450.97 152.47 451.71 153.51Z" fill="#8065E0"/>
<path d="M416.77 191.68L435.04 194.63L437.65 178.47L419.37 175.52L416.77 191.68Z" fill="#512BD4"/>
<path d="M420.93 186.16C420.81 186.14 420.71 186.08 420.64 185.99C420.57 185.89 420.54 185.79 420.56 185.67C420.58 185.55 420.64 185.46 420.74 185.39C420.84 185.32 420.95 185.29 421.07 185.32C421.2 185.34 421.29 185.4 421.36 185.5C421.43 185.6 421.46 185.7 421.44 185.82C421.42 185.93 421.36 186.03 421.26 186.1C421.17 186.15 421.05 186.18 420.93 186.16Z" fill="white"/>
<path d="M425.8 186.89L425.01 186.76L423.47 183.14C423.43 183.05 423.4 182.95 423.38 182.86H423.36C423.36 182.96 423.33 183.16 423.28 183.48L422.8 186.41L422.1 186.29L422.83 181.82L423.67 181.96L425.16 185.49C425.22 185.64 425.26 185.74 425.28 185.79H425.29C425.29 185.67 425.31 185.47 425.36 185.19L425.83 182.31L426.53 182.42L425.8 186.89Z" fill="white"/>
<path d="M429.2 187.45L426.75 187.05L427.48 182.58L429.83 182.96L429.73 183.59L428.11 183.32L427.9 184.59L429.4 184.84L429.3 185.47L427.8 185.22L427.58 186.54L429.3 186.82L429.2 187.45Z" fill="white"/>
<path d="M433.31 184.18L432.06 183.97L431.43 187.81L430.71 187.69L431.34 183.85L430.09 183.65L430.19 183.02L433.41 183.55L433.31 184.18Z" fill="white"/>
<path d="M474.02 97.1501L463.24 95.3601L466.6 84.5501L474.34 85.8301L474.02 97.1501Z" fill="#8577E5"/>
<path d="M471.33 86.8701C475.63 86.8701 479.11 83.3801 479.11 79.0901C479.11 74.7901 475.62 71.3101 471.33 71.3101C467.04 71.3101 463.55 74.8001 463.55 79.0901C463.55 83.3901 467.03 86.8701 471.33 86.8701Z" fill="#D8CFF7"/>
<path d="M477.01 104.6C477.5 104.68 477.96 104.32 477.98 103.83C478.26 98.6201 474.58 93.9201 469.31 93.0401C464.04 92.1601 459.04 95.4201 457.62 100.44C457.49 100.92 457.81 101.4 458.29 101.48L477.01 104.6Z" fill="url(#paint12_radial)"/>
<path d="M374.08 106.53L370.96 96.4501C370.15 93.7601 371.67 90.9201 374.36 90.1001C377.05 89.2801 379.89 90.8101 380.71 93.5001L383.91 103.84L374.08 106.53Z" fill="#8A6FE8"/>
<path d="M371.83 114.25L366.81 104.97C365.49 102.49 366.43 99.4101 368.91 98.0801C371.39 96.7601 374.47 97.7001 375.8 100.18L380.95 109.7L371.83 114.25Z" fill="#8A6FE8"/>
<path d="M380.16 108.5L377.11 84.9801C376.78 82.1901 378.77 79.6501 381.56 79.3301C384.35 79.0001 386.89 80.9901 387.21 83.7801L390.3 107.56L380.16 108.5Z" fill="#8A6FE8"/>
<path d="M381.23 110.84L392.12 93.9001C393.69 91.5701 396.86 90.9501 399.19 92.5301C401.52 94.1001 402.14 97.2701 400.56 99.6001L389.52 116.76L381.23 110.84Z" fill="#8A6FE8"/>
<path d="M382.18 122.88C388.06 122.88 392.84 118.11 392.84 112.22C392.84 106.33 388.07 101.56 382.18 101.56C376.29 101.56 371.52 106.33 371.52 112.22C371.52 118.11 376.29 122.88 382.18 122.88Z" fill="url(#paint13_radial)"/>
<path d="M498.42 113.85L495.91 123.43C495.54 124.85 493.95 125.57 492.63 124.9L467.4 112.09L498.42 113.85Z" fill="#605D5A"/>
<path d="M441.82 95.1201C426.42 93.6001 427.62 100.85 436.38 104.78C453.64 112.53 490.74 117.19 501.01 117.8C507.11 118.16 505.85 111.76 501.62 110.85C501.61 110.86 457.22 96.6401 441.82 95.1201Z" fill="#FCCF84"/>
<path d="M479.98 71.6901C454.09 65.3001 443.13 89.7201 441.49 95.9301C441.22 96.9501 441.68 98.0201 442.6 98.5301C445.75 100.27 454.02 104.27 469.08 107.93C483.55 111.44 495.2 112.87 500.06 113.36C501.46 113.5 502.72 112.5 502.89 111.1C503.89 102.94 506.16 78.1501 479.98 71.6901Z" fill="url(#paint14_linear)"/>
<path d="M449.92 89.3501C448.89 90.8001 449.64 92.8401 451.37 93.2801L453.05 93.7101C454.18 94.0001 455.37 93.5701 456.04 92.6201C459.37 87.9101 470.92 74.6001 493.34 78.1401C490.7 75.9201 487.39 74.0301 483.27 72.6401C465.35 70.8301 454.17 83.3701 449.92 89.3501Z" fill="#FCCF84"/>
<path d="M183.53 187.36L183.46 187.35C182.94 187.28 182.58 186.8 182.65 186.28L184.75 171.56C184.82 171.04 185.3 170.68 185.82 170.75L185.89 170.76C186.41 170.83 186.77 171.31 186.7 171.83L184.6 186.55C184.53 187.07 184.05 187.43 183.53 187.36Z" fill="#625F5B"/>
<path d="M184.68 173.19C184.84 173.39 184.9 173.66 184.81 173.92L183.27 178.3C183.13 178.69 182.7 178.9 182.31 178.76C181.92 178.62 181.71 178.19 181.85 177.8L183.39 173.42C183.53 173.03 183.96 172.82 184.35 172.96C184.48 173 184.6 173.09 184.68 173.19Z" fill="#70D6E0"/>
<path d="M162.31 161.92V155.65C162.31 154.97 163.25 154.78 163.51 155.41L166.14 161.68C166.31 162.09 166.01 162.54 165.56 162.54H162.93C162.59 162.54 162.31 162.26 162.31 161.92Z" fill="#1BA1B5"/>
<path d="M157.94 161.92V155.65C157.94 154.97 158.88 154.78 159.14 155.41L161.77 161.68C161.94 162.09 161.64 162.54 161.19 162.54H158.56C158.21 162.54 157.94 162.26 157.94 161.92Z" fill="#1BA1B5"/>
<path d="M163.81 173.29H167.07V190.76H163.81V173.29Z" fill="#1BA1B5"/>
<path d="M152.62 171.85L153.18 166C153.41 163.41 155.58 161.43 158.18 161.43L172.94 161.03C175.54 161.03 177.71 163.02 177.94 165.6L178.49 171.85C178.55 172.54 178.01 173.13 177.32 173.13H168.84C168.47 174.74 167.03 175.93 165.32 175.93C163.6 175.93 162.17 174.73 161.8 173.13H153.79C153.1 173.13 152.56 172.54 152.62 171.85Z" fill="#70D6E0"/>
<path d="M167.92 166.15H177.98L178.35 170.34H167.92C167.03 170.34 166.31 169.62 166.31 168.73V167.76C166.32 166.87 167.03 166.15 167.92 166.15Z" fill="#1BA1B5"/>
<path d="M178.01 166.5C177.14 166.5 176.43 167.21 176.43 168.09C176.43 168.97 177.14 169.68 178.02 169.68C178.11 169.68 178.2 169.67 178.29 169.65L178.01 166.5Z" fill="white"/>
<path d="M172.9 169.68C172.02 169.68 171.31 168.97 171.31 168.09C171.31 167.21 172.02 166.5 172.9 166.5C173.78 166.5 174.49 167.21 174.49 168.09C174.49 168.96 173.78 169.68 172.9 169.68Z" fill="white"/>
<path d="M176.51 209.07L154.6 208.18C152.04 208.18 150.04 205.99 150.26 203.44L152.39 180.1C152.45 179.38 153.05 178.83 153.78 178.83H177.4C178.08 178.83 178.65 179.35 178.71 180.03L180.85 204.33C181.07 206.87 179.06 209.07 176.51 209.07Z" fill="#1BA1B5"/>
<path d="M152.15 182.9L152.4 180.1C152.46 179.38 153.07 178.83 153.79 178.83H177.41C178.09 178.83 178.66 179.35 178.72 180.03L178.97 182.9H152.15Z" fill="#70D6E0"/>
<path d="M175.62 181.62C175.2 181.62 174.86 181.28 174.86 180.86C174.86 180.44 175.2 180.1 175.62 180.1C176.04 180.1 176.38 180.44 176.38 180.86C176.38 181.28 176.04 181.62 175.62 181.62Z" fill="white"/>
<path d="M172.83 181.62C172.41 181.62 172.07 181.28 172.07 180.86C172.07 180.44 172.41 180.1 172.83 180.1C173.25 180.1 173.59 180.44 173.59 180.86C173.59 181.28 173.25 181.62 172.83 181.62Z" fill="white"/>
<path d="M170.04 181.62C169.62 181.62 169.28 181.28 169.28 180.86C169.28 180.44 169.62 180.1 170.04 180.1C170.46 180.1 170.8 180.44 170.8 180.86C170.8 181.28 170.46 181.62 170.04 181.62Z" fill="white"/>
<path d="M181.84 180.23C182.47 180.68 182.58 181.57 182.07 182.14C181 183.35 179.21 184.94 176.74 185.79C173.29 186.98 169.64 186.39 165.89 184.05C165.25 183.65 165.08 182.8 165.52 182.19C165.92 181.64 166.68 181.48 167.26 181.84C170.33 183.75 173.23 184.25 175.9 183.33C177.84 182.66 179.26 181.39 180.12 180.42C180.56 179.93 181.3 179.84 181.84 180.23Z" fill="#70D6E0"/>
<path d="M182.38 177.11C184.13 176.74 186.03 174.25 186.2 173.75C186.37 173.25 187.45 172.97 187.58 174.99C187.68 176.54 187.05 179.22 183.75 179.3C182.54 179.33 182.38 177.11 182.38 177.11Z" fill="#70D6E0"/>
<path d="M185.17 178.96L182.49 176.95C181.92 176.52 181.1 176.64 180.68 177.21L178.45 180.18C178.02 180.75 178.14 181.57 178.71 181.99L181.39 184C181.96 184.43 182.78 184.31 183.2 183.74L185.43 180.77C185.86 180.2 185.74 179.39 185.17 178.96Z" fill="#9FE4EB"/>
<path d="M218.934 36.6335L209.511 28.4657L142.911 105.295L152.333 113.463L218.934 36.6335Z" fill="#CCCAC7"/>
<path d="M169.08 94.85L158.66 85.82C156.61 84.05 156.39 80.95 158.17 78.9L165.29 70.69C167.06 68.64 170.16 68.42 172.21 70.2L182.63 79.23C184.68 81 184.9 84.1 183.12 86.15L176 94.36C174.22 96.4 171.12 96.62 169.08 94.85Z" fill="#625F5B"/>
<path d="M180.631 89.2027L162.799 73.7447L79.6332 169.683L97.4654 185.141L180.631 89.2027Z" fill="#CC5444"/>
<path d="M198.4 195.1L197.89 168.53C197.88 167.86 197.62 167.23 197.17 166.74L176.17 143.97C175.65 143.4 174.95 143.07 174.13 143.09L139.97 143.6C139.08 143.61 138.26 144.06 137.76 144.79L124.85 163.77C124.54 164.22 124.38 164.75 124.38 165.3V185.8H122.29V213.89H196.18V197.83C197.47 197.57 198.43 196.44 198.4 195.1ZM173 148.54L192.48 169.66L192.79 185.78H153.8L153.13 148.83L173 148.54ZM129.83 166.13L141.47 149.01L147.69 148.92L148.36 185.79H129.83V166.13Z" fill="#625F5B"/>
<path d="M76.79 165.63L95 165.76C97.5 165.78 99.63 167.57 100.08 170.03L109.85 223.49H76.79V165.63Z" fill="#E86E58"/>
<path d="M211.1 191.35H194.7C193.56 191.35 192.45 191.75 191.56 192.47L180.68 201.37C179.63 202.23 179.01 203.52 179.01 204.89V209.15C179.01 210.78 177.69 212.1 176.06 212.1H147.75C145.67 212.1 143.78 210.9 142.89 209.02L133.06 188.26C132.34 186.75 130.82 185.78 129.15 185.78H76.79V219.57C76.79 221.73 78.54 223.48 80.7 223.48H237.47C239.65 223.48 241.42 221.71 241.42 219.53V205.54L213.99 192.2C213.13 191.66 212.13 191.35 211.1 191.35Z" fill="#E86E58"/>
<path d="M72.63 228.55H85.15C86.4 228.55 87.42 227.53 87.42 226.28V214.63C87.42 213.38 86.4 212.36 85.15 212.36H70.63C69.22 212.36 68.15 213.63 68.39 215.02L70.39 226.67C70.58 227.75 71.53 228.55 72.63 228.55Z" fill="#625F5B"/>
<path d="M244.54 228.55H232.02C230.77 228.55 229.75 227.53 229.75 226.28V214.63C229.75 213.38 230.77 212.36 232.02 212.36H246.54C247.95 212.36 249.02 213.63 248.78 215.02L246.78 226.67C246.6 227.75 245.65 228.55 244.54 228.55Z" fill="#625F5B"/>
<path d="M88.1799 179.96C90.5492 179.96 92.4699 178.039 92.4699 175.67C92.4699 173.301 90.5492 171.38 88.1799 171.38C85.8106 171.38 83.8899 173.301 83.8899 175.67C83.8899 178.039 85.8106 179.96 88.1799 179.96Z" fill="#FDC9B5"/>
<path d="M189.48 215.48H127.4V228.98H189.48V215.48Z" fill="#797672"/>
<path d="M203 245.57C215.056 245.57 224.83 235.796 224.83 223.74C224.83 211.684 215.056 201.91 203 201.91C190.944 201.91 181.17 211.684 181.17 223.74C181.17 235.796 190.944 245.57 203 245.57Z" fill="#625F5B"/>
<path d="M203 235.51C209.5 235.51 214.77 230.24 214.77 223.74C214.77 217.24 209.5 211.97 203 211.97C196.5 211.97 191.23 217.24 191.23 223.74C191.23 230.24 196.5 235.51 203 235.51Z" fill="white"/>
<path d="M203 228.28C205.507 228.28 207.54 226.247 207.54 223.74C207.54 221.233 205.507 219.2 203 219.2C200.493 219.2 198.46 221.233 198.46 223.74C198.46 226.247 200.493 228.28 203 228.28Z" fill="#B3AFAB"/>
<path d="M195.38 224.93C195.988 224.93 196.48 224.438 196.48 223.83C196.48 223.223 195.988 222.73 195.38 222.73C194.773 222.73 194.28 223.223 194.28 223.83C194.28 224.438 194.773 224.93 195.38 224.93Z" fill="#B3AFAB"/>
<path d="M210.65 224.93C211.258 224.93 211.75 224.438 211.75 223.83C211.75 223.223 211.258 222.73 210.65 222.73C210.043 222.73 209.55 223.223 209.55 223.83C209.55 224.438 210.043 224.93 210.65 224.93Z" fill="#B3AFAB"/>
<path d="M203.02 217.29C203.627 217.29 204.12 216.798 204.12 216.19C204.12 215.583 203.627 215.09 203.02 215.09C202.412 215.09 201.92 215.583 201.92 216.19C201.92 216.798 202.412 217.29 203.02 217.29Z" fill="#B3AFAB"/>
<path d="M203.02 232.56C203.627 232.56 204.12 232.068 204.12 231.46C204.12 230.853 203.627 230.36 203.02 230.36C202.412 230.36 201.92 230.853 201.92 231.46C201.92 232.068 202.412 232.56 203.02 232.56Z" fill="#B3AFAB"/>
<path d="M197.62 219.53C198.228 219.53 198.72 219.038 198.72 218.43C198.72 217.822 198.228 217.33 197.62 217.33C197.012 217.33 196.52 217.822 196.52 218.43C196.52 219.038 197.012 219.53 197.62 219.53Z" fill="#B3AFAB"/>
<path d="M208.42 230.33C209.028 230.33 209.52 229.838 209.52 229.23C209.52 228.622 209.028 228.13 208.42 228.13C207.813 228.13 207.32 228.622 207.32 229.23C207.32 229.838 207.813 230.33 208.42 230.33Z" fill="#B3AFAB"/>
<path d="M208.42 219.53C209.028 219.53 209.52 219.038 209.52 218.43C209.52 217.822 209.028 217.33 208.42 217.33C207.813 217.33 207.32 217.822 207.32 218.43C207.32 219.038 207.813 219.53 208.42 219.53Z" fill="#B3AFAB"/>
<path d="M197.62 230.33C198.228 230.33 198.72 229.838 198.72 229.23C198.72 228.622 198.228 228.13 197.62 228.13C197.012 228.13 196.52 228.622 196.52 229.23C196.52 229.838 197.012 230.33 197.62 230.33Z" fill="#B3AFAB"/>
<path d="M114.14 245.57C126.196 245.57 135.97 235.796 135.97 223.74C135.97 211.684 126.196 201.91 114.14 201.91C102.084 201.91 92.3101 211.684 92.3101 223.74C92.3101 235.796 102.084 245.57 114.14 245.57Z" fill="#625F5B"/>
<path d="M114.14 235.51C120.641 235.51 125.91 230.24 125.91 223.74C125.91 217.24 120.641 211.97 114.14 211.97C107.64 211.97 102.37 217.24 102.37 223.74C102.37 230.24 107.64 235.51 114.14 235.51Z" fill="white"/>
<path d="M114.14 228.28C116.647 228.28 118.68 226.247 118.68 223.74C118.68 221.233 116.647 219.2 114.14 219.2C111.633 219.2 109.6 221.233 109.6 223.74C109.6 226.247 111.633 228.28 114.14 228.28Z" fill="#B3AFAB"/>
<path d="M106.53 224.93C107.138 224.93 107.63 224.438 107.63 223.83C107.63 223.223 107.138 222.73 106.53 222.73C105.923 222.73 105.43 223.223 105.43 223.83C105.43 224.438 105.923 224.93 106.53 224.93Z" fill="#B3AFAB"/>
<path d="M121.79 224.93C122.398 224.93 122.89 224.438 122.89 223.83C122.89 223.223 122.398 222.73 121.79 222.73C121.183 222.73 120.69 223.223 120.69 223.83C120.69 224.438 121.183 224.93 121.79 224.93Z" fill="#B3AFAB"/>
<path d="M114.16 217.29C114.768 217.29 115.26 216.798 115.26 216.19C115.26 215.583 114.768 215.09 114.16 215.09C113.553 215.09 113.06 215.583 113.06 216.19C113.06 216.798 113.553 217.29 114.16 217.29Z" fill="#B3AFAB"/>
<path d="M114.16 232.56C114.768 232.56 115.26 232.068 115.26 231.46C115.26 230.853 114.768 230.36 114.16 230.36C113.553 230.36 113.06 230.853 113.06 231.46C113.06 232.068 113.553 232.56 114.16 232.56Z" fill="#B3AFAB"/>
<path d="M108.76 219.53C109.368 219.53 109.86 219.038 109.86 218.43C109.86 217.822 109.368 217.33 108.76 217.33C108.153 217.33 107.66 217.822 107.66 218.43C107.66 219.038 108.153 219.53 108.76 219.53Z" fill="#B3AFAB"/>
<path d="M119.56 230.33C120.168 230.33 120.66 229.838 120.66 229.23C120.66 228.622 120.168 228.13 119.56 228.13C118.953 228.13 118.46 228.622 118.46 229.23C118.46 229.838 118.953 230.33 119.56 230.33Z" fill="#B3AFAB"/>
<path d="M119.56 219.53C120.168 219.53 120.66 219.038 120.66 218.43C120.66 217.822 120.168 217.33 119.56 217.33C118.953 217.33 118.46 217.822 118.46 218.43C118.46 219.038 118.953 219.53 119.56 219.53Z" fill="#B3AFAB"/>
<path d="M108.76 230.33C109.368 230.33 109.86 229.838 109.86 229.23C109.86 228.622 109.368 228.13 108.76 228.13C108.153 228.13 107.66 228.622 107.66 229.23C107.66 229.838 108.153 230.33 108.76 230.33Z" fill="#B3AFAB"/>
<path d="M167.71 234.37H156.93C155.57 234.37 154.47 233.27 154.47 231.91V215.01C154.47 213.65 155.57 212.55 156.93 212.55H167.71C169.07 212.55 170.17 213.65 170.17 215.01V231.91C170.17 233.27 169.07 234.37 167.71 234.37Z" fill="#E86E58"/>
<path d="M234.32 55.4701L240.9 47.8801L209.96 21.0601L197.8 35.0801L221.32 55.4701H234.32Z" fill="#E86E58"/>
<path d="M319.71 26.37H242.28V66.1H319.71V26.37Z" fill="#F7B548"/>
<path d="M319.71 26.37H311.06V66.1H319.71V26.37Z" fill="#FFE5B9"/>
<path d="M211.77 39.29C214.299 39.29 216.35 37.2395 216.35 34.71C216.35 32.1805 214.299 30.13 211.77 30.13C209.24 30.13 207.19 32.1805 207.19 34.71C207.19 37.2395 209.24 39.29 211.77 39.29Z" fill="#FDC9B5"/>
<path d="M242.79 15.79H231.91V70.65H242.79V15.79Z" fill="#625F5B"/>
<path d="M305.19 66.1901H231.91V70.6501H305.19V66.1901Z" fill="#797672"/>
<defs>
<linearGradient id="paint0_linear" x1="347.331" y1="187.481" x2="348.53" y2="258.308" gradientUnits="userSpaceOnUse">
<stop stop-color="#B8D6F7"/>
<stop offset="1" stop-color="#E1EFF9"/>
</linearGradient>
<linearGradient id="paint1_linear" x1="444.264" y1="193.821" x2="435.279" y2="236.61" gradientUnits="userSpaceOnUse">
<stop offset="0.1342" stop-color="#522CD5"/>
<stop offset="0.53" stop-color="#8A6FE8"/>
</linearGradient>
<linearGradient id="paint2_linear" x1="438.847" y1="235.326" x2="412.153" y2="282.915" gradientUnits="userSpaceOnUse">
<stop stop-color="#522CD5"/>
<stop offset="0.4397" stop-color="#8A6FE8"/>
</linearGradient>
<radialGradient id="paint3_radial" cx="0" cy="0" r="1" gradientUnits="userSpaceOnUse" gradientTransform="translate(417.464 260.826) rotate(-179.739) scale(18.4992)">
<stop offset="0.034" stop-color="#522CD5"/>
<stop offset="0.9955" stop-color="#8A6FE8"/>
</radialGradient>
<linearGradient id="paint4_linear" x1="480.361" y1="193.165" x2="470.033" y2="241.761" gradientUnits="userSpaceOnUse">
<stop offset="0.1194" stop-color="#522CD5"/>
<stop offset="0.5181" stop-color="#8A6FE8"/>
</linearGradient>
<linearGradient id="paint5_linear" x1="488.568" y1="239.446" x2="465.42" y2="283.562" gradientUnits="userSpaceOnUse">
<stop stop-color="#522CD5"/>
<stop offset="0.4397" stop-color="#8A6FE8"/>
</linearGradient>
<radialGradient id="paint6_radial" cx="0" cy="0" r="1" gradientUnits="userSpaceOnUse" gradientTransform="translate(470.626 260.883) rotate(-179.739) scale(20.1332 20.1119)">
<stop offset="0.034" stop-color="#522CD5"/>
<stop offset="0.9955" stop-color="#8A6FE8"/>
</radialGradient>
<radialGradient id="paint7_radial" cx="0" cy="0" r="1" gradientUnits="userSpaceOnUse" gradientTransform="translate(453.711 144.84) rotate(-170.561) scale(56.3233)">
<stop offset="0.4744" stop-color="#A08BE8"/>
<stop offset="0.8618" stop-color="#8065E0"/>
</radialGradient>
<linearGradient id="paint8_linear" x1="495.552" y1="187.833" x2="535.018" y2="187.833" gradientUnits="userSpaceOnUse">
<stop offset="0.2296" stop-color="#9780E6"/>
<stop offset="0.9374" stop-color="#8A6FE8"/>
</linearGradient>
<radialGradient id="paint9_radial" cx="0" cy="0" r="1" gradientUnits="userSpaceOnUse" gradientTransform="translate(493.668 159.432) rotate(180) scale(10.3873)">
<stop stop-color="#8065E0"/>
<stop offset="1" stop-color="#512BD4"/>
</radialGradient>
<radialGradient id="paint10_radial" cx="0" cy="0" r="1" gradientUnits="userSpaceOnUse" gradientTransform="translate(528.596 203.468) rotate(180) scale(20.7122)">
<stop stop-color="#8065E0"/>
<stop offset="1" stop-color="#512BD4"/>
</radialGradient>
<radialGradient id="paint11_radial" cx="0" cy="0" r="1" gradientUnits="userSpaceOnUse" gradientTransform="translate(414.154 134.74) rotate(-170.561) scale(43.8752)">
<stop offset="0.0933" stop-color="#E1DFDD"/>
<stop offset="0.8998" stop-color="white"/>
</radialGradient>
<radialGradient id="paint12_radial" cx="0" cy="0" r="1" gradientUnits="userSpaceOnUse" gradientTransform="translate(468.768 96.0488) rotate(9.4389) scale(8.13209)">
<stop stop-color="#8065E0"/>
<stop offset="1" stop-color="#512BD4"/>
</radialGradient>
<radialGradient id="paint13_radial" cx="0" cy="0" r="1" gradientUnits="userSpaceOnUse" gradientTransform="translate(382.065 107.198) scale(15.9795)">
<stop stop-color="#8065E0"/>
<stop offset="1" stop-color="#512BD4"/>
</radialGradient>
<linearGradient id="paint14_linear" x1="471.033" y1="70.7141" x2="473.237" y2="114.817" gradientUnits="userSpaceOnUse">
<stop offset="0.5634" stop-color="#F7B548"/>
<stop offset="1" stop-color="#FCCF84"/>
</linearGradient>
</defs>
</svg>
