<?xml version="1.0" encoding="utf-8"?>
<svg width="636" height="300" viewBox="0 0 636 300" fill="none" xmlns="http://www.w3.org/2000/svg">
  <defs>
    <radialGradient id="paint0_radial" cx="0" cy="0" r="1" gradientUnits="userSpaceOnUse" gradientTransform="matrix(-0.167607, -9.559378, -9.413836, 0.170198, 190.577715, 184.473075)">
      <stop stop-color="#8065E0"/>
      <stop offset="1" stop-color="#512BD4"/>
    </radialGradient>
    <linearGradient id="paint1_linear" x1="166.114" y1="95.0466" x2="159.824" y2="125.991" gradientUnits="userSpaceOnUse" gradientTransform="matrix(1.168231, 0, 0, -1.186293, -62.75226, 345.872485)">
      <stop offset="0.252" stop-color="#522CD5"/>
      <stop offset="0.5558" stop-color="#8A6FE8"/>
    </linearGradient>
    <linearGradient id="paint2_linear" x1="167.899" y1="125.879" x2="151.13" y2="159.423" gradientUnits="userSpaceOnUse" gradientTransform="matrix(1.168231, 0, 0, -1.186293, -49.225932, 423.40826)">
      <stop stop-color="#522CD5"/>
      <stop offset="0.4397" stop-color="#8A6FE8"/>
    </linearGradient>
    <radialGradient id="paint3_radial" cx="0" cy="0" r="1" gradientUnits="userSpaceOnUse" gradientTransform="matrix(-16.37216, 0.128837, 0.12642, 16.565729, 137.509541, 281.106744)">
      <stop offset="0.034" stop-color="#522CD5"/>
      <stop offset="0.9955" stop-color="#8A6FE8"/>
    </radialGradient>
    <linearGradient id="paint4_linear" x1="180.005" y1="92.9907" x2="186.998" y2="126.855" gradientUnits="userSpaceOnUse" gradientTransform="matrix(1.168231, 0, 0, -1.186293, -110.828322, 340.968319)">
      <stop offset="0.258" stop-color="#522CD5"/>
      <stop offset="0.5602" stop-color="#8A6FE8"/>
    </linearGradient>
    <linearGradient id="paint5_linear" x1="193.258" y1="124.702" x2="192.995" y2="158.621" gradientUnits="userSpaceOnUse" gradientTransform="matrix(1.168231, 0, 0, -1.186293, -141.159986, 418.816179)">
      <stop stop-color="#522CD5"/>
      <stop offset="0.4397" stop-color="#8A6FE8"/>
    </linearGradient>
    <radialGradient id="paint6_radial" cx="0" cy="0" r="1" gradientUnits="userSpaceOnUse" gradientTransform="matrix(17.949341, -0.141316, -0.138664, -18.161481, 88.882788, 278.947915)">
      <stop offset="0.034" stop-color="#522CD5"/>
      <stop offset="0.9955" stop-color="#8A6FE8"/>
    </radialGradient>
    <radialGradient id="paint7_radial" cx="0" cy="0" r="1" gradientUnits="userSpaceOnUse" gradientTransform="matrix(49.866834, 6.307396, 6.211366, -50.637791, 108.405925, 177.430324)">
      <stop offset="0.4744" stop-color="#A08BE8"/>
      <stop offset="0.8618" stop-color="#8065E0"/>
    </radialGradient>
    <radialGradient id="paint8_radial" cx="0" cy="0" r="1" gradientUnits="userSpaceOnUse" gradientTransform="matrix(51.678087, 6.536493, 6.436976, -52.477049, 111.727771, 181.45122)">
      <stop offset="0.0933" stop-color="#E1DFDD"/>
      <stop offset="0.6573" stop-color="white"/>
    </radialGradient>
    <linearGradient id="paint9_linear" x1="214.774" y1="62.3939" x2="220.243" y2="104.734" gradientUnits="userSpaceOnUse" gradientTransform="matrix(1.168231, 0, 0, -1.186293, -182.334343, 281.000364)">
      <stop offset="0.2495" stop-color="#967FE6"/>
      <stop offset="1" stop-color="#8A6FE8"/>
    </linearGradient>
    <radialGradient id="paint10_radial" cx="0" cy="0" r="1" gradientUnits="userSpaceOnUse" gradientTransform="matrix(-9.196925, -1.163249, -1.14554, 9.339112, 89.916109, 165.369195)">
      <stop stop-color="#8065E0"/>
      <stop offset="1" stop-color="#512BD4"/>
    </radialGradient>
    <radialGradient id="paint11_radial" cx="0" cy="0" r="1" gradientUnits="userSpaceOnUse" gradientTransform="matrix(-7.086637, -6.298241, -6.20235, 7.1962, 54.969087, 209.35275)">
      <stop stop-color="#8065E0"/>
      <stop offset="1" stop-color="#512BD4"/>
    </radialGradient>
  </defs>
  <path d="M 573.566 237.068 L 568.206 237.068 L 568.206 281.918 L 573.566 281.918 L 573.566 237.068 Z" fill="#A7A4A0"/>
  <path d="M 557.846 237.068 L 552.486 237.068 L 552.486 281.918 L 557.846 281.918 L 557.846 237.068 Z" fill="#A7A4A0"/>
  <path d="M 438.688 226.454 L 422.668 226.454 L 422.668 144.274 C 422.668 130.564 433.828 119.404 447.538 119.404 L 461.488 119.404 C 466.368 119.404 470.338 115.434 470.338 110.554 C 470.338 105.674 470.379 110.582 470.259 91.626 L 486.377 91.567 C 486.351 110.883 486.358 96.844 486.358 110.554 C 486.358 124.264 475.198 135.424 461.488 135.424 L 447.538 135.424 C 442.658 135.424 438.688 139.394 438.688 144.274 L 438.688 226.454 Z" fill="#CCCAC7"/>
  <path d="M 577.128 242.384 L 423.577 242.718 C 419.733 242.718 416.616 238.128 416.616 232.468 C 416.616 226.808 419.733 222.218 423.577 222.218 L 576.627 222.218 C 582.307 221.884 586.426 226.808 586.593 232.468 C 586.76 238.128 582.974 242.384 577.128 242.384 Z" fill="#797672" style=""/>
  <path d="M 237.417 218.088 L 236.481 219.499 L 279.066 247.083 L 316.805 222.598 L 389.288 270.852 L 390.238 269.455 L 316.816 220.572 L 279.066 245.071 L 237.417 218.088 Z" fill="#C8C6C4" style="" transform="matrix(-1, 0, 0, -1, 626.719009, 488.939987)"/>
  <path d="M 241.361 150.508 L 240.425 151.919 L 283.01 179.503 L 320.749 155.018 L 393.232 203.272 L 394.182 201.875 L 320.76 152.992 L 283.01 177.491 L 241.361 150.508 Z" fill="#C8C6C4" style="" transform="matrix(-1, 0, 0, -1, 634.60701, 353.779999)"/>
  <path d="M 352.387 91.972 L 336.367 91.972 L 336.367 174.152 C 336.367 187.862 347.527 199.022 361.237 199.022 L 375.187 199.022 C 380.067 199.022 384.037 202.992 384.037 207.872 C 384.037 212.752 384.078 207.844 383.958 226.8 L 400.076 226.859 C 400.05 207.543 400.057 221.582 400.057 207.872 C 400.057 194.162 388.897 183.002 375.187 183.002 L 361.237 183.002 C 356.357 183.002 352.387 179.032 352.387 174.152 L 352.387 91.972 Z" fill="#CCCAC7" transform="matrix(-1, 0, 0, -1, 736.442993, 318.830994)"/>
  <path d="M 400.317 241.408 C 396.88 241.408 394.086 237.398 394.086 232.468 C 394.086 227.538 396.88 223.528 400.317 223.528 L 558.428 223.713 C 561.864 223.713 566.688 227.538 566.688 232.468 C 566.688 237.398 562.417 241.039 558.981 241.039 L 400.317 241.408 Z" fill="#605D5A" style=""/>
  <path d="M 555.635 224.82 C 562.067 224.82 565.009 228.258 565.009 232.468 C 565.009 236.678 561.4 239.931 556.136 240.098 L 399.904 240.098 C 396.977 240.098 394.598 236.678 394.598 232.468 C 394.598 228.258 396.977 224.838 399.904 224.838 L 555.635 224.82 Z M 555.951 222.236 L 399.904 222.218 C 395.968 222.218 392.776 226.808 392.776 232.468 C 392.776 238.128 395.968 242.718 399.904 242.718 L 556.792 242.533 C 563.064 242.533 567.893 238.795 567.893 232.468 C 567.893 226.141 562.564 222.069 555.951 222.236 Z" fill="#A7A4A0" style=""/>
  <path d="M 403.556 237.268 C 406.152 237.268 408.256 235.164 408.256 232.568 C 408.256 229.972 406.152 227.868 403.556 227.868 C 400.96 227.868 398.856 229.972 398.856 232.568 C 398.856 235.164 400.96 237.268 403.556 237.268 Z" fill="#9C9894"/>
  <path d="M 441.566 237.268 C 444.162 237.268 446.266 235.164 446.266 232.568 C 446.266 229.972 444.162 227.868 441.566 227.868 C 438.97 227.868 436.866 229.972 436.866 232.568 C 436.866 235.164 438.97 237.268 441.566 237.268 Z" fill="#9C9894"/>
  <path d="M 479.576 237.268 C 482.172 237.268 484.276 235.164 484.276 232.568 C 484.276 229.972 482.172 227.868 479.576 227.868 C 476.98 227.868 474.876 229.972 474.876 232.568 C 474.876 235.164 476.98 237.268 479.576 237.268 Z" fill="#9C9894"/>
  <path d="M 517.586 237.268 C 520.181 237.268 522.286 235.164 522.286 232.568 C 522.286 229.972 520.181 227.868 517.586 227.868 C 514.99 227.868 512.886 229.972 512.886 232.568 C 512.886 235.164 514.99 237.268 517.586 237.268 Z" fill="#9C9894"/>
  <path d="M 555.596 237.268 C 558.192 237.268 560.296 235.164 560.296 232.568 C 560.296 229.972 558.192 227.868 555.596 227.868 C 553 227.868 550.896 229.972 550.896 232.568 C 550.896 235.164 553 237.268 555.596 237.268 Z" fill="#9C9894"/>
  <path d="M 483.256 195.808 L 450.286 195.808 L 450.286 221.948 L 483.256 221.948 L 483.256 195.808 Z" fill="#CEDB59"/>
  <path d="M 485.496 189.188 L 448.036 189.188 L 448.036 197.288 L 485.496 197.288 L 485.496 189.188 Z" fill="#BBCB37"/>
  <path d="M 466.786 207.388 L 469.896 201.248 L 473.306 201.248 L 468.356 210.358 L 468.356 216.168 L 465.216 216.168 L 465.216 210.468 L 460.266 201.258 L 463.696 201.258 L 466.786 207.388 Z" fill="#625F5B"/>
  <path d="M 545.366 195.808 L 512.396 195.808 L 512.396 221.948 L 545.366 221.948 L 545.366 195.808 Z" fill="#CEDB59"/>
  <path d="M 547.606 189.188 L 510.146 189.188 L 510.146 197.288 L 547.606 197.288 L 547.606 189.188 Z" fill="#BBCB37"/>
  <path d="M 605.463 203.726 L 572.493 203.726 L 572.493 229.866 L 605.463 229.866 L 605.463 203.726 Z" fill="#CEDB59" transform="matrix(0.754368, 0.656452, -0.656452, 0.754368, 286.988103, -333.383691)"/>
  <path d="M 617.971 200.943 L 580.511 200.943 L 580.511 209.043 L 617.971 209.043 L 617.971 200.943 Z" fill="#BBCB37" transform="matrix(0.754368, 0.656452, -0.656452, 0.754368, 281.760923, -343.020054)"/>
  <path d="M 589.101 215.357 L 592.211 209.217 L 595.621 209.217 L 590.671 218.327 L 590.671 224.137 L 587.531 224.137 L 587.531 218.437 L 582.581 209.227 L 586.011 209.227 L 589.101 215.357 Z" fill="#625F5B" transform="matrix(0.754368, 0.656452, -0.656452, 0.754368, 286.940192, -333.493656)"/>
  <path d="M 443.306 67.975 L 469.916 104.025 C 469.916 104.025 477.556 106.765 486.026 104.025 C 491.236 97.145 513.736 67.975 513.736 67.975 L 443.306 67.975 Z" fill="#B3AFAB"/>
  <path d="M 457.676 282.238 L 457.676 160.918 C 457.676 155.098 452.956 150.378 447.136 150.378 L 373.056 150.378 C 367.236 150.378 362.516 155.098 362.516 160.918 L 362.516 282.238 L 457.676 282.238 Z" fill="#1DACCC"/>
  <path d="M 478.526 70.965 C 497.977 70.965 513.746 69.626 513.746 67.975 C 513.746 66.324 497.977 64.985 478.526 64.985 C 459.075 64.985 443.306 66.324 443.306 67.975 C 443.306 69.626 459.075 70.965 478.526 70.965 Z" fill="#797673"/>
  <path d="M 478.159 70.738 C 485.394 70.738 491.259 64.873 491.259 57.638 C 491.259 50.403 485.394 44.538 478.159 44.538 C 470.924 44.538 465.059 50.403 465.059 57.638 C 465.059 64.873 470.924 70.738 478.159 70.738 Z" fill="#CEDB59"/>
  <path d="M 350.484 36.128 L 332.334 45.698 C 331.894 45.928 331.344 45.758 331.114 45.318 L 320.994 26.128 C 320.764 25.688 320.934 25.138 321.374 24.908 L 339.524 15.338 C 339.964 15.108 340.514 15.278 340.744 15.718 L 350.864 34.908 C 351.094 35.348 350.924 35.898 350.484 36.128 Z" fill="#F7B548" transform="matrix(0.951785, -0.306766, 0.306766, 0.951785, 6.834942, 104.523017)"/>
  <path d="M 472.889 26.028 L 457.079 42.128 C 456.079 43.148 454.359 42.728 453.929 41.368 L 446.919 19.178 C 446.469 17.758 447.769 16.398 449.209 16.778 L 472.029 22.878 C 473.429 23.248 473.909 24.998 472.889 26.028 Z" fill="#29C3E5"/>
  <path d="M 457.676 217.488 L 457.676 154.468 C 457.676 152.208 455.846 150.378 453.586 150.378 L 366.606 150.378 C 364.346 150.378 362.516 152.208 362.516 154.468 L 362.516 217.488 L 457.676 217.488 Z" fill="#0B7891"/>
  <path d="M 412.646 192.918 L 441.256 192.918 C 442.506 192.918 443.526 191.898 443.526 190.648 L 443.526 162.038 C 443.526 160.788 442.506 159.768 441.256 159.768 L 412.646 159.768 C 411.396 159.768 410.376 160.788 410.376 162.038 L 410.376 190.648 C 410.376 191.908 411.386 192.918 412.646 192.918 Z" fill="white"/>
  <path d="M 377.406 174.778 C 381.316 174.778 384.486 171.608 384.486 167.698 C 384.486 163.788 381.316 160.618 377.406 160.618 C 373.496 160.618 370.326 163.788 370.326 167.698 C 370.326 171.608 373.496 174.778 377.406 174.778 Z" fill="white"/>
  <path d="M 397.426 174.778 C 401.336 174.778 404.506 171.608 404.506 167.698 C 404.506 163.788 401.336 160.618 397.426 160.618 C 393.516 160.618 390.346 163.788 390.346 167.698 C 390.346 171.608 393.516 174.778 397.426 174.778 Z" fill="white"/>
  <path d="M 404.506 186.328 L 397.426 186.328 L 397.426 189.678 L 404.506 189.678 L 404.506 186.328 Z" fill="#CEDB59"/>
  <path d="M 391.496 186.328 L 384.416 186.328 L 384.416 189.678 L 391.496 189.678 L 391.496 186.328 Z" fill="#29C3E5"/>
  <path d="M 378.486 186.328 L 371.406 186.328 L 371.406 189.678 L 378.486 189.678 L 378.486 186.328 Z" style="fill: rgb(255, 47, 0);"/>
  <path d="M 443.516 173.778 L 437.726 173.778 L 435.636 168.478 L 429.506 168.388 L 426.336 162.538 L 422.166 175.388 L 418.956 169.308 L 415.896 173.778 L 410.376 173.778 L 410.376 175.778 L 416.956 175.778 L 418.736 173.178 L 422.606 180.508 L 426.796 167.588 L 428.296 170.368 L 434.266 170.458 L 436.366 175.778 L 443.516 175.778 L 443.516 173.778 Z" fill="#CCCAC7"/>
  <path d="M 410.376 183.718 L 410.376 190.648 C 410.376 191.898 411.396 192.918 412.646 192.918 L 441.256 192.918 C 442.506 192.918 443.526 191.898 443.526 190.648 L 443.526 183.718 L 410.376 183.718 Z" fill="#CCCAC7"/>
  <path d="M 397.426 174.778 C 401.336 174.778 404.506 171.608 404.506 167.698 L 390.356 167.698 C 390.356 171.608 393.516 174.778 397.426 174.778 Z" fill="#D5D3D0"/>
  <path d="M 377.406 174.778 C 381.316 174.778 384.486 171.608 384.486 167.698 L 370.336 167.698 C 370.336 171.608 373.496 174.778 377.406 174.778 Z" fill="#D5D3D0"/>
  <path d="M 377.736 169.728 C 377.356 169.728 376.986 169.508 376.816 169.128 L 374.346 163.538 C 374.126 163.028 374.356 162.438 374.856 162.218 C 375.366 161.998 375.956 162.218 376.176 162.728 L 378.646 168.318 C 378.866 168.828 378.636 169.418 378.136 169.638 C 378.006 169.698 377.866 169.728 377.736 169.728 Z" fill="#B3AFAB"/>
  <path d="M 397.246 169.778 C 397.026 169.778 396.796 169.698 396.606 169.548 C 396.176 169.198 396.116 168.568 396.476 168.138 L 400.476 163.298 C 400.826 162.878 401.456 162.818 401.886 163.168 C 402.316 163.518 402.376 164.148 402.016 164.578 L 398.016 169.418 C 397.816 169.648 397.526 169.778 397.246 169.778 Z" fill="#B3AFAB"/>
  <path d="M 309.865 68.157 L 336.475 104.207 C 336.475 104.207 344.115 106.947 352.585 104.207 C 357.795 97.327 380.295 68.157 380.295 68.157 L 309.865 68.157 Z" fill="#B3AFAB"/>
  <path d="M 345.085 71.147 C 364.536 71.147 380.305 69.808 380.305 68.157 C 380.305 66.506 364.536 65.167 345.085 65.167 C 325.634 65.167 309.865 66.506 309.865 68.157 C 309.865 69.808 325.634 71.147 345.085 71.147 Z" fill="#797673"/>
  <path d="M 329.445 70.837 C 334.155 71.037 339.455 71.147 345.075 71.147 C 349.055 71.147 352.855 71.087 356.425 70.987 L 358.395 65.147 L 348.615 54.047 L 334.115 56.967 L 329.445 70.837 Z" fill="#CEDB59"/>
  <path d="M 470.419 61.198 L 471.329 58.198 L 476.889 56.738 L 473.069 52.438 L 473.919 49.618 L 479.069 55.668 L 486.239 53.638 L 485.359 56.538 L 480.089 57.858 L 483.759 61.828 L 482.899 64.658 L 477.929 58.908 L 470.419 61.198 Z" fill="#625F5B"/>
  <path d="M 467.049 28.778 L 465.109 30.738 L 460.179 29.598 L 461.389 34.518 L 459.569 36.358 L 458.039 29.538 L 451.619 28.178 L 453.489 26.278 L 458.129 27.408 L 456.899 22.808 L 458.729 20.958 L 460.239 27.478 L 467.049 28.778 Z" fill="#625F5B"/>
  <path d="M 332.691 40.132 L 331.011 36.932 L 334.391 31.232 L 327.781 30.792 L 326.201 27.792 L 335.311 28.592 L 339.551 21.132 L 341.171 24.222 L 337.921 29.562 L 344.141 29.852 L 345.731 32.872 L 337.001 32.172 L 332.691 40.132 Z" fill="#625F5B" transform="matrix(0.951785, -0.306766, 0.306766, 0.951785, 6.801754, 104.53986)"/>
  <path d="M 345.255 59.027 L 343.385 64.397 L 339.555 60.157 L 336.425 60.777 L 341.855 66.427 L 339.995 71.137 C 340.895 71.147 341.805 71.157 342.725 71.167 L 343.925 67.927 L 346.925 71.167 C 348.195 71.157 349.455 71.157 350.675 71.137 L 345.425 65.887 L 348.305 58.427 L 345.255 59.027 Z" fill="#625F5B"/>
  <path d="M 372.633 233.528 L 448.1 233.528 C 453.211 233.528 453.677 233.059 453.677 227.952 L 453.677 205.587 C 453.677 201.582 451.374 200.378 447.549 200.378 L 372.633 200.378 C 367.89 200.378 366.689 201.214 366.689 205.77 L 366.689 228.319 C 366.689 232.508 367.89 233.528 372.633 233.528 Z" fill="#F7B548" style=""/>
  <path d="M 383.282 216.224 C 383.282 218.555 382.882 220.346 382.083 221.595 C 381.287 222.85 380.145 223.478 378.656 223.478 C 377.172 223.478 376.031 222.85 375.236 221.595 C 374.436 220.346 374.036 218.55 374.036 216.206 C 374.036 213.863 374.436 212.073 375.236 210.835 C 376.036 209.604 377.182 208.989 378.675 208.989 C 380.163 208.989 381.303 209.61 382.095 210.853 C 382.887 212.096 383.282 213.887 383.282 216.224 Z M 376.195 216.224 C 376.195 217.794 376.4 218.978 376.811 219.775 C 377.225 220.572 377.84 220.971 378.656 220.971 C 380.3 220.971 381.123 219.389 381.123 216.224 C 381.123 213.054 380.307 211.469 378.675 211.469 C 377.855 211.469 377.237 211.868 376.823 212.664 C 376.405 213.467 376.195 214.654 376.195 216.224 Z M 387.343 211.647 L 387.343 215.832 L 388.02 215.832 C 388.651 215.832 389.125 215.651 389.441 215.287 C 389.756 214.924 389.914 214.395 389.914 213.699 C 389.914 213.003 389.781 212.489 389.514 212.156 C 389.252 211.817 388.84 211.647 388.278 211.647 L 387.343 211.647 Z M 391.987 213.592 C 391.987 215.109 391.661 216.269 391.009 217.072 C 390.357 217.875 389.43 218.276 388.229 218.276 L 387.343 218.276 L 387.343 223.281 L 385.288 223.281 L 385.288 209.203 L 388.383 209.203 C 389.564 209.203 390.46 209.571 391.071 210.309 C 391.682 211.041 391.987 212.135 391.987 213.592 Z M 399.407 220.819 L 399.407 223.281 L 393.821 223.281 L 393.821 209.203 L 399.407 209.203 L 399.407 211.647 L 395.876 211.647 L 395.876 214.743 L 399.161 214.743 L 399.161 217.188 L 395.876 217.188 L 395.876 220.819 L 399.407 220.819 Z M 403.486 211.647 L 403.486 215.457 L 404.15 215.457 C 404.803 215.457 405.282 215.299 405.59 214.984 C 405.902 214.669 406.058 214.175 406.058 213.503 C 406.058 212.831 405.9 212.355 405.584 212.076 C 405.264 211.79 404.774 211.647 404.114 211.647 L 403.486 211.647 Z M 404.581 217.884 L 403.486 217.884 L 403.486 223.281 L 401.431 223.281 L 401.431 209.203 L 404.255 209.203 C 405.576 209.203 406.552 209.551 407.183 210.247 C 407.815 210.949 408.131 212.007 408.131 213.423 C 408.131 214.25 407.975 214.987 407.663 215.635 C 407.348 216.278 406.903 216.784 406.328 217.152 C 407.789 220.317 408.74 222.36 409.183 223.281 L 406.9 223.281 L 404.581 217.884 Z M 418.56 223.281 L 416.339 223.281 L 415.638 219.927 L 412.1 219.927 L 411.393 223.281 L 409.178 223.281 L 412.605 209.149 L 415.121 209.149 L 418.56 223.281 Z M 412.617 217.429 L 415.145 217.429 C 414.493 214.389 414.128 212.673 414.05 212.281 C 413.968 211.882 413.909 211.567 413.872 211.335 C 413.724 212.156 413.306 214.187 412.617 217.429 Z M 423.518 211.692 L 423.518 223.281 L 421.463 223.281 L 421.463 211.692 L 418.824 211.692 L 418.824 209.203 L 426.157 209.203 L 426.157 211.692 L 423.518 211.692 Z M 436.456 216.224 C 436.456 218.555 436.056 220.346 435.256 221.595 C 434.461 222.85 433.319 223.478 431.83 223.478 C 430.346 223.478 429.206 222.85 428.41 221.595 C 427.61 220.346 427.21 218.55 427.21 216.206 C 427.21 213.863 427.61 212.073 428.41 210.835 C 429.209 209.604 430.356 208.989 431.848 208.989 C 433.337 208.989 434.478 209.61 435.269 210.853 C 436.06 212.096 436.456 213.887 436.456 216.224 Z M 429.369 216.224 C 429.369 217.794 429.575 218.978 429.984 219.775 C 430.399 220.572 431.014 220.971 431.83 220.971 C 433.475 220.971 434.297 219.389 434.297 216.224 C 434.297 213.054 433.481 211.469 431.848 211.469 C 431.028 211.469 430.411 211.868 429.997 212.664 C 429.578 213.467 429.369 214.654 429.369 216.224 Z M 440.517 211.647 L 440.517 215.457 L 441.182 215.457 C 441.834 215.457 442.314 215.299 442.621 214.984 C 442.932 214.669 443.089 214.175 443.089 213.503 C 443.089 212.831 442.931 212.355 442.615 212.076 C 442.295 211.79 441.805 211.647 441.145 211.647 L 440.517 211.647 Z M 441.612 217.884 L 440.517 217.884 L 440.517 223.281 L 438.463 223.281 L 438.463 209.203 L 441.286 209.203 C 442.606 209.203 443.583 209.551 444.214 210.247 C 444.846 210.949 445.162 212.007 445.162 213.423 C 445.162 214.25 445.006 214.987 444.694 215.635 C 444.378 216.278 443.933 216.784 443.359 217.152 C 444.819 220.317 445.771 222.36 446.214 223.281 L 443.932 223.281 L 441.612 217.884 Z" style="fill: rgb(51, 51, 51); text-transform: uppercase; white-space: pre;"/>
  <path d="M 525.806 219.471 L 524.126 216.271 L 527.506 210.571 L 520.896 210.131 L 519.316 207.131 L 528.426 207.931 L 532.666 200.471 L 534.286 203.561 L 531.036 208.901 L 537.256 209.191 L 538.846 212.211 L 530.116 211.511 L 525.806 219.471 Z" fill="#625F5B" transform="matrix(0.478474, -0.878102, 0.878102, 0.478474, 91.553658, 574.092328)"/>
  <path d="M 258.03 253.494 L 258.03 232.151 L 276.14 244.243 L 276.02 265.545 L 258.03 253.494 Z" style="fill: rgb(237, 62, 62);" transform="matrix(-1, 0, 0, -1, 534.170013, 497.696014)"/>
  <path d="M 293.578 253.605 L 293.578 232.377 L 276.258 244.028 L 276.14 265.464 L 293.578 253.605 Z" style="fill: rgb(241, 114, 114);" transform="matrix(-1, 0, 0, -1, 569.718018, 497.840988)"/>
  <path d="M 288.778 250.969 L 288.778 241.657 C 288.778 241.554 288.746 241.462 288.698 241.381 C 288.648 241.299 288.577 241.228 288.497 241.177 C 288.416 241.125 288.317 241.106 288.224 241.116 C 288.127 241.116 288.035 241.147 287.954 241.207 L 280.358 246.319 C 280.288 246.371 280.229 246.43 280.189 246.512 C 280.147 246.593 280.129 246.675 280.129 246.767 L 280.077 256.171 C 280.077 256.274 280.108 256.367 280.147 256.448 C 280.199 256.529 280.271 256.601 280.348 256.652 C 280.429 256.704 280.528 256.722 280.629 256.714 C 280.729 256.714 280.82 256.673 280.901 256.622 L 288.557 251.417 C 288.627 251.368 288.687 251.307 288.727 251.225 C 288.757 251.143 288.778 251.062 288.778 250.969 Z" style="fill: rgb(237, 62, 62);" transform="matrix(-1, 0, 0, -1, 568.855011, 497.829254)"/>
  <path d="M 275.59 220.5 L 293.578 232.603 L 276.281 244.265 L 258.189 232.407 L 275.59 220.5 Z" style="fill: rgb(239, 123, 123);" transform="matrix(-1, 0, 0, -1, 551.766998, 464.764999)"/>
  <path d="M 292.806 251.195 C 292.904 251.102 292.975 250.98 293.026 250.858 C 293.075 250.733 293.095 250.592 293.085 250.458 C 293.075 250.325 293.046 250.192 292.986 250.069 C 292.926 249.947 292.835 249.844 292.735 249.752 L 288.195 246.789 C 287.936 246.667 287.643 246.635 287.372 246.707 C 287.103 246.778 286.853 246.952 286.691 247.196 C 286.602 247.289 286.521 247.412 286.473 247.534 C 286.42 247.657 286.402 247.8 286.413 247.933 C 286.42 248.066 286.451 248.199 286.513 248.322 C 286.572 248.444 286.662 248.548 286.761 248.64 L 291.302 251.602 C 291.563 251.725 291.852 251.757 292.123 251.684 C 292.394 251.613 292.634 251.44 292.806 251.195 Z" style="" transform="matrix(-1, 0, 0, -1, 579.497406, 498.391678)" fill="#A7CBF6"/>
  <path d="M 287.644 254.057 C 287.735 253.964 287.816 253.841 287.866 253.72 C 287.915 253.597 287.937 253.453 287.926 253.32 C 287.915 253.187 287.884 253.054 287.825 252.931 C 287.765 252.81 287.675 252.706 287.574 252.614 L 283.034 249.65 C 282.774 249.529 282.484 249.496 282.213 249.569 C 281.941 249.641 281.691 249.814 281.532 250.059 C 281.431 250.151 281.359 250.274 281.311 250.396 C 281.261 250.52 281.24 250.662 281.25 250.795 C 281.261 250.929 281.291 251.062 281.351 251.184 C 281.412 251.307 281.5 251.409 281.602 251.501 L 286.141 254.465 C 286.403 254.586 286.692 254.619 286.964 254.546 C 287.245 254.475 287.485 254.301 287.644 254.057 Z" fill="#A7CBF6" style="" transform="matrix(-1, 0, 0, -1, 569.176331, 504.115005)"/>
  <path d="M 201.933 193.045 L 193.1 195.499 C 190.051 184.194 184.607 176.649 176.932 173.056 C 163.017 166.542 145.962 174.551 145.786 174.633 L 141.885 166.223 C 142.737 165.819 163.005 156.318 180.762 164.621 C 191.008 169.412 198.136 178.976 201.933 193.045 Z" fill="#8A6FE8" style="" transform="matrix(-1, 0, 0, -1, 343.817993, 356.727905)"/>
  <path d="M 195.133 183.275 L 204.176 171.85 C 205.622 170.023 205.33 167.342 203.532 165.872 L 203.087 165.503 C 201.288 164.033 198.649 164.329 197.2 166.156 L 188.157 177.581 C 186.71 179.407 187.002 182.088 188.802 183.559 L 189.245 183.927 C 191.045 185.386 193.683 185.101 195.133 183.275 Z" fill="#8A6FE8" style="" transform="matrix(-1, 0, 0, -1, 392.332352, 349.425476)"/>
  <path d="M 209.204 189.268 L 200.642 185.53 C 198.35 184.546 195.712 185.637 194.754 187.962 C 193.785 190.286 194.86 192.968 197.147 193.939 L 205.934 197.772 L 209.204 189.268 Z" fill="#8A6FE8" style="" transform="matrix(-1, 0, 0, -1, 403.601501, 382.939926)"/>
  <path d="M 216.187 182.081 L 203.336 182.352 C 200.847 182.412 198.886 184.513 198.956 187.04 C 199.014 189.566 201.081 191.56 203.57 191.487 L 213.126 191.31 L 216.187 182.081 Z" fill="#8A6FE8" style="" transform="matrix(-1, 0, 0, -1, 415.141174, 373.569931)"/>
  <path d="M 210.891 173.876 L 198.425 177.115 C 196.018 177.733 194.559 180.222 195.165 182.666 C 195.772 185.111 198.225 186.594 200.632 185.976 L 213.331 182.679 L 210.891 173.876 Z" fill="#8A6FE8" style="" transform="matrix(-1, 0, 0, -1, 408.358856, 359.992203)"/>
  <path d="M 195.027 174.895 C 200.23 174.895 204.444 179.176 204.444 184.456 C 204.444 189.736 200.23 194.017 195.027 194.017 C 189.826 194.017 185.611 189.736 185.611 184.456 C 185.611 179.176 189.826 174.895 195.027 174.895 Z" fill="url(#paint0_radial)" style="" transform="matrix(-1, 0, 0, -1, 390.054993, 368.912003)"/>
  <path d="M 127.609 195.536 C 125.718 203.593 123.183 219.952 128.311 233.616 L 137.436 228.646 C 132.785 216.249 135.472 201.753 137.062 195.429 C 137.202 194.909 132.493 194.445 127.609 195.536 Z" fill="url(#paint1_linear)" style="" transform="matrix(-1, 0, 0, -1, 262.721085, 428.487198)"/>
  <path d="M 124.152 273.097 L 116.724 273.154 L 118.826 232.903 L 120.089 233.118 L 131.782 240.484 C 133.125 241.184 133.301 242.275 132.961 243.427 L 124.152 273.097 Z" fill="#522CD5" style="" transform="matrix(-1, 0, 0, -1, 249.834946, 506.056992)"/>
  <path d="M 126.979 243.509 C 125.928 242.49 126.277 240.994 126.733 239.417 L 128.125 234.588 C 128.369 233.723 129.268 233.011 130.122 233.011 L 145.658 232.892 C 146.628 232.882 147.178 233.674 146.897 234.648 L 145.67 239.654 C 145.144 241.468 145.6 242.134 146.606 243.841 C 148.324 246.761 151.77 262.691 148.78 273.072 L 141.125 273.131 C 142.002 266.962 137.062 253.297 126.979 243.509 Z" fill="url(#paint2_linear)" style="" transform="matrix(-1, 0, 0, -1, 276.247421, 506.022919)"/>
  <path d="M 129.71 270.082 C 129.394 271.186 129.138 272.242 129.36 273.131 L 148.74 272.977 C 148.391 272.182 148.321 271.482 148.646 270.32 L 149.874 265.313 C 150.154 264.328 149.606 263.546 148.637 263.558 L 133.099 263.675 C 132.245 263.688 131.345 264.4 131.101 265.255 L 129.71 270.082 Z" fill="url(#paint3_radial)" style="" transform="matrix(-1, 0, 0, -1, 279.223541, 536.688904)"/>
  <path d="M 119.536 192.97 C 117.889 201.024 113.241 217.395 102.071 231.192 L 95.109 226.353 C 105.238 213.836 108.916 199.339 110.098 193.018 C 110.201 192.484 115.12 191.948 119.536 192.97 Z" fill="url(#paint4_linear)" style="" transform="matrix(-1, 0, 0, -1, 214.645004, 423.583084)"/>
  <path d="M 104.601 238.313 C 104.367 239.393 104.005 240.33 103.2 241.907 C 91.962 261.148 89.205 270.854 89.205 270.854 L 79.741 270.924 C 79.741 270.924 81.226 261.422 78.421 242.275 C 78.166 240.913 78.387 239.667 78.561 238.515 L 79.905 232.371 C 80.104 231.444 81.026 230.674 81.938 230.674 L 82.394 230.674 L 104.215 230.507 L 104.671 230.507 C 105.594 230.497 106.167 231.255 105.969 232.182 L 104.601 238.313 Z" fill="url(#paint5_linear)" style="" transform="matrix(-1, 0, 0, -1, 184.313332, 501.430923)"/>
  <path d="M 104.458 269.085 C 104.425 269.265 104.377 269.429 104.331 269.596 C 104.167 270.129 103.781 270.734 102.625 270.747 L 79.285 270.924 C 78.455 270.901 78.315 270.249 78.324 269.833 C 78.348 269.656 78.385 269.466 78.407 269.286 L 79.751 263.142 C 79.88 262.562 80.288 262.051 80.79 261.742 C 81.093 261.552 81.445 261.445 81.783 261.445 L 82.239 261.445 L 104.063 261.281 L 104.517 261.281 C 104.973 261.281 105.346 261.458 105.58 261.766 C 105.814 262.075 105.908 262.489 105.802 262.953 L 104.458 269.085 Z" fill="url(#paint6_radial)" style="" transform="matrix(-1, 0, 0, -1, 184.168922, 532.205017)"/>
  <path d="M 78.77 139.805 C 73.875 152.284 74.75 162.854 74.75 162.854 L 71.759 162.473 L 71.68 162.521 C 73.057 186.734 91.282 207.256 115.826 210.353 C 143.478 213.852 168.687 193.922 172.135 165.832 C 175.581 137.739 155.955 112.151 128.292 108.652 C 106.468 105.887 86.175 117.727 76.889 136.636 C 76.598 137.455 76.422 138.962 78.77 139.805 Z" fill="url(#paint7_radial)" style="" transform="matrix(-1, 0, 0, -1, 244.207512, 319.004272)"/>
  <path d="M 75.809 188.156 L 162.27 199.095 C 160.741 195.499 158.813 192.12 156.545 188.988 L 83.788 179.781 C 80.845 182.251 78.159 185.049 75.809 188.156 Z" fill="#D8CFF7" style="" transform="matrix(-1, 0, 0, -1, 238.079002, 378.876007)"/>
  <path d="M 136.058 184.667 L 152.254 186.977 L 150.246 201.519 L 134.049 199.212 L 136.058 184.667 Z" fill="#512BD4" style="" transform="matrix(-1, 0, 0, -1, 286.302994, 386.186005)"/>
  <path d="M 138.252 194.291 C 138.146 194.304 138.054 194.28 137.957 194.22 C 137.874 194.163 137.813 194.079 137.798 193.972 C 137.782 193.867 137.803 193.77 137.872 193.689 C 137.939 193.607 138.02 193.559 138.123 193.535 C 138.23 193.522 138.337 193.548 138.419 193.607 C 138.503 193.666 138.566 193.76 138.579 193.855 C 138.594 193.962 138.575 194.056 138.505 194.138 C 138.449 194.22 138.368 194.267 138.252 194.291 Z" fill="white" style="" transform="matrix(0.959805, 0.27419, -0.287297, 0.959805, 61.265033, -30.095548)"/>
  <path d="M 143.046 194.371 L 142.344 194.465 L 140.013 191.785 C 139.952 191.713 139.904 191.643 139.853 191.572 L 139.842 191.572 C 139.868 191.653 139.91 191.844 139.952 192.115 L 140.393 194.738 L 139.774 194.82 L 139.105 190.815 L 139.852 190.708 L 142.112 193.33 C 142.209 193.437 142.27 193.522 142.293 193.557 L 142.305 193.557 C 142.268 193.45 142.227 193.273 142.185 193.026 L 141.756 190.45 L 142.376 190.366 L 143.046 194.371 Z" fill="white" style="" transform="matrix(0.959805, 0.27419, -0.287297, 0.959805, 61.001827, -30.940233)"/>
  <path d="M 146.067 194.941 L 143.894 195.248 L 143.227 191.243 L 145.306 190.948 L 145.405 191.514 L 143.967 191.715 L 144.153 192.849 L 145.485 192.661 L 145.583 193.229 L 144.252 193.417 L 144.45 194.599 L 145.981 194.385 L 146.067 194.941 Z" fill="white" style="" transform="matrix(0.959805, 0.27419, -0.287297, 0.959805, 61.290467, -31.899205)"/>
  <path d="M 148.607 191.768 L 147.497 191.922 L 148.068 195.361 L 147.424 195.455 L 146.853 192.017 L 145.744 192.171 L 145.644 191.604 L 148.507 191.203 L 148.607 191.768 Z" fill="white" style="" transform="matrix(0.959805, 0.27419, -0.287297, 0.959805, 61.456456, -32.569497)"/>
  <path d="M 115.59 149.977 C 110.754 162.304 111.548 172.754 111.571 173.016 L 163.524 179.587 C 163.524 179.587 166.758 180.334 167.132 177.296 C 167.506 174.261 168.429 165.673 169.597 156.181 C 169.831 154.235 168.381 153.086 167.144 152.932 C 167.132 152.932 117.156 148.033 115.59 149.977 Z" fill="url(#paint8_radial)" style="" transform="matrix(-1, 0, 0, -1, 281.131195, 329.189056)"/>
  <path d="M 157.878 171.212 C 157.878 171.212 149.105 176.622 147.399 177.616 C 145.694 178.603 144.326 178.496 143.041 177.072 C 141.768 175.635 134.548 168.269 134.548 168.269 L 157.878 171.212 Z" fill="#A08BE8" style="" transform="matrix(-1, 0, 0, -1, 292.42601, 346.533676)"/>
  <path d="M 112.025 170.456 C 112.025 170.456 110.19 173.043 113.508 174.23 C 113.508 174.241 164.583 180.731 164.583 180.731 C 165.774 180.885 167.211 181.799 167.199 182.986 C 167.305 182.143 167.4 181.301 167.503 180.434 C 167.725 178.667 166.545 177.563 165.4 177.255 C 165.284 177.232 165.169 177.195 165.05 177.185 L 161.558 176.746 L 112.025 170.456 Z" fill="#512BD4" style="" transform="matrix(-1, 0, 0, -1, 279.049011, 353.441986)"/>
  <path d="M 129.069 156.057 C 131.236 156.298 132.672 159.49 132.271 163.191 C 131.873 166.891 129.794 169.694 127.626 169.455 C 125.457 169.214 124.022 166.019 124.423 162.318 C 124.821 158.621 126.9 155.817 129.069 156.057 Z" fill="#512BD4" style="" transform="matrix(-1, 0, 0, -1, 256.69397, 325.511902)"/>
  <path d="M 160.812 160.046 C 162.971 160.353 164.31 163.587 163.803 167.274 C 163.297 170.96 161.136 173.698 158.977 173.392 C 156.816 173.086 155.475 169.851 155.984 166.163 C 156.49 162.478 158.652 159.739 160.812 160.046 Z" fill="#512BD4" style="" transform="matrix(-1, 0, 0, -1, 319.786362, 333.437866)"/>
  <path d="M 130.913 165.321 C 130.014 166.033 128.892 166.26 127.865 166.021 C 127.397 164.775 127.196 163.211 127.373 161.526 C 127.491 160.482 127.735 159.51 128.087 158.655 C 129.369 158.453 130.713 158.939 131.567 160.056 C 132.804 161.693 132.513 164.052 130.913 165.321 Z" fill="#8065E0" style="" transform="matrix(-1, 0, 0, -1, 259.642601, 324.722946)"/>
  <path d="M 162.498 169.098 C 161.599 169.811 160.477 170.035 159.438 169.799 C 158.924 168.505 158.724 166.799 158.969 164.995 C 159.098 164.071 159.331 163.203 159.635 162.433 C 160.921 162.218 162.289 162.705 163.141 163.831 C 164.389 165.468 164.097 167.83 162.498 169.098 Z" fill="#8065E0" style="" transform="matrix(-1, 0, 0, -1, 322.780701, 332.27272)"/>
  <path d="M 90.04 158.733 C 90.191 159.587 93.58 179.955 82.131 193.514 C 75.52 201.345 65.553 205.163 52.516 204.866 L 52.726 195.352 C 62.796 195.579 70.298 192.885 74.994 187.346 C 83.556 177.249 80.845 160.534 80.811 160.37 L 90.04 158.733 Z" fill="url(#paint9_linear)" style="" transform="matrix(-1, 0, 0, -1, 143.138977, 363.615082)"/>
  <path d="M 88.59 152.593 C 93.706 152.593 97.854 156.804 97.854 162 C 97.854 167.194 93.706 171.406 88.59 171.406 C 83.474 171.406 79.326 167.194 79.326 162 C 79.326 156.804 83.474 152.593 88.59 152.593 Z" fill="url(#paint10_radial)" style="" transform="matrix(-1, 0, 0, -1, 177.179993, 323.999008)"/>
  <path d="M 133.846 89.221 L 124.49 88.07 L 123.916 105.486 L 130.634 106.315 L 133.846 89.221 Z" fill="#8A6FE8" style="" transform="matrix(-1, 0, 0, -1, 257.761993, 194.385002)"/>
  <path d="M 129.536 82.673 C 133.053 82.197 136.3 84.689 136.803 88.224 C 137.305 91.77 134.852 95.022 131.336 95.495 C 127.819 95.969 124.572 93.48 124.068 89.944 C 123.566 86.398 126.019 83.147 129.536 82.673 Z" fill="#D8CFF7" style="" transform="matrix(-1, 0, 0, -1, 260.870995, 178.167603)"/>
  <path d="M 136.08 104.805 C 136.502 104.865 136.806 105.269 136.7 105.684 C 135.697 110.085 131.536 113.098 126.958 112.54 C 122.378 111.984 119.013 108.044 119.024 103.525 C 119.024 103.098 119.411 102.776 119.818 102.824 L 136.08 104.805 Z" fill="#522CD5" style="" transform="matrix(-1, 0, 0, -1, 255.745209, 215.425728)"/>
  <path d="M 58.38 206.7 L 67.888 217.718 C 69.407 219.488 72.058 219.665 73.799 218.11 L 74.231 217.731 C 75.973 216.189 76.149 213.495 74.617 211.728 L 65.109 200.708 C 63.59 198.941 60.939 198.764 59.197 200.316 L 58.766 200.698 C 57.024 202.237 56.848 204.931 58.38 206.7 Z" fill="#8A6FE8" style="" transform="matrix(-1, 0, 0, -1, 132.996998, 418.428238)"/>
  <path d="M 50.29 219.124 L 55.396 211.2 C 56.739 209.077 56.144 206.252 54.053 204.888 C 51.962 203.526 49.18 204.128 47.836 206.252 L 42.603 214.367 L 50.29 219.124 Z" fill="#8A6FE8" style="" transform="matrix(-1, 0, 0, -1, 98.716579, 423.284012)"/>
  <path d="M 56.156 227.25 L 58.117 214.342 C 58.491 211.853 56.798 209.526 54.345 209.147 C 51.891 208.769 49.601 210.487 49.226 212.979 L 47.742 222.566 L 56.156 227.25 Z" fill="#8A6FE8" style="" transform="matrix(-1, 0, 0, -1, 105.910767, 436.344864)"/>
  <path d="M 65.192 224.885 L 64.21 211.858 C 64.022 209.344 61.872 207.458 59.396 207.637 C 56.919 207.826 55.061 210.009 55.237 212.524 L 56.23 225.798 L 65.192 224.885 Z" fill="#8A6FE8" style="" transform="matrix(-1, 0, 0, -1, 120.417461, 433.423233)"/>
  <path d="M 57.246 196.817 C 62.447 196.817 66.662 201.098 66.662 206.378 C 66.662 211.658 62.447 215.94 57.246 215.94 C 52.046 215.94 47.829 211.658 47.829 206.378 C 47.829 201.098 52.046 196.817 57.246 196.817 Z" fill="url(#paint11_radial)" style="" transform="matrix(-1, 0, 0, -1, 114.491001, 412.757004)"/>
  <path d="M 120.361 122.604 L 165.092 128.146 L 165.204 143.044 L 125.516 138.31 L 120.361 122.604 Z" fill="#512BD4" style="" transform="matrix(-1, 0, 0, -1, 285.564995, 265.648003)"/>
  <path d="M 30.639 132.368 L 30.639 133.258 L 30.949 133.258 C 31.156 133.258 31.306 133.218 31.399 133.138 C 31.492 133.065 31.539 132.951 31.539 132.798 C 31.539 132.645 31.489 132.535 31.389 132.468 C 31.289 132.401 31.136 132.368 30.929 132.368 L 30.639 132.368 Z M 31.079 133.628 L 30.639 133.628 L 30.639 134.708 L 30.199 134.708 L 30.199 131.998 L 30.959 131.998 C 31.312 131.998 31.572 132.061 31.739 132.188 C 31.906 132.321 31.989 132.521 31.989 132.788 C 31.989 133.121 31.816 133.361 31.469 133.508 L 32.229 134.708 L 31.729 134.708 L 31.079 133.628 ZM 34.307 131.998 L 34.747 131.998 L 34.747 133.748 C 34.747 133.948 34.707 134.125 34.627 134.278 C 34.54 134.425 34.413 134.541 34.247 134.628 C 34.087 134.708 33.893 134.748 33.667 134.748 C 33.327 134.748 33.063 134.658 32.877 134.478 C 32.69 134.298 32.597 134.055 32.597 133.748 L 32.597 131.998 L 33.047 131.998 L 33.047 133.708 C 33.047 133.935 33.1 134.101 33.207 134.208 C 33.307 134.315 33.463 134.368 33.677 134.368 C 34.097 134.368 34.307 134.148 34.307 133.708 L 34.307 131.998 ZM 37.706 131.998 L 37.706 134.708 L 37.156 134.708 L 35.826 132.548 L 35.816 132.548 L 35.816 132.668 C 35.836 132.895 35.846 133.105 35.846 133.298 L 35.846 134.708 L 35.446 134.708 L 35.446 131.998 L 35.986 131.998 L 37.316 134.148 L 37.326 134.148 C 37.319 134.121 37.312 134.018 37.306 133.838 C 37.299 133.658 37.296 133.518 37.296 133.418 L 37.296 131.998 L 37.706 131.998 ZM 39.36 132.378 L 39.36 134.708 L 38.91 134.708 L 38.91 132.378 L 38.11 132.378 L 38.11 131.998 L 40.15 131.998 L 40.15 132.378 L 39.36 132.378 ZM 41.01 134.708 L 40.57 134.708 L 40.57 131.998 L 41.01 131.998 L 41.01 134.708 ZM 43.289 134.708 L 42.899 134.708 L 42.109 132.438 L 42.099 132.438 C 42.119 132.778 42.129 133.095 42.129 133.388 L 42.129 134.708 L 41.729 134.708 L 41.729 131.998 L 42.349 131.998 L 43.109 134.158 L 43.119 134.158 L 43.889 131.998 L 44.519 131.998 L 44.519 134.708 L 44.089 134.708 L 44.089 133.368 C 44.089 133.235 44.092 133.058 44.099 132.838 C 44.106 132.625 44.112 132.495 44.119 132.448 L 44.109 132.448 L 43.289 134.708 ZM 46.764 134.328 L 46.764 134.708 L 45.234 134.708 L 45.234 131.998 L 46.764 131.998 L 46.764 132.368 L 45.674 132.368 L 45.674 133.108 L 46.694 133.108 L 46.694 133.478 L 45.674 133.478 L 45.674 134.328 L 46.764 134.328 Z" transform="matrix(2.226210117340088, 0.27030301094055176, 0.3190400004386902, 2.5467638969421387, 13.378752708435059, -217.64581298828125)" style="fill: rgb(255, 255, 255); white-space: pre;"/>
  <path d="M 293.743 163.731 L 260.773 163.731 L 260.773 189.871 L 293.743 189.871 L 293.743 163.731 Z" fill="#CEDB59"/>
  <path d="M 295.983 157.111 L 258.523 157.111 L 258.523 165.211 L 295.983 165.211 L 295.983 157.111 Z" fill="#BBCB37"/>
  <path d="M 274.184 187.393 L 272.504 184.193 L 275.884 178.493 L 269.274 178.053 L 267.694 175.053 L 276.804 175.853 L 281.044 168.393 L 282.664 171.483 L 279.414 176.823 L 285.634 177.113 L 287.224 180.133 L 278.494 179.433 L 274.184 187.393 Z" fill="#625F5B" transform="matrix(0.478474, -0.878102, 0.878102, 0.478474, -11.506048, 336.413095)"/>
  <path d="M 249.663 136.427 L 216.693 136.427 L 216.693 162.567 L 249.663 162.567 L 249.663 136.427 Z" fill="#CEDB59"/>
  <path d="M 251.903 129.807 L 214.443 129.807 L 214.443 137.907 L 251.903 137.907 L 251.903 129.807 Z" fill="#BBCB37"/>
  <path d="M 233.193 148.007 L 236.303 141.867 L 239.713 141.867 L 234.763 150.977 L 234.763 156.787 L 231.623 156.787 L 231.623 151.087 L 226.673 141.877 L 230.103 141.877 L 233.193 148.007 Z" fill="#625F5B"/>
  <path d="M 352.086 171.433 L 319.116 171.433 L 319.116 197.573 L 352.086 197.573 L 352.086 171.433 Z" fill="#CEDB59"/>
  <path d="M 354.326 164.813 L 316.866 164.813 L 316.866 172.913 L 354.326 172.913 L 354.326 164.813 Z" fill="#BBCB37"/>
  <path d="M 335.616 183.013 L 338.726 176.873 L 342.136 176.873 L 337.186 185.983 L 337.186 191.793 L 334.046 191.793 L 334.046 186.093 L 329.096 176.883 L 332.526 176.883 L 335.616 183.013 Z" fill="#625F5B"/>
</svg>