<?xml version="1.0" encoding="iso-8859-1"?>
<!-- Generator: Adobe Illustrator 19.0.0, SVG Export Plug-In . SVG Version: 6.00 Build 0)  -->
<svg version="1.1" id="Layer_1" xmlns="http://www.w3.org/2000/svg" xmlns:xlink="http://www.w3.org/1999/xlink" x="0px" y="0px"
	 viewBox="0 0 512 512" style="enable-background:new 0 0 512 512;" xml:space="preserve">
<circle style="fill:#3689C9;" cx="408" cy="336.003" r="103.998"/>
<g>
	<path style="fill:#1B6FAB;" d="M392,332.159l-11.68,14.08c-4.596,5.48-12.272,7.245-18.8,4.32c0.984,2.224,2.461,4.194,4.32,5.76
		c6.789,5.656,16.877,4.739,22.535-2.049c0.008-0.01,0.017-0.021,0.026-0.03l3.6-4.48V332.159z"/>
	<path style="fill:#1B6FAB;" d="M468.319,333.76l-40-48c-1.23-1.389-2.691-2.552-4.32-3.44l36.24,43.44
		c5.525,6.896,4.414,16.966-2.482,22.491c-5.065,4.058-12.08,4.654-17.757,1.509l3.68,4.48c5.655,6.804,15.756,7.735,22.56,2.08
		C473.044,350.664,473.975,340.563,468.319,333.76L468.319,333.76z"/>
	<path style="fill:#1B6FAB;" d="M424,332.159v51.839c-0.019,8.837-7.197,15.985-16.033,15.966c-2.251-0.005-4.474-0.484-6.527-1.407
		c3.663,8.042,13.152,11.59,21.194,7.927c5.681-2.588,9.338-8.244,9.367-14.487v-50.24L424,332.159z"/>
</g>
<path style="fill:#FFFFFF;" d="M357.76,348.32c6.789,5.656,16.877,4.739,22.535-2.049c0.008-0.01,0.017-0.021,0.026-0.03
	l11.68-14.08V384c0,8.837,7.163,16,16,16c8.837,0,16-7.163,16-16V332.16l11.68,14.08c5.407,6.99,15.455,8.272,22.445,2.866
	c6.99-5.407,8.272-15.455,2.866-22.445c-0.239-0.309-0.489-0.609-0.751-0.9l-40.002-48.002c-5.665-6.782-15.755-7.688-22.537-2.023
	c-0.734,0.612-1.411,1.29-2.023,2.023l-40,48c-5.656,6.789-4.739,16.877,2.049,22.535C357.739,348.302,357.75,348.31,357.76,348.32z
	"/>
<path style="fill:#DDDFE1;" d="M382.879,341.439c-5.644-1.487-11.626-1.007-16.96,1.36c-3.989,1.689-8.491,1.689-12.48,0
	c1.462,3.512,4.167,6.361,7.6,8c7.04,3.032,15.238,0.966,20-5.04l2.96-3.999L382.879,341.439z"/>
<path style="fill:#1B6FAB;" d="M495.999,319.999c-8.837,0-16,7.163-16,16c0,39.765-32.236,71.999-71.999,71.999
	c-8.837,0-16,7.163-16,16c0,8.837,7.163,16,16,16c57.437,0,104-46.563,104-104C511.999,327.163,504.836,319.999,495.999,319.999z"/>
<path style="fill:#4C9FD7;" d="M320,351.999c8.837,0,16-7.163,16-16c0-39.765,32.236-71.999,71.999-71.999c8.837,0,16-7.163,16-16
	s-7.163-16-16-16c-57.437,0-104,46.563-104,104C304,344.836,311.163,351.999,320,351.999z"/>
<path style="fill:#DDDFE1;" d="M424,332.159c-4.418,0-8,3.582-8,8v51.839c-0.01,2.264-0.501,4.5-1.44,6.56
	c5.734-2.577,9.427-8.273,9.44-14.56V332.159L424,332.159z"/>
<path style="fill:#FFCB5B;" d="M273.04,319.199c9.302-74.533,77.263-127.413,151.795-118.11
	c27.515,3.434,53.322,15.196,73.964,33.71c3.358,2.873,8.408,2.479,11.279-0.879c1.222-1.428,1.902-3.242,1.921-5.121V96
	c0-13.255-10.745-24-24-24H22.64C10.137,72,0,82.136,0,94.639v322.72c0,12.503,10.136,22.64,22.64,22.64l0,0H300.8
	c4.418-0.044,7.964-3.66,7.921-8.079c-0.019-1.879-0.698-3.693-1.921-5.121C280.506,397.508,268.191,358.261,273.04,319.199z"/>
<path style="fill:#FFDB6F;" d="M503.999,108.56L280,234.719c-14.606,8.21-32.435,8.21-47.04,0L8,108.56
	c-4.97-2.869-8.023-8.181-8-13.92l0,0c0-12.503,10.136-22.64,22.64-22.64h466.72c12.503,0,22.64,10.136,22.64,22.64l0,0l0,0
	C512.022,100.378,508.97,105.69,503.999,108.56z"/>
<path style="fill:#F7B84E;" d="M511.999,95.2c-0.173,5.538-3.2,10.592-8,13.36L280,234.719c-14.606,8.21-32.435,8.21-47.04,0
	L8,108.56c-1.196-0.682-2.298-1.516-3.279-2.48c-0.817-0.825-1.541-1.737-2.16-2.72v-0.4c-1.466-2.416-2.266-5.175-2.32-8H0V96v16
	c-0.011,5.528,2.832,10.67,7.52,13.6l223.039,139.36l2.56,1.6c14.283,8.772,22.956,24.359,22.88,41.12v51.76
	c0,26.819-21.741,48.56-48.56,48.56H72.001c-17.674,0-32,14.327-32,32h260.8c4.418-0.044,7.964-3.66,7.921-8.079
	c-0.019-1.879-0.698-3.693-1.921-5.121c-49.896-56.144-44.83-142.105,11.314-191.999c51.525-45.791,129.161-45.791,180.686,0
	c3.358,2.873,8.408,2.479,11.279-0.879c1.222-1.428,1.902-3.242,1.921-5.121V96C511.999,96,511.999,95.52,511.999,95.2L511.999,95.2
	z"/>
<g>
	<path style="fill:#FFE278;" d="M211.92,177.039l-63.04-35.04c-7.733-4.276-10.535-14.011-6.259-21.744
		c2.862-5.176,8.346-8.351,14.259-8.256H160c4.418,0,8-3.582,8-8c0-4.418-3.582-8-8-8H64.001c-2.869-0.011-5.525,1.515-6.96,4
		c-2.143,3.864-0.749,8.733,3.114,10.877c0.002,0.001,0.004,0.002,0.006,0.003l144,80c3.543,2.639,8.556,1.905,11.194-1.639
		c2.639-3.543,1.905-8.556-1.639-11.194C213.162,177.634,212.559,177.296,211.92,177.039z"/>
	<path style="fill:#FFE278;" d="M192,96h48c4.418,0,8,3.582,8,8l0,0c0,4.418-3.582,8-8,8h-48c-4.418,0-8-3.582-8-8l0,0
		C184,99.581,187.582,96,192,96z"/>
</g>
<path style="fill:#F19920;" d="M279.52,234.799c-14.606,8.21-32.435,8.21-47.04,0l-224-125.84c0.827,0.782,1.71,1.504,2.64,2.16
	l219.36,136c15.507,9.629,35.133,9.629,50.639,0l219.36-136c0.93-0.656,1.812-1.378,2.64-2.16L279.52,234.799z"/>
<g>
</g>
<g>
</g>
<g>
</g>
<g>
</g>
<g>
</g>
<g>
</g>
<g>
</g>
<g>
</g>
<g>
</g>
<g>
</g>
<g>
</g>
<g>
</g>
<g>
</g>
<g>
</g>
<g>
</g>
</svg>
