<svg width="110.037px" height="110.037px" viewBox="0 -1.27 110.037 110.037" xmlns="http://www.w3.org/2000/svg"><path d="M57.55 0h7.425v10c12.513 0 25.025.025 37.537-.038 2.113.087 4.438-.062 6.275 1.2 1.287 1.85 1.138 4.2 1.225 6.325-.062 21.7-.037 43.388-.024 65.075-.062 3.638.337 7.35-.425 10.938-.5 2.6-3.625 2.662-5.713 2.75-12.95.037-25.912-.025-38.875 0v11.25h-7.763c-19.05-3.463-38.138-6.662-57.212-10V10.013C19.188 6.675 38.375 3.388 57.55 0z" fill="#207245"/><path d="M64.975 13.75h41.25V92.5h-41.25V85h10v-8.75h-10v-5h10V62.5h-10v-5h10v-8.75h-10v-5h10V35h-10v-5h10v-8.75h-10v-7.5z" fill="#fff"/><path d="M79.975 21.25h17.5V30h-17.5v-8.75z" fill="#207245"/><path d="M37.025 32.962c2.825-.2 5.663-.375 8.5-.512a2607.344 2607.344 0 0 1-10.087 20.487c3.438 7 6.949 13.95 10.399 20.95a716.28 716.28 0 0 1-9.024-.575c-2.125-5.213-4.713-10.25-6.238-15.7-1.699 5.075-4.125 9.862-6.074 14.838-2.738-.038-5.476-.15-8.213-.263C19.5 65.9 22.6 59.562 25.912 53.312c-2.812-6.438-5.9-12.75-8.8-19.15 2.75-.163 5.5-.325 8.25-.475 1.862 4.888 3.899 9.712 5.438 14.725 1.649-5.312 4.112-10.312 6.225-15.45z" fill="#fff"/><path d="M79.975 35h17.5v8.75h-17.5V35zM79.975 48.75h17.5v8.75h-17.5v-8.75zM79.975 62.5h17.5v8.75h-17.5V62.5zM79.975 76.25h17.5V85h-17.5v-8.75z" fill="#207245"/></svg>