<?xml version="1.0" encoding="UTF-8"?>
<svg width="81.694" height="93.581" aria-hidden="true" version="1.1" viewBox="0 0 81.694 93.581" >
 <path d="m11.859 0.12623c-3.4205 8.2335-1.443 14.41-0.75429 15.974-3.9379 4.1259-6.3342 9.5417-6.4823 16.116-0.20142 23.122 13.807 28.45 27.223 30.163-1.7851 1.464-3.3723 4.1325-3.9845 8.0854l-0.0198 1.3271c-4.141 1.4562-11.191 2.1688-15.837-5.8271 0 0-3.1839-5.8364-9.1881-6.4021 0 0-6.0102-0.14201-0.4686 3.6711 0 0 3.9379 1.885 6.613 8.9173 0 0 3.147 10.227 18.757 7.6487l-0.15654 10.249c-0.0183 1.5555-3.7158 3.2094-3.7142 3.068l37.899 0.44608c-0.0732 0.21128-4.2967-1.5356-4.2767-3.2325l0.26432-16.473c0.0666-5.6565-1.8705-9.357-3.97-11.22 13.452-1.3974 27.655-6.3226 27.928-29.514 0.0782-6.6463-2.1932-11.977-6.0312-16.336 0.65383-1.4773 2.7775-7.6043-0.37674-15.986 0 0-5.0739-1.6152-16.691 6.0975-4.7914-1.4707-10.014-2.2393-15.105-2.2993-5.1624 0.01-10.332 0.58444-15.085 1.8721-11.504-7.9141-16.543-6.3464-16.543-6.3464z" fill="#ddd"/>
</svg>
