<svg width="92.094pt" height="38pt" version="1.1" viewBox="-6 -6 120.09 50" xmlns="http://www.w3.org/2000/svg">
 <g transform="translate(3.6363 -324.86)">
  <g fill="#ddd">
   <path d="m40.65 332.71a1.5832 1.5832 0 0 0-1.2988 2.4805l5.7461 8.6211-5.7461 8.6191a1.5832 1.5832 0 1 0 2.6348 1.7559l6.332-9.498a1.5832 1.5832 0 0 0 0-1.7559l-6.332-9.498a1.5832 1.5832 0 0 0-1.3359-0.72461z" color="#000000" color-rendering="auto" dominant-baseline="auto" image-rendering="auto" shape-rendering="auto" solid-color="#000000" style="font-feature-settings:normal;font-variant-alternates:normal;font-variant-caps:normal;font-variant-ligatures:normal;font-variant-numeric:normal;font-variant-position:normal;isolation:auto;mix-blend-mode:normal;shape-padding:0;text-decoration-color:#000000;text-decoration-line:none;text-decoration-style:solid;text-indent:0;text-orientation:mixed;text-transform:none;white-space:normal"/>
   <ellipse cx="29.597" cy="329.61" rx="4.7491" ry="4.7491"/>
   <ellipse cx="10.603" cy="329.61" rx="3.7993" ry="3.7993"/>
   <ellipse cx="20.1" cy="329.61" rx="2.8494" ry="2.8495"/>
   <ellipse cx="1.1054" cy="329.61" rx="1.8996" ry="1.8996"/>
   <circle cx="29.579" cy="339.13" r="2.8494"/>
   <ellipse cx="1.114" cy="339.11" rx="3.7993" ry="3.7993"/>
   <circle cx="10.602" cy="339.11" r="4.7491"/>
   <ellipse cx="20.09" cy="339.14" rx="1.8996" ry="1.8996"/>
   <ellipse cx="20.102" cy="348.6" rx="4.7491" ry="4.7491"/>
   <ellipse cx="29.597" cy="348.6" rx="3.7993" ry="3.7993"/>
   <ellipse cx="1.1101" cy="348.6" rx="2.8494" ry="2.8495"/>
   <ellipse cx="10.606" cy="348.63" rx="1.8996" ry="1.8996"/>
   <ellipse cx="1.1128" cy="358.11" rx="4.7491" ry="4.7491"/>
   <ellipse cx="20.103" cy="358.11" rx="3.7993" ry="3.7993"/>
   <ellipse cx="10.608" cy="358.11" rx="2.8494" ry="2.8495"/>
   <ellipse cx="29.598" cy="358.13" rx="1.8996" ry="1.8996"/>
   <ellipse cx="58.086" cy="329.62" rx="4.7491" ry="4.7491"/>
   <ellipse cx="67.575" cy="329.62" rx="3.7993" ry="3.7993"/>
   <ellipse cx="77.063" cy="329.62" rx="2.8494" ry="2.8495"/>
   <ellipse cx="86.552" cy="329.64" rx="1.8996" ry="1.8996"/>
   <ellipse cx="58.086" cy="339.12" rx="4.7491" ry="4.7491"/>
   <ellipse cx="67.575" cy="339.12" rx="3.7993" ry="3.7993"/>
   <ellipse cx="77.063" cy="339.12" rx="2.8494" ry="2.8495"/>
   <ellipse cx="86.552" cy="339.14" rx="1.8996" ry="1.8996"/>
   <ellipse cx="58.092" cy="348.61" rx="4.7491" ry="4.7491"/>
   <ellipse cx="67.581" cy="348.61" rx="3.7993" ry="3.7993"/>
   <ellipse cx="77.069" cy="348.61" rx="2.8494" ry="2.8495"/>
   <ellipse cx="86.558" cy="348.63" rx="1.8996" ry="1.8996"/>
   <ellipse cx="58.093" cy="358.11" rx="4.7491" ry="4.7491"/>
   <ellipse cx="67.581" cy="358.11" rx="3.7993" ry="3.7993"/>
   <ellipse cx="77.07" cy="358.11" rx="2.8494" ry="2.8495"/>
   <ellipse cx="86.558" cy="358.14" rx="1.8996" ry="1.8996"/>
  </g>
 </g>
</svg>
