<?xml version="1.0" encoding="UTF-8" standalone="no"?>
<svg
   width="100pt"
   height="100pt"
   version="1.1"
   viewBox="0 0 119.06 118.6092"
   id="svg90"
   xmlns="http://www.w3.org/2000/svg"
   xmlns:svg="http://www.w3.org/2000/svg">
  <defs
     id="defs94" />
  <rect
     style="fill:#512bd4;fill-opacity:1;fill-rule:evenodd;stroke-width:2.02045"
     id="rect338"
     width="119.06"
     height="119.06"
     x="-2.4868996e-14"
     y="-0.22539546" />
  <path
     style="color:#000000;fill:#ffffff;stroke-linecap:round;stroke-linejoin:round;-inkscape-stroke:none"
     d="m 57.144531,34.412109 a 1.3229001,1.3229001 0 0 0 -0.992187,0.197266 1.3229001,1.3229001 0 0 0 -0.367188,1.833984 l 4.802735,7.205078 -4.802735,7.203125 a 1.3229001,1.3229001 0 0 0 0.367188,1.833985 1.3229001,1.3229001 0 0 0 1.833984,-0.367188 l 5.291016,-7.9375 a 1.3230323,1.3230323 0 0 0 0,-1.466797 l -5.291016,-7.9375 a 1.3229001,1.3229001 0 0 0 -0.841797,-0.564453 z"
     id="path4" />
  <path
     fill="#512bd4"
     d="M 51.6024,31.79 A 3.9688,3.9688 0 0 1 47.6336,35.7588 3.9688,3.9688 0 0 1 43.6648,31.79 3.9688,3.9688 0 0 1 47.6336,27.8212 3.9688,3.9688 0 0 1 51.6024,31.79 Z"
     id="path6"
     style="fill:#ffffff" />
  <path
     fill="#512bd4"
     d="m 34.9344,31.79 a 3.175,3.175 0 0 1 -3.175,3.175 3.175,3.175 0 0 1 -3.175,-3.175 3.175,3.175 0 0 1 3.175,-3.175 3.175,3.175 0 0 1 3.175,3.175 z"
     id="path8"
     style="fill:#ffffff" />
  <path
     fill="#512bd4"
     d="M 42.0774,31.79 A 2.3812,2.3813 0 0 1 39.6962,34.1713 2.3812,2.3813 0 0 1 37.315,31.79 2.3812,2.3813 0 0 1 39.6962,29.4088 2.3812,2.3813 0 0 1 42.0774,31.79 Z"
     id="path10"
     style="fill:#ffffff" />
  <path
     fill="#512bd4"
     d="M 25.4104,31.79 A 1.5875,1.5875 0 0 1 23.8229,33.3775 1.5875,1.5875 0 0 1 22.2354,31.79 1.5875,1.5875 0 0 1 23.8229,30.2025 1.5875,1.5875 0 0 1 25.4104,31.79 Z"
     id="path12"
     style="fill:#ffffff" />
  <path
     fill="#512bd4"
     d="M 49.9994,39.74 A 2.3812,2.3812 0 0 1 47.6182,42.1212 2.3812,2.3812 0 0 1 45.237,39.74 2.3812,2.3812 0 0 1 47.6182,37.3588 2.3812,2.3812 0 0 1 49.9994,39.74 Z"
     id="path14"
     style="fill:#ffffff" />
  <path
     fill="#512bd4"
     d="m 27.0054,39.73 a 3.175,3.175 0 0 1 -3.175,3.175 3.175,3.175 0 0 1 -3.175,-3.175 3.175,3.175 0 0 1 3.175,-3.175 3.175,3.175 0 0 1 3.175,3.175 z"
     id="path16"
     style="fill:#ffffff" />
  <path
     fill="#512bd4"
     d="M 35.7284,39.73 A 3.9688,3.9688 0 0 1 31.7596,43.6988 3.9688,3.9688 0 0 1 27.7908,39.73 3.9688,3.9688 0 0 1 31.7596,35.7612 3.9688,3.9688 0 0 1 35.7284,39.73 Z"
     id="path18"
     style="fill:#ffffff" />
  <path
     fill="#512bd4"
     d="M 41.2764,39.75 A 1.5875,1.5875 0 0 1 39.6889,41.3375 1.5875,1.5875 0 0 1 38.1014,39.75 1.5875,1.5875 0 0 1 39.6889,38.1625 1.5875,1.5875 0 0 1 41.2764,39.75 Z"
     id="path20"
     style="fill:#ffffff" />
  <path
     fill="#512bd4"
     d="M 43.6664,47.66 A 3.9688,3.9688 0 0 1 39.6976,51.6288 3.9688,3.9688 0 0 1 35.7288,47.66 3.9688,3.9688 0 0 1 39.6976,43.6912 3.9688,3.9688 0 0 1 43.6664,47.66 Z"
     id="path22"
     style="fill:#ffffff" />
  <path
     fill="#512bd4"
     d="m 50.8084,47.66 a 3.175,3.175 0 0 1 -3.175,3.175 3.175,3.175 0 0 1 -3.175,-3.175 3.175,3.175 0 0 1 3.175,-3.175 3.175,3.175 0 0 1 3.175,3.175 z"
     id="path24"
     style="fill:#ffffff" />
  <path
     fill="#512bd4"
     d="M 26.2084,47.66 A 2.3812,2.3813 0 0 1 23.8272,50.0412 2.3812,2.3813 0 0 1 21.446,47.66 2.3812,2.3813 0 0 1 23.8272,45.2787 2.3812,2.3813 0 0 1 26.2084,47.66 Z"
     id="path26"
     style="fill:#ffffff" />
  <path
     fill="#512bd4"
     d="M 33.3494,47.68 A 1.5875,1.5875 0 0 1 31.7619,49.2675 1.5875,1.5875 0 0 1 30.1744,47.68 1.5875,1.5875 0 0 1 31.7619,46.0925 1.5875,1.5875 0 0 1 33.3494,47.68 Z"
     id="path28"
     style="fill:#ffffff" />
  <path
     fill="#512bd4"
     d="M 27.7974,55.6 A 3.9688,3.9688 0 0 1 23.8286,59.5688 3.9688,3.9688 0 0 1 19.8598,55.6 3.9688,3.9688 0 0 1 23.8286,51.6312 3.9688,3.9688 0 0 1 27.7974,55.6 Z"
     id="path30"
     style="fill:#ffffff" />
  <path
     fill="#512bd4"
     d="m 42.8734,55.6 a 3.175,3.175 0 0 1 -3.175,3.175 3.175,3.175 0 0 1 -3.175,-3.175 3.175,3.175 0 0 1 3.175,-3.175 3.175,3.175 0 0 1 3.175,3.175 z"
     id="path32"
     style="fill:#ffffff" />
  <path
     fill="#512bd4"
     d="M 34.1454,55.6 A 2.3812,2.3813 0 0 1 31.7642,57.9812 2.3812,2.3813 0 0 1 29.383,55.6 2.3812,2.3813 0 0 1 31.7642,53.2188 2.3812,2.3813 0 0 1 34.1454,55.6 Z"
     id="path34"
     style="fill:#ffffff" />
  <path
     fill="#512bd4"
     d="M 49.2214,55.62 A 1.5875,1.5875 0 0 1 47.6339,57.2075 1.5875,1.5875 0 0 1 46.0464,55.62 1.5875,1.5875 0 0 1 47.6339,54.0325 1.5875,1.5875 0 0 1 49.2214,55.62 Z"
     id="path36"
     style="fill:#ffffff" />
  <path
     fill="#512bd4"
     d="M 75.4104,31.79 A 3.9688,3.9688 0 0 1 71.4416,35.7588 3.9688,3.9688 0 0 1 67.4728,31.79 3.9688,3.9688 0 0 1 71.4416,27.8212 3.9688,3.9688 0 0 1 75.4104,31.79 Z"
     id="path38"
     style="fill:#ffffff" />
  <path
     fill="#512bd4"
     d="m 82.5454,31.79 a 3.175,3.175 0 0 1 -3.175,3.175 3.175,3.175 0 0 1 -3.175,-3.175 3.175,3.175 0 0 1 3.175,-3.175 3.175,3.175 0 0 1 3.175,3.175 z"
     id="path40"
     style="fill:#ffffff" />
  <path
     fill="#512bd4"
     d="M 89.6814,31.79 A 2.3812,2.3813 0 0 1 87.3002,34.1713 2.3812,2.3813 0 0 1 84.919,31.79 2.3812,2.3813 0 0 1 87.3002,29.4088 2.3812,2.3813 0 0 1 89.6814,31.79 Z"
     id="path42"
     style="fill:#ffffff" />
  <path
     fill="#512bd4"
     d="M 96.8174,31.81 A 1.5875,1.5875 0 0 1 95.2299,33.3975 1.5875,1.5875 0 0 1 93.6424,31.81 1.5875,1.5875 0 0 1 95.2299,30.2225 1.5875,1.5875 0 0 1 96.8174,31.81 Z"
     id="path44"
     style="fill:#ffffff" />
  <path
     fill="#512bd4"
     d="M 75.4104,39.73 A 3.9688,3.9688 0 0 1 71.4416,43.6988 3.9688,3.9688 0 0 1 67.4728,39.73 3.9688,3.9688 0 0 1 71.4416,35.7612 3.9688,3.9688 0 0 1 75.4104,39.73 Z"
     id="path46"
     style="fill:#ffffff" />
  <path
     fill="#512bd4"
     d="m 82.5454,39.73 a 3.175,3.175 0 0 1 -3.175,3.175 3.175,3.175 0 0 1 -3.175,-3.175 3.175,3.175 0 0 1 3.175,-3.175 3.175,3.175 0 0 1 3.175,3.175 z"
     id="path48"
     style="fill:#ffffff" />
  <path
     fill="#512bd4"
     d="M 89.6814,39.73 A 2.3812,2.3813 0 0 1 87.3002,42.1112 2.3812,2.3813 0 0 1 84.919,39.73 2.3812,2.3813 0 0 1 87.3002,37.3488 2.3812,2.3813 0 0 1 89.6814,39.73 Z"
     id="path50"
     style="fill:#ffffff" />
  <path
     fill="#512bd4"
     d="M 96.8174,39.75 A 1.5875,1.5875 0 0 1 95.2299,41.3375 1.5875,1.5875 0 0 1 93.6424,39.75 1.5875,1.5875 0 0 1 95.2299,38.1625 1.5875,1.5875 0 0 1 96.8174,39.75 Z"
     id="path52"
     style="fill:#ffffff" />
  <path
     fill="#512bd4"
     d="M 75.4144,47.67 A 3.9688,3.9688 0 0 1 71.4456,51.6388 3.9688,3.9688 0 0 1 67.4768,47.67 3.9688,3.9688 0 0 1 71.4456,43.7012 3.9688,3.9688 0 0 1 75.4144,47.67 Z"
     id="path54"
     style="fill:#ffffff" />
  <path
     fill="#512bd4"
     d="m 82.5504,47.67 a 3.175,3.175 0 0 1 -3.175,3.175 3.175,3.175 0 0 1 -3.175,-3.175 3.175,3.175 0 0 1 3.175,-3.175 3.175,3.175 0 0 1 3.175,3.175 z"
     id="path56"
     style="fill:#ffffff" />
  <path
     fill="#512bd4"
     d="M 89.6864,47.67 A 2.3812,2.3813 0 0 1 87.3052,50.0512 2.3812,2.3813 0 0 1 84.924,47.67 2.3812,2.3813 0 0 1 87.3052,45.2887 2.3812,2.3813 0 0 1 89.6864,47.67 Z"
     id="path58"
     style="fill:#ffffff" />
  <path
     fill="#512bd4"
     d="M 96.8214,47.69 A 1.5875,1.5875 0 0 1 95.2339,49.2775 1.5875,1.5875 0 0 1 93.6464,47.69 1.5875,1.5875 0 0 1 95.2339,46.1025 1.5875,1.5875 0 0 1 96.8214,47.69 Z"
     id="path60"
     style="fill:#ffffff" />
  <path
     fill="#512bd4"
     d="M 75.4154,55.61 A 3.9688,3.9688 0 0 1 71.4466,59.5788 3.9688,3.9688 0 0 1 67.4778,55.61 3.9688,3.9688 0 0 1 71.4466,51.6412 3.9688,3.9688 0 0 1 75.4154,55.61 Z"
     id="path62"
     style="fill:#ffffff" />
  <path
     fill="#512bd4"
     d="m 82.5504,55.61 a 3.175,3.175 0 0 1 -3.175,3.175 3.175,3.175 0 0 1 -3.175,-3.175 3.175,3.175 0 0 1 3.175,-3.175 3.175,3.175 0 0 1 3.175,3.175 z"
     id="path64"
     style="fill:#ffffff" />
  <path
     fill="#512bd4"
     d="M 89.6864,55.61 A 2.3812,2.3813 0 0 1 87.3052,57.9912 2.3812,2.3813 0 0 1 84.924,55.61 2.3812,2.3813 0 0 1 87.3052,53.2288 2.3812,2.3813 0 0 1 89.6864,55.61 Z"
     id="path66"
     style="fill:#ffffff" />
  <path
     fill="#512bd4"
     d="M 96.8224,55.63 A 1.5875,1.5875 0 0 1 95.2349,57.2175 1.5875,1.5875 0 0 1 93.6474,55.63 1.5875,1.5875 0 0 1 95.2349,54.0425 1.5875,1.5875 0 0 1 96.8224,55.63 Z"
     id="path68"
     style="fill:#ffffff" />
  <path
     d="m 65.767723,93.102291 c -0.354635,0 -0.656077,-0.118129 -0.904327,-0.354506 -0.248251,-0.242424 -0.372376,-0.530267 -0.372376,-0.863545 0,-0.339427 0.124125,-0.630248 0.372376,-0.872669 0.24825,-0.24242 0.549692,-0.363637 0.904327,-0.363637 0.360551,0 0.664955,0.121217 0.913204,0.363637 0.254158,0.242421 0.381242,0.533242 0.381242,0.872669 0,0.333278 -0.127084,0.621121 -0.381242,0.863545 -0.248249,0.236375 -0.552653,0.354506 -0.913204,0.354506 z"
     fill="#ffffff"
     id="path4-5"
     style="stroke-width:0.109991" />
  <path
     d="m 79.944874,92.902319 h -2.305201 l -6.073178,-9.581238 c -0.153658,-0.242426 -0.28081,-0.493978 -0.381232,-0.75454 h -0.05323 c 0.0473,0.278824 0.07094,0.875747 0.07094,1.790769 v 8.545009 H 69.163731 V 79.866687 h 2.455889 l 5.869363,9.354004 c 0.248252,0.387936 0.40785,0.654556 0.478792,0.799968 h 0.03541 c -0.05907,-0.345375 -0.08865,-0.930196 -0.08865,-1.754477 v -8.399495 h 2.030336 z"
     fill="#ffffff"
     id="path6-9"
     style="stroke-width:0.109991" />
  <path
     d="M 89.875119,92.902319 H 82.737994 V 79.866687 h 6.853458 v 1.836309 h -4.743271 v 3.690653 h 4.370949 v 1.827174 h -4.370949 v 3.854319 h 5.026938 z"
     fill="#ffffff"
     id="path8-5"
     style="stroke-width:0.109991" />
  <path
     d="M 100.01831,81.702996 H 96.365495 V 92.902319 H 94.25531 V 81.702996 h -3.643907 v -1.836309 h 9.406907 z"
     fill="#ffffff"
     id="path10-3"
     style="stroke-width:0.109991" />
  <path
     style="color:#000000;font-weight:300;font-size:27.7866px;font-family:'Open Sans';-inkscape-font-specification:'Open Sans, Light';fill:#ffffff;stroke-width:0.716393;-inkscape-stroke:none"
     d="M 31.159115,92.721061 H 19.979428 V 72.264613 h 11.179687 v 1.315258 h -9.752493 v 7.737631 h 9.206801 v 1.315256 h -9.206801 v 8.773047 h 9.752493 z"
     id="path21767" />
  <path
     style="color:#000000;font-weight:300;font-size:27.7866px;font-family:'Open Sans';-inkscape-font-specification:'Open Sans, Light';fill:#ffffff;stroke-width:0.716393;-inkscape-stroke:none"
     d="M 41.121489,92.721061 H 39.680304 V 73.607855 h -6.646247 v -1.343242 h 14.733679 v 1.343242 h -6.646247 z"
     id="path21769" />
  <path
     style="color:#000000;font-weight:300;font-size:27.7866px;font-family:'Open Sans';-inkscape-font-specification:'Open Sans, Light';fill:#ffffff;stroke-width:0.716393;-inkscape-stroke:none"
     d="M 50.804022,92.721061 V 72.264613 h 1.427194 v 19.113208 h 9.752493 v 1.34324 z"
     id="path21771" />
</svg>
