<?xml version="1.0" encoding="utf-8"?>
<svg width="636" height="300" viewBox="0 0 636 300" fill="none" xmlns="http://www.w3.org/2000/svg">
  <defs>
    <linearGradient id="paint3_linear" x1="282.827" y1="185.723" x2="290.768" y2="225.539" gradientUnits="userSpaceOnUse" gradientTransform="matrix(0.531186, 0, 0, 0.519827, 2.903738, 147.330658)">
      <stop stop-color="#522CD5"/>
      <stop offset="0.4397" stop-color="#8A6FE8"/>
    </linearGradient>
    <linearGradient id="paint4_linear" x1="282.827" y1="185.723" x2="290.768" y2="225.539" gradientUnits="userSpaceOnUse" gradientTransform="matrix(0.531186, 0, 0, 0.519827, 2.903738, 147.330658)">
      <stop stop-color="#522CD5"/>
      <stop offset="0.4397" stop-color="#8A6FE8"/>
    </linearGradient>
    <linearGradient id="paint5_linear" x1="289.744" y1="222.874" x2="312.236" y2="266.566" gradientUnits="userSpaceOnUse" gradientTransform="matrix(0.531186, 0, 0, 0.519827, 2.903738, 147.330658)">
      <stop stop-color="#522CD5"/>
      <stop offset="0.4397" stop-color="#8A6FE8"/>
    </linearGradient>
    <radialGradient id="paint6_radial" cx="0" cy="0" r="1" gradientUnits="userSpaceOnUse" gradientTransform="matrix(4.748687, 0, 0, 4.647142, 165.493408, 281.122284)">
      <stop offset="0.034" stop-color="#522CD5"/>
      <stop offset="1" stop-color="#8A6FE8"/>
    </radialGradient>
    <linearGradient id="paint7_linear" x1="266.407" y1="185.723" x2="274.348" y2="225.538" gradientUnits="userSpaceOnUse" gradientTransform="matrix(0.531186, 0, 0, 0.519827, 2.903738, 147.330658)">
      <stop stop-color="#522CD5"/>
      <stop offset="0.4397" stop-color="#8A6FE8"/>
    </linearGradient>
    <linearGradient id="paint8_linear" x1="266.407" y1="185.723" x2="274.348" y2="225.538" gradientUnits="userSpaceOnUse" gradientTransform="matrix(0.531186, 0, 0, 0.519827, 2.903738, 147.330658)">
      <stop stop-color="#522CD5"/>
      <stop offset="0.4397" stop-color="#8A6FE8"/>
    </linearGradient>
    <linearGradient id="paint9_linear" x1="273.324" y1="222.874" x2="295.816" y2="266.566" gradientUnits="userSpaceOnUse" gradientTransform="matrix(0.531186, 0, 0, 0.519827, 2.903738, 147.330658)">
      <stop stop-color="#522CD5"/>
      <stop offset="0.4397" stop-color="#8A6FE8"/>
    </linearGradient>
    <radialGradient id="paint10_radial" cx="0" cy="0" r="1" gradientUnits="userSpaceOnUse" gradientTransform="matrix(4.748702, 0, 0, 4.647158, 156.770264, 281.122284)">
      <stop offset="0.034" stop-color="#522CD5"/>
      <stop offset="1" stop-color="#8A6FE8"/>
    </radialGradient>
    <radialGradient id="paint11_radial" cx="0" cy="0" r="1" gradientUnits="userSpaceOnUse" gradientTransform="matrix(24.264442, -5.003936, 5.113275, 23.745583, 146.33725, 206.205795)">
      <stop offset="0.4744" stop-color="#A08BE8"/>
      <stop offset="0.8618" stop-color="#8065E0"/>
    </radialGradient>
    <radialGradient id="paint12_radial" cx="0" cy="0" r="1" gradientUnits="userSpaceOnUse" gradientTransform="matrix(18.640894, -3.844219, 3.928219, 18.242285, 166.558426, 220.27858)">
      <stop offset="0.2022" stop-color="#E1DFDD"/>
      <stop offset="0.7337" stop-color="white"/>
    </radialGradient>
    <radialGradient id="paint13_radial" cx="0" cy="0" r="1" gradientUnits="userSpaceOnUse" gradientTransform="matrix(4.199288, -0.865998, 0.884921, 4.109492, 145.463455, 192.978012)">
      <stop stop-color="#8065E0"/>
      <stop offset="0.8628" stop-color="#512BD4"/>
    </radialGradient>
    <linearGradient id="paint14_linear" x1="291.775" y1="127.984" x2="309.421" y2="198.18" gradientUnits="userSpaceOnUse" gradientTransform="matrix(0.531186, 0, 0, 0.519827, 2.903738, 147.330658)">
      <stop offset="0.3344" stop-color="#9780E6"/>
      <stop offset="0.8488" stop-color="#8A6FE8"/>
    </linearGradient>
    <radialGradient id="paint15_radial" cx="0" cy="0" r="1" gradientUnits="userSpaceOnUse" gradientTransform="matrix(7.920056, 0.591544, -0.60447, 7.750697, 149.367142, 220.234375)">
      <stop stop-color="#8065E0"/>
      <stop offset="0.8628" stop-color="#512BD4"/>
    </radialGradient>
    <radialGradient id="paint16_radial" cx="0" cy="0" r="1" gradientUnits="userSpaceOnUse" gradientTransform="matrix(-8.896132, -2.599645, 2.479145, -8.124824, 178.704559, 238.587921)">
      <stop stop-color="#8065E0"/>
      <stop offset="0.8628" stop-color="#512BD4"/>
    </radialGradient>
  </defs>
  <path d="M 486.373 243.382 L 486.373 282.626 C 486.373 284.351 498.889 285.745 514.338 285.745 C 529.784 285.745 542.3 284.351 542.3 282.626 L 542.3 243.382 L 486.373 243.382 Z" fill="#57CACF" style=""/>
  <path d="M 514.29 239.566 C 498.877 239.566 486.383 241.286 486.383 243.411 C 486.383 245.537 498.877 247.255 514.29 247.255 C 529.705 247.255 542.198 245.537 542.198 243.411 C 542.198 241.286 529.705 239.566 514.29 239.566 Z" fill="#9FE4EB" style=""/>
  <path d="M 486.373 264.123 C 490.512 266.168 503.324 267.086 514.318 267.086 C 525.365 267.086 538.205 266.159 542.297 264.102 L 542.297 262.903 C 542.226 262.903 542.155 262.915 542.095 262.956 C 539.975 264.428 529.522 265.992 514.313 265.992 C 499.223 265.992 488.752 264.44 486.565 262.977 C 486.509 262.941 486.439 262.924 486.369 262.924 L 486.369 264.123 L 486.373 264.123 Z" fill="#88DDE5" style=""/>
  <path d="M 486.373 254.412 C 490.512 256.457 503.324 257.377 514.318 257.377 C 514.323 257.377 514.333 257.377 514.338 257.377 C 525.375 257.377 538.201 256.454 542.297 254.393 L 542.297 253.193 C 542.226 253.193 542.155 253.205 542.095 253.246 C 539.975 254.718 529.522 256.282 514.313 256.282 C 499.223 256.282 488.752 254.731 486.565 253.267 C 486.509 253.23 486.439 253.214 486.369 253.214 L 486.369 254.412 L 486.373 254.412 Z" fill="#88DDE5" style=""/>
  <path d="M 542.297 272.613 C 542.226 272.613 542.155 272.625 542.095 272.666 C 539.975 274.137 529.522 275.703 514.313 275.703 C 499.223 275.703 488.752 274.15 486.565 272.687 C 486.509 272.649 486.439 272.634 486.369 272.634 L 486.369 273.829 C 490.508 275.873 503.319 276.792 514.313 276.792 C 514.318 276.792 514.323 276.792 514.323 276.792 C 525.365 276.792 538.196 275.868 542.292 273.808 L 542.292 272.613 L 542.297 272.613 Z" fill="#88DDE5" style=""/>
  <path d="M 474.463 236.532 L 469.103 236.532 L 469.103 281.382 L 474.463 281.382 L 474.463 236.532 Z" fill="#A7A4A0"/>
  <path d="M 458.743 236.532 L 453.383 236.532 L 453.383 281.382 L 458.743 281.382 L 458.743 236.532 Z" fill="#A7A4A0"/>
  <path d="M 243.586 223.317 L 227.566 223.317 L 227.566 141.137 C 227.566 127.427 238.726 116.267 252.436 116.267 L 266.386 116.267 C 271.266 116.267 275.236 112.297 275.236 107.417 C 275.236 102.537 271.266 98.567 266.386 98.567 L 214.716 98.567 L 214.716 82.547 L 266.386 82.547 C 280.096 82.547 291.256 93.707 291.256 107.417 C 291.256 121.127 280.096 132.287 266.386 132.287 L 252.436 132.287 C 247.556 132.287 243.586 136.257 243.586 141.137 L 243.586 223.317 Z" fill="#CCCAC7"/>
  <path d="M 479.553 242.182 L 249.763 242.182 C 244.103 242.182 239.513 237.592 239.513 231.932 C 239.513 226.272 244.103 221.682 249.763 221.682 L 479.553 221.682 C 485.213 221.682 489.803 226.272 489.803 231.932 C 489.803 237.592 485.213 242.182 479.553 242.182 Z" fill="#797672"/>
  <path d="M 225.923 240.872 C 220.993 240.872 216.983 236.862 216.983 231.932 C 216.983 227.002 220.993 222.992 225.923 222.992 L 455.713 222.992 C 460.643 222.992 464.653 227.002 464.653 231.932 C 464.653 236.862 460.643 240.872 455.713 240.872 L 225.923 240.872 Z" fill="#605D5A"/>
  <path d="M 455.703 224.302 C 459.913 224.302 463.333 227.722 463.333 231.932 C 463.333 236.142 459.913 239.562 455.703 239.562 L 225.923 239.562 C 221.713 239.562 218.293 236.142 218.293 231.932 C 218.293 227.722 221.713 224.302 225.923 224.302 L 455.703 224.302 Z M 455.703 221.682 L 225.923 221.682 C 220.263 221.682 215.673 226.272 215.673 231.932 C 215.673 237.592 220.263 242.182 225.923 242.182 L 455.713 242.182 C 461.373 242.182 465.963 237.592 465.963 231.932 C 465.963 226.272 461.373 221.682 455.703 221.682 Z" fill="#A7A4A0"/>
  <path d="M 226.453 236.732 C 229.049 236.732 231.153 234.628 231.153 232.032 C 231.153 229.436 229.049 227.332 226.453 227.332 C 223.857 227.332 221.753 229.436 221.753 232.032 C 221.753 234.628 223.857 236.732 226.453 236.732 Z" fill="#9C9894"/>
  <path d="M 264.463 236.732 C 267.059 236.732 269.163 234.628 269.163 232.032 C 269.163 229.436 267.059 227.332 264.463 227.332 C 261.867 227.332 259.763 229.436 259.763 232.032 C 259.763 234.628 261.867 236.732 264.463 236.732 Z" fill="#9C9894"/>
  <path d="M 302.473 236.732 C 305.069 236.732 307.173 234.628 307.173 232.032 C 307.173 229.436 305.069 227.332 302.473 227.332 C 299.877 227.332 297.773 229.436 297.773 232.032 C 297.773 234.628 299.877 236.732 302.473 236.732 Z" fill="#9C9894"/>
  <path d="M 340.483 236.732 C 343.078 236.732 345.183 234.628 345.183 232.032 C 345.183 229.436 343.078 227.332 340.483 227.332 C 337.887 227.332 335.783 229.436 335.783 232.032 C 335.783 234.628 337.887 236.732 340.483 236.732 Z" fill="#9C9894"/>
  <path d="M 378.493 236.732 C 381.089 236.732 383.193 234.628 383.193 232.032 C 383.193 229.436 381.089 227.332 378.493 227.332 C 375.897 227.332 373.793 229.436 373.793 232.032 C 373.793 234.628 375.897 236.732 378.493 236.732 Z" fill="#9C9894"/>
  <path d="M 416.503 236.732 C 419.098 236.732 421.203 234.628 421.203 232.032 C 421.203 229.436 419.098 227.332 416.503 227.332 C 413.907 227.332 411.803 229.436 411.803 232.032 C 411.803 234.628 413.907 236.732 416.503 236.732 Z" fill="#9C9894"/>
  <path d="M 454.513 236.732 C 457.109 236.732 459.213 234.628 459.213 232.032 C 459.213 229.436 457.109 227.332 454.513 227.332 C 451.917 227.332 449.813 229.436 449.813 232.032 C 449.813 234.628 451.917 236.732 454.513 236.732 Z" fill="#9C9894"/>
  <path d="M 187.996 132.436 C 211.831 132.436 231.153 113.315 231.153 89.728 C 231.153 66.142 211.831 47.02 187.996 47.02 C 164.161 47.02 144.839 66.142 144.839 89.728 C 144.839 113.315 164.161 132.436 187.996 132.436 Z" fill="#CEDB59" style=""/>
  <path d="M 306.153 195.272 L 273.183 195.272 L 273.183 221.412 L 306.153 221.412 L 306.153 195.272 Z" fill="#CEDB59"/>
  <path d="M 308.393 188.652 L 270.933 188.652 L 270.933 196.752 L 308.393 196.752 L 308.393 188.652 Z" fill="#BBCB37"/>
  <path d="M 289.683 206.852 L 292.793 200.712 L 296.203 200.712 L 291.253 209.822 L 291.253 215.632 L 288.113 215.632 L 288.113 209.932 L 283.163 200.722 L 286.593 200.722 L 289.683 206.852 Z" fill="#625F5B"/>
  <path d="M 374.263 195.272 L 341.293 195.272 L 341.293 221.412 L 374.263 221.412 L 374.263 195.272 Z" fill="#CEDB59"/>
  <path d="M 376.503 188.652 L 339.043 188.652 L 339.043 196.752 L 376.503 196.752 L 376.503 188.652 Z" fill="#BBCB37"/>
  <path d="M 357.793 206.852 L 360.903 200.712 L 364.313 200.712 L 359.363 209.822 L 359.363 215.632 L 356.223 215.632 L 356.223 209.932 L 351.273 200.722 L 354.703 200.722 L 357.793 206.852 Z" fill="#625F5B"/>
  <path d="M 442.373 195.272 L 409.403 195.272 L 409.403 221.412 L 442.373 221.412 L 442.373 195.272 Z" fill="#CEDB59"/>
  <path d="M 444.613 188.652 L 407.153 188.652 L 407.153 196.752 L 444.613 196.752 L 444.613 188.652 Z" fill="#BBCB37"/>
  <path d="M 425.903 206.852 L 429.013 200.712 L 432.423 200.712 L 427.473 209.822 L 427.473 215.632 L 424.333 215.632 L 424.333 209.932 L 419.383 200.722 L 422.813 200.722 L 425.903 206.852 Z" fill="#625F5B"/>
  <path d="M 181.101 122.885 C 181.126 123.15 181.03 130.565 181.03 130.565 C 181.03 135.523 176.992 139.56 172.035 139.56 L 117.458 139.56 C 112.5 139.56 108.463 135.523 108.463 130.565 L 108.443 123.521 L 95.19 123.521 L 95.181 130.565 C 95.181 142.843 105.171 152.842 117.45 152.842 L 172.026 152.842 C 184.305 152.842 194.303 142.852 194.303 130.565 C 194.303 130.565 194.142 123.187 194.134 122.914 L 181.101 122.885 Z" fill="#CCCAC7" style=""/>
  <path d="M 73.079 97.136 L 95.14 127.024 C 95.14 127.024 101.474 129.295 108.496 127.024 C 112.816 121.32 131.469 97.136 131.469 97.136 L 73.079 97.136 Z" fill="#B3AFAB" style=""/>
  <path d="M 102.278 99.615 C 118.404 99.615 131.477 98.505 131.477 97.136 C 131.477 95.768 118.404 94.658 102.278 94.658 C 86.152 94.658 73.079 95.768 73.079 97.136 C 73.079 98.505 86.152 99.615 102.278 99.615 Z" fill="#797673" style=""/>
  <path d="M 89.312 99.358 C 93.217 99.524 97.611 99.615 102.27 99.615 C 105.57 99.615 108.72 99.566 111.68 99.483 L 113.313 94.641 L 105.205 85.438 L 93.184 87.859 L 89.312 99.358 Z" fill="#CEDB59" style=""/>
  <path d="M 102.419 89.567 L 100.869 94.019 L 97.694 90.504 L 95.099 91.018 L 99.6 95.702 L 98.058 99.607 C 98.805 99.615 99.559 99.624 100.322 99.632 L 101.317 96.946 L 103.804 99.632 C 104.857 99.624 105.901 99.624 106.913 99.607 L 102.56 95.254 L 104.948 89.07 L 102.419 89.567 Z" fill="#625F5B" style=""/>
  <path d="M 280.573 281.702 L 280.573 160.382 C 280.573 154.562 275.853 149.842 270.033 149.842 L 195.953 149.842 C 190.133 149.842 185.413 154.562 185.413 160.382 L 185.413 281.702 L 280.573 281.702 Z" fill="#1DACCC"/>
  <path d="M 280.573 216.952 L 280.573 153.932 C 280.573 151.672 278.743 149.842 276.483 149.842 L 189.503 149.842 C 187.243 149.842 185.413 151.672 185.413 153.932 L 185.413 216.952 L 280.573 216.952 Z" fill="#0B7891"/>
  <path d="M 235.543 192.382 L 264.153 192.382 C 265.403 192.382 266.423 191.362 266.423 190.112 L 266.423 161.502 C 266.423 160.252 265.403 159.232 264.153 159.232 L 235.543 159.232 C 234.293 159.232 233.273 160.252 233.273 161.502 L 233.273 190.112 C 233.273 191.372 234.283 192.382 235.543 192.382 Z" fill="white"/>
  <path d="M 200.303 174.242 C 204.213 174.242 207.383 171.072 207.383 167.162 C 207.383 163.252 204.213 160.082 200.303 160.082 C 196.393 160.082 193.223 163.252 193.223 167.162 C 193.223 171.072 196.393 174.242 200.303 174.242 Z" fill="white"/>
  <path d="M 220.323 174.242 C 224.233 174.242 227.403 171.072 227.403 167.162 C 227.403 163.252 224.233 160.082 220.323 160.082 C 216.413 160.082 213.243 163.252 213.243 167.162 C 213.243 171.072 216.413 174.242 220.323 174.242 Z" fill="white"/>
  <path d="M 227.403 185.792 L 220.323 185.792 L 220.323 189.142 L 227.403 189.142 L 227.403 185.792 Z" fill="#CEDB59"/>
  <path d="M 214.393 185.792 L 207.313 185.792 L 207.313 189.142 L 214.393 189.142 L 214.393 185.792 Z" fill="#29C3E5"/>
  <path d="M 201.383 185.792 L 194.303 185.792 L 194.303 189.142 L 201.383 189.142 L 201.383 185.792 Z" fill="#F7B548"/>
  <path d="M 266.413 173.242 L 260.623 173.242 L 258.533 167.942 L 252.403 167.852 L 249.233 162.002 L 245.063 174.852 L 241.853 168.772 L 238.793 173.242 L 233.273 173.242 L 233.273 175.242 L 239.853 175.242 L 241.633 172.642 L 245.503 179.972 L 249.693 167.052 L 251.193 169.832 L 257.163 169.922 L 259.263 175.242 L 266.413 175.242 L 266.413 173.242 Z" fill="#CCCAC7"/>
  <path d="M 233.273 183.182 L 233.273 190.112 C 233.273 191.362 234.293 192.382 235.543 192.382 L 264.153 192.382 C 265.403 192.382 266.423 191.362 266.423 190.112 L 266.423 183.182 L 233.273 183.182 Z" fill="#CCCAC7"/>
  <path d="M 220.323 174.242 C 224.233 174.242 227.403 171.072 227.403 167.162 L 213.253 167.162 C 213.253 171.072 216.413 174.242 220.323 174.242 Z" fill="#D5D3D0"/>
  <path d="M 200.303 174.242 C 204.213 174.242 207.383 171.072 207.383 167.162 L 193.233 167.162 C 193.233 171.072 196.393 174.242 200.303 174.242 Z" fill="#D5D3D0"/>
  <path d="M 200.633 169.192 C 200.253 169.192 199.883 168.972 199.713 168.592 L 197.243 163.002 C 197.023 162.492 197.253 161.902 197.753 161.682 C 198.263 161.462 198.853 161.682 199.073 162.192 L 201.543 167.782 C 201.763 168.292 201.533 168.882 201.033 169.102 C 200.903 169.162 200.763 169.192 200.633 169.192 Z" fill="#B3AFAB"/>
  <path d="M 220.143 169.242 C 219.923 169.242 219.693 169.162 219.503 169.012 C 219.073 168.662 219.013 168.032 219.373 167.602 L 223.373 162.762 C 223.723 162.342 224.353 162.282 224.783 162.632 C 225.213 162.982 225.273 163.612 224.913 164.042 L 220.913 168.882 C 220.713 169.112 220.423 169.242 220.143 169.242 Z" fill="#B3AFAB"/>
  <path d="M 218.683 232.992 L 247.293 232.992 C 248.543 232.992 249.563 231.972 249.563 230.722 L 249.563 202.112 C 249.563 200.862 248.543 199.842 247.293 199.842 L 218.683 199.842 C 217.433 199.842 216.413 200.862 216.413 202.112 L 216.413 230.722 C 216.413 231.972 217.433 232.992 218.683 232.992 Z" fill="#F7B548"/>
  <path d="M 226.043 210.832 C 225.763 210.672 225.453 210.592 225.103 210.592 C 224.113 210.592 223.613 211.152 223.613 212.272 L 223.613 213.492 L 225.703 213.492 L 225.703 215.092 L 223.623 215.092 L 223.623 222.502 L 221.583 222.502 L 221.583 215.092 L 220.043 215.092 L 220.043 213.492 L 221.583 213.492 L 221.583 212.032 C 221.583 211.082 221.893 210.332 222.513 209.782 C 223.133 209.232 223.913 208.962 224.843 208.962 C 225.343 208.962 225.743 209.022 226.043 209.132 L 226.043 210.832 Z" fill="white"/>
  <path d="M 231.633 225.372 L 229.913 225.372 C 228.063 223.292 227.133 220.732 227.133 217.692 C 227.133 214.642 228.063 212.032 229.913 209.892 L 231.643 209.892 C 229.823 212.122 228.913 214.712 228.913 217.682 C 228.923 220.612 229.823 223.182 231.633 225.372 Z" fill="white"/>
  <path d="M 240.673 213.492 L 237.673 218.052 L 240.643 222.502 L 238.273 222.502 L 236.693 219.712 C 236.593 219.542 236.473 219.322 236.343 219.062 L 236.303 219.062 C 236.283 219.112 236.153 219.332 235.933 219.712 L 234.323 222.502 L 231.963 222.502 L 235.023 218.082 L 232.123 213.492 L 234.493 213.492 L 236.053 216.422 C 236.173 216.642 236.283 216.862 236.393 217.092 L 236.423 217.092 L 238.433 213.492 L 240.673 213.492 Z" fill="white"/>
  <path d="M 242.743 225.372 L 241.023 225.372 C 242.843 223.182 243.753 220.612 243.753 217.672 C 243.753 214.712 242.843 212.112 241.013 209.882 L 242.753 209.882 C 244.613 212.032 245.543 214.632 245.543 217.682 C 245.543 220.732 244.613 223.292 242.743 225.372 Z" fill="white"/>
  <path d="M 505.896 206.08 L 472.926 206.08 L 472.926 232.22 L 505.896 232.22 L 505.896 206.08 Z" fill="#CEDB59" transform="matrix(0.594231, 0.804294, -0.804294, 0.594231, 374.848796, -304.706227)"/>
  <path d="M 520.717 205.803 L 483.257 205.803 L 483.257 213.903 L 520.717 213.903 L 520.717 205.803 Z" fill="#BBCB37" transform="matrix(0.594231, 0.804294, -0.804294, 0.594231, 372.474212, -318.593457)"/>
  <path d="M 489.556 217.741 L 492.666 211.601 L 496.076 211.601 L 491.126 220.711 L 491.126 226.521 L 487.986 226.521 L 487.986 220.821 L 483.036 211.611 L 486.466 211.611 L 489.556 217.741 Z" fill="#625F5B" transform="matrix(0.594231, 0.804294, -0.804294, 0.594231, 374.836048, -304.858968)"/>
  <path d="M 207.98 84.023 C 207.98 73 198.949 64.064 187.811 64.064 C 176.671 64.064 167.641 73 167.641 84.023 C 167.641 88.394 169.079 92.422 171.488 95.711 L 171.475 95.711 C 179.918 106.481 180.301 115.398 180.301 115.398 L 184.672 115.398 L 191.006 115.398 L 195.377 115.398 C 195.377 115.398 195.371 106.968 203.813 96.197 L 203.775 96.197 C 206.401 92.827 207.98 88.614 207.98 84.023 Z" fill="white" style=""/>
  <path d="M 183.541 71.141 C 182.902 71.362 182.269 71.628 181.65 71.944 C 180.799 72.374 180.014 72.88 179.291 73.437 L 180.601 76.422 C 179.879 77.067 179.247 77.787 178.716 78.565 L 175.259 78.199 C 174.479 79.66 173.955 81.234 173.705 82.854 L 176.774 84.219 C 176.71 85.301 176.799 86.395 177.068 87.463 C 176.32 87.989 175.06 88.823 174.262 89.361 C 174.466 89.974 174.716 90.581 175.01 91.176 C 175.418 91.992 175.904 92.751 176.447 93.447 L 179.579 92.144 C 180.263 92.883 181.036 93.522 181.886 94.034 L 181.33 97.386 C 182.807 98.101 184.411 98.557 186.059 98.728 L 187.67 95.641 C 188.596 95.641 189.536 95.527 190.463 95.293 L 192.316 98.019 C 192.987 97.791 193.651 97.514 194.303 97.178 C 195.191 96.723 196.016 96.192 196.77 95.603 L 195.422 92.631 C 196.163 91.961 196.809 91.201 197.345 90.386 L 200.669 90.955 C 201.493 89.418 202.043 87.748 202.273 86.035 C 201.301 85.68 199.94 85.174 199.173 84.871 C 199.23 83.884 199.161 82.891 198.943 81.911 L 201.8 80.096 C 201.576 79.363 201.295 78.641 200.937 77.933 C 200.503 77.061 199.985 76.263 199.403 75.53 L 196.4 76.991 C 195.684 76.207 194.86 75.543 193.965 75.011 L 194.7 71.76 C 193.274 71.065 191.734 70.603 190.143 70.407 L 188.801 73.475 C 187.676 73.424 186.526 73.538 185.395 73.835 L 183.541 71.141 Z M 193.696 81.652 C 195.236 84.725 193.926 88.52 190.769 90.133 C 187.612 91.745 183.803 90.556 182.263 87.483 C 180.723 84.41 182.033 80.615 185.19 79.002 C 188.347 77.396 192.156 78.585 193.696 81.652 Z" fill="#B3AFAB" style=""/>
  <path d="M 195.364 115.348 L 180.269 115.348 L 180.269 126.492 L 182.915 126.492 L 184.053 128.641 L 191.517 128.641 L 192.654 126.492 L 195.364 126.492 L 195.364 115.348 Z" fill="#848484" style=""/>
  <path d="M 195.364 122.355 L 180.269 122.355 L 180.269 123.304 L 195.364 123.304 L 195.364 122.355 Z" fill="#CCCAC7" style=""/>
  <path d="M 195.364 118.605 L 180.269 118.605 L 180.269 119.554 L 195.364 119.554 L 195.364 118.605 Z" fill="#CCCAC7" style=""/>
  <path d="M 143.371 278.078 L 151.726 239.366 L 146.946 239.917 L 141.782 278.057 L 143.371 278.078 Z" fill="#C8C6C4" style=""/>
  <path d="M 155.239 246.418 L 149.632 247.121 L 149.727 247.839 L 155.332 247.134 L 155.239 246.418 Z" fill="#A08BE8" style=""/>
  <path d="M 156.916 264.656 C 157.628 260.201 158.318 251.156 154.743 243.561 L 149.745 246.269 C 152.985 253.157 152.119 261.173 151.503 264.671 C 151.455 264.962 154.17 265.238 156.916 264.656 Z" fill="url(#paint3_linear)" style=""/>
  <path d="M 156.916 264.656 C 157.628 260.201 158.318 251.156 154.743 243.561 L 149.745 246.269 C 152.985 253.157 152.119 261.173 151.503 264.671 C 151.455 264.962 154.17 265.238 156.916 264.656 Z" fill="url(#paint4_linear)" style=""/>
  <path d="M 151.519 264.624 L 155.774 264.624 C 156.05 265.966 155.268 273.04 167.189 281.982 L 166.461 286.899 L 147.907 286.888 C 147.259 286.888 146.834 286.395 146.972 285.761 L 151.519 264.624 Z" fill="#522CD5" style=""/>
  <path d="M 167.699 280.967 C 168.411 281.473 168.454 282.044 168.267 282.912 L 167.629 286.021 C 167.529 286.498 167.046 286.888 166.557 286.888 L 166.461 286.888 C 165.908 286.888 165.552 286.452 165.67 285.906 L 166.105 283.375 C 166.324 282.372 166.318 281.737 165.377 281.051 C 159.821 277.001 153.107 271.274 153.979 264.614 L 156.921 264.614 C 156.708 268.034 158.345 274.329 167.699 280.967 Z" fill="url(#paint5_linear)" style=""/>
  <path d="M 165.983 281.675 C 166.291 282.158 166.254 282.678 166.105 283.38 L 165.67 285.911 C 165.552 286.452 165.908 286.888 166.461 286.893 L 166.557 286.893 C 167.046 286.893 167.529 286.504 167.629 286.026 L 168.267 282.917 C 168.374 282.418 168.401 282.023 168.272 281.675 L 165.983 281.675 Z" fill="url(#paint6_radial)" style=""/>
  <path d="M 148.194 264.656 C 148.905 260.201 149.596 251.156 146.021 243.561 L 141.022 246.269 C 144.263 253.157 143.396 261.173 142.781 264.671 C 142.733 264.962 145.448 265.238 148.194 264.656 Z" fill="url(#paint7_linear)" style=""/>
  <path d="M 148.194 264.656 C 148.905 260.201 149.596 251.156 146.021 243.561 L 141.022 246.269 C 144.263 253.157 143.396 261.173 142.781 264.671 C 142.733 264.962 145.448 265.238 148.194 264.656 Z" fill="url(#paint8_linear)" style=""/>
  <path d="M 142.791 264.624 L 147.046 264.624 C 147.322 265.966 146.542 273.04 158.462 281.982 L 157.734 286.899 L 139.179 286.888 C 138.532 286.888 138.107 286.395 138.244 285.761 L 142.791 264.624 Z" fill="#522CD5" style=""/>
  <path d="M 158.977 280.967 C 159.689 281.473 159.732 282.044 159.545 282.912 L 158.908 286.021 C 158.806 286.498 158.323 286.888 157.834 286.888 L 157.739 286.888 C 157.187 286.888 156.831 286.452 156.948 285.906 L 157.383 283.375 C 157.601 282.372 157.595 281.737 156.656 281.051 C 151.099 277.001 144.386 271.274 145.256 264.614 L 148.2 264.614 C 147.981 268.034 149.623 274.329 158.977 280.967 Z" fill="url(#paint9_linear)" style=""/>
  <path d="M 157.261 281.675 C 157.569 282.158 157.532 282.678 157.383 283.38 L 156.948 285.916 C 156.831 286.457 157.187 286.893 157.739 286.899 L 157.834 286.899 C 158.323 286.899 158.806 286.51 158.908 286.031 L 159.545 282.922 C 159.651 282.424 159.678 282.029 159.55 281.68 L 157.261 281.675 Z" fill="url(#paint10_radial)" style=""/>
  <path d="M 154.508 240.476 L 148.87 240.848 L 148.919 241.569 L 154.558 241.198 L 154.508 240.476 Z" fill="#A08BE8" style=""/>
  <path d="M 173.765 228.345 C 175.491 221.069 174.089 215.329 174.089 215.329 L 175.826 215.282 L 175.868 215.246 C 173.016 202.048 160.868 192.311 146.595 192.686 C 130.516 193.107 117.831 206.206 118.262 221.941 C 118.692 237.677 132.077 250.09 148.157 249.669 C 160.846 249.336 171.417 241.107 175.104 229.921 C 175.21 229.453 175.178 228.61 173.765 228.345 Z" fill="url(#paint11_radial)" style=""/>
  <path d="M 173.765 228.345 C 175.47 221.156 174.127 215.475 174.094 215.334 L 160.661 215.641 C 160.661 215.641 158.754 215.5 158.796 217.2 C 158.839 218.9 159.046 223.709 159.189 229.022 C 159.227 230.118 173.478 229.364 173.765 228.345 Z" fill="url(#paint12_radial)" style=""/>
  <path d="M 173.77 228.319 C 173.834 228.044 173.892 227.774 173.951 227.503 C 174.233 226.142 174.413 224.841 174.514 223.63 C 173.914 223.428 173.319 223.584 172.676 224.083 C 171.79 224.774 167.242 228.491 167.242 228.491 L 173.77 228.319 Z" fill="#A08BE8" style=""/>
  <path d="M 174.998 230.259 C 174.998 230.259 175.762 228.72 173.765 228.345 C 173.765 228.34 173.77 228.331 173.77 228.325 L 160.841 228.616 C 160.151 228.632 159.248 228.252 159.153 227.602 C 159.167 228.07 159.179 228.549 159.195 229.027 C 159.221 230.019 159.991 230.524 160.671 230.596 C 160.74 230.601 160.809 230.607 160.879 230.607 L 162.908 230.555 L 174.998 230.259 Z" fill="#512BD4" style=""/>
  <path d="M 172.878 234.952 L 122.67 236.268 C 123.849 238.114 125.236 239.813 126.797 241.337 L 169.032 240.229 C 170.514 238.628 171.804 236.856 172.878 234.952 Z" fill="#D8CFF7" style=""/>
  <path d="M 167.751 241.543 C 170.185 239.21 172.203 236.461 173.681 233.419 L 167.535 233.581 L 167.751 241.543 Z" fill="#512BD4" style=""/>
  <path d="M 148.497 191.547 L 142.871 191.657 L 143.546 185.985 L 147.583 185.907 L 148.497 191.547 Z" fill="#8A6FE8" style=""/>
  <path d="M 150.722 194.957 C 150.977 194.952 151.173 194.734 151.142 194.488 C 150.791 191.88 148.486 189.894 145.734 189.946 C 142.983 189.998 140.763 192.077 140.518 194.697 C 140.497 194.947 140.703 195.155 140.954 195.15 L 150.722 194.957 Z" fill="url(#paint13_radial)" style=""/>
  <path d="M 167.509 225.98 C 168.767 225.976 169.781 224.294 169.773 222.224 C 169.764 220.154 168.737 218.48 167.478 218.485 C 166.219 218.491 165.206 220.173 165.214 222.242 C 165.223 224.312 166.25 225.986 167.509 225.98 Z" fill="#512BD4" style=""/>
  <path d="M 167.428 220.253 C 166.61 221.084 166.637 222.404 167.487 223.2 C 168.066 223.745 168.884 223.906 169.6 223.688 C 169.712 223.241 169.776 222.742 169.776 222.228 C 169.77 221.214 169.521 220.293 169.123 219.623 C 168.507 219.57 167.885 219.785 167.428 220.253 Z" fill="#8065E0" style=""/>
  <path d="M 145.549 187.097 C 147.792 187.097 149.612 185.317 149.612 183.121 C 149.612 180.925 147.792 179.144 145.549 179.144 C 143.304 179.144 141.485 180.925 141.485 183.121 C 141.485 185.317 143.304 187.097 145.549 187.097 Z" fill="#D8CFF7" style=""/>
  <path d="M 181.515 240.37 L 185.377 236.949 C 186.397 236.029 186.392 234.505 185.366 233.544 C 184.341 232.582 182.678 232.541 181.658 233.461 L 177.7 236.964 L 181.515 240.37 Z" fill="#8A6FE8" style=""/>
  <path d="M 175.895 245.916 L 180.883 248.068 C 182.217 248.635 183.719 248.099 184.245 246.872 C 184.771 245.646 184.113 244.195 182.779 243.628 L 177.669 241.419 L 175.895 245.916 Z" fill="#8A6FE8" style=""/>
  <path d="M 180.825 243.041 L 186.19 242.106 C 187.618 241.846 188.553 240.582 188.288 239.278 C 188.016 237.978 186.641 237.131 185.217 237.391 L 179.72 238.352 L 180.825 243.041 Z" fill="#8A6FE8" style=""/>
  <path d="M 179.401 245.121 L 184.798 245.843 C 186.238 246.026 187.528 245.105 187.683 243.785 C 187.837 242.464 186.789 241.248 185.35 241.066 L 179.815 240.327 L 179.401 245.121 Z" fill="#8A6FE8" style=""/>
  <path d="M 179.125 244.787 L 178.748 239.465 C 172.703 239.647 167.29 239.61 162.971 237.885 C 154.366 234.438 152.412 223.667 152.05 220.662 L 145.521 221.291 C 147.695 229.572 150.738 247.225 179.125 244.787 Z" fill="url(#paint14_linear)" style=""/>
  <path d="M 149.016 227.669 C 151.971 227.669 154.366 225.326 154.366 222.436 C 154.366 219.544 151.971 217.2 149.016 217.2 C 146.063 217.2 143.668 219.544 143.668 222.436 C 143.668 225.326 146.063 227.669 149.016 227.669 Z" fill="url(#paint15_radial)" style=""/>
  <path d="M 175.385 236.975 C 178.042 235.727 181.366 236.74 182.822 239.24 C 184.277 241.741 183.3 244.783 180.649 246.03 C 177.993 247.278 174.668 246.265 173.212 243.764 C 171.757 241.264 172.735 238.222 175.385 236.975 Z" fill="url(#paint16_radial)" style=""/>
  <path d="M 111.63 59.904 C 117.628 59.904 122.491 55.041 122.491 49.043 C 122.491 43.045 117.628 38.182 111.63 38.182 C 105.632 38.182 100.769 43.045 100.769 49.043 C 100.769 55.041 105.632 59.904 111.63 59.904 Z" fill="#CEDB59" style=""/>
  <path d="M 102.013 75.324 L 86.966 83.258 C 86.601 83.449 86.145 83.308 85.954 82.943 L 77.564 67.034 C 77.373 66.669 77.514 66.213 77.879 66.022 L 92.927 58.088 C 93.291 57.897 93.747 58.038 93.938 58.403 L 102.328 74.313 C 102.519 74.677 102.378 75.133 102.013 75.324 Z" fill="#F7B548" style=""/>
  <path d="M 107.261 22.837 L 94.154 36.184 C 93.324 37.03 91.899 36.682 91.542 35.554 L 85.73 17.158 C 85.357 15.98 86.435 14.853 87.629 15.168 L 106.548 20.225 C 107.709 20.532 108.106 21.983 107.261 22.837 Z" fill="#29C3E5" style=""/>
  <path d="M 105.213 51.994 L 105.968 49.507 L 110.577 48.297 L 107.41 44.732 L 108.115 42.394 L 112.384 47.41 L 118.329 45.727 L 117.599 48.131 L 113.23 49.225 L 116.273 52.517 L 115.56 54.863 L 111.439 50.096 L 105.213 51.994 Z" fill="#625F5B" style=""/>
  <path d="M 102.419 25.117 L 100.811 26.742 L 96.724 25.796 L 97.727 29.875 L 96.218 31.401 L 94.949 25.747 L 89.627 24.619 L 91.177 23.044 L 95.024 23.981 L 94.004 20.167 L 95.521 18.633 L 96.773 24.039 L 102.419 25.117 Z" fill="#625F5B" style=""/>
  <path d="M 87.231 78.649 L 85.838 75.996 L 88.64 71.27 L 83.16 70.905 L 81.85 68.418 L 89.403 69.081 L 92.918 62.897 L 94.261 65.458 L 91.567 69.885 L 96.724 70.126 L 98.042 72.63 L 90.804 72.049 L 87.231 78.649 Z" fill="#625F5B" style=""/>
</svg>