<?xml version="1.0" encoding="utf-8"?>
<svg width="636" height="300" viewBox="0 0 636 300" fill="none" xmlns="http://www.w3.org/2000/svg">
  <defs>
    <linearGradient id="paint3_linear" x1="282.827" y1="185.723" x2="290.768" y2="225.539" gradientUnits="userSpaceOnUse" gradientTransform="matrix(0.656244, 0, 0, 0.642211, -51.752216, 114.471786)">
      <stop stop-color="#522CD5"/>
      <stop offset="0.4397" stop-color="#8A6FE8"/>
    </linearGradient>
    <linearGradient id="paint4_linear" x1="282.827" y1="185.723" x2="290.768" y2="225.539" gradientUnits="userSpaceOnUse" gradientTransform="matrix(0.656244, 0, 0, 0.642211, -51.752216, 114.471786)">
      <stop stop-color="#522CD5"/>
      <stop offset="0.4397" stop-color="#8A6FE8"/>
    </linearGradient>
    <linearGradient id="paint5_linear" x1="289.744" y1="222.874" x2="312.236" y2="266.566" gradientUnits="userSpaceOnUse" gradientTransform="matrix(0.656244, 0, 0, 0.642211, -51.752216, 114.471786)">
      <stop stop-color="#522CD5"/>
      <stop offset="0.4397" stop-color="#8A6FE8"/>
    </linearGradient>
    <radialGradient id="paint6_radial" cx="0" cy="0" r="1" gradientUnits="userSpaceOnUse" gradientTransform="matrix(5.866681, 0, 0, 5.74123, 149.116333, 279.762299)">
      <stop offset="0.034" stop-color="#522CD5"/>
      <stop offset="1" stop-color="#8A6FE8"/>
    </radialGradient>
    <linearGradient id="paint7_linear" x1="266.407" y1="185.723" x2="274.348" y2="225.538" gradientUnits="userSpaceOnUse" gradientTransform="matrix(0.656244, 0, 0, 0.642211, -51.752216, 114.471786)">
      <stop stop-color="#522CD5"/>
      <stop offset="0.4397" stop-color="#8A6FE8"/>
    </linearGradient>
    <linearGradient id="paint8_linear" x1="266.407" y1="185.723" x2="274.348" y2="225.538" gradientUnits="userSpaceOnUse" gradientTransform="matrix(0.656244, 0, 0, 0.642211, -51.752216, 114.471786)">
      <stop stop-color="#522CD5"/>
      <stop offset="0.4397" stop-color="#8A6FE8"/>
    </linearGradient>
    <linearGradient id="paint9_linear" x1="273.324" y1="222.874" x2="295.816" y2="266.566" gradientUnits="userSpaceOnUse" gradientTransform="matrix(0.656244, 0, 0, 0.642211, -51.752216, 114.471786)">
      <stop stop-color="#522CD5"/>
      <stop offset="0.4397" stop-color="#8A6FE8"/>
    </linearGradient>
    <radialGradient id="paint10_radial" cx="0" cy="0" r="1" gradientUnits="userSpaceOnUse" gradientTransform="matrix(5.8667, 0, 0, 5.741249, 138.339478, 279.762299)">
      <stop offset="0.034" stop-color="#522CD5"/>
      <stop offset="1" stop-color="#8A6FE8"/>
    </radialGradient>
    <radialGradient id="paint11_radial" cx="0" cy="0" r="1" gradientUnits="userSpaceOnUse" gradientTransform="matrix(29.977077, -6.182025, 6.317106, 29.336061, 125.450195, 187.208023)">
      <stop offset="0.4744" stop-color="#A08BE8"/>
      <stop offset="0.8618" stop-color="#8065E0"/>
    </radialGradient>
    <radialGradient id="paint12_radial" cx="0" cy="0" r="1" gradientUnits="userSpaceOnUse" gradientTransform="matrix(23.029564, -4.749273, 4.853049, 22.537107, 150.432083, 204.593994)">
      <stop offset="0.2022" stop-color="#E1DFDD"/>
      <stop offset="0.7337" stop-color="white"/>
    </radialGradient>
    <radialGradient id="paint13_radial" cx="0" cy="0" r="1" gradientUnits="userSpaceOnUse" gradientTransform="matrix(5.187936, -1.069882, 1.09326, 5.076999, 124.370674, 170.865997)">
      <stop stop-color="#8065E0"/>
      <stop offset="0.8628" stop-color="#512BD4"/>
    </radialGradient>
    <linearGradient id="paint14_linear" x1="291.775" y1="127.984" x2="309.421" y2="198.18" gradientUnits="userSpaceOnUse" gradientTransform="matrix(0.656244, 0, 0, 0.642211, -51.752216, 114.471786)">
      <stop offset="0.3344" stop-color="#9780E6"/>
      <stop offset="0.8488" stop-color="#8A6FE8"/>
    </linearGradient>
    <radialGradient id="paint15_radial" cx="0" cy="0" r="1" gradientUnits="userSpaceOnUse" gradientTransform="matrix(9.784694, 0.730813, -0.746782, 9.575462, 129.19342, 204.539398)">
      <stop stop-color="#8065E0"/>
      <stop offset="0.8628" stop-color="#512BD4"/>
    </radialGradient>
    <radialGradient id="paint16_radial" cx="0" cy="0" r="1" gradientUnits="userSpaceOnUse" gradientTransform="matrix(-10.990569, -3.211686, 3.062816, -10.03767, 165.437805, 227.213959)">
      <stop stop-color="#8065E0"/>
      <stop offset="0.8628" stop-color="#512BD4"/>
    </radialGradient>
  </defs>
  <path d="M 475.373 243.382 L 475.373 282.626 C 475.373 284.351 487.889 285.745 503.338 285.745 C 518.784 285.745 531.3 284.351 531.3 282.626 L 531.3 243.382 L 475.373 243.382 Z" fill="#57CACF" style=""/>
  <path d="M 503.29 239.566 C 487.877 239.566 475.383 241.286 475.383 243.411 C 475.383 245.537 487.877 247.255 503.29 247.255 C 518.705 247.255 531.198 245.537 531.198 243.411 C 531.198 241.286 518.705 239.566 503.29 239.566 Z" fill="#9FE4EB" style=""/>
  <path d="M 475.373 264.123 C 479.512 266.168 492.324 267.086 503.318 267.086 C 514.365 267.086 527.205 266.159 531.297 264.102 L 531.297 262.903 C 531.226 262.903 531.155 262.915 531.095 262.956 C 528.975 264.428 518.522 265.992 503.313 265.992 C 488.223 265.992 477.752 264.44 475.565 262.977 C 475.509 262.941 475.439 262.924 475.369 262.924 L 475.369 264.123 L 475.373 264.123 Z" fill="#88DDE5" style=""/>
  <path d="M 475.373 254.412 C 479.512 256.457 492.324 257.377 503.318 257.377 C 503.323 257.377 503.333 257.377 503.338 257.377 C 514.375 257.377 527.201 256.454 531.297 254.393 L 531.297 253.193 C 531.226 253.193 531.155 253.205 531.095 253.246 C 528.975 254.718 518.522 256.282 503.313 256.282 C 488.223 256.282 477.752 254.731 475.565 253.267 C 475.509 253.23 475.439 253.214 475.369 253.214 L 475.369 254.412 L 475.373 254.412 Z" fill="#88DDE5" style=""/>
  <path d="M 531.297 272.613 C 531.226 272.613 531.155 272.625 531.095 272.666 C 528.975 274.137 518.522 275.703 503.313 275.703 C 488.223 275.703 477.752 274.15 475.565 272.687 C 475.509 272.649 475.439 272.634 475.369 272.634 L 475.369 273.829 C 479.508 275.873 492.319 276.792 503.313 276.792 C 503.318 276.792 503.323 276.792 503.323 276.792 C 514.365 276.792 527.196 275.868 531.292 273.808 L 531.292 272.613 L 531.297 272.613 Z" fill="#88DDE5" style=""/>
  <path d="M 463.463 236.532 L 458.103 236.532 L 458.103 281.382 L 463.463 281.382 L 463.463 236.532 Z" fill="#A7A4A0"/>
  <path d="M 447.743 236.532 L 442.383 236.532 L 442.383 281.382 L 447.743 281.382 L 447.743 236.532 Z" fill="#A7A4A0"/>
  <path d="M 468.553 242.182 L 238.763 242.182 C 233.103 242.182 228.513 237.592 228.513 231.932 C 228.513 226.272 233.103 221.682 238.763 221.682 L 468.553 221.682 C 474.213 221.682 478.803 226.272 478.803 231.932 C 478.803 237.592 474.213 242.182 468.553 242.182 Z" fill="#797672"/>
  <path d="M 214.923 240.872 C 209.993 240.872 205.983 236.862 205.983 231.932 C 205.983 227.002 209.993 222.992 214.923 222.992 L 444.713 222.992 C 449.643 222.992 453.653 227.002 453.653 231.932 C 453.653 236.862 449.643 240.872 444.713 240.872 L 214.923 240.872 Z" fill="#605D5A"/>
  <path d="M 444.703 224.302 C 448.913 224.302 452.333 227.722 452.333 231.932 C 452.333 236.142 448.913 239.562 444.703 239.562 L 214.923 239.562 C 210.713 239.562 207.293 236.142 207.293 231.932 C 207.293 227.722 210.713 224.302 214.923 224.302 L 444.703 224.302 Z M 444.703 221.682 L 214.923 221.682 C 209.263 221.682 204.673 226.272 204.673 231.932 C 204.673 237.592 209.263 242.182 214.923 242.182 L 444.713 242.182 C 450.373 242.182 454.963 237.592 454.963 231.932 C 454.963 226.272 450.373 221.682 444.703 221.682 Z" fill="#A7A4A0"/>
  <path d="M 215.453 236.732 C 218.049 236.732 220.153 234.628 220.153 232.032 C 220.153 229.436 218.049 227.332 215.453 227.332 C 212.857 227.332 210.753 229.436 210.753 232.032 C 210.753 234.628 212.857 236.732 215.453 236.732 Z" fill="#9C9894"/>
  <path d="M 253.463 236.732 C 256.059 236.732 258.163 234.628 258.163 232.032 C 258.163 229.436 256.059 227.332 253.463 227.332 C 250.867 227.332 248.763 229.436 248.763 232.032 C 248.763 234.628 250.867 236.732 253.463 236.732 Z" fill="#9C9894"/>
  <path d="M 291.473 236.732 C 294.069 236.732 296.173 234.628 296.173 232.032 C 296.173 229.436 294.069 227.332 291.473 227.332 C 288.877 227.332 286.773 229.436 286.773 232.032 C 286.773 234.628 288.877 236.732 291.473 236.732 Z" fill="#9C9894"/>
  <path d="M 329.483 236.732 C 332.078 236.732 334.183 234.628 334.183 232.032 C 334.183 229.436 332.078 227.332 329.483 227.332 C 326.887 227.332 324.783 229.436 324.783 232.032 C 324.783 234.628 326.887 236.732 329.483 236.732 Z" fill="#9C9894"/>
  <path d="M 367.493 236.732 C 370.089 236.732 372.193 234.628 372.193 232.032 C 372.193 229.436 370.089 227.332 367.493 227.332 C 364.897 227.332 362.793 229.436 362.793 232.032 C 362.793 234.628 364.897 236.732 367.493 236.732 Z" fill="#9C9894"/>
  <path d="M 405.503 236.732 C 408.098 236.732 410.203 234.628 410.203 232.032 C 410.203 229.436 408.098 227.332 405.503 227.332 C 402.907 227.332 400.803 229.436 400.803 232.032 C 400.803 234.628 402.907 236.732 405.503 236.732 Z" fill="#9C9894"/>
  <path d="M 443.513 236.732 C 446.109 236.732 448.213 234.628 448.213 232.032 C 448.213 229.436 446.109 227.332 443.513 227.332 C 440.917 227.332 438.813 229.436 438.813 232.032 C 438.813 234.628 440.917 236.732 443.513 236.732 Z" fill="#9C9894"/>
  <path d="M 232.586 207.317 L 216.566 207.317 L 216.566 125.137 C 216.566 111.427 227.726 100.267 241.436 100.267 L 255.386 100.267 C 260.266 100.267 264.236 96.297 264.236 91.417 C 264.236 86.537 260.266 82.567 255.386 82.567 L 203.716 82.567 L 203.716 66.547 L 255.386 66.547 C 269.096 66.547 280.256 77.707 280.256 91.417 C 280.256 105.127 269.096 116.287 255.386 116.287 L 241.436 116.287 C 236.556 116.287 232.586 120.257 232.586 125.137 L 232.586 207.317 Z" fill="#CCCAC7"/>
  <path d="M 295.153 195.272 L 262.183 195.272 L 262.183 221.412 L 295.153 221.412 L 295.153 195.272 Z" fill="#CEDB59"/>
  <path d="M 297.393 188.652 L 259.933 188.652 L 259.933 196.752 L 297.393 196.752 L 297.393 188.652 Z" fill="#BBCB37"/>
  <path d="M 278.683 206.852 L 281.793 200.712 L 285.203 200.712 L 280.253 209.822 L 280.253 215.632 L 277.113 215.632 L 277.113 209.932 L 272.163 200.722 L 275.593 200.722 L 278.683 206.852 Z" fill="#625F5B"/>
  <path d="M 363.263 195.272 L 330.293 195.272 L 330.293 221.412 L 363.263 221.412 L 363.263 195.272 Z" fill="#CEDB59"/>
  <path d="M 365.503 188.652 L 328.043 188.652 L 328.043 196.752 L 365.503 196.752 L 365.503 188.652 Z" fill="#BBCB37"/>
  <path d="M 346.793 206.852 L 349.903 200.712 L 353.313 200.712 L 348.363 209.822 L 348.363 215.632 L 345.223 215.632 L 345.223 209.932 L 340.273 200.722 L 343.703 200.722 L 346.793 206.852 Z" fill="#625F5B"/>
  <path d="M 431.373 195.272 L 398.403 195.272 L 398.403 221.412 L 431.373 221.412 L 431.373 195.272 Z" fill="#CEDB59"/>
  <path d="M 433.613 188.652 L 396.153 188.652 L 396.153 196.752 L 433.613 196.752 L 433.613 188.652 Z" fill="#BBCB37"/>
  <path d="M 414.903 206.852 L 418.013 200.712 L 421.423 200.712 L 416.473 209.822 L 416.473 215.632 L 413.333 215.632 L 413.333 209.932 L 408.383 200.722 L 411.813 200.722 L 414.903 206.852 Z" fill="#625F5B"/>
  <path d="M 269.573 281.702 L 269.573 160.382 C 269.573 154.562 264.853 149.842 259.033 149.842 L 184.953 149.842 C 179.133 149.842 174.413 154.562 174.413 160.382 L 174.413 281.702 L 269.573 281.702 Z" fill="#1DACCC"/>
  <path d="M 269.573 216.952 L 269.573 153.932 C 269.573 151.672 267.743 149.842 265.483 149.842 L 178.503 149.842 C 176.243 149.842 174.413 151.672 174.413 153.932 L 174.413 216.952 L 269.573 216.952 Z" fill="#0B7891"/>
  <path d="M 224.543 192.382 L 253.153 192.382 C 254.403 192.382 255.423 191.362 255.423 190.112 L 255.423 161.502 C 255.423 160.252 254.403 159.232 253.153 159.232 L 224.543 159.232 C 223.293 159.232 222.273 160.252 222.273 161.502 L 222.273 190.112 C 222.273 191.372 223.283 192.382 224.543 192.382 Z" fill="white"/>
  <path d="M 189.303 174.242 C 193.213 174.242 196.383 171.072 196.383 167.162 C 196.383 163.252 193.213 160.082 189.303 160.082 C 185.393 160.082 182.223 163.252 182.223 167.162 C 182.223 171.072 185.393 174.242 189.303 174.242 Z" fill="white"/>
  <path d="M 209.323 174.242 C 213.233 174.242 216.403 171.072 216.403 167.162 C 216.403 163.252 213.233 160.082 209.323 160.082 C 205.413 160.082 202.243 163.252 202.243 167.162 C 202.243 171.072 205.413 174.242 209.323 174.242 Z" fill="white"/>
  <path d="M 216.403 185.792 L 209.323 185.792 L 209.323 189.142 L 216.403 189.142 L 216.403 185.792 Z" fill="#CEDB59"/>
  <path d="M 203.393 185.792 L 196.313 185.792 L 196.313 189.142 L 203.393 189.142 L 203.393 185.792 Z" fill="#29C3E5"/>
  <path d="M 190.383 185.792 L 183.303 185.792 L 183.303 189.142 L 190.383 189.142 L 190.383 185.792 Z" fill="#F7B548"/>
  <path d="M 255.413 173.242 L 249.623 173.242 L 247.533 167.942 L 241.403 167.852 L 238.233 162.002 L 234.063 174.852 L 230.853 168.772 L 227.793 173.242 L 222.273 173.242 L 222.273 175.242 L 228.853 175.242 L 230.633 172.642 L 234.503 179.972 L 238.693 167.052 L 240.193 169.832 L 246.163 169.922 L 248.263 175.242 L 255.413 175.242 L 255.413 173.242 Z" fill="#CCCAC7"/>
  <path d="M 222.273 183.182 L 222.273 190.112 C 222.273 191.362 223.293 192.382 224.543 192.382 L 253.153 192.382 C 254.403 192.382 255.423 191.362 255.423 190.112 L 255.423 183.182 L 222.273 183.182 Z" fill="#CCCAC7"/>
  <path d="M 209.323 174.242 C 213.233 174.242 216.403 171.072 216.403 167.162 L 202.253 167.162 C 202.253 171.072 205.413 174.242 209.323 174.242 Z" fill="#D5D3D0"/>
  <path d="M 189.303 174.242 C 193.213 174.242 196.383 171.072 196.383 167.162 L 182.233 167.162 C 182.233 171.072 185.393 174.242 189.303 174.242 Z" fill="#D5D3D0"/>
  <path d="M 189.633 169.192 C 189.253 169.192 188.883 168.972 188.713 168.592 L 186.243 163.002 C 186.023 162.492 186.253 161.902 186.753 161.682 C 187.263 161.462 187.853 161.682 188.073 162.192 L 190.543 167.782 C 190.763 168.292 190.533 168.882 190.033 169.102 C 189.903 169.162 189.763 169.192 189.633 169.192 Z" fill="#B3AFAB"/>
  <path d="M 209.143 169.242 C 208.923 169.242 208.693 169.162 208.503 169.012 C 208.073 168.662 208.013 168.032 208.373 167.602 L 212.373 162.762 C 212.723 162.342 213.353 162.282 213.783 162.632 C 214.213 162.982 214.273 163.612 213.913 164.042 L 209.913 168.882 C 209.713 169.112 209.423 169.242 209.143 169.242 Z" fill="#B3AFAB"/>
  <path d="M 207.683 232.992 L 236.293 232.992 C 237.543 232.992 238.563 231.972 238.563 230.722 L 238.563 202.112 C 238.563 200.862 237.543 199.842 236.293 199.842 L 207.683 199.842 C 206.433 199.842 205.413 200.862 205.413 202.112 L 205.413 230.722 C 205.413 231.972 206.433 232.992 207.683 232.992 Z" fill="#F7B548"/>
  <path d="M 215.043 210.832 C 214.763 210.672 214.453 210.592 214.103 210.592 C 213.113 210.592 212.613 211.152 212.613 212.272 L 212.613 213.492 L 214.703 213.492 L 214.703 215.092 L 212.623 215.092 L 212.623 222.502 L 210.583 222.502 L 210.583 215.092 L 209.043 215.092 L 209.043 213.492 L 210.583 213.492 L 210.583 212.032 C 210.583 211.082 210.893 210.332 211.513 209.782 C 212.133 209.232 212.913 208.962 213.843 208.962 C 214.343 208.962 214.743 209.022 215.043 209.132 L 215.043 210.832 Z" fill="white"/>
  <path d="M 220.633 225.372 L 218.913 225.372 C 217.063 223.292 216.133 220.732 216.133 217.692 C 216.133 214.642 217.063 212.032 218.913 209.892 L 220.643 209.892 C 218.823 212.122 217.913 214.712 217.913 217.682 C 217.923 220.612 218.823 223.182 220.633 225.372 Z" fill="white"/>
  <path d="M 229.673 213.492 L 226.673 218.052 L 229.643 222.502 L 227.273 222.502 L 225.693 219.712 C 225.593 219.542 225.473 219.322 225.343 219.062 L 225.303 219.062 C 225.283 219.112 225.153 219.332 224.933 219.712 L 223.323 222.502 L 220.963 222.502 L 224.023 218.082 L 221.123 213.492 L 223.493 213.492 L 225.053 216.422 C 225.173 216.642 225.283 216.862 225.393 217.092 L 225.423 217.092 L 227.433 213.492 L 229.673 213.492 Z" fill="white"/>
  <path d="M 231.743 225.372 L 230.023 225.372 C 231.843 223.182 232.753 220.612 232.753 217.672 C 232.753 214.712 231.843 212.112 230.013 209.882 L 231.753 209.882 C 233.613 212.032 234.543 214.632 234.543 217.682 C 234.543 220.732 233.613 223.292 231.743 225.372 Z" fill="white"/>
  <path d="M 494.896 206.08 L 461.926 206.08 L 461.926 232.22 L 494.896 232.22 L 494.896 206.08 Z" fill="#CEDB59" transform="matrix(0.594231, 0.804294, -0.804294, 0.594231, 370.385339, -295.85899)"/>
  <path d="M 509.717 205.803 L 472.257 205.803 L 472.257 213.903 L 509.717 213.903 L 509.717 205.803 Z" fill="#BBCB37" transform="matrix(0.594231, 0.804294, -0.804294, 0.594231, 368.010761, -309.746232)"/>
  <path d="M 478.556 217.741 L 481.666 211.601 L 485.076 211.601 L 480.126 220.711 L 480.126 226.521 L 476.986 226.521 L 476.986 220.821 L 472.036 211.611 L 475.466 211.611 L 478.556 217.741 Z" fill="#625F5B" transform="matrix(0.594231, 0.804294, -0.804294, 0.594231, 370.372591, -296.011731)"/>
  <path d="M 164.575 125.003 C 192.883 125.003 215.831 102.294 215.831 74.28 C 215.831 46.268 192.883 23.558 164.575 23.558 C 136.267 23.558 113.319 46.268 113.319 74.28 C 113.319 102.294 136.267 125.003 164.575 125.003 Z" fill="#CEDB59" style=""/>
  <path d="M 188.309 67.505 C 188.309 54.413 177.584 43.8 164.355 43.8 C 151.125 43.8 140.4 54.413 140.4 67.505 C 140.4 72.696 142.108 77.48 144.969 81.386 L 144.954 81.386 C 154.981 94.177 155.436 104.768 155.436 104.768 L 160.628 104.768 L 168.15 104.768 L 173.341 104.768 C 173.341 104.768 173.334 94.756 183.36 81.964 L 183.315 81.964 C 186.434 77.961 188.309 72.958 188.309 67.505 Z" fill="white" style=""/>
  <path d="M 159.284 52.205 C 158.525 52.468 157.774 52.784 157.038 53.159 C 156.028 53.67 155.095 54.271 154.237 54.932 L 155.793 58.477 C 154.935 59.243 154.184 60.099 153.554 61.023 L 149.448 60.588 C 148.522 62.323 147.899 64.193 147.603 66.116 L 151.247 67.738 C 151.171 69.023 151.277 70.322 151.596 71.591 C 150.708 72.215 149.212 73.206 148.264 73.845 C 148.506 74.573 148.803 75.294 149.152 76 C 149.637 76.969 150.214 77.871 150.859 78.697 L 154.579 77.15 C 155.391 78.028 156.309 78.787 157.319 79.395 L 156.658 83.376 C 158.412 84.225 160.317 84.766 162.275 84.969 L 164.188 81.303 C 165.288 81.303 166.404 81.168 167.505 80.89 L 169.706 84.127 C 170.503 83.857 171.292 83.527 172.066 83.128 C 173.121 82.588 174.1 81.957 174.996 81.258 L 173.395 77.728 C 174.275 76.932 175.042 76.03 175.679 75.062 L 179.626 75.738 C 180.605 73.912 181.258 71.929 181.531 69.894 C 180.377 69.473 178.761 68.872 177.85 68.512 C 177.918 67.34 177.835 66.161 177.577 64.997 L 180.97 62.841 C 180.704 61.97 180.37 61.113 179.945 60.272 C 179.429 59.236 178.814 58.289 178.123 57.418 L 174.556 59.153 C 173.706 58.222 172.727 57.433 171.664 56.802 L 172.537 52.941 C 170.844 52.115 169.015 51.567 167.125 51.334 L 165.531 54.977 C 164.195 54.917 162.829 55.052 161.486 55.405 L 159.284 52.205 Z M 171.345 64.689 C 173.174 68.339 171.618 72.846 167.869 74.761 C 164.119 76.676 159.596 75.264 157.766 71.614 C 155.937 67.964 157.493 63.457 161.243 61.542 C 164.992 59.634 169.516 61.046 171.345 64.689 Z" fill="#B3AFAB" style=""/>
  <path d="M 173.326 104.708 L 155.398 104.708 L 155.398 117.943 L 158.541 117.943 L 159.892 120.496 L 168.757 120.496 L 170.108 117.943 L 173.326 117.943 L 173.326 104.708 Z" fill="#848484" style=""/>
  <path d="M 173.326 113.03 L 155.398 113.03 L 155.398 114.157 L 173.326 114.157 L 173.326 113.03 Z" fill="#CCCAC7" style=""/>
  <path d="M 173.326 108.576 L 155.398 108.576 L 155.398 109.703 L 173.326 109.703 L 173.326 108.576 Z" fill="#CCCAC7" style=""/>
  <path d="M 121.785 276.001 L 132.108 228.175 L 126.202 228.856 L 119.823 275.975 L 121.785 276.001 Z" fill="#C8C6C4" style=""/>
  <path d="M 136.448 236.887 L 129.521 237.756 L 129.638 238.643 L 136.563 237.772 L 136.448 236.887 Z" fill="#A08BE8" style=""/>
  <path d="M 138.519 259.419 C 139.399 253.915 140.251 242.741 135.835 233.358 L 129.66 236.704 C 133.663 245.213 132.593 255.116 131.832 259.438 C 131.773 259.797 135.127 260.138 138.519 259.419 Z" fill="url(#paint3_linear)" style=""/>
  <path d="M 138.519 259.419 C 139.399 253.915 140.251 242.741 135.835 233.358 L 129.66 236.704 C 133.663 245.213 132.593 255.116 131.832 259.438 C 131.773 259.797 135.127 260.138 138.519 259.419 Z" fill="url(#paint4_linear)" style=""/>
  <path d="M 131.852 259.38 L 137.109 259.38 C 137.45 261.038 136.484 269.777 151.211 280.824 L 150.312 286.899 L 127.39 286.886 C 126.589 286.886 126.064 286.276 126.234 285.493 L 131.852 259.38 Z" fill="#522CD5" style=""/>
  <path d="M 151.841 279.571 C 152.721 280.195 152.774 280.901 152.543 281.973 L 151.755 285.814 C 151.631 286.404 151.034 286.886 150.43 286.886 L 150.312 286.886 C 149.629 286.886 149.189 286.347 149.334 285.672 L 149.872 282.545 C 150.142 281.306 150.135 280.522 148.973 279.674 C 142.109 274.671 133.814 267.595 134.891 259.367 L 138.526 259.367 C 138.263 263.593 140.285 271.37 151.841 279.571 Z" fill="url(#paint5_linear)" style=""/>
  <path d="M 149.721 280.445 C 150.102 281.042 150.056 281.684 149.872 282.551 L 149.334 285.679 C 149.189 286.347 149.629 286.886 150.312 286.892 L 150.43 286.892 C 151.034 286.892 151.631 286.411 151.755 285.82 L 152.543 281.98 C 152.675 281.363 152.708 280.875 152.549 280.445 L 149.721 280.445 Z" fill="url(#paint6_radial)" style=""/>
  <path d="M 127.744 259.419 C 128.623 253.915 129.476 242.741 125.059 233.358 L 118.884 236.704 C 122.888 245.213 121.817 255.116 121.057 259.438 C 120.998 259.797 124.351 260.138 127.744 259.419 Z" fill="url(#paint7_linear)" style=""/>
  <path d="M 127.744 259.419 C 128.623 253.915 129.476 242.741 125.059 233.358 L 118.884 236.704 C 122.888 245.213 121.817 255.116 121.057 259.438 C 120.998 259.797 124.351 260.138 127.744 259.419 Z" fill="url(#paint8_linear)" style=""/>
  <path d="M 121.069 259.38 L 126.326 259.38 C 126.667 261.038 125.703 269.777 140.429 280.824 L 139.53 286.899 L 116.607 286.886 C 115.807 286.886 115.282 286.276 115.452 285.493 L 121.069 259.38 Z" fill="#522CD5" style=""/>
  <path d="M 141.066 279.571 C 141.945 280.195 141.998 280.901 141.768 281.973 L 140.98 285.814 C 140.855 286.404 140.258 286.886 139.654 286.886 L 139.536 286.886 C 138.854 286.886 138.414 286.347 138.559 285.672 L 139.097 282.545 C 139.366 281.306 139.359 280.522 138.198 279.674 C 131.333 274.671 123.039 267.595 124.115 259.367 L 127.751 259.367 C 127.481 263.593 129.509 271.37 141.066 279.571 Z" fill="url(#paint9_linear)" style=""/>
  <path d="M 138.946 280.445 C 139.326 281.042 139.281 281.684 139.097 282.551 L 138.559 285.685 C 138.414 286.353 138.854 286.892 139.536 286.899 L 139.654 286.899 C 140.258 286.899 140.855 286.418 140.98 285.827 L 141.768 281.986 C 141.899 281.37 141.932 280.882 141.774 280.451 L 138.946 280.445 Z" fill="url(#paint10_radial)" style=""/>
  <path d="M 135.545 229.547 L 128.579 230.006 L 128.64 230.897 L 135.606 230.438 L 135.545 229.547 Z" fill="#A08BE8" style=""/>
  <path d="M 159.335 214.56 C 161.468 205.57 159.735 198.479 159.735 198.479 L 161.881 198.421 L 161.934 198.377 C 158.41 182.071 143.402 170.042 125.769 170.505 C 105.904 171.025 90.233 187.208 90.765 206.648 C 91.296 226.088 107.833 241.424 127.698 240.904 C 143.375 240.493 156.435 230.326 160.989 216.506 C 161.12 215.928 161.081 214.887 159.335 214.56 Z" fill="url(#paint11_radial)" style=""/>
  <path d="M 159.335 214.56 C 161.442 205.678 159.782 198.659 159.742 198.485 L 143.146 198.865 C 143.146 198.865 140.79 198.691 140.842 200.791 C 140.895 202.891 141.151 208.832 141.328 215.396 C 141.374 216.75 158.981 215.819 159.335 214.56 Z" fill="url(#paint12_radial)" style=""/>
  <path d="M 159.342 214.528 C 159.421 214.188 159.492 213.854 159.565 213.519 C 159.914 211.838 160.136 210.231 160.261 208.735 C 159.52 208.485 158.784 208.678 157.99 209.294 C 156.895 210.148 151.277 214.74 151.277 214.74 L 159.342 214.528 Z" fill="#A08BE8" style=""/>
  <path d="M 160.858 216.924 C 160.858 216.924 161.803 215.023 159.335 214.56 C 159.335 214.553 159.342 214.542 159.342 214.535 L 143.369 214.894 C 142.516 214.914 141.4 214.445 141.283 213.642 C 141.301 214.22 141.315 214.811 141.335 215.402 C 141.367 216.628 142.319 217.251 143.159 217.341 C 143.244 217.347 143.329 217.354 143.415 217.354 L 145.922 217.29 L 160.858 216.924 Z" fill="#512BD4" style=""/>
  <path d="M 158.24 222.722 L 96.211 224.348 C 97.668 226.628 99.381 228.727 101.31 230.61 L 153.488 229.241 C 155.319 227.263 156.913 225.074 158.24 222.722 Z" fill="#D8CFF7" style=""/>
  <path d="M 151.906 230.865 C 154.913 227.983 157.406 224.586 159.231 220.828 L 151.638 221.028 L 151.906 230.865 Z" fill="#512BD4" style=""/>
  <path d="M 128.118 169.098 L 121.168 169.234 L 122.002 162.227 L 126.989 162.13 L 128.118 169.098 Z" fill="#8A6FE8" style=""/>
  <path d="M 130.867 173.311 C 131.182 173.305 131.425 173.035 131.386 172.732 C 130.953 169.509 128.105 167.056 124.705 167.12 C 121.306 167.185 118.563 169.753 118.261 172.99 C 118.235 173.298 118.49 173.555 118.799 173.549 L 130.867 173.311 Z" fill="url(#paint13_radial)" style=""/>
  <path d="M 151.606 211.638 C 153.161 211.633 154.413 209.555 154.403 206.998 C 154.392 204.44 153.123 202.372 151.568 202.378 C 150.013 202.385 148.761 204.463 148.771 207.02 C 148.782 209.577 150.051 211.645 151.606 211.638 Z" fill="#512BD4" style=""/>
  <path d="M 151.506 204.562 C 150.496 205.589 150.529 207.22 151.579 208.203 C 152.294 208.877 153.305 209.076 154.19 208.806 C 154.328 208.254 154.407 207.637 154.407 207.002 C 154.4 205.75 154.092 204.612 153.6 203.784 C 152.839 203.719 152.071 203.984 151.506 204.562 Z" fill="#8065E0" style=""/>
  <path d="M 124.476 163.601 C 127.248 163.601 129.496 161.401 129.496 158.688 C 129.496 155.975 127.248 153.775 124.476 153.775 C 121.703 153.775 119.456 155.975 119.456 158.688 C 119.456 161.401 121.703 163.601 124.476 163.601 Z" fill="#D8CFF7" style=""/>
  <path d="M 168.91 229.415 L 173.681 225.189 C 174.941 224.053 174.935 222.17 173.668 220.982 C 172.401 219.794 170.347 219.743 169.087 220.88 L 164.197 225.208 L 168.91 229.415 Z" fill="#8A6FE8" style=""/>
  <path d="M 161.967 236.267 L 168.129 238.926 C 169.777 239.626 171.633 238.964 172.283 237.448 C 172.932 235.934 172.119 234.141 170.472 233.441 L 164.159 230.711 L 161.967 236.267 Z" fill="#8A6FE8" style=""/>
  <path d="M 168.057 232.716 L 174.685 231.56 C 176.45 231.239 177.605 229.677 177.277 228.066 C 176.942 226.46 175.243 225.414 173.484 225.735 L 166.692 226.922 L 168.057 232.716 Z" fill="#8A6FE8" style=""/>
  <path d="M 166.298 235.285 L 172.966 236.177 C 174.745 236.403 176.339 235.266 176.53 233.634 C 176.72 232.002 175.426 230.5 173.648 230.276 L 166.81 229.363 L 166.298 235.285 Z" fill="#8A6FE8" style=""/>
  <path d="M 165.957 234.873 L 165.491 228.297 C 158.023 228.522 151.336 228.477 146 226.345 C 135.369 222.087 132.955 208.78 132.508 205.068 L 124.442 205.845 C 127.127 216.076 130.887 237.885 165.957 234.873 Z" fill="url(#paint14_linear)" style=""/>
  <path d="M 128.76 213.725 C 132.41 213.725 135.369 210.83 135.369 207.259 C 135.369 203.686 132.41 200.791 128.76 200.791 C 125.111 200.791 122.153 203.686 122.153 207.259 C 122.153 210.83 125.111 213.725 128.76 213.725 Z" fill="url(#paint15_radial)" style=""/>
  <path d="M 161.337 225.221 C 164.619 223.679 168.726 224.931 170.525 228.02 C 172.322 231.109 171.115 234.867 167.84 236.408 C 164.559 237.95 160.451 236.698 158.652 233.609 C 156.855 230.52 158.063 226.762 161.337 225.221 Z" fill="url(#paint16_radial)" style=""/>
</svg>