<svg width="81.5pt" height="38pt" version="1.1" viewBox="-6 -6 106.28 50" xmlns="http://www.w3.org/2000/svg">
 <g>
  <path fill="#512BD4" d="m44.286 7.85a1.5832 1.5832 0 0 0-1.2988 2.4805l5.7461 8.6211-5.7461 8.6191a1.5832 1.5832 0 1 0 2.6348 1.7559l6.332-9.498a1.5832 1.5832 0 0 0 0-1.7559l-6.332-9.498a1.5832 1.5832 0 0 0-1.3359-0.72461z"/>
  <path fill="#512BD4" d="m37.982 4.75a4.7491 4.7491 0 0 1-4.7491 4.7491 4.7491 4.7491 0 0 1-4.7491-4.7491 4.7491 4.7491 0 0 1 4.7491-4.7491 4.7491 4.7491 0 0 1 4.7491 4.7491z"/>
  <path fill="#512BD4" d="m18.039 4.75a3.7993 3.7993 0 0 1-3.7993 3.7993 3.7993 3.7993 0 0 1-3.7993-3.7993 3.7993 3.7993 0 0 1 3.7993-3.7993 3.7993 3.7993 0 0 1 3.7993 3.7993z"/>
  <path fill="#512BD4" d="m26.586 4.75a2.8494 2.8494 0 0 1-2.8494 2.8494 2.8494 2.8494 0 0 1-2.8494-2.8494 2.8494 2.8494 0 0 1 2.8494-2.8494 2.8494 2.8494 0 0 1 2.8494 2.8494z"/>
  <path fill="#512BD4" d="m6.6413 4.75a1.8996 1.8996 0 0 1-1.8996 1.8996 1.8996 1.8996 0 0 1-1.8996-1.8996 1.8996 1.8996 0 0 1 1.8996-1.8996 1.8996 1.8996 0 0 1 1.8996 1.8996z"/>
  <path fill="#512BD4" d="m36.065 14.27a2.8494 2.8494 0 0 1-2.8494 2.8494 2.8494 2.8494 0 0 1-2.8494-2.8494 2.8494 2.8494 0 0 1 2.8494-2.8494 2.8494 2.8494 0 0 1 2.8494 2.8494z"/>
  <path fill="#512BD4" d="m8.5496 14.25a3.7993 3.7993 0 0 1-3.7993 3.7993 3.7993 3.7993 0 0 1-3.7993-3.7993 3.7993 3.7993 0 0 1 3.7993-3.7993 3.7993 3.7993 0 0 1 3.7993 3.7993z"/>
  <path fill="#512BD4" d="m18.987 14.25a4.7491 4.7491 0 0 1-4.7491 4.7491 4.7491 4.7491 0 0 1-4.7491-4.7491 4.7491 4.7491 0 0 1 4.7491-4.7491 4.7491 4.7491 0 0 1 4.7491 4.7491z"/>
  <path fill="#512BD4" d="m25.626 14.28a1.8996 1.8996 0 0 1-1.8996 1.8996 1.8996 1.8996 0 0 1-1.8996-1.8996 1.8996 1.8996 0 0 1 1.8996-1.8996 1.8996 1.8996 0 0 1 1.8996 1.8996z"/>
  <path fill="#512BD4" d="m28.487 23.74a4.7491 4.7491 0 0 1-4.7491 4.7491 4.7491 4.7491 0 0 1-4.7491-4.7491 4.7491 4.7491 0 0 1 4.7491-4.7491 4.7491 4.7491 0 0 1 4.7491 4.7491z"/>
  <path fill="#512BD4" d="m37.033 23.74a3.7993 3.7993 0 0 1-3.7993 3.7993 3.7993 3.7993 0 0 1-3.7993-3.7993 3.7993 3.7993 0 0 1 3.7993-3.7993 3.7993 3.7993 0 0 1 3.7993 3.7993z"/>
  <path fill="#512BD4" d="m7.5958 23.74a2.8494 2.8494 0 0 1-2.8494 2.8494 2.8494 2.8494 0 0 1-2.8494-2.8494 2.8494 2.8494 0 0 1 2.8494-2.8494 2.8494 2.8494 0 0 1 2.8494 2.8494z"/>
  <path fill="#512BD4" d="m16.142 23.77a1.8996 1.8996 0 0 1-1.8996 1.8996 1.8996 1.8996 0 0 1-1.8996-1.8996 1.8996 1.8996 0 0 1 1.8996-1.8996 1.8996 1.8996 0 0 1 1.8996 1.8996z"/>
  <path fill="#512BD4" d="m9.4982 33.25a4.7491 4.7491 0 0 1-4.7491 4.7491 4.7491 4.7491 0 0 1-4.7491-4.7491 4.7491 4.7491 0 0 1 4.7491-4.7491 4.7491 4.7491 0 0 1 4.7491 4.7491z"/>
  <path fill="#512BD4" d="m27.539 33.25a3.7993 3.7993 0 0 1-3.7993 3.7993 3.7993 3.7993 0 0 1-3.7993-3.7993 3.7993 3.7993 0 0 1 3.7993-3.7993 3.7993 3.7993 0 0 1 3.7993 3.7993z"/>
  <path fill="#512BD4" d="m17.094 33.25a2.8494 2.8494 0 0 1-2.8494 2.8494 2.8494 2.8494 0 0 1-2.8494-2.8494 2.8494 2.8494 0 0 1 2.8494-2.8494 2.8494 2.8494 0 0 1 2.8494 2.8494z"/>
  <path fill="#512BD4" d="m35.134 33.27a1.8996 1.8996 0 0 1-1.8996 1.8996 1.8996 1.8996 0 0 1-1.8996-1.8996 1.8996 1.8996 0 0 1 1.8996-1.8996 1.8996 1.8996 0 0 1 1.8996 1.8996z"/>
  <path fill="#512BD4" d="m66.471 4.76a4.7491 4.7491 0 0 1-4.7491 4.7491 4.7491 4.7491 0 0 1-4.7491-4.7491 4.7491 4.7491 0 0 1 4.7491-4.7491 4.7491 4.7491 0 0 1 4.7491 4.7491z"/>
  <path fill="#512BD4" d="m75.011 4.76a3.7993 3.7993 0 0 1-3.7993 3.7993 3.7993 3.7993 0 0 1-3.7993-3.7993 3.7993 3.7993 0 0 1 3.7993-3.7993 3.7993 3.7993 0 0 1 3.7993 3.7993z"/>
  <path fill="#512BD4" d="m83.549 4.76a2.8494 2.8494 0 0 1-2.8494 2.8494 2.8494 2.8494 0 0 1-2.8494-2.8494 2.8494 2.8494 0 0 1 2.8494-2.8494 2.8494 2.8494 0 0 1 2.8494 2.8494z"/>
  <path fill="#512BD4" d="m92.088 4.78a1.8996 1.8996 0 0 1-1.8996 1.8996 1.8996 1.8996 0 0 1-1.8996-1.8996 1.8996 1.8996 0 0 1 1.8996-1.8996 1.8996 1.8996 0 0 1 1.8996 1.8996z"/>
  <path fill="#512BD4" d="m66.471 14.26a4.7491 4.7491 0 0 1-4.7491 4.7491 4.7491 4.7491 0 0 1-4.7491-4.7491 4.7491 4.7491 0 0 1 4.7491-4.7491 4.7491 4.7491 0 0 1 4.7491 4.7491z"/>
  <path fill="#512BD4" d="m75.011 14.26a3.7993 3.7993 0 0 1-3.7993 3.7993 3.7993 3.7993 0 0 1-3.7993-3.7993 3.7993 3.7993 0 0 1 3.7993-3.7993 3.7993 3.7993 0 0 1 3.7993 3.7993z"/>
  <path fill="#512BD4" d="m83.549 14.26a2.8494 2.8494 0 0 1-2.8494 2.8494 2.8494 2.8494 0 0 1-2.8494-2.8494 2.8494 2.8494 0 0 1 2.8494-2.8494 2.8494 2.8494 0 0 1 2.8494 2.8494z"/>
  <path fill="#512BD4" d="m92.088 14.28a1.8996 1.8996 0 0 1-1.8996 1.8996 1.8996 1.8996 0 0 1-1.8996-1.8996 1.8996 1.8996 0 0 1 1.8996-1.8996 1.8996 1.8996 0 0 1 1.8996 1.8996z"/>
  <path fill="#512BD4" d="m66.477 23.75a4.7491 4.7491 0 0 1-4.7491 4.7491 4.7491 4.7491 0 0 1-4.7491-4.7491 4.7491 4.7491 0 0 1 4.7491-4.7491 4.7491 4.7491 0 0 1 4.7491 4.7491z"/>
  <path fill="#512BD4" d="m75.017 23.75a3.7993 3.7993 0 0 1-3.7993 3.7993 3.7993 3.7993 0 0 1-3.7993-3.7993 3.7993 3.7993 0 0 1 3.7993-3.7993 3.7993 3.7993 0 0 1 3.7993 3.7993z"/>
  <path fill="#512BD4" d="m83.555 23.75a2.8494 2.8494 0 0 1-2.8494 2.8494 2.8494 2.8494 0 0 1-2.8494-2.8494 2.8494 2.8494 0 0 1 2.8494-2.8494 2.8494 2.8494 0 0 1 2.8494 2.8494z"/>
  <path fill="#512BD4" d="m92.094 23.77a1.8996 1.8996 0 0 1-1.8996 1.8996 1.8996 1.8996 0 0 1-1.8996-1.8996 1.8996 1.8996 0 0 1 1.8996-1.8996 1.8996 1.8996 0 0 1 1.8996 1.8996z"/>
  <path fill="#512BD4" d="m66.478 33.25a4.7491 4.7491 0 0 1-4.7491 4.7491 4.7491 4.7491 0 0 1-4.7491-4.7491 4.7491 4.7491 0 0 1 4.7491-4.7491 4.7491 4.7491 0 0 1 4.7491 4.7491z"/>
  <path fill="#512BD4" d="m75.017 33.25a3.7993 3.7993 0 0 1-3.7993 3.7993 3.7993 3.7993 0 0 1-3.7993-3.7993 3.7993 3.7993 0 0 1 3.7993-3.7993 3.7993 3.7993 0 0 1 3.7993 3.7993z"/>
  <path fill="#512BD4" d="m83.556 33.25a2.8494 2.8494 0 0 1-2.8494 2.8494 2.8494 2.8494 0 0 1-2.8494-2.8494 2.8494 2.8494 0 0 1 2.8494-2.8494 2.8494 2.8494 0 0 1 2.8494 2.8494z"/>
  <path fill="#512BD4" d="m92.094 33.28a1.8996 1.8996 0 0 1-1.8996 1.8996 1.8996 1.8996 0 0 1-1.8996-1.8996 1.8996 1.8996 0 0 1 1.8996-1.8996 1.8996 1.8996 0 0 1 1.8996 1.8996z"/>
 </g>
</svg>
