<svg width="636" height="300" viewBox="0 0 636 300" fill="none" xmlns="http://www.w3.org/2000/svg">
<path d="M490.85 96.7901C490.85 133.6 458.16 161.4 420.31 159.39C384.96 157.51 357.44 129.95 356.79 97.4301C356.14 64.6001 383.02 36.0001 418.98 33.7001C457.52 31.2401 490.85 59.5801 490.85 96.7901Z" fill="#D8E8FB"/>
<path d="M385.25 63.4601C376.45 72.3501 371.15 84.2701 371.2 97.2601L384.7 97.3001C384.71 87.8501 388.63 79.2201 395.08 72.8301L385.25 63.4601Z" fill="#FDD490"/>
<path d="M457.88 59.52C454.5 62.22 449.3 66.39 445.84 69.25C454.82 75.78 460.64 85.98 460.7 97.51C460.7 97.53 460.7 97.55 460.7 97.57C464.84 97.8 470.78 98.17 476.66 98.54C476.67 98.17 476.69 97.81 476.69 97.44C476.64 82.19 469.33 68.63 457.88 59.52Z" fill="#E86E58"/>
<path d="M462.08 70.8601L460.35 69.0901L416.73 86.8301C416.54 86.9001 416.36 86.9701 416.18 87.0501L416.16 87.0601C416.14 87.0701 416.13 87.0801 416.12 87.0801C411.88 88.9701 408.98 93.0501 409.04 97.7501C409.12 104.14 414.65 109.35 421.48 109.39C425.08 109.41 428.32 107.99 430.6 105.7C430.62 105.68 430.65 105.68 430.67 105.66C433.16 103.13 462.08 70.8601 462.08 70.8601Z" fill="#666666"/>
<path d="M427.23 97.6701C427.26 100.72 424.65 103.2 421.41 103.19C418.19 103.19 415.57 100.74 415.54 97.7201C415.51 94.7001 418.07 92.2201 421.3 92.1901C424.53 92.1601 427.2 94.6201 427.23 97.6701Z" fill="#B3B3B3"/>
<path d="M395.29 122.14C388.86 115.81 384.84 107.27 384.69 97.8701C384.68 97.4001 384.69 96.9301 384.7 96.4701L371.2 96.5501C371.19 97.0101 371.18 97.4701 371.19 97.9401C371.42 110.84 376.91 122.58 385.7 131.31L395.29 122.14Z" fill="white"/>
<path d="M460.7 97.51C460.75 107.45 456.49 116.38 449.61 122.84L460.64 133.06C470.53 124.09 476.71 111.5 476.68 97.43C476.68 96.92 476.65 96.41 476.63 95.9L460.65 96C460.67 96.51 460.7 97.01 460.7 97.51Z" fill="#CC5444"/>
<path d="M384.72 64.0001L394.69 73.2201C401.21 66.5701 410.47 62.2001 420.97 61.7901L420.82 47.8101C406.32 48.5601 393.61 54.7501 384.72 64.0001Z" fill="#F7B548"/>
<path d="M459.93 61.1801L448.9 71.6801C441.63 65.1701 431.73 61.3801 421.03 61.7901L420.88 47.8101C435.79 47.0501 449.67 52.1701 459.93 61.1801Z" fill="#F09250"/>
<path d="M155.21 222.99C170.91 224.21 416.44 234.44 420.71 234.44C424.98 234.44 502.98 235.35 510.29 234.74C517.6 234.13 513.64 231.39 499.93 229.56C486.22 227.73 311.63 204.57 311.63 204.57L200.72 199.09C200.72 199.09 204.42 218.02 167.6 218.27C142.3 218.45 139.51 221.77 155.21 222.99Z" fill="#6D6A66"/>
<path d="M206.52 140.65C205.33 137.98 207.36 135 210.28 135.13C217.32 135.45 228.74 136.16 236.54 137.59C251.72 140.38 247.3 147.8 233.11 151.55C220.13 154.98 211.8 152.53 211.8 152.53L206.52 140.65Z" fill="#E86E58"/>
<path d="M338.02 164.69C337.61 161.9 339.66 159.26 342.59 158.79C345.52 158.33 348.23 160.22 348.64 163.01C349.05 165.8 347 168.44 344.07 168.91C341.14 169.37 338.43 167.48 338.02 164.69Z" fill="url(#paint0_radial)"/>
<path d="M294.41 172.4L264.41 169.26C264.41 169.26 271.04 138.73 287.78 138.91C304.52 139.08 294.41 172.4 294.41 172.4Z" fill="#4A4844"/>
<path d="M336.1 154.5C337.5 147.45 335.87 141.98 335.87 141.98L337.59 141.88L337.63 141.85C334.25 129.25 321.82 120.27 307.73 121.07C291.85 121.97 279.86 134.95 280.96 150.05C282.06 165.15 295.82 176.68 311.7 175.78C324.23 175.07 334.33 166.84 337.5 155.98C337.58 155.52 337.51 154.71 336.1 154.5Z" fill="url(#paint1_radial)"/>
<path d="M335.57 160.87L285.92 163.68C287.16 165.42 288.61 167.01 290.22 168.43L331.99 166.07C333.38 164.48 334.59 162.74 335.57 160.87Z" fill="#D8CFF7"/>
<path d="M320.73 168.2L330.05 167.67L329.48 159.83L320.17 160.36L320.73 168.2Z" fill="#512BD4"/>
<path d="M322.15 165.18C322.09 165.18 322.03 165.17 321.99 165.13C321.94 165.09 321.92 165.05 321.91 164.99C321.91 164.93 321.92 164.88 321.96 164.84C322 164.8 322.05 164.77 322.11 164.77C322.17 164.77 322.23 164.78 322.27 164.82C322.32 164.86 322.34 164.91 322.35 164.96C322.35 165.02 322.33 165.06 322.29 165.11C322.26 165.16 322.21 165.18 322.15 165.18Z" fill="white"/>
<path d="M324.62 165.02L324.22 165.04L323.05 163.5C323.02 163.46 323 163.42 322.97 163.38H322.96C322.97 163.43 322.98 163.52 322.99 163.68L323.09 165.1L322.73 165.12L322.58 162.95L323.01 162.93L324.14 164.43C324.19 164.49 324.22 164.53 324.23 164.56H324.24C324.23 164.5 324.21 164.41 324.2 164.27L324.1 162.87L324.45 162.85L324.62 165.02Z" fill="white"/>
<path d="M326.36 164.92L325.11 164.99L324.96 162.82L326.16 162.76L326.18 163.07L325.35 163.11L325.39 163.72L326.15 163.68L326.17 163.98L325.41 164.02L325.45 164.66L326.33 164.61L326.36 164.92Z" fill="white"/>
<path d="M328 162.96L327.36 162.99L327.49 164.85L327.12 164.87L326.99 163.01L326.35 163.04L326.33 162.73L327.97 162.64L328 162.96Z" fill="white"/>
<path d="M336.17 154.5C337.55 147.54 335.98 142.12 335.94 141.99L306.11 143.68C306.11 143.68 304.22 143.61 304.34 145.24C304.46 146.87 304.86 151.48 305.23 156.59C305.31 157.64 306.25 158.09 306.96 158.05C306.95 158.05 335.5 155.67 336.17 154.5Z" fill="url(#paint2_radial)"/>
<path d="M318.37 155.52C318.37 155.52 322.71 151.81 323.56 151.12C324.41 150.43 325.19 150.35 326.06 150.98C326.93 151.61 331.77 154.77 331.77 154.77L318.37 155.52Z" fill="#A08BE8"/>
<path d="M337.41 156.34C337.41 156.34 338.16 154.8 336.17 154.5C336.17 154.49 306.84 156.14 306.84 156.14C306.16 156.18 305.25 155.84 305.13 155.22C305.16 155.67 305.2 156.13 305.23 156.59C305.3 157.54 306.08 158 306.75 158.05C306.82 158.05 306.88 158.06 306.95 158.05L308.96 157.94L337.41 156.34Z" fill="#512BD4"/>
<path d="M313.912 153.101C315.148 152.978 315.991 151.27 315.793 149.286C315.596 147.302 314.434 145.793 313.197 145.916C311.961 146.039 311.118 147.747 311.316 149.731C311.513 151.715 312.675 153.224 313.912 153.101Z" fill="#512BD4"/>
<path d="M313.4 147.72C313.83 147.26 314.43 147.03 315.04 147.05C315.44 147.66 315.72 148.46 315.8 149.36C315.85 149.92 315.81 150.46 315.71 150.94C315.01 151.17 314.21 151.05 313.61 150.55C312.73 149.82 312.63 148.55 313.4 147.72Z" fill="#8065E0"/>
<path d="M332.032 152.08C333.268 151.957 334.111 150.249 333.914 148.265C333.716 146.281 332.554 144.773 331.318 144.896C330.081 145.018 329.238 146.726 329.436 148.71C329.633 150.694 330.795 152.203 332.032 152.08Z" fill="#512BD4"/>
<path d="M331.52 146.7C331.95 146.24 332.55 146.01 333.16 146.03C333.56 146.64 333.84 147.44 333.92 148.34C333.97 148.9 333.93 149.44 333.83 149.92C333.13 150.15 332.33 150.03 331.73 149.53C330.85 148.8 330.75 147.53 331.52 146.7Z" fill="#8065E0"/>
<path d="M316.39 172.8C315.94 172.95 305.26 176.5 297.32 171.15C292.73 168.06 290.09 162.76 289.45 155.41L294.55 154.76C295.04 160.44 296.93 164.44 300.18 166.64C306.1 170.65 314.87 167.78 314.95 167.75L316.39 172.8Z" fill="#8A6FE8"/>
<path d="M345.25 163.79L339.57 169.55C338.63 170.5 338.59 172.03 339.47 172.98L339.63 173.15C340.51 174.09 341.99 174.09 342.92 173.14L348.6 167.38C349.54 166.43 349.58 164.9 348.7 163.95L348.54 163.78C347.66 162.84 346.19 162.84 345.25 163.79Z" fill="#8A6FE8"/>
<path d="M341.73 178.9L346.09 181.49C347.26 182.17 348.76 181.72 349.46 180.49C350.15 179.25 349.77 177.7 348.61 177.02L344.14 174.36L341.73 178.9Z" fill="#8A6FE8"/>
<path d="M344.35 177.96L351.32 178.57C352.67 178.68 353.89 177.63 354.04 176.23C354.19 174.82 353.22 173.59 351.88 173.48L346.7 173L344.35 177.96Z" fill="#8A6FE8"/>
<path d="M343.95 174.88L350.93 173.82C352.28 173.62 353.25 172.32 353.1 170.93C352.95 169.53 351.74 168.56 350.39 168.76L343.28 169.83L343.95 174.88Z" fill="#8A6FE8"/>
<path d="M339.45 169.83C341.63 167.86 344.87 168.05 346.69 170.26C348.51 172.46 348.22 175.85 346.04 177.81C343.86 179.78 340.62 179.59 338.8 177.38C336.98 175.18 337.27 171.79 339.45 169.83Z" fill="url(#paint3_radial)"/>
<path d="M304.85 119.68L310.22 119.36L308.67 110.15L304.82 110.38L304.85 119.68Z" fill="#8A6FE8"/>
<path d="M307.97 113.86C306.05 114.46 303.96 113.47 303.3 111.66C302.64 109.85 303.66 107.89 305.58 107.3C307.5 106.7 309.59 107.69 310.25 109.5C310.91 111.31 309.89 113.26 307.97 113.86Z" fill="#D8CFF7"/>
<path d="M303.06 122.97C302.82 122.98 302.6 122.8 302.62 122.57C302.71 120.16 304.72 118.16 307.34 118C309.96 117.84 312.28 119.58 312.76 121.96C312.8 122.19 312.63 122.39 312.39 122.41L303.06 122.97Z" fill="#522CD5"/>
<path d="M293.4 148.52C296.05 149.71 297.21 152.71 295.98 155.23C294.75 157.75 291.6 158.81 288.95 157.62C286.3 156.43 285.14 153.43 286.37 150.91C287.6 148.39 290.74 147.32 293.4 148.52Z" fill="url(#paint4_radial)"/>
<path d="M184.21 172.91C181.5 172.91 176.85 172.91 172.96 172.91C172.07 172.91 171.33 174.47 170.74 177.02C163.78 181.64 159.16 189.72 159.16 198.93C159.16 207.77 163.41 215.57 169.9 220.27C170.34 223.16 170.91 224.95 171.61 224.95C175.4 224.95 179.33 224.95 184.21 224.95C198.04 224.95 209.26 213.3 209.26 198.93C209.26 184.56 198.04 172.91 184.21 172.91Z" fill="#4A4844"/>
<path d="M172.96 224.95C186.795 224.95 198.01 213.3 198.01 198.93C198.01 184.56 186.795 172.91 172.96 172.91C159.125 172.91 147.91 184.56 147.91 198.93C147.91 213.3 159.125 224.95 172.96 224.95Z" fill="#797672"/>
<path d="M172.96 218.1C183.155 218.1 191.42 209.517 191.42 198.93C191.42 188.343 183.155 179.76 172.96 179.76C162.765 179.76 154.5 188.343 154.5 198.93C154.5 209.517 162.765 218.1 172.96 218.1Z" fill="white"/>
<path d="M172.96 213.36C180.631 213.36 186.85 206.899 186.85 198.93C186.85 190.961 180.631 184.5 172.96 184.5C165.289 184.5 159.07 190.961 159.07 198.93C159.07 206.899 165.289 213.36 172.96 213.36Z" fill="#CCCAC7"/>
<path d="M176.71 203.6C179.195 203.6 181.21 201.509 181.21 198.93C181.21 196.351 179.195 194.26 176.71 194.26C174.225 194.26 172.21 196.351 172.21 198.93C172.21 201.509 174.225 203.6 176.71 203.6Z" fill="white"/>
<path d="M189.57 168.39L184.86 145.36L188.53 145.89L203.96 169.17L189.57 168.39Z" fill="#4A4844"/>
<path d="M223.33 167.34L218.62 144.32L222.28 144.84L237.72 168.13L223.33 167.34Z" fill="#4A4844"/>
<path d="M161.05 139.61C161.83 139.09 217.57 141.18 224.89 141.44C232.22 141.7 236.38 145.26 220.97 146.15C202.92 147.2 160.53 146.15 160.53 146.15L161.05 139.61Z" fill="#F2A694"/>
<path d="M463.05 182.12C460.62 182.12 456.46 182.12 452.98 182.12C452.18 182.12 451.52 183.49 451 185.72C444.77 189.78 440.63 196.87 440.63 204.96C440.63 212.72 444.44 219.57 450.25 223.7C450.64 226.24 451.15 227.81 451.78 227.81C455.18 227.81 458.69 227.81 463.06 227.81C475.44 227.81 485.48 217.58 485.48 204.96C485.47 192.34 475.43 182.12 463.05 182.12Z" fill="#4A4844"/>
<path d="M452.98 227.81C465.362 227.81 475.4 217.58 475.4 204.96C475.4 192.34 465.362 182.11 452.98 182.11C440.598 182.11 430.56 192.34 430.56 204.96C430.56 217.58 440.598 227.81 452.98 227.81Z" fill="#797672"/>
<path d="M452.98 221.79C462.104 221.79 469.5 214.255 469.5 204.96C469.5 195.665 462.104 188.13 452.98 188.13C443.856 188.13 436.46 195.665 436.46 204.96C436.46 214.255 443.856 221.79 452.98 221.79Z" fill="white"/>
<path d="M452.98 217.24C459.635 217.24 465.03 211.742 465.03 204.96C465.03 198.178 459.635 192.68 452.98 192.68C446.325 192.68 440.93 198.178 440.93 204.96C440.93 211.742 446.325 217.24 452.98 217.24Z" fill="#CCCAC7"/>
<path d="M514.59 231.85L479.02 229.77L483.17 210.82C483.17 210.82 483.85 208.54 495.89 212.12C507.87 215.68 515.26 224.49 518.45 229.14C519.3 230.37 518.35 232.03 516.86 231.96L514.59 231.85Z" fill="#DC624F"/>
<path d="M454.41 213.21L490.77 215.81C490.77 215.81 497.17 219.28 499.04 221.95C500.91 224.62 497.49 227.91 497.49 227.91L474.01 228.19L454.41 213.21Z" fill="#CC5444"/>
<path d="M145.88 140.8C144.66 138.06 146.74 134.99 149.74 135.13C157.24 135.47 169.62 136.22 178.05 137.77C194.26 140.75 189.55 148.68 174.39 152.68C160.52 156.34 151.63 153.73 151.63 153.73L145.88 140.8Z" fill="#E86E58"/>
<path d="M473.99 212.87C448.35 198.74 411.98 179.38 381.36 175.45C350.75 171.52 275.65 168.65 275.65 168.65C275.65 168.65 275.22 160.36 279.31 150.86C279.83 149.66 280.36 148.57 280.9 147.54C281 143.24 282.17 139.17 284.16 135.56L263.52 141.36C263.52 141.36 235.09 162.64 211.01 164.73C186.94 166.82 150.31 162.9 150.31 162.9L155.28 172.58C155.28 172.58 169.41 171.27 187.46 177.29C205.51 183.31 211.53 221.51 211.53 221.51C211.53 221.51 352.56 225.43 353.35 225.17C354.13 224.91 448.07 228.05 448.07 228.05C448.07 228.05 462.46 229.36 469.79 229.62C477.13 229.88 499.63 227 473.99 212.87Z" fill="#E86E58"/>
<path d="M473.99 212.87C448.35 198.74 411.98 179.38 381.36 175.45C350.75 171.52 275.65 168.65 275.65 168.65C275.65 168.65 275.22 160.36 279.31 150.86C279.83 149.66 280.36 148.57 280.9 147.54C281 143.24 282.17 139.17 284.16 135.56L265.97 137.29C264.45 137.43 263.02 138.03 261.85 139C255.28 144.43 231.53 162.94 211.02 164.72C202.34 165.47 192.04 165.45 182.4 165.1C217.66 168.4 360.59 181.85 373.42 184.6C383.66 186.79 447.37 211.47 484.84 226.14C487.45 223.63 485.99 219.48 473.99 212.87Z" fill="#F2A694"/>
<path d="M373.42 182.39C370.71 182.39 366.06 182.39 362.17 182.39C361.28 182.39 360.54 183.92 359.95 186.42C352.99 190.95 348.37 198.88 348.37 207.92C348.37 216.59 352.62 224.24 359.11 228.85C359.55 231.69 360.12 233.44 360.82 233.44C364.61 233.44 368.54 233.44 373.42 233.44C387.25 233.44 398.47 222.01 398.47 207.92C398.47 193.82 387.25 182.39 373.42 182.39Z" fill="#4A4844"/>
<path d="M362.17 233.43C376.005 233.43 387.22 222.004 387.22 207.91C387.22 193.816 376.005 182.39 362.17 182.39C348.335 182.39 337.12 193.816 337.12 207.91C337.12 222.004 348.335 233.43 362.17 233.43Z" fill="#797672"/>
<path d="M362.17 226.72C372.365 226.72 380.63 218.298 380.63 207.91C380.63 197.521 372.365 189.1 362.17 189.1C351.975 189.1 343.71 197.521 343.71 207.91C343.71 218.298 351.975 226.72 362.17 226.72Z" fill="white"/>
<path d="M362.17 222.07C369.841 222.07 376.06 215.73 376.06 207.91C376.06 200.09 369.841 193.75 362.17 193.75C354.499 193.75 348.28 200.09 348.28 207.91C348.28 215.73 354.499 222.07 362.17 222.07Z" fill="#CCCAC7"/>
<path d="M365.92 212.49C368.405 212.49 370.42 210.439 370.42 207.91C370.42 205.38 368.405 203.33 365.92 203.33C363.435 203.33 361.42 205.38 361.42 207.91C361.42 210.439 363.435 212.49 365.92 212.49Z" fill="#FDFDFD"/>
<path d="M281.73 185.2L295.02 185.4L277.02 214.67C275.58 217.01 273 218.39 270.25 218.3L257.33 217.85L275.25 188.75C276.64 186.51 279.1 185.16 281.73 185.2Z" fill="#4A4844"/>
<path d="M261.61 166.99C266.906 166.99 271.2 162.696 271.2 157.4C271.2 152.104 266.906 147.81 261.61 147.81C256.314 147.81 252.02 152.104 252.02 157.4C252.02 162.696 256.314 166.99 261.61 166.99Z" fill="white"/>
<path d="M400.73 212.87L440.5 214.96C440.5 214.96 447.56 218.62 449.66 221.5C451.76 224.38 448.09 228.04 448.09 228.04L422.45 228.82L400.73 212.87Z" fill="#CC5444"/>
<path d="M424.27 231.97L388.42 229.88L392.61 210.78C392.61 210.78 393.3 208.49 405.43 212.09C417.15 215.57 424.51 224.04 427.87 228.82C428.86 230.22 427.81 232.14 426.1 232.06L424.27 231.97Z" fill="#DC624F"/>
<path d="M358.4 172.9C356.77 163.77 349.23 157.66 339.81 157.66C331.24 157.66 324.44 162.64 321.97 170.54C334.32 171.23 346.73 171.98 358.4 172.9Z" fill="#4A4844"/>
<path d="M340.55 156.21L340.08 158.25C339.82 159.5 340.67 160.74 341.99 161.01L342.22 161.06C343.54 161.33 344.82 160.54 345.08 159.29L345.55 157.25C345.81 156 344.96 154.76 343.64 154.49L343.41 154.44C342.09 154.16 340.81 154.95 340.55 156.21Z" fill="#8A6FE8"/>
<path d="M345.4 157.28L344.54 159.18C344.03 160.35 344.63 161.73 345.86 162.26L346.08 162.35C347.32 162.88 348.73 162.35 349.24 161.18L350.1 159.28C350.61 158.11 350.01 156.73 348.78 156.2L348.56 156.11C347.32 155.58 345.9 156.1 345.4 157.28Z" fill="#8A6FE8"/>
<path d="M349.71 159.53L348.46 161.21C347.72 162.25 348.01 163.72 349.11 164.5L349.31 164.64C350.41 165.42 351.9 165.2 352.64 164.16L353.89 162.48C354.63 161.44 354.34 159.97 353.24 159.19L353.04 159.05C351.95 158.28 350.45 158.49 349.71 159.53Z" fill="#8A6FE8"/>
<path d="M323.59 165.33L325.16 166.71C326.13 167.54 327.63 167.37 328.49 166.35L328.64 166.17C329.51 165.14 329.42 163.64 328.45 162.81L326.88 161.43C325.91 160.6 324.41 160.77 323.55 161.79L323.4 161.97C322.52 162.99 322.61 164.5 323.59 165.33Z" fill="#8A6FE8"/>
<path d="M327.14 162.32L328.38 164C329.16 165.01 330.65 165.17 331.72 164.35L331.91 164.2C332.97 163.38 333.21 161.89 332.43 160.87L331.19 159.19C330.41 158.18 328.92 158.02 327.85 158.84L327.66 158.99C326.59 159.81 326.36 161.3 327.14 162.32Z" fill="#8A6FE8"/>
<path d="M312.61 170.35L318.31 162.5L358.86 160.93L369.24 174.14L312.61 170.35Z" fill="#A3C9F6"/>
<path d="M358.5 173.43L369.24 174.15L358.86 160.94L348.66 161.42C351.97 165.42 356.33 170.31 358.5 173.43Z" fill="#CAE0FA"/>
<path d="M236.25 222.19C241.01 221.68 248.02 218.15 252.37 212.35C257.08 206.07 265.98 191.94 265.98 191.94C265.98 191.94 226.73 190.37 222.02 189.85C217.31 189.33 202.26 180.49 194.55 176.51C190.76 174.55 177.75 173.27 165.36 172.75C171.09 173.22 178.82 174.41 187.48 177.3C205.53 183.32 211.55 221.52 211.55 221.52C211.55 221.52 221.56 221.78 236.25 222.19Z" fill="#CC5444"/>
<path d="M252.2 195.02L255.86 195.15L246.53 210.33C245.74 211.61 244.31 212.35 242.8 212.25L239.78 212.04L249.31 196.58C249.92 195.57 251.03 194.97 252.2 195.02Z" fill="#4A4844"/>
<path d="M241.64 194.56L245.3 194.69L235.97 209.87C235.18 211.15 233.75 211.89 232.24 211.79L229.22 211.58L238.75 196.12C239.36 195.11 240.46 194.51 241.64 194.56Z" fill="#4A4844"/>
<path d="M441.972 202.277C442.681 200.52 434.051 195.381 422.697 190.798C411.343 186.215 401.564 183.924 400.855 185.68C400.146 187.437 408.776 192.576 420.13 197.159C431.484 201.742 441.263 204.034 441.972 202.277Z" fill="white"/>
<path d="M193.83 233.7L179.67 239.38L246.81 244.7L263.79 238.06L193.83 233.7Z" fill="#B2B2B2"/>
<path d="M282.56 239.23L265.27 246.17L360.47 253.72L381.69 245.41L282.56 239.23Z" fill="#B2B2B2"/>
<path d="M400.5 246.59L379.05 255.19L492.04 264.15L514.37 253.69L400.5 246.59Z" fill="#B2B2B2"/>
<path d="M175.04 232.52L103.23 228.05L87.3501 232.06L161.26 237.92L175.04 232.52Z" fill="#B2B2B2"/>
<path d="M250.14 99.8601L131.72 107.13C131.72 107.13 136.62 96.5801 142.43 93.7201C149.15 90.4101 156.59 92.4101 156.59 92.4101C156.59 92.4101 160.8 81.5001 168.69 79.3701C178.62 76.7001 184 81.9201 184 81.9201C184 81.9201 190.07 74.5301 200.87 75.4201C213.04 76.4301 214.84 84.0501 214.84 84.0501C214.84 84.0501 221.51 82.0801 227.92 84.2901C232.89 86.0001 236.16 91.7701 236.16 91.7701C236.16 91.7701 241.04 90.8601 244.53 92.1001C249.72 93.9201 250.14 99.8601 250.14 99.8601Z" fill="#D0EDFD"/>
<path d="M276.44 66.87L213.64 70.53C213.64 70.53 219.27 62.73 224.11 61.63C231.79 59.89 234.05 62.15 234.05 62.15C234.05 62.15 236.14 53.25 247.13 51.68C258.12 50.11 260.21 56.91 260.21 56.91C260.21 56.91 265.62 56.21 270.33 58.31C275.58 60.65 276.44 66.87 276.44 66.87Z" fill="#D0EDFD"/>
<defs>
<radialGradient id="paint0_radial" cx="0" cy="0" r="1" gradientUnits="userSpaceOnUse" gradientTransform="translate(344.646 162.238) rotate(36.7121) scale(5.21178 5.27595)">
<stop stop-color="#8065E0"/>
<stop offset="1" stop-color="#512BD4"/>
</radialGradient>
<radialGradient id="paint1_radial" cx="0" cy="0" r="1" gradientUnits="userSpaceOnUse" gradientTransform="translate(315.473 137.604) rotate(176.759) scale(28.681 27.3118)">
<stop offset="0.4744" stop-color="#A08BE8"/>
<stop offset="0.8618" stop-color="#8065E0"/>
</radialGradient>
<radialGradient id="paint2_radial" cx="0" cy="0" r="1" gradientUnits="userSpaceOnUse" gradientTransform="translate(334.974 137.518) rotate(176.759) scale(29.7227 28.3038)">
<stop offset="0.0933" stop-color="#E1DFDD"/>
<stop offset="0.6573" stop-color="white"/>
</radialGradient>
<radialGradient id="paint3_radial" cx="0" cy="0" r="1" gradientUnits="userSpaceOnUse" gradientTransform="translate(341.606 172.141) rotate(-52.6976) scale(5.35481 5.13681)">
<stop stop-color="#8065E0"/>
<stop offset="1" stop-color="#512BD4"/>
</radialGradient>
<radialGradient id="paint4_radial" cx="0" cy="0" r="1" gradientUnits="userSpaceOnUse" gradientTransform="translate(290.04 151.469) rotate(-3.24111) scale(5.28964 5.03711)">
<stop stop-color="#8065E0"/>
<stop offset="1" stop-color="#512BD4"/>
</radialGradient>
</defs>
</svg>
