<svg width="636" height="300" viewBox="0 0 636 300" fill="none" xmlns="http://www.w3.org/2000/svg">
<path d="M476.23 192.7C476.24 192.61 476.27 192.51 476.28 192.42C478.97 172.19 466.32 155.1 448.04 154.24C442.05 153.96 436.23 155.48 430.99 158.32C428.54 137.89 413.77 122.32 393.91 121.39C374.48 120.48 356.12 133.89 348.02 153.13C345.05 150.84 341.45 149.41 337.41 149.23C334.49 149.09 331.62 149.61 328.91 150.66C328.91 150.66 326.39 177.46 325.06 177.55C325.06 177.46 325.08 177.38 325.08 177.29C325.84 158.97 312.77 138.48 297.49 139.48C292.49 139.81 287.75 141.73 283.6 144.77C280.61 128.92 265.13 120.86 251.36 121.85C235.13 123.02 220.83 136.66 215.5 154.62C212.86 152.86 205.99 152.15 201.97 153.3C192.26 156.08 187.63 164.05 187.37 175.1C187.35 176.09 187.37 177.05 187.45 178C149.36 191.18 161.67 229.27 161.69 230.02C192.11 230.08 458.97 229.78 493.14 230.17C494.91 226.89 496.4 222.45 496.67 220.35C498.63 205.7 489.46 193.33 476.23 192.7Z" fill="url(#paint0_radial)"/>
<path d="M321.36 54.8101H205.54V57.5601H321.36V54.8101Z" fill="#908D89"/>
<path d="M224.84 219.67H187.95V56.45L224.84 18.92V219.67ZM193.45 214.17H219.34V32.37L193.45 58.7V214.17Z" fill="#908D89"/>
<path d="M264.07 73.0301H157.46V54.9401H274.04L264.07 73.0301ZM160.21 70.2801H262.45L269.38 57.7001H160.21V70.2801Z" fill="#908D89"/>
<path d="M191.62 216.81L189.67 214.86L220.96 183.58L190.07 152.69V150.74L220.96 119.85L189.87 88.7701V86.8201L219.9 56.7901L205.5 42.3901L207.45 40.4501L222.82 55.8201V57.7701L192.79 87.8001L223.87 118.88V120.83L192.99 151.72L223.87 182.61V184.55L191.62 216.81Z" fill="#908D89"/>
<path d="M221.93 216.81L189.67 184.55V182.61L220.56 151.72L189.67 120.83V118.88L220.76 87.8L190.73 57.77V55.82L221.87 24.67L223.82 26.62L193.65 56.79L223.68 86.82V88.77L192.59 119.85L223.48 150.74V152.69L192.59 183.58L223.87 214.86L221.93 216.81Z" fill="#908D89"/>
<path d="M172.19 234.93L166.81 233.8L170.93 214.09H241.67L245.61 232.89L240.22 234.02L237.2 219.59H175.4L172.19 234.93Z" fill="#908D89"/>
<path d="M329.37 276.84C330.61 275.13 351.63 245.66 351.61 225.47C351.6 204.88 329.72 196.36 329.29 196.2V196.19H329.28H329.27V196.2C328.84 196.37 306.98 204.91 306.99 225.5C307 245.69 328.06 275.13 329.3 276.84V276.92C329.3 276.92 329.32 276.89 329.33 276.88C329.34 276.89 329.36 276.92 329.36 276.92L329.37 276.84Z" fill="#F7B548"/>
<path d="M328.44 201.23C328.44 201.23 317.16 209.24 314.1 222.09C312.99 226.74 314.11 235.06 314.11 235.06L318.97 230.57C318.97 230.57 319.53 238.09 324.51 244.39C329.49 250.69 329.49 258.57 329.49 258.57C329.49 258.57 335.4 251.62 337.36 247.05C341.91 236.38 337.9 225.1 337.9 225.1C337.9 225.1 343.43 228.98 344.95 231.76C345.19 226.1 346.41 210.43 328.44 201.23Z" fill="#FFE5B9"/>
<path d="M360.49 148.95L384.76 176.5L380.71 230.31H374.49C374.49 230.31 367.94 204.82 348.92 194.76C334.31 187.03 360.49 148.95 360.49 148.95Z" fill="#B2B2B2"/>
<path d="M298.9 148.99L274.67 176.57L278.79 230.37H285.01C285.01 230.37 291.53 204.88 310.54 194.79C325.14 187.04 298.9 148.99 298.9 148.99Z" fill="#33D5F9"/>
<path d="M360.49 148.95L384.76 176.5L380.71 230.31H374.49C374.49 230.31 367.94 204.82 348.92 194.76C334.31 187.03 360.49 148.95 360.49 148.95Z" fill="#33D5F9"/>
<path d="M356.66 76.5701C346.46 42.0301 329.48 29.8001 329.22 29.6101V29.6001C329.22 29.6001 329.21 29.6001 329.21 29.6101L329.2 29.6001V29.6101C328.94 29.8001 311.97 42.0601 301.81 76.6101C291.57 111.43 298.11 166.12 308.36 195.68C311.81 205.63 329.04 206.16 329.3 206.16H329.31H329.32C329.59 206.15 346.82 205.6 350.25 195.64C360.46 166.07 366.94 111.37 356.66 76.5701Z" fill="#1DACCC"/>
<path d="M354.06 68.71C353.61 67.46 353.16 66.22 352.7 65.04C352.43 64.34 352.15 63.69 351.87 63.02C351.44 61.98 351.01 60.94 350.58 59.96C350.28 59.29 349.98 58.66 349.68 58.02C349.25 57.1 348.83 56.19 348.4 55.33C348.09 54.71 347.79 54.13 347.48 53.53C347.05 52.7 346.62 51.89 346.19 51.11C345.88 50.56 345.58 50.02 345.28 49.5C344.85 48.75 344.42 48.02 343.99 47.32C343.69 46.83 343.4 46.36 343.1 45.89C342.67 45.21 342.24 44.55 341.81 43.92C341.53 43.5 341.25 43.09 340.97 42.69C340.54 42.07 340.11 41.48 339.69 40.9C339.44 40.55 339.18 40.2 338.93 39.87C338.5 39.3 338.07 38.77 337.66 38.25C337.44 37.98 337.22 37.69 337 37.43C336.56 36.9 336.15 36.42 335.73 35.94C335.56 35.74 335.38 35.53 335.21 35.34C334.74 34.82 334.3 34.35 333.88 33.9C333.79 33.81 333.69 33.69 333.6 33.6C332.58 32.55 331.7 31.72 331 31.1C330.86 30.97 330.75 30.88 330.62 30.77C330.44 30.62 330.25 30.45 330.11 30.33C329.95 30.2 329.83 30.1 329.72 30.01C329.67 29.97 329.61 29.92 329.57 29.89C352.02 88.98 359.55 145.46 343.22 202.84C346.34 201.28 349.08 199.01 350.24 195.65C360.46 166.08 366.93 111.38 356.65 76.57C356.03 74.49 355.39 72.49 354.73 70.57C354.52 69.93 354.29 69.33 354.06 68.71Z" fill="#1189A5"/>
<path d="M329.25 110.74C335.607 110.74 340.76 105.587 340.76 99.23C340.76 92.8732 335.607 87.72 329.25 87.72C322.893 87.72 317.74 92.8732 317.74 99.23C317.74 105.587 322.893 110.74 329.25 110.74Z" fill="white"/>
<path d="M329.29 151.18C329.28 151.17 329.28 151.18 329.27 151.18C329.26 151.18 329.26 151.18 329.25 151.18V151.19C325.3 151.34 320.99 173.57 320.99 173.57L328.07 230.35H328.52H330.35H330.57L337.58 173.56C337.58 173.55 333.24 151.33 329.29 151.18Z" fill="#33D5F9"/>
<path d="M329.52 68.1401C337.82 68.1301 345.52 66.2901 351.95 63.1401C341.96 38.8001 329.44 29.7701 329.22 29.6101V29.6001C329.22 29.6001 329.21 29.6001 329.21 29.6101L329.2 29.6001V29.6101C328.97 29.7701 316.55 38.7701 306.6 62.9401C313.12 66.2201 321.01 68.1501 329.52 68.1401Z" fill="#33D5F9"/>
<path d="M341.55 66.79C345.27 65.94 348.77 64.7 351.95 63.14C342.87 41.03 331.71 31.55 329.58 29.88C334.89 42.01 338.8 54.38 341.55 66.79Z" fill="#1DACCC"/>
<path d="M167.52 277.11H153.77V230.05H297.05V243.81H167.52V277.11Z" fill="#908D89"/>
<path d="M491.37 277.11H505.13V230.05H361.85V243.81H491.37V277.11Z" fill="#908D89"/>
<defs>
<radialGradient id="paint0_radial" cx="0" cy="0" r="1" gradientUnits="userSpaceOnUse" gradientTransform="translate(338.047 272.7) scale(187.362 178.968)">
<stop offset="0.1159" stop-color="white"/>
<stop offset="0.9695" stop-color="#B8D6F7"/>
</radialGradient>
</defs>
</svg>
