<svg width="321" height="237" viewBox="0 0 321 237" fill="none" xmlns="http://www.w3.org/2000/svg">
<path d="M291.245 136.526C291.245 136.526 287.629 108.566 273.155 88.8325C264.208 76.6301 256.382 76.0028 255.393 82.9119C254.405 89.8209 244.787 86.2238 228.423 67.7823C207.7 44.4276 187.634 36.2071 156.719 42.1278C125.804 48.0484 112.571 44.5274 101.461 36.8628C82.3781 23.7053 46.8541 35.2187 37.6453 47.7158C28.4364 60.2128 291.245 136.526 291.245 136.526Z" fill="url(#paint0_radial)"/>
<path d="M26.9254 46.1429C23.086 46.333 20.4488 50.0869 21.5797 53.76C27.296 72.3345 49.4819 122.598 126.983 151.546C203.647 180.18 281.694 164.585 310.404 157.01C315.351 155.704 316.672 149.317 312.661 146.148C290.466 128.59 231.749 84.7935 174.695 64.7792C115.122 43.8811 48.503 45.0786 26.9254 46.1429Z" fill="#C5D43B"/>
<path d="M131.991 139.857C66.3742 115.347 35.5877 77.4236 21.4323 50.8852C21.247 51.8023 21.2755 52.7811 21.5749 53.76C27.2912 72.3345 49.477 122.598 126.978 151.546C203.642 180.18 281.689 164.585 310.399 157.01C313.027 156.317 314.619 154.188 314.942 151.874C272.661 159.79 201.827 165.939 131.991 139.857Z" fill="#A8B82F"/>
<path d="M242.906 229.213C243.961 227.65 242.507 225.426 240.354 225.326C233.607 225.012 220.026 220.845 202.393 197.334C176.776 163.178 167.676 160.356 145.923 160.398C124.17 160.441 103.552 158.075 98.8476 136.72C94.1387 115.371 80.1971 104.38 61.7176 103.021C43.2381 101.662 26.7354 92.4058 22.6061 84.575C18.4769 76.7441 4.76813 109.365 44.6066 150.23C84.4451 191.095 136.239 150.923 157.864 194.91C178.548 236.977 233.079 243.748 242.906 229.213Z" fill="url(#paint1_radial)"/>
<path d="M174.552 199.766C160.919 159.305 139.836 162.788 118.083 162.831C96.3291 162.874 77.8117 159.933 71.0072 139.153C66.5928 125.668 61.3279 117.281 42.7439 113.827C37.0608 112.772 22.1879 109.056 17.4742 102.156C19.2751 114.335 26.2601 131.403 44.6066 150.225C84.4451 191.09 136.239 150.919 157.864 194.905C167.339 214.178 183.918 226.034 200.045 231.836C190.261 224.09 178.482 211.437 174.552 199.766Z" fill="url(#paint2_radial)"/>
<path d="M192.242 102.72C196.287 85.7622 177.984 66.8682 151.363 60.5186C124.741 54.169 99.881 62.7683 95.8365 79.7256C91.792 96.683 110.094 115.577 136.716 121.927C163.338 128.276 188.198 119.677 192.242 102.72Z" fill="#33312D"/>
<path d="M247.767 145.492C247.705 145.492 247.643 145.483 247.582 145.468L197.722 132.178C197.489 132.116 197.304 131.94 197.227 131.712C197.151 131.484 197.194 131.232 197.346 131.047L218.254 104.775C218.439 104.537 218.758 104.447 219.043 104.542L267.225 120.892C267.449 120.968 267.62 121.149 267.681 121.372C267.743 121.596 267.696 121.843 267.544 122.023L248.313 145.236C248.176 145.402 247.976 145.492 247.767 145.492ZM199.142 131.08L247.51 143.972L265.79 121.909L219.062 106.053L199.142 131.08Z" fill="#A8B82F"/>
<path d="M247.762 145.492C247.658 145.492 247.548 145.468 247.448 145.421C247.149 145.274 246.992 144.946 247.068 144.623L249.763 132.781L235.507 141.482C235.26 141.634 234.942 141.619 234.709 141.444C234.476 141.268 234.372 140.968 234.448 140.688L237.598 128.842L222.863 138.426C222.616 138.588 222.293 138.578 222.055 138.403C221.818 138.227 221.708 137.923 221.789 137.638L225.054 125.706L210.803 135.138C210.551 135.304 210.228 135.295 209.991 135.119C209.748 134.943 209.644 134.634 209.724 134.349L213.326 121.776L198.306 132.073C198.016 132.273 197.622 132.23 197.379 131.969C197.137 131.712 197.123 131.313 197.341 131.037L218.249 104.765C218.463 104.499 218.829 104.418 219.133 104.575C219.437 104.732 219.584 105.079 219.494 105.407L215.783 118.36L229.881 108.695C230.128 108.524 230.456 108.528 230.699 108.704C230.941 108.875 231.05 109.184 230.974 109.474L227.429 122.432L242.07 112.743C242.317 112.582 242.64 112.586 242.877 112.757C243.12 112.929 243.224 113.233 243.148 113.518L239.926 125.625L253.611 116.72C253.854 116.564 254.172 116.568 254.41 116.735C254.647 116.901 254.761 117.196 254.7 117.476L251.896 129.802L266.313 121.002C266.607 120.821 266.992 120.878 267.22 121.14C267.448 121.401 267.453 121.79 267.235 122.057L248.309 145.221C248.175 145.402 247.971 145.492 247.762 145.492ZM251.459 131.745L249.131 141.981L263.49 124.399L251.459 131.745ZM239.385 127.687L236.282 139.343L250.2 130.847L252.918 118.882L239.385 127.687ZM226.859 124.523L223.661 136.217L238.149 126.789L241.295 114.967L226.859 124.523ZM215.175 120.517L211.63 132.891L225.629 123.625L229.093 110.971L215.175 120.517ZM217.142 108.462L201.423 128.215L213.944 119.633L217.142 108.462Z" fill="#A8B82F"/>
<path d="M145.51 115.176C149.083 117.305 152.266 120.26 155.037 124.005C158.61 123.957 162.05 123.629 165.305 123.04C162.245 117.87 158.776 113.874 155.094 110.824C145.367 102.765 139.936 111.855 145.51 115.176Z" fill="url(#paint3_linear)"/>
<path d="M181.661 116.853C179.033 112.544 176.12 109.07 173.031 106.3C163.039 97.3285 156.667 106.29 162.24 109.607C166.56 112.182 170.309 115.96 173.445 120.888C176.467 119.799 179.233 118.45 181.661 116.853Z" fill="url(#paint4_linear)"/>
<path d="M124.455 123.093L132.808 124.95C135.037 125.43 137.232 124.01 137.712 121.781C138.192 119.552 136.771 117.357 134.543 116.877L125.975 114.972L124.455 123.093Z" fill="#8A6FE8"/>
<path d="M214.676 73.9596L209.482 81.4388C201.647 75.9933 193.93 73.3228 186.56 73.4987C180.074 73.6555 173.673 76.0123 167.539 80.5075L162.155 73.1613C173.554 64.8077 191.924 58.1601 214.676 73.9596Z" fill="#8A6FE8"/>
<path d="M213.963 81.2678L215.099 89.7496C215.384 92.0114 213.782 94.0784 211.521 94.3635C209.259 94.6486 207.192 93.0473 206.907 90.7855L205.742 82.0898L213.963 81.2678Z" fill="#8A6FE8"/>
<path d="M167.999 93.1641L159.019 93.475L159.056 94.5245L168.036 94.2136L167.999 93.1641Z" fill="#A08BE8"/>
<path d="M169.538 101.755L160.879 104.152L161.159 105.164L169.818 102.767L169.538 101.755Z" fill="#A08BE8"/>
<path d="M190.613 82.2751C193.749 70.4053 191.787 60.9113 191.787 60.9113L194.581 60.9208L194.652 60.8686C190.727 39.0534 171.687 22.4603 148.726 22.3795C122.858 22.2845 101.813 43.1826 101.722 69.0463C101.627 94.9147 122.525 115.96 148.389 116.05C168.803 116.122 186.203 103.13 192.685 84.9361C192.88 84.1663 192.865 82.7788 190.613 82.2751Z" fill="url(#paint5_radial)"/>
<path d="M190.632 82.2751C193.73 70.5526 191.858 61.1537 191.81 60.9256L143.219 60.7498C143.219 60.7498 140.159 60.4267 140.15 63.2254C140.14 66.0194 140.226 73.9216 140.197 82.66C140.192 84.4562 141.661 85.3305 142.815 85.3305C142.811 85.3305 189.397 83.5391 190.632 82.2751Z" fill="url(#paint6_radial)"/>
<path d="M160.335 82.3084C160.335 82.3084 167.828 76.421 169.292 75.3329C170.756 74.2447 172.029 74.1877 173.364 75.3471C174.699 76.5065 182.16 82.3892 182.16 82.3892L160.335 82.3084Z" fill="#A08BE8"/>
<path d="M192.518 85.4778C192.518 85.4778 193.825 82.9879 190.632 82.2751C190.637 82.2608 142.858 82.066 142.858 82.066C141.746 82.0613 140.316 81.3913 140.197 80.3174C140.197 81.0919 140.192 81.8712 140.192 82.66C140.188 84.2898 141.395 85.1546 142.483 85.3067C142.592 85.321 142.701 85.3305 142.811 85.3352L146.075 85.3447L192.518 85.4778Z" fill="#512BD4"/>
<path d="M188.898 93.0805L108.133 92.7906C109.933 95.8793 112.081 98.7351 114.514 101.32L182.454 101.562C184.906 98.9964 187.073 96.1549 188.898 93.0805Z" fill="#D8CFF7"/>
<path d="M139.285 21.5717L148.275 20.5501L145.961 11.46L139.503 12.1918L139.285 21.5717Z" fill="#8A6FE8"/>
<path d="M142.15 13.4605C145.709 13.4605 148.593 10.5758 148.593 7.0172C148.593 3.45864 145.709 0.573853 142.15 0.573853C138.592 0.573853 135.707 3.45864 135.707 7.0172C135.707 10.5758 138.592 13.4605 142.15 13.4605Z" fill="#D8CFF7"/>
<path d="M136.486 27.6065C136.082 27.654 135.716 27.3404 135.716 26.9317C135.707 22.6076 138.947 18.8775 143.343 18.3786C147.738 17.8797 151.734 20.7877 152.694 25.0025C152.784 25.4016 152.499 25.7865 152.095 25.8341L136.486 27.6065Z" fill="url(#paint7_radial)"/>
<path d="M154.624 77.6388C156.647 77.616 158.256 74.8406 158.217 71.4398C158.179 68.0391 156.508 65.3007 154.484 65.3236C152.461 65.3465 150.852 68.1218 150.891 71.5226C150.929 74.9234 152.6 77.6617 154.624 77.6388Z" fill="#512BD4"/>
<path d="M187.725 71.6335C187.788 68.233 186.199 65.4461 184.176 65.4087C182.153 65.3712 180.462 68.0975 180.4 71.4979C180.337 74.8983 181.926 77.6853 183.948 77.7227C185.971 77.7601 187.662 75.0339 187.725 71.6335Z" fill="#512BD4"/>
<path d="M154.543 68.3953C155.293 67.6493 156.301 67.3262 157.28 67.4164C157.85 68.4903 158.206 69.8969 158.225 71.4412C158.235 72.401 158.111 73.3133 157.888 74.1259C156.728 74.449 155.436 74.1592 154.528 73.2421C153.193 71.8973 153.203 69.7258 154.543 68.3953Z" fill="#8065E0"/>
<path d="M184.032 68.3003C184.783 67.5543 185.795 67.2264 186.774 67.3214C187.391 68.4429 187.762 69.9587 187.729 71.6265C187.714 72.4771 187.596 73.2896 187.396 74.0214C186.232 74.354 184.925 74.0641 184.013 73.1423C182.682 71.8023 182.687 69.6355 184.032 68.3003Z" fill="#8065E0"/>
<path d="M163.338 103.915L178.453 103.969L178.501 90.5978L163.386 90.5435L163.338 103.915Z" fill="#512BD4"/>
<path d="M165.652 99.12C165.538 99.12 165.443 99.0819 165.362 99.0059C165.282 98.9299 165.244 98.8349 165.244 98.7256C165.244 98.6163 165.286 98.5212 165.362 98.4452C165.443 98.3692 165.538 98.3264 165.652 98.3312C165.766 98.3312 165.866 98.3692 165.947 98.45C166.028 98.526 166.07 98.621 166.07 98.7303C166.07 98.8396 166.028 98.9299 165.947 99.0059C165.866 99.0867 165.766 99.12 165.652 99.12Z" fill="white"/>
<path d="M170.219 99.0677H169.477L167.529 95.9743C167.482 95.8983 167.439 95.8128 167.405 95.732H167.386C167.401 95.8223 167.41 96.0123 167.41 96.3069L167.405 99.0582H166.75L166.759 94.8577H167.548L169.43 97.875C169.511 97.9986 169.563 98.0841 169.582 98.1316H169.591C169.572 98.0223 169.563 97.8323 169.563 97.5662L169.568 94.8624H170.223L170.219 99.0677Z" fill="white"/>
<path d="M173.416 99.0772L171.117 99.0725L171.126 94.8719L173.336 94.8767V95.4659L171.806 95.4612L171.801 96.6491L173.207 96.6538V97.2431L171.801 97.2383L171.796 98.4785L173.416 98.4833V99.0772Z" fill="white"/>
<path d="M176.69 95.4801L175.512 95.4754L175.502 99.0819H174.823L174.832 95.4754L173.659 95.4706V94.8814L176.69 94.8909V95.4801Z" fill="white"/>
<path d="M255.623 63.19L253.804 59.5887L64.0612 155.385L65.8795 158.986L255.623 63.19Z" fill="#605D5A"/>
<path d="M76.7852 151.384C76.0867 150.272 74.8655 149.602 73.5493 149.607L52.0762 149.688C51.5916 149.688 51.1116 149.783 50.6602 149.968L7.84713 167.345C5.41425 168.334 4.68723 171.427 6.43112 173.394L18.3247 186.823C19.4461 188.087 21.2708 188.462 22.7961 187.74L68.5552 166.138C69.1445 165.863 69.6481 165.44 70.0283 164.913L76.6617 155.628C77.5598 154.368 77.612 152.691 76.7852 151.384Z" fill="#A8B82F"/>
<path d="M249.91 63.905C250.646 64.9931 251.891 65.6204 253.203 65.5728L274.661 64.7793C275.146 64.7603 275.626 64.651 276.068 64.4514L318.282 45.6678C320.682 44.5987 321.304 41.4816 319.499 39.5761L307.168 26.5469C306.004 25.3162 304.17 25.0073 302.668 25.7771L257.65 48.8848C257.071 49.1794 256.581 49.6213 256.22 50.163L249.895 59.6617C249.035 60.9494 249.04 62.6268 249.91 63.905Z" fill="#A8B82F"/>
<path d="M117.859 126.699L120.335 134.891C121.01 137.067 123.324 138.288 125.5 137.614C127.676 136.939 128.898 134.625 128.223 132.449L125.685 124.048L117.859 126.699Z" fill="#8A6FE8"/>
<path d="M113.649 123.615L114.025 132.164C114.139 134.44 116.082 136.193 118.358 136.074C120.634 135.96 122.388 134.017 122.269 131.741L121.884 122.974L113.649 123.615Z" fill="#8A6FE8"/>
<path d="M123.29 125.212L127.32 132.762C128.408 134.768 130.917 135.509 132.917 134.421C134.923 133.332 135.664 130.824 134.576 128.823L130.442 121.083L123.29 125.212Z" fill="#8A6FE8"/>
<path d="M218.121 75.0049L226.07 78.1744C228.185 79.0344 229.197 81.4435 228.337 83.5533C227.477 85.6678 225.068 86.6799 222.958 85.8246L214.809 82.5745L218.121 75.0049Z" fill="#8A6FE8"/>
<path d="M215.407 70.5431L223.894 71.6502C226.151 71.9639 227.733 74.0451 227.42 76.3022C227.106 78.5593 225.025 80.1416 222.768 79.828L214.068 78.6923L215.407 70.5431Z" fill="#8A6FE8"/>
<path d="M216.173 80.2889L223.348 84.9551C225.253 86.2095 225.776 88.7707 224.521 90.6762C223.267 92.5816 220.706 93.1043 218.8 91.8498L211.445 87.0696L216.173 80.2889Z" fill="#8A6FE8"/>
<path d="M213.55 87.4925C218.323 87.4925 222.193 83.6227 222.193 78.8491C222.193 74.0755 218.323 70.2057 213.55 70.2057C208.776 70.2057 204.906 74.0755 204.906 78.8491C204.906 83.6227 208.776 87.4925 213.55 87.4925Z" fill="url(#paint8_radial)"/>
<path d="M7.03265 90.6151C8.31442 89.875 8.35894 87.5525 7.13207 85.4276C5.90521 83.3026 3.87156 82.18 2.58978 82.92C1.30801 83.6601 1.26349 85.9826 2.49036 88.1075C3.71722 90.2325 5.75087 91.3551 7.03265 90.6151Z" fill="#C7E0F4"/>
<path d="M14.9441 117.961C16.6736 116.962 15.4621 111.626 12.2381 106.042C9.01414 100.458 4.99857 96.7411 3.26909 97.7396C1.5396 98.7382 2.75111 104.074 5.97507 109.658C9.19903 115.242 13.2146 118.959 14.9441 117.961Z" fill="#C7E0F4"/>
<path d="M230.119 52.1623C231.138 50.887 228.299 46.925 223.778 43.313C219.257 39.701 214.766 37.8068 213.747 39.0821C212.728 40.3574 215.567 44.3194 220.088 47.9314C224.609 51.5434 229.1 53.4376 230.119 52.1623Z" fill="#C7E0F4"/>
<path d="M51.3825 55.2235L49.5483 57.1195C48.4174 58.2884 48.6455 60.2081 50.0282 61.0729L68.5647 72.7241C69.6149 73.3846 70.9881 73.1993 71.8244 72.2822L81.0475 62.1943C82.4445 60.6643 81.5465 58.1934 79.4937 57.9225L53.573 54.468C52.7557 54.3587 51.9479 54.6391 51.3825 55.2235Z" fill="#A8B82F"/>
<path d="M44.2759 137.686C45.5577 136.946 45.6022 134.623 44.3754 132.498C43.1485 130.373 41.1148 129.251 39.8331 129.991C38.5513 130.731 38.5068 133.053 39.7336 135.178C40.9605 137.303 42.9942 138.426 44.2759 137.686Z" fill="white"/>
<path d="M120.302 124.96C119.347 124.565 96.9374 115.081 95.5594 98.7588C94.7279 88.9418 101.518 79.4241 115.74 70.467L120.549 78.1078C112.898 82.9261 103.913 90.2818 104.554 97.9843C105.305 106.994 118.677 114.492 123.77 116.621L120.302 124.96Z" fill="url(#paint9_linear)"/>
<path d="M119.095 81.8047C123.845 81.8047 127.695 77.954 127.695 73.204C127.695 68.454 123.845 64.6034 119.095 64.6034C114.345 64.6034 110.494 68.454 110.494 73.204C110.494 77.954 114.345 81.8047 119.095 81.8047Z" fill="url(#paint10_radial)"/>
<path d="M121.855 130.671C126.629 130.671 130.499 126.802 130.499 122.028C130.499 117.254 126.629 113.385 121.855 113.385C117.082 113.385 113.212 117.254 113.212 122.028C113.212 126.802 117.082 130.671 121.855 130.671Z" fill="url(#paint11_radial)"/>
<defs>
<radialGradient id="paint0_radial" cx="0" cy="0" r="1" gradientUnits="userSpaceOnUse" gradientTransform="translate(182.808 99.8129) scale(173.959)">
<stop offset="0.3973" stop-color="#C7E0F4"/>
<stop offset="0.8469" stop-color="white"/>
</radialGradient>
<radialGradient id="paint1_radial" cx="0" cy="0" r="1" gradientUnits="userSpaceOnUse" gradientTransform="translate(94.4281 146.525) scale(192.739)">
<stop offset="0.3973" stop-color="#C7E0F4"/>
<stop offset="0.8469" stop-color="white"/>
</radialGradient>
<radialGradient id="paint2_radial" cx="0" cy="0" r="1" gradientUnits="userSpaceOnUse" gradientTransform="translate(109.672 103.675) scale(117.672)">
<stop offset="0.4572" stop-color="#A7CBF6"/>
<stop offset="0.8563" stop-color="white" stop-opacity="0"/>
</radialGradient>
<linearGradient id="paint3_linear" x1="149.864" y1="112.201" x2="165.688" y2="130.809" gradientUnits="userSpaceOnUse">
<stop offset="0.0936" stop-color="#522CD5"/>
<stop offset="0.4499" stop-color="#8A6FE8"/>
</linearGradient>
<linearGradient id="paint4_linear" x1="165.356" y1="107.04" x2="183.572" y2="122.106" gradientUnits="userSpaceOnUse">
<stop offset="0.0936" stop-color="#522CD5"/>
<stop offset="0.4499" stop-color="#8A6FE8"/>
</linearGradient>
<radialGradient id="paint5_radial" cx="0" cy="0" r="1" gradientUnits="userSpaceOnUse" gradientTransform="translate(161.209 61.5518) rotate(0.205765) scale(59.0375)">
<stop offset="0.3472" stop-color="#A08BE8"/>
<stop offset="0.684" stop-color="#8065E0"/>
<stop offset="0.7596" stop-color="#8065E0"/>
</radialGradient>
<radialGradient id="paint6_radial" cx="0" cy="0" r="1" gradientUnits="userSpaceOnUse" gradientTransform="translate(182.819 56.3154) rotate(158.494) scale(42.4915)">
<stop offset="0.0933" stop-color="#E1DFDD"/>
<stop offset="0.6573" stop-color="white"/>
</radialGradient>
<radialGradient id="paint7_radial" cx="0" cy="0" r="1" gradientUnits="userSpaceOnUse" gradientTransform="translate(143.181 21.0568) rotate(158.494) scale(6.95306)">
<stop stop-color="#8065E0"/>
<stop offset="1" stop-color="#512BD4"/>
</radialGradient>
<radialGradient id="paint8_radial" cx="0" cy="0" r="1" gradientUnits="userSpaceOnUse" gradientTransform="translate(208.258 75.9236) rotate(-63.5707) scale(13.4914)">
<stop stop-color="#8065E0"/>
<stop offset="1" stop-color="#512BD4"/>
</radialGradient>
<linearGradient id="paint9_linear" x1="109.628" y1="70.4712" x2="109.628" y2="124.961" gradientUnits="userSpaceOnUse">
<stop stop-color="#9780E6"/>
<stop offset="1" stop-color="#8A6FE8"/>
</linearGradient>
<radialGradient id="paint10_radial" cx="0" cy="0" r="1" gradientUnits="userSpaceOnUse" gradientTransform="translate(121.229 69.8331) rotate(158.494) scale(8.60132)">
<stop stop-color="#8065E0"/>
<stop offset="1" stop-color="#512BD4"/>
</radialGradient>
<radialGradient id="paint11_radial" cx="0" cy="0" r="1" gradientUnits="userSpaceOnUse" gradientTransform="translate(116.561 119.108) rotate(-63.5708) scale(13.4914)">
<stop stop-color="#8065E0"/>
<stop offset="1" stop-color="#512BD4"/>
</radialGradient>
</defs>
</svg>
