<svg width="636" height="300" viewBox="0 0 636 300" fill="none" xmlns="http://www.w3.org/2000/svg">
<path d="M544.11 239.83H538.75V284.68H544.11V239.83Z" fill="#A7A4A0"/>
<path d="M528.39 239.83H523.03V284.68H528.39V239.83Z" fill="#A7A4A0"/>
<path d="M549.2 245.48H319.41C313.75 245.48 309.16 240.89 309.16 235.23C309.16 229.57 313.75 224.98 319.41 224.98H549.2C554.86 224.98 559.45 229.57 559.45 235.23C559.45 240.89 554.86 245.48 549.2 245.48Z" fill="#797672"/>
<path d="M295.57 244.17C290.64 244.17 286.63 240.16 286.63 235.23C286.63 230.3 290.64 226.29 295.57 226.29H525.36C530.29 226.29 534.3 230.3 534.3 235.23C534.3 240.16 530.29 244.17 525.36 244.17H295.57Z" fill="#605D5A"/>
<path d="M525.35 227.6C529.56 227.6 532.98 231.02 532.98 235.23C532.98 239.44 529.56 242.86 525.35 242.86H295.57C291.36 242.86 287.94 239.44 287.94 235.23C287.94 231.02 291.36 227.6 295.57 227.6H525.35ZM525.35 224.98H295.57C289.91 224.98 285.32 229.57 285.32 235.23C285.32 240.89 289.91 245.48 295.57 245.48H525.36C531.02 245.48 535.61 240.89 535.61 235.23C535.61 229.57 531.02 224.98 525.35 224.98Z" fill="#A7A4A0"/>
<path d="M296.1 240.03C298.696 240.03 300.8 237.926 300.8 235.33C300.8 232.734 298.696 230.63 296.1 230.63C293.504 230.63 291.4 232.734 291.4 235.33C291.4 237.926 293.504 240.03 296.1 240.03Z" fill="#9C9894"/>
<path d="M334.11 240.03C336.706 240.03 338.81 237.926 338.81 235.33C338.81 232.734 336.706 230.63 334.11 230.63C331.514 230.63 329.41 232.734 329.41 235.33C329.41 237.926 331.514 240.03 334.11 240.03Z" fill="#9C9894"/>
<path d="M372.12 240.03C374.716 240.03 376.82 237.926 376.82 235.33C376.82 232.734 374.716 230.63 372.12 230.63C369.524 230.63 367.42 232.734 367.42 235.33C367.42 237.926 369.524 240.03 372.12 240.03Z" fill="#9C9894"/>
<path d="M410.13 240.03C412.725 240.03 414.83 237.926 414.83 235.33C414.83 232.734 412.725 230.63 410.13 230.63C407.534 230.63 405.43 232.734 405.43 235.33C405.43 237.926 407.534 240.03 410.13 240.03Z" fill="#9C9894"/>
<path d="M448.14 240.03C450.736 240.03 452.84 237.926 452.84 235.33C452.84 232.734 450.736 230.63 448.14 230.63C445.544 230.63 443.44 232.734 443.44 235.33C443.44 237.926 445.544 240.03 448.14 240.03Z" fill="#9C9894"/>
<path d="M486.15 240.03C488.745 240.03 490.85 237.926 490.85 235.33C490.85 232.734 488.745 230.63 486.15 230.63C483.554 230.63 481.45 232.734 481.45 235.33C481.45 237.926 483.554 240.03 486.15 240.03Z" fill="#9C9894"/>
<path d="M524.16 240.03C526.756 240.03 528.86 237.926 528.86 235.33C528.86 232.734 526.756 230.63 524.16 230.63C521.564 230.63 519.46 232.734 519.46 235.33C519.46 237.926 521.564 240.03 524.16 240.03Z" fill="#9C9894"/>
<path d="M375.8 198.57H342.83V224.71H375.8V198.57Z" fill="#CEDB59"/>
<path d="M378.04 191.95H340.58V200.05H378.04V191.95Z" fill="#BBCB37"/>
<path d="M359.33 210.15L362.44 204.01H365.85L360.9 213.12V218.93H357.76V213.23L352.81 204.02H356.24L359.33 210.15Z" fill="#625F5B"/>
<path d="M437.91 198.57H404.94V224.71H437.91V198.57Z" fill="#CEDB59"/>
<path d="M440.15 191.95H402.69V200.05H440.15V191.95Z" fill="#BBCB37"/>
<path d="M421.44 210.15L424.55 204.01H427.96L423.01 213.12V218.93H419.87V213.23L414.92 204.02H418.35L421.44 210.15Z" fill="#625F5B"/>
<path d="M500.02 198.57H467.05V224.71H500.02V198.57Z" fill="#CEDB59"/>
<path d="M502.26 191.95H464.8V200.05H502.26V191.95Z" fill="#BBCB37"/>
<path d="M483.55 210.15L486.66 204.01H490.07L485.12 213.12V218.93H481.98V213.23L477.03 204.02H480.46L483.55 210.15Z" fill="#625F5B"/>
<path d="M310.55 209.3H294.53V127.12C294.53 113.41 305.69 102.25 319.4 102.25H333.35C338.23 102.25 342.2 98.28 342.2 93.4C342.2 88.52 338.23 84.55 333.35 84.55H281.68V68.53H333.35C347.06 68.53 358.22 79.69 358.22 93.4C358.22 107.11 347.06 118.27 333.35 118.27H319.4C314.52 118.27 310.55 122.24 310.55 127.12V209.3Z" fill="#CCCAC7"/>
<path d="M350.22 285V163.68C350.22 157.86 345.5 153.14 339.68 153.14H265.6C259.78 153.14 255.06 157.86 255.06 163.68V285H350.22Z" fill="#1DACCC"/>
<path d="M237.47 144.06C274.766 144.06 305 113.826 305 76.53C305 39.2342 274.766 9 237.47 9C200.174 9 169.94 39.2342 169.94 76.53C169.94 113.826 200.174 144.06 237.47 144.06Z" fill="#CEDB59"/>
<path d="M145.5 127.12C152.735 127.12 158.6 121.255 158.6 114.02C158.6 106.785 152.735 100.92 145.5 100.92C138.265 100.92 132.4 106.785 132.4 114.02C132.4 121.255 138.265 127.12 145.5 127.12Z" fill="#CEDB59"/>
<path d="M133.9 145.72L115.75 155.29C115.31 155.52 114.76 155.35 114.53 154.91L104.41 135.72C104.18 135.28 104.35 134.73 104.79 134.5L122.94 124.93C123.38 124.7 123.93 124.87 124.16 125.31L134.28 144.5C134.51 144.94 134.34 145.49 133.9 145.72Z" fill="#F7B548"/>
<path d="M140.23 82.41L124.42 98.51C123.42 99.53 121.7 99.11 121.27 97.75L114.26 75.56C113.81 74.14 115.11 72.78 116.55 73.16L139.37 79.26C140.77 79.63 141.25 81.38 140.23 82.41Z" fill="#29C3E5"/>
<path d="M268.74 67.51C268.74 50.08 254.61 35.95 237.18 35.95C219.75 35.95 205.62 50.08 205.62 67.51C205.62 74.42 207.87 80.79 211.64 85.99H211.62C224.83 103.02 225.43 117.12 225.43 117.12H232.27H242.18H249.02C249.02 117.12 249.01 103.79 262.22 86.76H262.16C266.27 81.43 268.74 74.77 268.74 67.51Z" fill="white"/>
<path d="M350.22 220.25V157.23C350.22 154.97 348.39 153.14 346.13 153.14H259.15C256.89 153.14 255.06 154.97 255.06 157.23V220.25H350.22Z" fill="#0B7891"/>
<path d="M305.19 195.68H333.8C335.05 195.68 336.07 194.66 336.07 193.41V164.8C336.07 163.55 335.05 162.53 333.8 162.53H305.19C303.94 162.53 302.92 163.55 302.92 164.8V193.41C302.92 194.67 303.93 195.68 305.19 195.68Z" fill="white"/>
<path d="M269.95 177.54C273.86 177.54 277.03 174.37 277.03 170.46C277.03 166.55 273.86 163.38 269.95 163.38C266.04 163.38 262.87 166.55 262.87 170.46C262.87 174.37 266.04 177.54 269.95 177.54Z" fill="white"/>
<path d="M289.97 177.54C293.88 177.54 297.05 174.37 297.05 170.46C297.05 166.55 293.88 163.38 289.97 163.38C286.06 163.38 282.89 166.55 282.89 170.46C282.89 174.37 286.06 177.54 289.97 177.54Z" fill="white"/>
<path d="M297.05 189.09H289.97V192.44H297.05V189.09Z" fill="#CEDB59"/>
<path d="M284.04 189.09H276.96V192.44H284.04V189.09Z" fill="#29C3E5"/>
<path d="M271.03 189.09H263.95V192.44H271.03V189.09Z" fill="#F7B548"/>
<path d="M336.06 176.54H330.27L328.18 171.24L322.05 171.15L318.88 165.3L314.71 178.15L311.5 172.07L308.44 176.54H302.92V178.54H309.5L311.28 175.94L315.15 183.27L319.34 170.35L320.84 173.13L326.81 173.22L328.91 178.54H336.06V176.54Z" fill="#CCCAC7"/>
<path d="M302.92 186.48V193.41C302.92 194.66 303.94 195.68 305.19 195.68H333.8C335.05 195.68 336.07 194.66 336.07 193.41V186.48H302.92Z" fill="#CCCAC7"/>
<path d="M289.97 177.54C293.88 177.54 297.05 174.37 297.05 170.46H282.9C282.9 174.37 286.06 177.54 289.97 177.54Z" fill="#D5D3D0"/>
<path d="M269.95 177.54C273.86 177.54 277.03 174.37 277.03 170.46H262.88C262.88 174.37 266.04 177.54 269.95 177.54Z" fill="#D5D3D0"/>
<path d="M270.28 172.49C269.9 172.49 269.53 172.27 269.36 171.89L266.89 166.3C266.67 165.79 266.9 165.2 267.4 164.98C267.91 164.76 268.5 164.98 268.72 165.49L271.19 171.08C271.41 171.59 271.18 172.18 270.68 172.4C270.55 172.46 270.41 172.49 270.28 172.49Z" fill="#B3AFAB"/>
<path d="M289.79 172.54C289.57 172.54 289.34 172.46 289.15 172.31C288.72 171.96 288.66 171.33 289.02 170.9L293.02 166.06C293.37 165.64 294 165.58 294.43 165.93C294.86 166.28 294.92 166.91 294.56 167.34L290.56 172.18C290.36 172.41 290.07 172.54 289.79 172.54Z" fill="#B3AFAB"/>
<path d="M230.5 47.14C229.5 47.49 228.51 47.91 227.54 48.41C226.21 49.09 224.98 49.89 223.85 50.77L225.9 55.49C224.77 56.51 223.78 57.65 222.95 58.88L217.54 58.3C216.32 60.61 215.5 63.1 215.11 65.66L219.91 67.82C219.81 69.53 219.95 71.26 220.37 72.95C219.2 73.78 217.23 75.1 215.98 75.95C216.3 76.92 216.69 77.88 217.15 78.82C217.79 80.11 218.55 81.31 219.4 82.41L224.3 80.35C225.37 81.52 226.58 82.53 227.91 83.34L227.04 88.64C229.35 89.77 231.86 90.49 234.44 90.76L236.96 85.88C238.41 85.88 239.88 85.7 241.33 85.33L244.23 89.64C245.28 89.28 246.32 88.84 247.34 88.31C248.73 87.59 250.02 86.75 251.2 85.82L249.09 81.12C250.25 80.06 251.26 78.86 252.1 77.57L257.3 78.47C258.59 76.04 259.45 73.4 259.81 70.69C258.29 70.13 256.16 69.33 254.96 68.85C255.05 67.29 254.94 65.72 254.6 64.17L259.07 61.3C258.72 60.14 258.28 59 257.72 57.88C257.04 56.5 256.23 55.24 255.32 54.08L250.62 56.39C249.5 55.15 248.21 54.1 246.81 53.26L247.96 48.12C245.73 47.02 243.32 46.29 240.83 45.98L238.73 50.83C236.97 50.75 235.17 50.93 233.4 51.4L230.5 47.14ZM246.39 63.76C248.8 68.62 246.75 74.62 241.81 77.17C236.87 79.72 230.91 77.84 228.5 72.98C226.09 68.12 228.14 62.12 233.08 59.57C238.02 57.03 243.98 58.91 246.39 63.76Z" fill="#B3AFAB"/>
<path d="M229.04 133.46C229.07 133.78 229.1 228.71 229.1 228.71C229.1 234.69 224.23 239.56 218.25 239.56H152.42C146.44 239.56 141.57 234.69 141.57 228.71V205.21H125.55V228.71C125.55 243.52 137.6 255.58 152.41 255.58H218.24C233.05 255.58 245.11 243.53 245.11 228.71C245.11 228.71 245.08 133.79 245.07 133.46H229.04Z" fill="#CCCAC7"/>
<path d="M99 172.03L125.61 208.08C125.61 208.08 133.25 210.82 141.72 208.08C146.93 201.2 169.43 172.03 169.43 172.03H99Z" fill="#B3AFAB"/>
<path d="M134.22 175.02C153.671 175.02 169.44 173.681 169.44 172.03C169.44 170.379 153.671 169.04 134.22 169.04C114.769 169.04 99 170.379 99 172.03C99 173.681 114.769 175.02 134.22 175.02Z" fill="#797673"/>
<path d="M118.58 174.71C123.29 174.91 128.59 175.02 134.21 175.02C138.19 175.02 141.99 174.96 145.56 174.86L147.53 169.02L137.75 157.92L123.25 160.84L118.58 174.71Z" fill="#CEDB59"/>
<path d="M249 117.04H225.38V134.66H229.52L231.3 138.06H242.98L244.76 134.66H249V117.04Z" fill="#848484"/>
<path d="M249 128.12H225.38V129.62H249V128.12Z" fill="#CCCAC7"/>
<path d="M249 122.19H225.38V123.69H249V122.19Z" fill="#CCCAC7"/>
<path d="M137.76 117.58L138.67 114.58L144.23 113.12L140.41 108.82L141.26 106L146.41 112.05L153.58 110.02L152.7 112.92L147.43 114.24L151.1 118.21L150.24 121.04L145.27 115.29L137.76 117.58Z" fill="#625F5B"/>
<path d="M134.39 85.16L132.45 87.12L127.52 85.98L128.73 90.9L126.91 92.74L125.38 85.92L118.96 84.56L120.83 82.66L125.47 83.79L124.24 79.19L126.07 77.34L127.58 83.86L134.39 85.16Z" fill="#625F5B"/>
<path d="M116.07 149.73L114.39 146.53L117.77 140.83L111.16 140.39L109.58 137.39L118.69 138.19L122.93 130.73L124.55 133.82L121.3 139.16L127.52 139.45L129.11 142.47L120.38 141.77L116.07 149.73Z" fill="#625F5B"/>
<path d="M134.39 162.9L132.52 168.27L128.69 164.03L125.56 164.65L130.99 170.3L129.13 175.01C130.03 175.02 130.94 175.03 131.86 175.04L133.06 171.8L136.06 175.04C137.33 175.03 138.59 175.03 139.81 175.01L134.56 169.76L137.44 162.3L134.39 162.9Z" fill="#625F5B"/>
<path d="M288.33 236.29H316.94C318.19 236.29 319.21 235.27 319.21 234.02V205.41C319.21 204.16 318.19 203.14 316.94 203.14H288.33C287.08 203.14 286.06 204.16 286.06 205.41V234.02C286.06 235.27 287.08 236.29 288.33 236.29Z" fill="#F7B548"/>
<path d="M295.69 214.13C295.41 213.97 295.1 213.89 294.75 213.89C293.76 213.89 293.26 214.45 293.26 215.57V216.79H295.35V218.39H293.27V225.8H291.23V218.39H289.69V216.79H291.23V215.33C291.23 214.38 291.54 213.63 292.16 213.08C292.78 212.53 293.56 212.26 294.49 212.26C294.99 212.26 295.39 212.32 295.69 212.43V214.13Z" fill="white"/>
<path d="M301.28 228.67H299.56C297.71 226.59 296.78 224.03 296.78 220.99C296.78 217.94 297.71 215.33 299.56 213.19H301.29C299.47 215.42 298.56 218.01 298.56 220.98C298.57 223.91 299.47 226.48 301.28 228.67Z" fill="white"/>
<path d="M310.32 216.79L307.32 221.35L310.29 225.8H307.92L306.34 223.01C306.24 222.84 306.12 222.62 305.99 222.36H305.95C305.93 222.41 305.8 222.63 305.58 223.01L303.97 225.8H301.61L304.67 221.38L301.77 216.79H304.14L305.7 219.72C305.82 219.94 305.93 220.16 306.04 220.39H306.07L308.08 216.79H310.32Z" fill="white"/>
<path d="M312.39 228.67H310.67C312.49 226.48 313.4 223.91 313.4 220.97C313.4 218.01 312.49 215.41 310.66 213.18H312.4C314.26 215.33 315.19 217.93 315.19 220.98C315.19 224.03 314.26 226.59 312.39 228.67Z" fill="white"/>
</svg>
