<?xml version="1.0" encoding="utf-8"?>
<svg width="636" height="300" viewBox="0 0 636 300" fill="none" xmlns="http://www.w3.org/2000/svg">
  <path d="M320.21 241.9C369.982 241.9 410.33 201.552 410.33 151.78C410.33 102.008 369.982 61.66 320.21 61.66C270.438 61.66 230.09 102.008 230.09 151.78C230.09 201.552 270.438 241.9 320.21 241.9Z" fill="#3E8EED"/>
  <path d="M159.34 93.76C123.53 93.76 94.3999 122.89 94.3999 158.7C94.3999 194.51 123.53 223.64 159.34 223.64C195.15 223.64 224.28 194.51 224.28 158.7C224.28 122.9 195.15 93.76 159.34 93.76Z" fill="#3E8EED"/>
  <path d="M481.13 94.18C445.32 94.18 416.19 123.31 416.19 159.12C416.19 194.93 445.32 224.06 481.13 224.06C516.94 224.06 546.07 194.93 546.07 159.12C546.07 123.31 516.94 94.18 481.13 94.18Z" fill="#3E8EED"/>
  <path d="M276.62 164.6C275.43 160.53 274.77 156.23 274.77 151.78C274.77 126.68 295.12 106.34 320.21 106.34C345.31 106.34 365.65 126.69 365.65 151.78C365.65 156.15 365.02 160.36 363.87 164.36L384.16 170.87C385.97 164.82 386.95 158.41 386.95 151.78C386.95 114.92 357.07 85.04 320.21 85.04C283.35 85.04 253.47 114.92 253.47 151.78C253.47 158.44 254.46 164.87 256.27 170.94L276.62 164.6Z" fill="#D1C5F4"/>
  <path d="M362.55 135.27C364.55 140.39 365.66 145.95 365.66 151.78C365.66 156.15 365.03 160.36 363.88 164.36L384.17 170.87C385.98 164.82 386.96 158.41 386.96 151.78C386.96 143.22 385.33 135.05 382.4 127.53L362.55 135.27Z" fill="white"/>
  <path d="M129.55 167.69C128.74 164.91 128.29 161.98 128.29 158.94C128.29 141.82 142.17 127.94 159.29 127.94C176.41 127.94 190.29 141.82 190.29 158.94C190.29 161.92 189.86 164.79 189.08 167.52L202.92 171.96C204.15 167.83 204.82 163.46 204.82 158.93C204.82 133.79 184.44 113.4 159.29 113.4C134.15 113.4 113.76 133.78 113.76 158.93C113.76 163.47 114.43 167.86 115.67 172L129.55 167.69Z" fill="white"/>
  <path d="M132.45 143.48L120.21 135.59C116.12 142.42 113.76 150.41 113.76 158.95C113.76 163.49 114.43 167.88 115.67 172.02L129.55 167.7C128.74 164.92 128.29 161.99 128.29 158.95C128.29 153.3 129.82 148.03 132.45 143.48Z" fill="#A3C9F6"/>
  <path d="M122.52 147.37C122.52 147.37 136.56 156.21 153.14 166.37C156.57 168.63 161.29 169.18 164.91 166.59C169.35 163.42 170.36 157.22 167.16 152.75C165.35 150.22 162.6 148.79 159.73 148.59C159.63 148.57 155.87 148.49 155.77 148.49C152.22 148.42 122.52 147.37 122.52 147.37Z" fill="#0064DA"/>
  <path d="M162.73 155.91C161.3 153.9 158.52 153.43 156.53 154.86C154.54 156.28 154.09 159.06 155.52 161.07C156.95 163.08 159.73 163.55 161.72 162.12C163.71 160.7 164.16 157.92 162.73 155.91Z" fill="#3E8EED"/>
  <path d="M451.33 167.69C450.51 164.91 450.07 161.98 450.07 158.94C450.07 141.82 463.95 127.94 481.07 127.94C498.19 127.94 512.07 141.82 512.07 158.94C512.07 161.92 511.64 164.79 510.86 167.52L524.7 171.96C525.93 167.83 526.6 163.46 526.6 158.93C526.6 133.79 506.22 113.4 481.07 113.4C455.93 113.4 435.54 133.78 435.54 158.93C435.54 163.47 436.21 167.86 437.45 172L451.33 167.69Z" fill="white"/>
  <path d="M454.23 143.48L441.99 135.59C437.9 142.42 435.54 150.41 435.54 158.95C435.54 163.49 436.21 167.88 437.45 172.02L451.33 167.7C450.52 164.92 450.07 161.99 450.07 158.95C450.07 153.3 451.6 148.03 454.23 143.48Z" fill="#A3C9F6"/>
  <path d="M444.16 147.35C444.16 147.35 460.03 156.54 474.92 166.37C478.29 168.96 483.07 169.18 486.69 166.59C491.13 163.42 492.14 157.22 488.94 152.75C487.13 150.22 484.38 148.79 481.51 148.59C481.41 148.57 481.32 148.55 481.21 148.55C477.66 148.47 444.16 147.35 444.16 147.35Z" fill="#0064DA"/>
  <path d="M484.51 155.91C483.08 153.9 480.3 153.43 478.31 154.86C476.32 156.28 475.87 159.06 477.3 161.07C478.73 163.08 481.51 163.55 483.5 162.12C485.49 160.7 485.94 157.92 484.51 155.91Z" fill="#3E8EED"/>
  <path d="M365.37 115.48C365.37 115.48 342.88 124.88 315.68 136.19C309.56 138.06 305.11 143.71 305.11 150.4C305.11 158.61 311.81 165.27 320.08 165.27C324.76 165.27 328.92 163.15 331.68 159.81C331.79 159.7 331.9 159.61 331.99 159.48C344.11 145.32 365.37 115.48 365.37 115.48Z" fill="#522CD5"/>
  <path d="M320.09 157.08C323.8 157.08 326.81 154.09 326.81 150.41C326.81 146.72 323.8 143.74 320.09 143.74C316.38 143.74 313.37 146.73 313.37 150.41C313.37 154.09 316.38 157.08 320.09 157.08Z" fill="#957EE6"/>
</svg>