<?xml version="1.0" encoding="utf-8"?>
<svg width="38pt" height="38pt" version="1.1" viewBox="-6 -6 50 50" xmlns="http://www.w3.org/2000/svg" xmlns:bx="https://boxy-svg.com">
  <defs>
    <bx:grid x="-2.516" y="-2.455" width="100" height="100"/>
  </defs>
  <rect x="-6" y="-6" width="50" height="50" style="fill: rgb(81, 43, 212);"/>
  <path d="M 8.3 2.953 C 8.3 5.942 5.881 8.361 2.892 8.361 C -0.093 8.361 -2.516 5.942 -2.516 2.953 C -2.516 -0.032 -0.093 -2.455 2.892 -2.455 C 5.881 -2.455 8.3 -0.032 8.3 2.953 Z" style="fill: rgb(255, 255, 255);"/>
  <path d="M 18.029 2.953 C 18.029 5.343 16.09 7.279 13.699 7.279 C 11.312 7.279 9.372 5.343 9.372 2.953 C 9.372 0.562 11.312 -1.373 13.699 -1.373 C 16.09 -1.373 18.029 0.562 18.029 2.953 Z" style="fill: rgb(255, 255, 255);"/>
  <path d="M 27.753 2.953 C 27.753 4.746 26.297 6.197 24.509 6.197 C 22.715 6.197 21.26 4.746 21.26 2.953 C 21.26 1.159 22.715 -0.291 24.509 -0.291 C 26.297 -0.291 27.753 1.159 27.753 2.953 Z" style="fill: rgb(255, 255, 255);"/>
  <path d="M 37.478 2.977 C 37.478 4.173 36.511 5.141 35.314 5.141 C 34.119 5.141 33.152 4.173 33.152 2.977 C 33.152 1.782 34.119 0.814 35.314 0.814 C 36.511 0.814 37.478 1.782 37.478 2.977 Z" style="fill: rgb(255, 255, 255);"/>
  <path d="M 8.3 13.775 C 8.3 16.759 5.881 19.182 2.892 19.182 C -0.093 19.182 -2.516 16.759 -2.516 13.775 C -2.516 10.786 -0.093 8.367 2.892 8.367 C 5.881 8.367 8.3 10.786 8.3 13.775 Z" style="fill: rgb(255, 255, 255);"/>
  <path d="M 18.029 13.775 C 18.029 16.161 16.09 18.101 13.699 18.101 C 11.312 18.101 9.372 16.161 9.372 13.775 C 9.372 11.384 11.312 9.449 13.699 9.449 C 16.09 9.449 18.029 11.384 18.029 13.775 Z" style="fill: rgb(255, 255, 255);"/>
  <path d="M 27.753 13.775 C 27.753 15.568 26.297 17.019 24.509 17.019 C 22.715 17.019 21.26 15.568 21.26 13.775 C 21.26 11.981 22.715 10.53 24.509 10.53 C 26.297 10.53 27.753 11.981 27.753 13.775 Z" style="fill: rgb(255, 255, 255);"/>
  <path d="M 37.478 13.795 C 37.478 14.99 36.511 15.959 35.314 15.959 C 34.119 15.959 33.152 14.99 33.152 13.795 C 33.152 12.6 34.119 11.632 35.314 11.632 C 36.511 11.632 37.478 12.6 37.478 13.795 Z" style="fill: rgb(255, 255, 255);"/>
  <path d="M 8.31 24.582 C 8.31 27.571 5.887 29.99 2.898 29.99 C -0.087 29.99 -2.51 27.571 -2.51 24.582 C -2.51 21.593 -0.087 19.174 2.898 19.174 C 5.887 19.174 8.31 21.593 8.31 24.582 Z" style="fill: rgb(255, 255, 255);"/>
  <path d="M 18.036 24.582 C 18.036 26.973 16.096 28.908 13.71 28.908 C 11.318 28.908 9.378 26.973 9.378 24.582 C 9.378 22.192 11.318 20.256 13.71 20.256 C 16.096 20.256 18.036 22.192 18.036 24.582 Z" style="fill: rgb(255, 255, 255);"/>
  <path d="M 27.759 24.582 C 27.759 26.376 26.307 27.826 24.515 27.826 C 22.722 27.826 21.27 26.376 21.27 24.582 C 21.27 22.789 22.722 21.338 24.515 21.338 C 26.307 21.338 27.759 22.789 27.759 24.582 Z" style="fill: rgb(255, 255, 255);"/>
  <path d="M 37.484 24.607 C 37.484 25.798 36.517 26.77 35.32 26.77 C 34.125 26.77 33.158 25.798 33.158 24.607 C 33.158 23.411 34.125 22.439 35.32 22.439 C 36.517 22.439 37.484 23.411 37.484 24.607 Z" style="fill: rgb(255, 255, 255);"/>
  <path d="M 8.311 35.4 C 8.311 38.389 5.888 40.812 2.899 40.812 C -0.086 40.812 -2.509 38.389 -2.509 35.4 C -2.509 32.415 -0.086 29.992 2.899 29.992 C 5.888 29.992 8.311 32.415 8.311 35.4 Z" style="fill: rgb(255, 255, 255);"/>
  <path d="M 18.036 35.4 C 18.036 37.79 16.096 39.73 13.71 39.73 C 11.318 39.73 9.378 37.79 9.378 35.4 C 9.378 33.013 11.318 31.074 13.71 31.074 C 16.096 31.074 18.036 33.013 18.036 35.4 Z" style="fill: rgb(255, 255, 255);"/>
  <path d="M 27.76 35.4 C 27.76 37.193 26.308 38.648 24.516 38.648 C 22.723 38.648 21.271 37.193 21.271 35.4 C 21.271 33.611 22.723 32.156 24.516 32.156 C 26.308 32.156 27.76 33.611 27.76 35.4 Z" style="fill: rgb(255, 255, 255);"/>
  <path d="M 37.484 35.435 C 37.484 36.63 36.517 37.598 35.32 37.598 C 34.125 37.598 33.158 36.63 33.158 35.435 C 33.158 34.239 34.125 33.271 35.32 33.271 C 36.517 33.271 37.484 34.239 37.484 35.435 Z" style="fill: rgb(255, 255, 255);"/>
</svg>