<?xml version="1.0" encoding="UTF-8"?>
<svg fill="none" version="1.1" viewBox="0 0 636 300" xmlns="http://www.w3.org/2000/svg" xmlns:xlink="http://www.w3.org/1999/xlink">
 <defs>
  <linearGradient id="linearGradient134067" x1="373.04" x2="383.66" y1="353.66" y2="322.46" gradientTransform="translate(0 .46507)" gradientUnits="userSpaceOnUse">
   <stop stop-color="#408ced" offset="0"/>
   <stop stop-color="#d7e7fb" offset="1"/>
  </linearGradient>
  <linearGradient id="a" x1="-2902" x2="-2061.2" y1="923.57" y2="1420.3" gradientTransform="matrix(.1234 0 0 -.1234 1158.3 1550.3)" gradientUnits="userSpaceOnUse">
   <stop stop-color="#909ca9" offset="0"/>
   <stop stop-color="#ededee" offset="1"/>
  </linearGradient>
  <linearGradient id="b" x1="-2882.7" x2="-2206.2" y1="10289" y2="10289" gradientTransform="matrix(.1234 0 0 -.1234 1158.3 1550.3)" gradientUnits="userSpaceOnUse">
   <stop stop-color="#939fab" offset="0"/>
   <stop stop-color="#dcdee1" offset="1"/>
  </linearGradient>
  <radialGradient id="c" cx="-14217" cy="7277.7" r="898.12" gradientTransform="matrix(-.1185 -.0178 -.036 .237 -198.96 -1314.4)" gradientUnits="userSpaceOnUse">
   <stop stop-color="#ee352c" offset="0"/>
   <stop stop-color="#a91d22" offset="1"/>
  </radialGradient>
 </defs>
 <g fill="#908d89" stroke-width="1.1075">
  <path d="m224.81 239.54c-0.45407 0-0.886-0.27688-1.0521-0.71988-0.2215-0.58698 0.0665-1.2404 0.64236-1.4619l126.6-49.062c0.25472-0.0997 0.54268-0.0997 0.7974-0.0111l128.45 46.67 61.788-22.704c0.58697-0.2215 1.2404 0.0886 1.4508 0.67558 0.21042 0.58698-0.0886 1.2404-0.67558 1.4508l-62.175 22.848c-0.24365 0.0886-0.52053 0.0886-0.77526 0l-128.44-46.67-126.2 48.907c-0.1329 0.0554-0.27688 0.0775-0.40978 0.0775z"/>
  <path d="m277.57 163.23c-0.1329 0-0.26581-0.0222-0.38763-0.0665l-124.23-45.895-61.61 22.571c-0.25472 0.0886-0.54268 0.0886-0.7974 0l-30.7-11.662c-0.58697-0.2215-0.87492-0.87493-0.65342-1.4619 0.2215-0.58698 0.87481-0.88601 1.4618-0.65343l30.301 11.518 61.61-22.571c0.25473-0.0886 0.53161-0.0886 0.78633 0l124.63 46.039c0.58698 0.2215 0.88601 0.86386 0.67557 1.4508-0.18827 0.443-0.62019 0.73095-1.0853 0.73095z"/>
  <path d="m320.58 166.32c-0.1329 0-0.2658-0.0222-0.38763-0.0665l-106.82-39.294c-0.45408-0.16613-0.74203-0.59805-0.74203-1.0743s0.3101-0.90815 0.7531-1.0632l33.148-11.662c0.59805-0.21042 1.2404 0.0997 1.4398 0.69773 0.21042 0.58698-0.0997 1.2404-0.69773 1.4398l-30.179 10.621 103.86 38.209c0.58698 0.21043 0.886 0.86385 0.67558 1.4508-0.15505 0.45408-0.59805 0.74203-1.0521 0.74203z"/>
  <path d="m368.45 173.69c-0.46515 0-0.90815-0.28794-1.0632-0.75309-0.21043-0.58699 0.0997-1.2404 0.69773-1.4398l89.021-31.309c0.25473-0.0886 0.5316-0.0886 0.77525 0.0111l59.761 22.56 67.126-25.628c0.58697-0.2215 1.2404 0.0665 1.4619 0.65343 0.2215 0.58698-0.0665 1.2404-0.65344 1.4619l-67.524 25.783c-0.25472 0.0997-0.54267 0.0997-0.80847 0l-59.772-22.571-88.622 31.176c-0.14397 0.0332-0.2658 0.0554-0.3987 0.0554z"/>
  <path d="m337.63 165.57c-0.45408 0-0.886-0.27688-1.0632-0.73095-0.2215-0.58697 0.0775-1.2404 0.6645-1.4619l148.08-55.73c0.58697-0.2215 1.2404 0.0775 1.4619 0.6645 0.2215 0.58698-0.0775 1.2404-0.66451 1.4619l-148.08 55.73c-0.13291 0.0443-0.2658 0.0665-0.39871 0.0665z"/>
  <path d="m478.71 263.16c0.45408 0 0.886-0.27688 1.0632-0.73095 0.2215-0.58699-0.0775-1.2404-0.6645-1.4619l-148.08-55.73c-0.58697-0.22149-1.2404 0.0775-1.4619 0.6645-0.2215 0.58698 0.0775 1.2404 0.66451 1.4619l148.08 55.73c0.13291 0.0443 0.26581 0.0665 0.39871 0.0665z"/>
  <path d="m248.74 204.5c-0.1329 0-0.26581-0.0222-0.3987-0.0665l-90.704-33.591-81.18 29.581c-0.58697 0.21043-1.2404-0.0886-1.4508-0.67557-0.21043-0.58698 0.0886-1.2404 0.67557-1.4508l81.568-29.714c0.25473-0.0886 0.5316-0.0886 0.78633 0l90.704 33.591 44.422-15.826c0.58697-0.21042 1.2404 0.0997 1.4508 0.68665 0.21042 0.58699-0.0997 1.2404-0.68665 1.4508l-44.821 15.959c-0.11075 0.0332-0.23258 0.0554-0.36547 0.0554z"/>
 </g>
 <g stroke-width="1.1075">
  <path d="m472.65 122.34-36.935-12.836 36.935-12.825 36.935 12.825z" fill="#fccf84"/>
  <path d="m435.72 109.51v4.1974l36.935 12.626v-3.987z" fill="#f7b548"/>
  <path d="m509.62 109.51v4.1974l-36.968 12.626v-3.987z" fill="#e29e3b"/>
  <path d="m252.48 91.965-26.879-9.3362 26.879-9.3362 26.879 9.3362z" fill="#a3c9f6"/>
  <path d="m225.6 82.629v30.866l26.879 9.1923v-30.722z" fill="#3e8eed"/>
  <path d="m279.38 82.629v30.866l-26.901 9.1923v-30.722z" fill="#0064da"/>
  <path d="m443.97 77.722v31.841l28.396 9.7128v-31.697z" fill="#f7b548"/>
  <path d="m500.78 77.722v31.841l-28.419 9.7128v-31.697z" fill="#e29e3b"/>
  <path d="m472.36 87.579-28.396-9.8568 28.396-9.8678 28.396 9.8678z" fill="#fccf84"/>
  <path d="m590.67 116.49-24.797-8.6164 24.797-8.6164 24.808 8.6164z" fill="#f4ac99"/>
  <path d="m565.88 107.87v29.537l24.797 8.4835v-29.404z" fill="#e86e58"/>
  <path d="m615.5 107.87v29.537l-24.83 8.4835v-29.404z" fill="#cc5444"/>
  <path d="m472.44 82.935-14.929-5.1831 14.929-5.1831 14.929 5.1831z" fill="#e29e3b"/>
  <path d="m474.76 67.729c0.16613-0.4873 0.63128-0.8417 1.174-0.85278 0.69773-0.0111 1.2626 0.55375 1.2736 1.2404l0.0775 8.6274c0.0111 0.69773-0.54268 1.2626-1.2404 1.2736-0.69773 0.0111-1.2626-0.55375-1.2736-1.2404l-0.0775-8.6274c-0.0111-0.14398 0.0111-0.28795 0.0664-0.42085z" fill="#f7b548"/>
  <path d="m468.21 69.922c0.16613-0.4873 0.63128-0.8417 1.174-0.85277 0.69773-0.0111 1.2626 0.55375 1.2736 1.2404l0.0775 8.6274c0.0111 0.69773-0.54266 1.2626-1.2404 1.2736-0.69773 0.0111-1.2626-0.55375-1.2736-1.2404l-0.0775-8.6274c0-0.14397 0.0222-0.28795 0.0665-0.42085z" fill="#f7b548"/>
  <path d="m231.64 91.714v16.059l13.977 4.7733v-15.97z" fill="#0064da"/>
  <path d="m226.63 104.14c-0.52052 0-0.99674-0.32117-1.185-0.83062-0.23257-0.65343 0.0997-1.3733 0.7531-1.617l8.1291-2.9017c0.65343-0.24365 1.3733 0.0997 1.617 0.7531 0.23258 0.65343-0.0997 1.3733-0.7531 1.617l-8.1291 2.9016c-0.14399 0.0554-0.28796 0.0775-0.43194 0.0775z" fill="#a3c9f6"/>
  <path d="m233.84 106.42c-0.52053 0-0.99675-0.32117-1.185-0.83063-0.23257-0.65342 0.0997-1.3733 0.75311-1.617l8.1291-2.9017c0.65343-0.24365 1.3733 0.0997 1.617 0.75311 0.23258 0.65342-0.0997 1.3733-0.7531 1.617l-8.1291 2.9017c-0.14397 0.0554-0.28795 0.0775-0.43192 0.0775z" fill="#a3c9f6"/>
  <path d="m571.36 116.62v16.059l13.977 4.7733v-15.97z" fill="#cc5444"/>
  <path d="m566.36 129.05c-0.52053 0-0.99675-0.32117-1.185-0.83062-0.23257-0.65343 0.0997-1.3733 0.75311-1.617l8.1291-2.9017c0.65343-0.24366 1.3733 0.0997 1.617 0.7531 0.23257 0.65342-0.0997 1.3733-0.75311 1.617l-8.1291 2.9017c-0.14397 0.0554-0.28796 0.0775-0.43193 0.0775z" fill="#f4ac99"/>
  <path d="m573.57 131.33c-0.52053 0-0.99675-0.32118-1.185-0.83063-0.23257-0.65342 0.0997-1.3733 0.75311-1.617l8.1291-2.9017c0.65343-0.24365 1.3733 0.0997 1.617 0.7531 0.23257 0.65343-0.0997 1.3733-0.7531 1.617l-8.1291 2.9017c-0.14398 0.0554-0.28796 0.0775-0.43193 0.0775z" fill="#f4ac99"/>
  <path d="m328.17 185.35-59.019-20.5 59.019-20.511 59.019 20.511z" fill="#dddbda"/>
  <path d="m328.17 178.91-40.468-14.054 40.468-14.065 40.468 14.065z" fill="#cc5444"/>
  <path d="m269.15 164.85v22.97l59.019 20.179v-22.648z" fill="#bbb8b4"/>
  <path d="m387.24 164.85v22.97l-59.074 20.179v-22.648z" fill="#908d89"/>
 </g>
 <g fill-opacity=".7" stroke-width="1.1075">
  <path d="m298.5 139.77v22.914l8.9486 3.0124v-22.726z" fill="#3e8eed"/>
  <path d="m357.63 116.23v15.804l5.5375 1.9824v-15.671z" fill="#e86e58"/>
  <path d="m321.67 122.65v15.804l-5.5375 1.9935v-15.671z" fill="#bbb8b4"/>
  <path d="m307.81 93.241v26.192l8.9486 3.0124v-25.993z" fill="#a3c9f6"/>
  <path d="m318.92 81.834v15.804l-5.5264 1.9935v-15.671z" fill="#3e8eed"/>
  <path d="m337.83 95.19v23.291l7.9519 2.6912v-23.136z" fill="#f4ac99"/>
  <path d="m347.91 71.744v15.804l-5.5264 1.9935v-15.671z" fill="#fccf84"/>
  <path d="m329.25 87.327v-15.804l-5.5375-1.9824v15.66z" fill="#a3c9f6"/>
  <path d="m298.11 112.53v15.804l5.5375 1.9824v-15.671z" fill="#fccf84"/>
  <path d="m311.81 57.679v15.804l-5.5264 1.9824v-15.671z" fill="#fccf84"/>
  <path d="m343.32 43.027v15.804l-5.5264 1.9936v-15.671z" fill="#e86e58"/>
  <path d="m330.52 46.859v-15.804l-5.5264-1.9935v15.671z" fill="#fccf84"/>
  <path d="m316.41 21.098v21.541l-7.3649 2.4808v-21.386z" fill="#3e8eed"/>
  <path d="m331.51 4.2421v15.804l5.5264 1.9824v-15.671z" fill="#bbb8b4"/>
 </g>
 <g transform="matrix(1.1075 0 0 1.1075 -41.885 -151.63)">
  <g transform="matrix(.25447 -.092618 0 .32713 322.37 254.11)">
   <rect x="-2.4869e-14" y="-.2254" width="119.06" height="119.06" fill="#512bd4" fill-rule="evenodd" stroke-width="2.0204"/>
   <g fill="#fff">
    <path d="m57.145 34.412a1.3229 1.3229 0 0 0-0.99219 0.19727 1.3229 1.3229 0 0 0-0.36719 1.834l4.8027 7.2051-4.8027 7.2031a1.3229 1.3229 0 0 0 0.36719 1.834 1.3229 1.3229 0 0 0 1.834-0.36719l5.291-7.9375a1.323 1.323 0 0 0 0-1.4668l-5.291-7.9375a1.3229 1.3229 0 0 0-0.8418-0.56445z" color="#000000" stroke-linecap="round" stroke-linejoin="round" style="-inkscape-stroke:none"/>
    <path d="m51.602 31.79a3.9688 3.9688 0 0 1-3.9688 3.9688 3.9688 3.9688 0 0 1-3.9688-3.9688 3.9688 3.9688 0 0 1 3.9688-3.9688 3.9688 3.9688 0 0 1 3.9688 3.9688z"/>
    <path d="m34.934 31.79a3.175 3.175 0 0 1-3.175 3.175 3.175 3.175 0 0 1-3.175-3.175 3.175 3.175 0 0 1 3.175-3.175 3.175 3.175 0 0 1 3.175 3.175z"/>
    <path d="m42.077 31.79a2.3812 2.3813 0 0 1-2.3812 2.3813 2.3812 2.3813 0 0 1-2.3812-2.3813 2.3812 2.3813 0 0 1 2.3812-2.3812 2.3812 2.3813 0 0 1 2.3812 2.3812z"/>
    <path d="m25.41 31.79a1.5875 1.5875 0 0 1-1.5875 1.5875 1.5875 1.5875 0 0 1-1.5875-1.5875 1.5875 1.5875 0 0 1 1.5875-1.5875 1.5875 1.5875 0 0 1 1.5875 1.5875z"/>
    <path d="m49.999 39.74a2.3812 2.3812 0 0 1-2.3812 2.3812 2.3812 2.3812 0 0 1-2.3812-2.3812 2.3812 2.3812 0 0 1 2.3812-2.3812 2.3812 2.3812 0 0 1 2.3812 2.3812z"/>
    <path d="m27.005 39.73a3.175 3.175 0 0 1-3.175 3.175 3.175 3.175 0 0 1-3.175-3.175 3.175 3.175 0 0 1 3.175-3.175 3.175 3.175 0 0 1 3.175 3.175z"/>
    <path d="m35.728 39.73a3.9688 3.9688 0 0 1-3.9688 3.9688 3.9688 3.9688 0 0 1-3.9688-3.9688 3.9688 3.9688 0 0 1 3.9688-3.9688 3.9688 3.9688 0 0 1 3.9688 3.9688z"/>
    <path d="m41.276 39.75a1.5875 1.5875 0 0 1-1.5875 1.5875 1.5875 1.5875 0 0 1-1.5875-1.5875 1.5875 1.5875 0 0 1 1.5875-1.5875 1.5875 1.5875 0 0 1 1.5875 1.5875z"/>
    <path d="m43.666 47.66a3.9688 3.9688 0 0 1-3.9688 3.9688 3.9688 3.9688 0 0 1-3.9688-3.9688 3.9688 3.9688 0 0 1 3.9688-3.9688 3.9688 3.9688 0 0 1 3.9688 3.9688z"/>
    <path d="m50.808 47.66a3.175 3.175 0 0 1-3.175 3.175 3.175 3.175 0 0 1-3.175-3.175 3.175 3.175 0 0 1 3.175-3.175 3.175 3.175 0 0 1 3.175 3.175z"/>
    <path d="m26.208 47.66a2.3812 2.3813 0 0 1-2.3812 2.3812 2.3812 2.3813 0 0 1-2.3812-2.3812 2.3812 2.3813 0 0 1 2.3812-2.3813 2.3812 2.3813 0 0 1 2.3812 2.3813z"/>
    <path d="m33.349 47.68a1.5875 1.5875 0 0 1-1.5875 1.5875 1.5875 1.5875 0 0 1-1.5875-1.5875 1.5875 1.5875 0 0 1 1.5875-1.5875 1.5875 1.5875 0 0 1 1.5875 1.5875z"/>
    <path d="m27.797 55.6a3.9688 3.9688 0 0 1-3.9688 3.9688 3.9688 3.9688 0 0 1-3.9688-3.9688 3.9688 3.9688 0 0 1 3.9688-3.9688 3.9688 3.9688 0 0 1 3.9688 3.9688z"/>
    <path d="m42.873 55.6a3.175 3.175 0 0 1-3.175 3.175 3.175 3.175 0 0 1-3.175-3.175 3.175 3.175 0 0 1 3.175-3.175 3.175 3.175 0 0 1 3.175 3.175z"/>
    <path d="m34.145 55.6a2.3812 2.3813 0 0 1-2.3812 2.3812 2.3812 2.3813 0 0 1-2.3812-2.3812 2.3812 2.3813 0 0 1 2.3812-2.3812 2.3812 2.3813 0 0 1 2.3812 2.3812z"/>
    <path d="m49.221 55.62a1.5875 1.5875 0 0 1-1.5875 1.5875 1.5875 1.5875 0 0 1-1.5875-1.5875 1.5875 1.5875 0 0 1 1.5875-1.5875 1.5875 1.5875 0 0 1 1.5875 1.5875z"/>
    <path d="m75.41 31.79a3.9688 3.9688 0 0 1-3.9688 3.9688 3.9688 3.9688 0 0 1-3.9688-3.9688 3.9688 3.9688 0 0 1 3.9688-3.9688 3.9688 3.9688 0 0 1 3.9688 3.9688z"/>
    <path d="m82.545 31.79a3.175 3.175 0 0 1-3.175 3.175 3.175 3.175 0 0 1-3.175-3.175 3.175 3.175 0 0 1 3.175-3.175 3.175 3.175 0 0 1 3.175 3.175z"/>
    <path d="m89.681 31.79a2.3812 2.3813 0 0 1-2.3812 2.3813 2.3812 2.3813 0 0 1-2.3812-2.3813 2.3812 2.3813 0 0 1 2.3812-2.3812 2.3812 2.3813 0 0 1 2.3812 2.3812z"/>
    <path d="m96.817 31.81a1.5875 1.5875 0 0 1-1.5875 1.5875 1.5875 1.5875 0 0 1-1.5875-1.5875 1.5875 1.5875 0 0 1 1.5875-1.5875 1.5875 1.5875 0 0 1 1.5875 1.5875z"/>
    <path d="m75.41 39.73a3.9688 3.9688 0 0 1-3.9688 3.9688 3.9688 3.9688 0 0 1-3.9688-3.9688 3.9688 3.9688 0 0 1 3.9688-3.9688 3.9688 3.9688 0 0 1 3.9688 3.9688z"/>
    <path d="m82.545 39.73a3.175 3.175 0 0 1-3.175 3.175 3.175 3.175 0 0 1-3.175-3.175 3.175 3.175 0 0 1 3.175-3.175 3.175 3.175 0 0 1 3.175 3.175z"/>
    <path d="m89.681 39.73a2.3812 2.3813 0 0 1-2.3812 2.3812 2.3812 2.3813 0 0 1-2.3812-2.3812 2.3812 2.3813 0 0 1 2.3812-2.3812 2.3812 2.3813 0 0 1 2.3812 2.3812z"/>
    <path d="m96.817 39.75a1.5875 1.5875 0 0 1-1.5875 1.5875 1.5875 1.5875 0 0 1-1.5875-1.5875 1.5875 1.5875 0 0 1 1.5875-1.5875 1.5875 1.5875 0 0 1 1.5875 1.5875z"/>
    <path d="m75.414 47.67a3.9688 3.9688 0 0 1-3.9688 3.9688 3.9688 3.9688 0 0 1-3.9688-3.9688 3.9688 3.9688 0 0 1 3.9688-3.9688 3.9688 3.9688 0 0 1 3.9688 3.9688z"/>
    <path d="m82.55 47.67a3.175 3.175 0 0 1-3.175 3.175 3.175 3.175 0 0 1-3.175-3.175 3.175 3.175 0 0 1 3.175-3.175 3.175 3.175 0 0 1 3.175 3.175z"/>
    <path d="m89.686 47.67a2.3812 2.3813 0 0 1-2.3812 2.3812 2.3812 2.3813 0 0 1-2.3812-2.3812 2.3812 2.3813 0 0 1 2.3812-2.3813 2.3812 2.3813 0 0 1 2.3812 2.3813z"/>
    <path d="m96.821 47.69a1.5875 1.5875 0 0 1-1.5875 1.5875 1.5875 1.5875 0 0 1-1.5875-1.5875 1.5875 1.5875 0 0 1 1.5875-1.5875 1.5875 1.5875 0 0 1 1.5875 1.5875z"/>
    <path d="m75.415 55.61a3.9688 3.9688 0 0 1-3.9688 3.9688 3.9688 3.9688 0 0 1-3.9688-3.9688 3.9688 3.9688 0 0 1 3.9688-3.9688 3.9688 3.9688 0 0 1 3.9688 3.9688z"/>
    <path d="m82.55 55.61a3.175 3.175 0 0 1-3.175 3.175 3.175 3.175 0 0 1-3.175-3.175 3.175 3.175 0 0 1 3.175-3.175 3.175 3.175 0 0 1 3.175 3.175z"/>
    <path d="m89.686 55.61a2.3812 2.3813 0 0 1-2.3812 2.3812 2.3812 2.3813 0 0 1-2.3812-2.3812 2.3812 2.3813 0 0 1 2.3812-2.3812 2.3812 2.3813 0 0 1 2.3812 2.3812z"/>
    <path d="m96.822 55.63a1.5875 1.5875 0 0 1-1.5875 1.5875 1.5875 1.5875 0 0 1-1.5875-1.5875 1.5875 1.5875 0 0 1 1.5875-1.5875 1.5875 1.5875 0 0 1 1.5875 1.5875z"/>
    <g stroke-width=".10999">
     <path d="m65.768 93.102c-0.35464 0-0.65608-0.11813-0.90433-0.35451-0.24825-0.24242-0.37238-0.53027-0.37238-0.86354 0-0.33943 0.12412-0.63025 0.37238-0.87267 0.24825-0.24242 0.54969-0.36364 0.90433-0.36364 0.36055 0 0.66496 0.12122 0.9132 0.36364 0.25416 0.24242 0.38124 0.53324 0.38124 0.87267 0 0.33328-0.12708 0.62112-0.38124 0.86354-0.24825 0.23638-0.55265 0.35451-0.9132 0.35451z"/>
     <path d="m79.945 92.902h-2.3052l-6.0732-9.5812c-0.15366-0.24243-0.28081-0.49398-0.38123-0.75454h-0.05323c0.0473 0.27882 0.07094 0.87575 0.07094 1.7908v8.545h-2.0392v-13.036h2.4559l5.8694 9.354c0.24825 0.38794 0.40785 0.65456 0.47879 0.79997h0.03541c-0.05907-0.34538-0.08865-0.9302-0.08865-1.7545v-8.3995h2.0303z"/>
     <path d="m89.875 92.902h-7.1371v-13.036h6.8535v1.8363h-4.7433v3.6907h4.3709v1.8272h-4.3709v3.8543h5.0269z"/>
     <path d="m100.02 81.703h-3.6528v11.199h-2.1102v-11.199h-3.6439v-1.8363h9.4069z"/>
    </g>
    <g stroke-width=".71639">
     <path d="m31.159 92.721h-11.18v-20.456h11.18v1.3153h-9.7525v7.7376h9.2068v1.3153h-9.2068v8.773h9.7525z" color="#000000" style="-inkscape-stroke:none"/>
     <path d="m41.121 92.721h-1.4412v-19.113h-6.6462v-1.3432h14.734v1.3432h-6.6462z" color="#000000" style="-inkscape-stroke:none"/>
     <path d="m50.804 92.721v-20.456h1.4272v19.113h9.7525v1.3432z" color="#000000" style="-inkscape-stroke:none"/>
    </g>
   </g>
  </g>
  <path d="m322.37 254-8.0423-2.943 30.281-10.724 8.0577 2.6772z" fill="#a892ec" stroke-width=".36512"/>
  <rect transform="matrix(.93893 .34411 0 1 0 0)" x="334.77" y="135.85" width="8.5654" height="38.955" fill="#7c5ede" stroke-width=".56809"/>
 </g>
 <g fill-opacity=".7" stroke-width="1.1075">
  <path d="m337.81 123.36v27.998l-9.8014 3.5219v-27.765z" fill="#a3c9f6"/>
  <path d="m345.81 132.48v30.235l8.9486 3.0124v-30.035z" fill="#fccf84"/>
  <path d="m343.25 154.62v15.793l-5.5264 1.9935v-15.671z" fill="#a3c9f6"/>
  <path d="m322.42 175.92 6.058 2.1042v-14.076l-6.058-2.1707z" fill="#f4ac99"/>
  <path d="m365.38 139.76v15.804l-5.5264 1.9824v-15.671z" fill="#3e8eed"/>
  <path d="m335.03 100.88v15.793l-5.5375 1.9935v-15.671z" fill="#e86e58"/>
  <path d="m361.9 94.231v15.804l-5.5264 1.9824v-15.66z" fill="#fccf84"/>
  <path d="m346.88 129.1v-15.804l5.5375-1.9824v15.671z" fill="#3e8eed"/>
 </g>
 <g transform="matrix(.31996 0 0 .31996 108.1 -39.673)">
  <path d="m472.94 434.43 1.468-4.7299 11.402-4.0599 2.3314 3.257 22.734-8.2745 3.3381 38.155-37.936 13.807z" fill="#fccf84" stroke-width="1.0158"/>
  <rect transform="matrix(.93969 -.34202 -.087156 .99619 0 0)" x="568.96" y="631.43" width="40.37" height="38.301" fill="#e29e3b" stroke-width="1.0336"/>
 </g>
 <g transform="matrix(.69095 0 0 .69095 233.12 -78.725)">
  <path d="m235.1 387.94 1.468-4.7299 11.402-4.0599 2.3314 3.257 22.734-8.2745 3.3381 38.155-37.936 13.807z" fill="#fccf84" stroke-width="1.0158"/>
  <rect transform="matrix(.93969 -.34202 -.087156 .99619 0 0)" x="303.06" y="493.47" width="40.37" height="38.301" fill="#e29e3b" stroke-width="1.0336"/>
  <g fill="#908d89">
   <rect transform="matrix(.93969 -.34202 -.087156 .99619 0 0)" x="317.9" y="507.18" width="5.8106" height="2.7407" stroke-width=".36832"/>
   <rect transform="matrix(.93969 -.34202 -.087156 .99619 0 0)" x="320.81" y="509.92" width="5.8113" height="2.7404" stroke-width=".36833"/>
   <rect transform="matrix(.93969 -.34202 -.087156 .99619 0 0)" x="317.9" y="512.66" width="5.8106" height="2.7407" stroke-width=".36832"/>
   <rect transform="matrix(.93969 -.34202 -.087156 .99619 0 0)" x="320.81" y="515.4" width="5.8113" height="2.7404" stroke-width=".36833"/>
   <rect transform="matrix(.93969 -.34202 -.087156 .99619 0 0)" x="317.9" y="518.14" width="5.8106" height="2.7407" stroke-width=".36832"/>
   <rect transform="matrix(.93969 -.34202 -.087156 .99619 0 0)" x="320.81" y="520.88" width="5.8113" height="2.7404" stroke-width=".36833"/>
   <rect transform="matrix(.93969 -.34202 -.087156 .99619 0 0)" x="318.02" y="523.58" width="5.8106" height="2.7407" stroke-width=".36832"/>
   <rect transform="matrix(.93969 -.34202 -.087156 .99619 0 0)" x="320.92" y="526.32" width="5.8113" height="2.7404" stroke-width=".36833"/>
   <rect transform="matrix(.93969 -.34202 -.087156 .99619 0 0)" x="317.9" y="496.22" width="5.8106" height="2.7407" stroke-width=".36832"/>
   <rect transform="matrix(.93969 -.34202 -.087156 .99619 0 0)" x="320.81" y="498.96" width="5.8113" height="2.7404" stroke-width=".36833"/>
   <rect transform="matrix(.93969 -.34202 -.087156 .99619 0 0)" x="317.9" y="501.7" width="5.8106" height="2.7407" stroke-width=".36832"/>
   <rect transform="matrix(.93969 -.34202 -.087156 .99619 0 0)" x="320.81" y="504.44" width="5.8113" height="2.7404" stroke-width=".36833"/>
   <rect transform="matrix(.93969 -.34202 -.087156 .99619 0 0)" x="320.81" y="493.48" width="5.8113" height="2.7404" stroke-width=".36833"/>
  </g>
  <path d="m256.19 382.83c-0.44341 5.0681-1.9727 7.3383-2.2833 10.889l-0.29897 3.4171c-0.15754 1.8007 1.4851 2.7675 3.1182 2.1731l3.4165-1.2435c1.8319-0.66676 3.5631-2.9036 3.7168-4.6608l0.29896-3.4171c0.29287-3.3475-0.90493-4.8275-0.46202-9.89l-6.27 2.2821zm1.1337 9.6455 3.4165-1.2435c2.0468-0.74498 2.0469-0.74498 1.8976 0.9615-0.14966 1.7106-0.14978 1.7106-2.1966 2.4556l-3.4166 1.2435c-2.0425 0.74341-2.0427 0.74357-1.893-0.96707 0.1493-1.7065 0.14947-1.7066 2.192-2.45z" fill="#666360"/>
 </g>
 <g transform="matrix(.55837 0 0 .55837 440.05 -99.306)">
  <g transform="matrix(.62388 0 0 .62388 -15.435 126.63)">
   <path d="m472.94 434.43 1.468-4.7299 11.402-4.0599 2.3314 3.257 22.734-8.2745 3.3381 38.155-37.936 13.807z" fill="#fccf84" stroke-width="1.0158"/>
   <rect transform="matrix(.93969 -.34202 -.087156 .99619 0 0)" x="568.96" y="631.43" width="40.37" height="38.301" fill="#e29e3b" stroke-width="1.0336"/>
  </g>
  <g transform="matrix(.044173 -.016078 -.0038646 .044173 309.15 368.97)" stroke-width="0">
   <path d="m-398.91 698.62v201.35h298.5v-201.35z" fill="#908d89"/>
   <path d="m-350.72 698.62v-97.06c0-26.245 25.995-51.386 50.037-51.386h99.87c24.404 0 49.497 24.545 49.497 51.386v97.06h-49.497v-47.335c0-49.725 0-49.725-49.19-49.725-50.68 0-50.68 0-50.68 49.725v47.335z" fill="#dddbda"/>
  </g>
 </g>
 <g transform="matrix(1.1075 0 0 1.1075 -40.257 -41.661)">
  <path d="m83.328 158.74-33.35-11.59 33.35-11.58 33.35 11.58z" fill="#fccf84"/>
  <path d="m49.978 147.15v3.79l33.35 11.4v-3.6z" fill="#f7b548"/>
  <path d="m116.71 147.15v3.79l-33.38 11.4v-3.6z" fill="#e29e3b"/>
  <path d="m83.068 110.75-25.64-8.91 25.64-8.9 25.64 8.9z" fill="#fccf84"/>
  <path d="m57.428 101.84v45.12l25.64 8.77v-44.98z" fill="#f7b548"/>
  <path d="m108.73 101.84v45.12l-25.66 8.77v-44.98z" fill="#e29e3b"/>
  <path d="m83.731 106.51-13.48-4.68 13.48-4.68 13.48 4.68z" fill="#e29e3b"/>
  <path d="m85.821 92.78c0.15-0.44 0.57-0.76 1.06-0.77 0.63-0.01 1.14 0.5 1.15 1.12l0.07 7.79c0.01 0.63-0.49 1.14-1.12 1.15s-1.14-0.5-1.15-1.12l-0.07-7.79c-0.01-0.13 0.01-0.26 0.06-0.38z" fill="#f7b548"/>
  <path d="m79.911 94.76c0.15-0.44 0.57-0.76 1.06-0.77 0.63-0.01 1.14 0.5 1.15 1.12l0.07 7.79c0.01 0.63-0.49 1.14-1.12 1.15s-1.14-0.5-1.15-1.12l-0.07-7.79c0-0.13 0.02-0.26 0.06-0.38z" fill="#f7b548"/>
  <g transform="matrix(.056143 -.020435 0 .077401 110.02 67.916)" stroke-width="0">
   <path d="m-398.91 698.62v201.35h298.5v-201.35z" fill="#908d89"/>
   <path d="m-350.72 698.62v-97.06c0-26.245 25.995-51.386 50.037-51.386h99.87c24.404 0 49.497 24.545 49.497 51.386v97.06h-49.497v-47.335c0-49.725 0-49.725-49.19-49.725-50.68 0-50.68 0-50.68 49.725v47.335z" fill="#dddbda"/>
  </g>
  <g transform="matrix(.22012 .080116 0 .31286 49.661 122.69)" fill="#8e5c16" stroke-width="1.1922" aria-label="SFTP">
   <path d="m64.522 6.6365q0 3.027-1.5135 5.1693-1.4902 2.1189-4.1913 3.2366-2.701 1.1177-6.3568 1.1177-1.9326 0-3.6557-0.18628-1.7231-0.18628-3.1667-0.53555-1.4437-0.34927-2.5381-0.86154v-3.7954q1.7464 0.72183 4.2611 1.3505 2.5148 0.60541 5.2624 0.60541 2.5613 0 4.331-0.67526 1.7697-0.69855 2.6778-1.9792 0.9314-1.304 0.9314-3.1202 0-1.7464-0.7684-2.9106-0.7684-1.1875-2.5613-2.1422-1.7697-0.97797-4.8433-2.0724-2.1655-0.7684-3.8187-1.6765-1.6532-0.9314-2.7709-2.0956t-1.6998-2.701q-0.55884-1.5368-0.55884-3.516 0-2.7243 1.3738-4.657 1.3971-1.9559 3.842-2.9805 2.4682-1.0478 5.6582-1.0478 2.7243 0 5.0295 0.51227 2.3285 0.51227 4.2611 1.3738l-1.2341 3.3996q-1.8395-0.7684-3.9119-1.2807-2.0491-0.51227-4.2379-0.51227t-3.7023 0.65198q-1.4902 0.62869-2.2819 1.7929t-0.79169 2.7709q0 1.7929 0.74512 2.9805 0.7684 1.1875 2.4216 2.1189 1.6765 0.90811 4.4241 1.9094 3.0038 1.0944 5.0994 2.3285 2.0956 1.2108 3.19 2.9805 1.0944 1.7464 1.0944 4.4474z"/>
   <path d="m75.42 15.694h-3.9584v-34.043h18.954v3.4927h-14.995v12.481h14.087v3.4695h-14.087z"/>
   <path d="m106.53 15.694h-3.9817v-30.55h-10.711v-3.4927h25.357v3.4927h-10.664z"/>
   <path d="m131.23-18.348q6.5896 0 9.6167 2.5846 3.0503 2.5613 3.0503 7.358 0 2.1655-0.72183 4.1214-0.69855 1.9326-2.2819 3.4229-1.5834 1.4669-4.168 2.3285-2.5613 0.83826-6.2869 0.83826h-4.1447v13.389h-3.9584v-34.043zm-0.37256 3.3763h-4.5638v13.878h3.7023q3.2599 0 5.4254-0.69855 2.1888-0.69855 3.2832-2.2586 1.0944-1.5834 1.0944-4.1913 0-3.3996-2.1655-5.0528-2.1655-1.6765-6.7759-1.6765z"/>
  </g>
 </g>
 <g transform="matrix(.30827 -.1122 0 .43815 398.35 121.32)" fill="#f7e3c6" stroke-width="1.1922" aria-label="FTP">
  <path d="m255.09 37.201h-3.9584v-34.043h18.954v3.4927h-14.995v12.481h14.087v3.4695h-14.087z"/>
  <path d="m286.2 37.201h-3.9817v-30.55h-10.711v-3.4927h25.357v3.4927h-10.664z"/>
  <path d="m310.9 3.1586q6.5896 0 9.6167 2.5846 3.0503 2.5613 3.0503 7.358 0 2.1655-0.72184 4.1214-0.69854 1.9326-2.2819 3.4229-1.5834 1.4669-4.168 2.3285-2.5613 0.83826-6.2869 0.83826h-4.1447v13.389h-3.9584v-34.043zm-0.37255 3.3763h-4.5638v13.878h3.7023q3.2599 0 5.4254-0.69855 2.1888-0.69855 3.2832-2.2586 1.0944-1.5834 1.0944-4.1913 0-3.3996-2.1655-5.0528-2.1655-1.6765-6.7759-1.6765z"/>
 </g>
 <g transform="matrix(1.1075 0 0 1.1075 -35.045 -91.424)">
  <path d="m184.24 188.9v16.009l17.131-6.2352v-22.404l-10.736 3.9077z" fill="#fccf84" stroke-width="0"/>
  <path d="m184.24 188.9 6.3947-8.7222v6.3947z" fill="#f7b548" stroke-width="0"/>
  <g fill="#9f6818">
   <g transform="matrix(1.004 -.36543 0 .996 0 0)" stroke-width=".20186" aria-label="CSV">
    <path d="m187.8 258.2q-0.47705 0-0.85948 0.16559-0.37848 0.16164-0.64657 0.4731-0.26415 0.30752-0.40608 0.74514t-0.14193 0.98563q0 0.72543 0.22472 1.2616 0.22867 0.53224 0.67812 0.82399 0.45339 0.29175 1.1315 0.29175 0.38637 0 0.72543-0.0631 0.343-0.067 0.66629-0.16559v0.58349q-0.31541 0.11828-0.66235 0.17347-0.34694 0.0591-0.82399 0.0591-0.87918 0-1.4706-0.36271-0.58744-0.36666-0.88313-1.0329-0.29174-0.66629-0.29174-1.5731 0-0.65446 0.18135-1.1946 0.1853-0.54407 0.53619-0.93832 0.35482-0.39425 0.86735-0.60715 0.51647-0.21684 1.1828-0.21684 0.43762 0 0.8437 0.0867t0.73331 0.24838l-0.26809 0.56772q-0.27598-0.12616-0.60715-0.21684-0.32723-0.0946-0.70965-0.0946z"/>
    <path d="m193.67 261.92q0 0.51253-0.25626 0.87524-0.25232 0.35877-0.70965 0.54801-0.45734 0.18924-1.0763 0.18924-0.32723 0-0.61897-0.0315-0.29175-0.0315-0.53619-0.0907-0.24443-0.0591-0.42973-0.14587v-0.64263q0.29569 0.12222 0.72148 0.22866 0.42579 0.10251 0.89101 0.10251 0.43368 0 0.73331-0.11433 0.29964-0.11828 0.45339-0.33512 0.1577-0.22078 0.1577-0.5283 0-0.29569-0.1301-0.49281-0.1301-0.20107-0.43368-0.36272-0.29963-0.16558-0.82004-0.35088-0.36666-0.1301-0.64658-0.28386-0.27992-0.1577-0.46916-0.35483t-0.2878-0.45733q-0.0946-0.26021-0.0946-0.59533 0-0.46127 0.23261-0.7885 0.23655-0.33117 0.65051-0.50465 0.41791-0.17741 0.95804-0.17741 0.46127 0 0.85158 0.0867 0.39426 0.0867 0.72149 0.23261l-0.20896 0.57561q-0.31146-0.13011-0.66234-0.21684-0.34695-0.0867-0.71754-0.0867-0.3706 0-0.62687 0.11039-0.25232 0.10645-0.38636 0.30358-0.13405 0.19712-0.13405 0.46916 0 0.30357 0.12616 0.50464 0.13011 0.20107 0.41002 0.35877 0.28387 0.15376 0.74909 0.32329 0.50858 0.1853 0.86341 0.39425 0.35483 0.20501 0.54013 0.50464 0.18529 0.29569 0.18529 0.75303z"/>
    <path d="m198.87 257.69-2.0698 5.764h-0.67417l-2.0698-5.764h0.70177l1.3484 3.7967q0.0828 0.22867 0.14587 0.43762 0.067 0.20895 0.11828 0.40214 0.0513 0.19318 0.0907 0.37454 0.0394-0.18136 0.0907-0.37454 0.0513-0.19713 0.11828-0.40608 0.067-0.2129 0.14982-0.44551l1.3405-3.7848z"/>
   </g>
   <g>
    <rect transform="matrix(.93969 -.34202 0 1 0 0)" x="198.61" y="263.66" width="5.734" height="1.3825"/>
    <rect transform="matrix(.93969 -.34202 0 1 0 0)" x="206.23" y="263.66" width="5.6947" height="1.3825"/>
    <rect transform="matrix(.93969 -.34202 0 1 0 0)" x="198.61" y="266.43" width="5.734" height="1.3955"/>
    <rect transform="matrix(.93969 -.34202 0 1 0 0)" x="206.23" y="266.43" width="5.6947" height="1.3955"/>
    <rect transform="matrix(.93969 -.34202 0 1 0 0)" x="198.61" y="269.18" width="5.734" height="1.3804"/>
    <rect transform="matrix(.93969 -.34202 0 1 0 0)" x="206.23" y="269.18" width="5.6947" height="1.3804"/>
   </g>
  </g>
 </g>
 <g transform="matrix(1.1075 0 0 1.1075 89.479 -190.28)">
  <path d="m292.54 388.99v16.009l17.131-6.2352v-22.404l-10.736 3.9077z" fill="#fccf84" stroke-width="0"/>
  <path d="m292.54 388.99 6.3947-8.7222v6.3947z" fill="#f7b548" stroke-width="0"/>
  <text transform="matrix(1.004 -.36543 0 .996 0 0)" x="292.89883" y="507.42578" fill="#9f6818" font-family="'Open Sans'" font-size="9.6755px" stroke-width=".24189" style="line-height:1.25" xml:space="preserve"><tspan x="292.89883" y="507.42578" fill="#9f6818" stroke-width=".24189">&lt;/&gt;</tspan></text>
 </g>
 <g transform="matrix(1.1075 0 0 1.1075 46.642 -253.56)">
  <path d="m378.03 357.77v16.009l17.131-6.2352v-22.404l-10.736 3.9077z" fill="#fccf84" stroke-width="0"/>
  <path d="m378.03 357.77 6.3947-8.7222v6.3947z" fill="#f7b548" stroke-width="0"/>
  <text transform="matrix(1.004 -.36543 0 .996 0 0)" x="377.2905" y="505.88434" fill="#9f6818" font-family="'Open Sans'" font-size="5.133px" stroke-width=".12833" style="line-height:1.25" xml:space="preserve"><tspan x="377.2905" y="505.88434" fill="#9f6818" stroke-width=".12833">{JSON}</tspan></text>
 </g>
 <g transform="matrix(1.1075 0 0 1.1075 36.388 -235.87)">
  <path d="m197.47 332.68v16.009l17.131-6.2352v-22.404l-10.736 3.9077z" fill="#fccf84" stroke-width="0"/>
  <path d="m197.47 332.68 6.3947-8.7222v6.3947z" fill="#f7b548" stroke-width="0"/>
  <g fill="#9f6818">
   <g transform="matrix(1.004 -.36543 0 .996 0 0)" stroke-width=".20186" aria-label="TXT">
    <path d="m200.28 412.64h-0.67417v-5.1726h-1.8136v-0.59138h4.2934v0.59138h-1.8057z"/>
    <path d="m206.81 412.64h-0.76091l-1.5573-2.539-1.581 2.539h-0.7136l1.92-3.0042-1.786-2.7598h0.74514l1.439 2.2985 1.4469-2.2985h0.70966l-1.782 2.748z"/>
    <path d="m209.39 412.64h-0.67418v-5.1726h-1.8136v-0.59138h4.2934v0.59138h-1.8057z"/>
   </g>
   <g>
    <rect transform="matrix(.93969 -.34202 0 1 0 0)" x="212.69" y="412.25" width="5.734" height="1.3825"/>
    <rect transform="matrix(.93969 -.34202 0 1 0 0)" x="220.31" y="412.25" width="5.6947" height="1.3825"/>
    <rect transform="matrix(.93969 -.34202 0 1 0 0)" x="212.69" y="415.01" width="5.734" height="1.3955"/>
    <rect transform="matrix(.93969 -.34202 0 1 0 0)" x="220.31" y="415.01" width="5.6947" height="1.3955"/>
    <rect transform="matrix(.93969 -.34202 0 1 0 0)" x="212.69" y="417.77" width="5.734" height="1.3804"/>
    <rect transform="matrix(.93969 -.34202 0 1 0 0)" x="220.31" y="417.77" width="5.6947" height="1.3804"/>
   </g>
  </g>
 </g>
 <g transform="matrix(1.1075 0 0 1.1075 -15.892 -30.586)">
  <g transform="translate(106.1 -181.69)">
   <path d="m398.95 410.55-33.36-11.58 33.36-11.59 33.35 11.59z" fill="#a3c9f6"/>
   <path d="m365.59 398.97v3.78l33.36 11.41v-3.61z" fill="#3e8eed"/>
   <path d="m432.33 398.97v3.78l-33.38 11.41v-3.61z" fill="#0064da"/>
   <path d="m398.69 363.03-25.65-8.9c0-12.585 12.808-20.72 20.323-18.13l25.647 8.9036s3.1182 1.0767 0 0c-7.5112-2.5936-20.319 5.5408-20.319 18.126z" fill="url(#linearGradient134067)"/>
   <path d="m398.7 363.04c0-12.585 12.808-20.72 20.323-18.13 3.1198 1.0752 5.3274 3.9988 5.3274 9.2197z" fill="#0064da"/>
   <path d="m403.95 361.09c0-7.7706 7.9081-12.793 12.548-11.194 1.9263 0.66388 3.2894 2.469 3.2894 5.6926z" fill="#002a5c" stroke-width=".61744"/>
   <path d="m373.04 353.66v45.12l25.65 8.76v-44.98z" fill="#3e8eed"/>
   <path d="m424.35 353.66v45.12l-25.66 8.76v-44.98z" fill="#0064da"/>
   <path d="m377.86 338.77 14.917 5.4292v9.8687l-9.9406-3.6181v13.068l-4.9759-1.8111v-22.937" fill="#908d89" stroke-width="0"/>
   <g transform="matrix(.39988 .14554 0 .50281 358.42 149.34)" stroke-width="0">
    <path d="m44.503 423.96h50.227v32.58h-50.227z" fill="#fccf84"/>
    <path d="m44.503 456.54h50.227l-24.904-19.998z" fill="#f7b548"/>
    <path d="m44.503 423.96 25.114 18.163 25.114-18.163z" fill="#e29e3b"/>
   </g>
  </g>
  <g transform="matrix(.89591 -.32608 0 1.3059 -43.319 -14.742)" fill="#a3c9f6" stroke-width=".266" aria-label="IMAP">
   <path d="m614.37 323.4v-7.5956h0.88321v7.5956z"/>
   <path d="m620.69 323.4-2.5509-6.7228h-0.0416q0.0208 0.21301 0.0364 0.51954 0.0156 0.30652 0.026 0.6702 0.0104 0.35848 0.0104 0.73255v4.8005h-0.82086v-7.5956h1.3092l2.4054 6.3176h0.0364l2.4418-6.3176h1.2988v7.5956h-0.87282v-4.8629q0-0.3377 0.0104-0.6754 0.0104-0.34289 0.026-0.64422 0.0156-0.30653 0.0312-0.52993h-0.0416l-2.5821 6.7124z"/>
   <path d="m631.68 323.4-0.93517-2.4106h-3.0445l-0.92997 2.4106h-0.8936l2.9717-7.6268h0.79489l2.951 7.6268zm-1.2001-3.1952-0.88841-2.3951q-0.0312-0.0935-0.10391-0.30653-0.0675-0.21301-0.14027-0.4416-0.0727-0.2286-0.11949-0.36887-0.052 0.21301-0.1143 0.42602-0.0571 0.20781-0.1143 0.38965-0.0572 0.17664-0.0987 0.30133l-0.904 2.3951z"/>
   <path d="m635.63 315.81q1.4703 0 2.1457 0.57669 0.6806 0.57149 0.6806 1.6417 0 0.48317-0.16106 0.91958-0.15586 0.43121-0.50914 0.76372-0.35329 0.32731-0.92997 0.51953-0.57149 0.18704-1.4028 0.18704h-0.92478v2.9873h-0.88321v-7.5956zm-0.0831 0.75333h-1.0183v3.0964h0.82607q0.72735 0 1.2105-0.15586 0.48836-0.15586 0.73254-0.50395 0.24418-0.35328 0.24418-0.93516 0-0.75852-0.48316-1.1274-0.48317-0.37406-1.5118-0.37406z"/>
  </g>
 </g>
 <g transform="matrix(1.1075 0 0 1.1075 -230.29 -295.91)">
  <g transform="translate(-215.48 230.82)">
   <path d="m492.89 233.03-33.36-11.58 33.36-11.59 33.35 11.59z" fill="#a3c9f6"/>
   <path d="m459.53 221.45v3.78l33.36 11.41v-3.61z" fill="#3e8eed"/>
   <path d="m526.27 221.45v3.78l-33.38 11.41v-3.61z" fill="#0064da"/>
   <path d="m492.63 185.04-25.65-8.9 25.65-8.91 25.64 8.91z" fill="#a3c9f6"/>
   <path d="m466.98 176.14v45.12l25.65 8.76v-44.98z" fill="#3e8eed"/>
   <path d="m518.29 176.14v45.12l-25.66 8.76v-44.98z" fill="#0064da"/>
   <path d="m492.03 180.93-13.47-4.68 13.47-4.69 13.48 4.69z" fill="#0064da"/>
   <path d="m494.12 167.2c0.15-0.44 0.57-0.76 1.06-0.77 0.63-0.01 1.14 0.5 1.15 1.12l0.07 7.79c0.01 0.63-0.49 1.14-1.12 1.15s-1.14-0.5-1.15-1.12l-0.07-7.79c0-0.13 0.02-0.26 0.06-0.38z" fill="#3e8eed"/>
   <path d="m488.22 169.18c0.15-0.44 0.57-0.76 1.06-0.77 0.63-0.01 1.14 0.5 1.15 1.12l0.07 7.79c0.01 0.63-0.49 1.14-1.12 1.15s-1.14-0.5-1.15-1.12l-0.07-7.79c-0.01-0.13 0.02-0.26 0.06-0.38z" fill="#3e8eed"/>
  </g>
  <g transform="matrix(.01689 .0061474 0 .01689 252.1 419.74)">
   <g transform="matrix(.569 0 0 .569 199.45 -82.735)">
    <path d="m1410.8 814.2-286.9 93.683-249.6 110.16-69.829 18.435c-17.784 16.916-36.431 34.049-56.599 51.397-22.119 19.082-42.72 36.433-58.553 49.008-17.564 13.88-43.587 39.902-56.814 56.38-19.735 24.721-35.348 50.96-42.071 71.13-11.928 36.433-6.07 73.297 16.916 107.35 29.492 43.369 88.261 87.606 156.78 117.75 34.916 15.4 93.683 35.132 137.92 46.19 73.512 18.651 215.77 38.819 294.05 41.857 15.828 0.65 37.082 0.65 37.947 0 1.737-1.088 13.881-24.289 27.979-53.129 48.142-98.238 82.838-190.4 101.7-269.12 11.276-47.706 20.166-111.25 26.019-186.49 1.521-21.036 2.169-91.514 0.868-115.37-1.953-39.033-5.423-70.692-10.84-101.7-0.868-4.555-1.088-8.676-0.652-8.892 0.865-0.65 3.467-1.517 38.815-11.712l-7.153-16.912v-5e-3zm-65.49 38.386c2.602 0 9.539 66.573 11.273 108.65 0.436 8.89 0.216 14.745-0.216 14.745-1.733 0-36.649-20.599-61.583-36.212-21.687-13.663-62.888-40.988-69.393-46.192-2.173-1.517-1.957-1.733 15.828-7.807 30.14-10.194 101.71-33.18 104.09-33.18zm-146.16 48.143c1.953 0 6.937 2.816 18.865 10.191 44.671 27.974 105.39 61.805 131.42 73.083 8.022 3.469 8.887 2.166-9.542 14.746-39.468 26.889-88.697 53.344-148.98 80.018-10.624 4.771-19.514 8.456-19.73 8.456-0.432 0 0.865-5.418 2.598-11.925 14.53-54.001 22.772-108.65 23.208-152.45 0.216-21.687 0.216-21.687 2.169-22.334-0.436 0.217-0.22 0.217 0 0.217zm-30.142 11.492c1.297 1.299 0.432 49.877-1.304 63.104-3.903 31.662-9.975 61.153-19.947 94.335-2.386 8.018-4.558 14.745-4.987 15.177-0.872 1.083-30.581-27.975-40.339-39.251-16.916-19.518-30.141-39.035-39.9-58.117-4.988-9.759-12.793-28.84-12.144-29.492 3.469-2.385 117.75-46.622 118.62-45.756zm-141.83 55.731c0.216 0 0.432 0 0.652 0.216 0.432 0.434 1.953 3.905 3.254 7.807 6.937 18.867 22.548 46.624 35.997 64.407 14.746 19.518 34.048 40.334 50.091 53.996 5.207 4.337 9.975 8.456 10.624 9.108 1.304 1.302 1.737 1.083-33.612 14.53-40.981 15.613-85.656 31.226-136.84 47.706a6825.5 6825.5 0 0 0-36.643 11.928c-1.955 0.652-1.303-0.434 4.335-9.323 25.371-39.686 63.97-117.54 85.657-172.62 3.687-9.542 7.373-19.082 8.025-21.251 0.868-3.038 1.95-4.121 4.768-5.64 1.518-0.43 3.038-0.866 3.687-0.866zm-43.367 17.999c0.649 0.436-10.411 23.637-21.254 44.889-21.036 40.985-44.022 81.323-74.815 130.33-5.204 8.456-10.19 16.265-10.842 17.132-1.083 1.519-1.519 1.083-4.988-5.638-7.373-14.53-13.447-33.181-16.699-50.313-3.254-16.916-2.602-46.406 1.086-64.621 2.816-13.444 2.602-13.227 9.107-16.481 27.757-14.095 117.54-56.166 118.4-55.299zm374.07 15.182v9.107c0 48.359-5.204 114.72-12.797 163.08-1.301 8.456-2.389 15.393-2.602 15.613 0 0-6.288-1.733-13.661-3.905-32.527-10.193-67.875-25.156-99.754-42.718-21.038-11.494-51.612-30.363-50.743-31.231 0.213-0.215 9.323-4.986 19.947-10.625 42.509-22.118 83.274-45.972 118.62-69.609 13.229-8.892 33.176-23.202 37.518-27.107zm-537.8 64.185c0.867 0 0.65 1.735-0.651 9.542-0.868 5.64-1.951 16.049-2.382 23.202-1.739 31.662 3.469 55.084 19.082 87.177 4.337 8.892 7.809 16.265 7.589 16.48-1.519 1.303-145.07 43.375-190.18 55.734-13.444 3.685-25.152 6.939-26.024 7.153-1.515 0.436-1.733 0.22-1.083-3.47 4.987-31.875 29.276-73.512 63.104-108.64 22.554-23.419 40.554-37.08 71.347-54.648 22.119-12.575 56.165-31.439 58.767-32.309 2e-3 -0.217 0.218-0.217 0.434-0.217zm338.3 60.503c0.216-0.216 5.42 2.605 11.708 6.29 46.408 26.891 111.03 51.83 166.11 64.623l4.991 1.086-6.941 3.899c-28.84 16.049-123.61 55.515-220.54 91.732-14.098 5.202-27.975 10.409-30.581 11.492-2.602 1.083-4.988 1.735-4.988 1.519 0-0.22 3.906-7.809 8.89-17.132 27.107-50.744 54.433-112.55 68.311-155.48 1.739-4.12 2.82-7.805 3.04-8.024zm-34.48 11.278c0.22 0.221-1.517 4.771-3.687 9.975-18.865 45.756-43.59 95.636-75.249 151.58-8.022 14.314-14.746 25.808-14.966 25.808-0.213 0-6.721-3.906-14.527-8.676-45.976-28.192-86.743-62.888-113.41-96.501l-3.905-4.771 19.732-5.422c70.696-19.298 130.76-40.116 190.4-65.704 8.459-3.471 15.4-6.292 15.616-6.292zm214.25 74.815s0.217 0.217 0 0c0.216 4.988-10.844 49.661-19.953 81.969-7.589 27.107-14.098 48.361-26.022 85.874-5.204 16.485-9.755 30.143-9.975 30.143-0.216 0-1.517-0.216-2.818-0.647-64.405-11.714-122.09-27.977-176.3-49.661-15.182-6.074-36.866-15.833-38.167-16.916-0.432-0.438 12.58-6.506 29.06-13.663 98.669-43.154 201.02-92.164 236.15-113.2 4.119-2.603 7.373-3.903 8.025-3.903zm-494.65 16.916c0.434 0.432-27.107 40.118-65.709 94.114-13.444 18.867-29.057 40.985-34.911 49.225-5.856 8.241-14.746 21.253-19.734 29.06l-9.112 14.096-9.759-8.24c-11.494-9.544-31.442-29.927-40.333-41.204-18.651-23.201-31.226-47.706-36.214-70.04-2.386-10.411-2.386-15.618-0.22-16.265 3.252-0.867 61.153-14.53 115.37-27.11 30.143-6.937 65.054-15.177 77.632-18.213 12.579-3.041 22.774-5.423 22.99-5.423zm27.756 10.626 6.937 7.806c31.231 34.914 63.108 60.724 101.71 83.272 6.941 3.906 12.144 7.373 11.708 7.594-1.514 1.083-134.02 48.136-195.38 69.389-34.478 12.143-62.888 21.901-63.102 21.901-0.216 0-2.169-1.299-4.341-2.818l-3.901-2.82 6.288-9.106c20.383-29.493 45.976-61.803 101.71-129.03zm173.05 123.82c0.213-0.215 9.755 3.252 21.464 7.594 28.195 10.624 50.527 17.345 80.456 24.936 36.866 9.326 90.211 18.434 121.66 21.035 4.771 0.432 7.373 0.868 6.505 1.519-1.521 0.868-33.395 11.494-56.816 18.867-37.302 11.708-151.15 45.32-243.96 71.995-17.132 4.987-31.879 9.108-32.746 9.323-2.166 0.436-9.325-1.519-9.325-2.386 0-0.431 5.204-7.153 11.494-14.527 31.225-37.3 62.238-78.935 88.044-118.4 7.154-10.846 13.229-19.736 13.229-19.953zm-38.17 1.087c0.216 0.216-15.179 24.936-42.066 67.439-11.496 17.999-24.291 38.383-28.846 45.54-4.337 6.939-10.842 17.784-14.527 23.854l-6.29 11.061-3.252-0.868c-7.809-2.169-62.672-21.471-77.202-27.325-18-7.157-36.649-15.829-50.529-23.202-17.346-9.326-39.03-23.206-37.297-23.637 0.433-0.216 30.143-8.243 65.922-17.999 94.984-25.809 147.68-40.77 182.16-51.612 6.29-1.952 11.71-3.471 11.926-3.251zm269.98 63.318h0.216c0.868 2.171-34.26 99.755-47.06 130.55-2.815 6.939-3.896 8.677-5.417 8.456-3.687-0.213-54.646-7.37-85.66-11.925-53.994-8.24-144.64-24.073-167.41-29.275l-5.204-1.083 32.307-7.378c69.396-15.613 102.79-24.069 136.62-34.478 42.722-13.011 85.011-29.276 127.73-49.225 6.722-3.037 12.361-5.422 13.879-5.639z" fill="url(#a)"/>
    <path d="m1115 145.41c-4.771-0.647-81.757 27.11-131.42 47.275-67.01 27.327-119.05 53.351-151.15 75.899-11.925 8.461-26.891 23.422-29.273 29.276-0.867 2.169-1.303 4.771-1.303 7.373l29.06 27.541 69.175 22.119 164.59 29.493 188.23 32.312 1.953-16.264c-0.649 0-1.085-0.216-1.73-0.216l-24.728-3.905-4.984-8.89c-25.59-45.107-53.781-101.06-70.261-138.79-12.793-29.276-24.938-63.102-31.662-87.391-3.687-14.746-4.119-15.613-6.501-15.829v-5e-3h-0.01zm-3.474 11.063h0.223c0.213 0.214 1.081 6.29 1.95 13.442 3.683 30.364 10.411 59.635 21.035 91.297 8.022 23.855 8.022 22.555-1.301 19.734-22.119-6.07-121.22-23.202-193-33.177-11.494-1.519-21.253-3.036-21.253-3.252-0.867-0.867 51.827-28.41 75.031-39.25 29.709-13.665 111.25-47.711 117.32-48.794zm-209.05 97.15 8.461 2.816c45.97 15.616 161.55 37.736 225.31 42.94 7.154 0.651 13.229 1.303 13.442 1.303 0.216 0.216-5.852 3.469-13.661 7.154-30.79 15.397-64.621 34.264-88.042 48.794-6.937 4.335-13.229 7.807-14.094 7.807-0.868 0-5.42-0.868-10.191-1.519l-8.674-1.303-21.683-21.253c-38.167-37.08-68.094-65.704-79.588-76.549zm-8.671 6.721 30.576 38.168c16.696 21.035 33.611 41.635 37.301 46.187 3.683 4.557 6.721 8.245 6.505 8.461-0.868 0.65-44.236-7.809-67.226-13.011-23.637-5.423-33.395-8.025-47.924-12.577l-11.928-3.905v-3.038c0.216-14.53 18.651-36.214 49.877-58.331zm259.79 52.046c0.869 0 1.95 1.951 4.552 7.806 7.373 16.263 30.364 60.07 35.997 68.526 1.74 2.822 4.771 3.038-25.802-1.95-73.512-11.93-97.152-15.829-97.152-16.263 0-0.216 2.169-1.735 4.988-3.254 22.771-12.575 45.756-28.624 66.142-45.756 4.988-4.121 9.542-8.024 10.407-8.676 0.216-0.433 0.652-0.649 0.868-0.433z" fill="url(#b)"/>
    <path d="m804.66 294.83s-4.768 7.593-0.215 18.87c2.822 6.937 11.061 15.393 20.384 24.069 0 0 96.5 94.114 108.21 107.56 53.344 61.585 76.549 122.3 78.718 206.01 1.301 53.78-8.894 101.05-34.264 155.92-45.106 98.453-140.31 207.1-287.12 327.67l21.472-7.157c13.878-10.411 32.745-21.467 76.982-45.756 102.14-55.952 217.07-107.35 358.03-160.26 202.97-76.335 536.72-165.68 726.68-194.74l19.737-3.038-3.038-4.771c-17.345-26.891-29.276-43.587-43.59-61.369-41.633-51.612-92.157-93.463-153.96-128.16-85.007-47.489-194.96-84.571-334.17-112.11-26.239-5.207-83.923-15.181-130.76-22.337-99.321-15.393-163.51-26.021-234.2-38.165-25.37-4.339-63.323-10.843-88.478-16.263-13.011-2.822-37.947-8.676-57.464-15.398-15.613-6.075-38.168-12.147-42.939-30.58zm55.952 54.216c0.214-0.214 3.683 1.083 8.24 2.602 8.24 2.816 18.865 6.07 31.446 9.542a1599.5 1599.5 0 0 0 28.624 7.589c13.011 3.251 23.852 6.288 24.068 6.288 1.521 1.519 23.424 71.558 30.797 98.449 2.815 10.195 4.988 18.867 4.771 18.867-0.223 0.22-2.605-3.469-5.423-8.456-25.373-44.673-65.491-89.995-111.9-126.43-6.069-4.333-10.624-8.237-10.624-8.453zm106.69 29.492c1.085 0 5.856 0.651 11.708 1.951 36.866 8.24 103.01 20.818 145.29 27.975 7.157 1.083 12.797 2.387 12.797 2.818 0 0.436-2.605 1.951-5.859 3.688-7.153 3.685-35.997 20.815-45.536 27.322-24.073 16.047-45.756 33.395-61.371 49.008-6.288 6.29-11.712 11.494-11.712 11.494s-1.297-3.685-2.386-8.242c-7.802-30.143-24.069-74.816-38.815-106.26-2.386-4.986-4.339-9.541-4.339-9.973 0 0.433 0 0.217 0.22 0.217zm187.8 35.781c1.301 0.432 3.47 7.806 7.806 24.069 8.025 31.446 11.712 66.576 10.411 99.321-0.436 9.108-0.868 17.564-1.304 18.651l-0.649 2.166-11.276-3.685c-23.204-7.373-60.935-18.435-93.245-27.541-18.436-4.988-33.395-9.542-33.395-9.975 0-1.303 26.891-28.192 38.383-38.383 21.898-19.303 81.316-65.275 83.269-64.623zm14.963 2.166c0.652-0.647 89.779 14.746 130.33 22.554 30.145 5.854 73.948 14.963 76.549 16.049 1.301 0.432-3.254 3.034-17.784 9.539-57.248 25.808-99.754 49.008-142.04 77.202-11.06 7.373-20.386 13.444-20.602 13.444s-0.433-6.287-0.433-13.878c0-41.201-8.241-82.838-23.424-117.97-1.517-3.47-2.818-6.722-2.601-6.942zm230.52 45.542c0.652 0.65-2.169 18.217-4.771 28.624-7.806 32.312-28.84 80.24-54.643 125.34-4.558 8.024-8.677 14.53-9.114 14.746-0.429 0.216-6.285-3.038-13.009-6.941-25.154-14.746-53.778-28.624-85.007-41.637-8.671-3.685-16.263-6.723-16.48-7.153-1.521-1.303 68.308-47.493 105.17-69.612 29.276-17.781 76.982-44.239 77.85-43.37zm16.48 2.601c1.953 0 41.421 10.844 62.019 16.916 50.963 15.181 109.51 36.648 147.68 53.996l15.828 7.159-11.056 2.6c-93.245 21.467-173.05 46.192-250.03 77.418-6.289 2.602-11.928 4.771-12.357 4.771-0.436 0 1.733-4.987 4.552-11.061 23.204-49.225 38.167-100.62 41.85-144.43 0.221-4.121 0.867-7.372 1.519-7.372zm-392.94 90.213c0.649-0.652 30.793 6.506 47.057 11.056 24.721 6.942 77.198 24.505 77.198 25.808 0 0.216-5.853 5.204-12.79 11.278-28.408 23.637-55.734 48.572-88.481 80.234-9.759 9.328-17.997 16.917-18.429 16.917-0.436 0-0.649-1.304-0.436-3.038 4.987-36.433 3.906-83.272-3.034-130.76-0.653-6.074-1.302-11.276-1.085-11.492zm633.43 0.652c0.429 0.431-13.881 22.984-22.988 35.777-13.009 18.649-32.098 43.375-75.252 97.588-22.765 28.622-48.358 60.936-56.812 71.778-8.678 10.842-15.831 19.948-16.051 19.948-0.216 0-3.031-3.901-6.069-8.671-24.289-36.433-53.349-68.311-87.829-96.935-6.505-5.423-13.658-11.278-16.044-13.013-2.386-1.734-4.339-3.469-4.339-3.685 0-0.649 36.862-16.483 64.841-27.757 49.01-19.952 115.79-43.805 165.89-59.203 26.24-8.239 54.215-16.263 54.651-15.827zm16.696 4.334c0.865-0.215 6.072 2.387 12.361 6.07 52.697 30.143 104.3 68.962 145.08 108.86 11.492 11.278 39.9 40.77 39.464 40.986 0 0-9.975 0.867-21.683 1.733-91.296 6.942-208.18 26.239-320.51 53.345-7.589 1.733-14.31 3.252-14.746 3.252-0.429 0 8.025-8.456 18.653-18.647 65.922-63.538 96.067-103.66 131.63-175.22 4.986-10.623 9.325-19.731 9.757-20.383-0.216 0-0.216 0 0 0zm-482.94 49.446c3.038 0.647 31.229 13.88 52.48 24.503 19.517 9.755 48.794 25.372 50.311 26.671 0.216 0.216-10.195 5.638-22.984 11.928-40.772 20.384-75.684 39.682-112.12 61.802-10.408 6.29-19.082 11.497-19.298 11.497-0.868 0-0.652-0.872 5.204-11.497 19.518-35.561 35.129-78.065 44.023-119.49 0.864-3.252 1.733-5.418 2.382-5.418zm-28.192 5.202c0.652 0.652-6.721 27.323-11.273 41.853-8.894 27.541-23.856 62.02-38.383 88.043-3.474 6.069-8.677 14.961-11.496 19.948l-5.42 8.674-12.144-11.707c-14.094-13.663-25.59-22.12-40.333-29.712-5.859-3.033-10.411-5.638-10.411-6.069 0-1.735 37.082-35.347 65.49-59.635 20.383-17.566 63.321-52.045 63.97-51.395zm172.4 70.913 10.627 6.937c24.282 15.833 52.906 36.866 74.813 55.298 12.357 10.19 36.21 31.662 40.985 36.866l2.598 2.822-17.561 4.986c-99.321 27.538-176.09 52.043-265.65 85.007-9.975 3.685-18.433 6.721-19.085 6.721-1.297 0-2.385 1.083 19.954-19.519 57.251-52.691 107.99-110.81 145.73-167.41zm-45.324 11.276c0.432 0.432-29.276 42.284-47.06 65.922-21.251 28.192-58.985 75.465-85.007 106.26-10.84 12.797-20.163 23.422-20.599 23.64-0.652 0.216-0.868-3.036-0.868-8.024 0-26.242-6.721-54.216-18.433-78.068-4.988-9.975-5.856-12.361-4.768-13.444 4.119-3.688 67.223-39.686 107.12-61.153 26.89-14.312 68.956-35.563 69.612-35.129zm-274.11 67.225c0.652 0 5.64 2.6 11.279 5.638 13.878 7.589 26.239 16.046 37.298 25.156 0.432 0.432-5.204 4.988-12.577 10.406-20.602 14.746-51.828 38.385-70.041 52.915-19.088 15.18-19.734 15.613-17.568 12.361 14.314-21.903 21.467-34.264 29.06-50.093 6.721-14.094 13.442-30.793 18.213-45.323 1.734-6.289 3.904-11.06 4.336-11.06zm73.083 57.248c1.081-0.214 2.386 1.735 8.238 10.411 12.361 18.429 21.903 43.154 24.292 63.104l0.429 4.339-29.705 11.494c-53.133 20.599-102.14 40.985-135.32 56.162-9.322 4.339-25.587 12.144-36.211 17.352-10.627 5.418-19.301 9.539-19.301 9.323s6.721-5.204 14.961-11.278c64.844-47.055 121.01-98.669 163.08-150.28 4.555-5.423 8.677-10.411 9.107-10.627zm-33.612 8.242c0.868 0.867-23.853 28.84-40.768 45.971-41.853 42.723-83.273 76.12-134.67 108.65-6.505 4.119-12.359 7.804-13.011 8.24-1.519 0.867 0.432-1.303 22.986-25.808 14.314-15.397 25.155-28.408 37.516-44.453 8.24-10.624 9.759-12.143 21.688-20.604 31.878-22.987 105.39-72.864 106.26-71.995z" fill="url(#c)"/>
   </g>
   <path d="m265.75 900.1c-2.276 0-4.553 0.217-6.809 0.217-45.975 2.45-76.983 22.683-95.113 62.195-15.506 35.735-13.813 82.446 0.174 118.4 16.265 35.131 42.547 53.672 86.416 60.675 9.282 1.52 15.506 6.616 33.483 27.606l22.12 25.915h40.118l-26.676-26.892c-14.746-14.745-26.673-27.584-26.673-28.712 0-1.127 5.641-3.599 12.469-5.68 22.51-6.812 41.203-24.202 54.279-50.854 10.583-21.402 12.102-28.018 13.619-54.646 3.969-79.26-37.82-128.81-107.41-128.25zm35.173 207.27c-19.517 9.453-47.857 11.34-66.356 4.553-19.127-7.025-37.646-26.889-45.975-49.377-9.259-24.591-7.937-69.956 2.646-90.386 17.023-32.528 39.534-47.49 72.43-47.49 48.792 0 76.549 29.884 80.171 86.048 2.863 46.885-12.838 82.058-42.895 96.632zm693.02-139.57c-16.828 0-29.709 6.811-38.385 20.231l-6.809 10.627v-27.628h-29.123v165.68h29.104v-52.956c0-48.424 0.604-54.084 7.371-67.335 9.326-18.172 25.371-27.234 40.879-22.897l10.408 3.036v-28.712h-13.445zm-171.1-1.519c-5.705 0-11.756 0.76-17.781 2.084-38.971 10.19-60.938 47.489-59.594 85.873 0 32.139 6.244 48.206 21.752 65.057 31.77 26.065 60.502 28.146 99.275 14.161 6.615-2.819 13.814-6.072 13.814-6.072v-26.065l-13.814 7.156c-31.379 13.661-55.016 13.661-73.949-2.43-12.076-12.296-17.391-27.042-19.84-43.868h117.43v-22.339c0-45.539-27.41-74.294-67.313-73.557zm-47.492 72.647s4.338-28.407 20.428-39.554c7.744-5.466 16.633-8.11 25.328-8.11 8.719 0 17.414 2.818 24.592 8.306 14.748 11.341 17.219 39.143 17.219 39.143h-87.566v0.215zm-702.11-29.881c-31.573-19.128-45.582-32.921-43.869-49.185 4.9-44.997 60.503-38.773 91.295-21.749l0.219-30.272s-17.024-7.373-41.421-7.764c-37.429-0.564-61.63 11.709-72.97 36.691-16.656 36.865-1.908 64.665 51.396 95.677 29.925 17.412 43.152 32.528 43.152 49.008 0 34.047-41.05 45.931-83.401 24.57-8.716-4.337-16.09-7.959-16.48-7.959-1.519 9.651-0.736 32.745-0.736 32.745s13.012 5.466 32.527 9.236c48.4 9.65 92.445-13.054 96.608-49.919 3.622-34.609-8.893-52.761-56.318-81.104zm1178.5-43.155c-5.682 0-11.711 0.78-18 2.103-38.924 10.192-60.85 47.492-59.354 85.876 0 32.095 6.225 48.011 21.729 64.838 31.771 26.089 60.504 28.191 99.473 14.184 6.592-2.818 13.77-6.026 13.77-6.026v-26.109l-13.791 7.197c-31.443 13.619-55.082 13.619-73.947-2.471-12.145-12.274-17.414-26.847-19.865-43.871h117.23v-22.336c0-45.321-27.412-74.099-67.313-73.339zm-47.492 72.646s4.381-28.365 20.449-39.729c7.721-5.485 16.611-8.132 25.307-8.132 8.674 0 17.414 2.819 24.594 8.327 14.746 11.342 17.219 39.338 17.219 39.338h-87.545zm-533.81-29.123c-31.573-19.083-45.54-32.92-43.848-49.185 4.9-45.02 60.504-38.773 91.296-21.749l0.218-30.272s-17.024-7.374-41.421-7.722c-37.429-0.563-61.63 11.711-72.991 36.692-16.633 36.864-1.692 64.666 51.437 95.677 29.884 17.393 43.111 32.312 43.111 48.792 0 34.047-41.029 46.126-83.381 24.569-8.674-4.337-16.046-7.916-16.48-7.916-1.519 9.649-0.736 32.746-0.736 32.746s12.858 5.27 32.31 9.237c48.445 9.672 92.51-13.012 96.653-49.877 3.6-34.437-8.891-52.587-56.167-80.952v-0.04zm752.42-42.005c-16.828 0-29.859 6.829-38.383 20.254l-6.811 10.582v-27.583h-29.123v165.63h29.102v-52.954c0-48.403 0.584-54.085 7.375-67.313 9.324-18.15 25.369-27.235 40.875-22.878l10.408 3.035v-28.775h-13.443zm-984.02 41.05v-105.52h-29.361v233.73h123.48v-27.604h-94.116v-100.6zm679.02 32.896-24.201 62.975-23.27-63.322-23.637-70.173h-30.055c19.475 55.212 40.658 111.38 62.02 165.83 9.26 0.216 18.541 0 27.799 0l32.682-82.058 33.287-83.75h-28.732s-12.688 33.266-25.914 70.521zm-611.36-202.11c4.728 0 8.674-1.516 11.927-4.769 3.208-3.211 4.9-6.984 4.9-11.711 0-4.728-1.692-8.675-4.9-11.711-3.253-3.035-7.005-4.555-11.711-4.555-4.769 0-8.717 1.52-11.927 4.728-3.252 3.211-4.727 7.158-4.727 11.712 0 4.771 1.519 8.716 4.727 11.711 3.037 3.034 6.984 4.553 11.711 4.553zm-10.408-26.889c2.818-2.818 6.245-4.121 10.625-4.121 4.121 0 7.548 1.303 10.411 4.121 2.819 2.819 4.337 6.245 4.337 10.409 0 4.163-1.518 7.764-4.337 10.582-2.862 2.817-6.29 4.163-10.411 4.163-4.185 0-7.59-1.301-10.408-4.163-2.819-2.818-4.337-6.419-4.337-10.582 0-4.164 1.301-7.589 4.12-10.409zm7.003 11.928h1.908c1.346 0 2.668 1.3 3.795 3.773l2.279 5.116h3.577l-2.818-5.683c-1.149-2.275-2.276-3.598-3.6-3.969 1.67-0.39 2.992-0.953 3.947-2.082 0.952-0.974 1.3-2.298 1.3-3.795 0-1.734-0.542-3.034-1.69-3.989-1.302-1.084-3.384-1.669-6.074-1.669h-6.026v21.187h3.035v-8.891zm0-9.846h2.647c1.908 0 3.253 0.39 3.99 0.953 0.716 0.564 0.911 1.303 0.911 2.646 0 2.45-1.52 3.601-4.337 3.601h-3.252v-7.2zm-485.02 7.958c0-7.373-0.216-12.858-0.39-16.09h0.174c0.758 3.814 1.691 6.657 2.45 8.543l28.19 62.975h4.728l28.19-63.538c0.761-1.733 1.52-4.337 2.452-7.959h0.216c-0.563 6.29-0.758 11.754-0.758 16.112v55.581h9.648v-82.622h-12.1l-25.913 57.466c-0.955 2.276-2.278 5.683-3.969 10.193h-0.392c-0.563-2.234-1.886-5.639-3.772-9.803l-25.33-58.053h-12.858v82.621h9.281v-55.385zm96.045 0.154h8.329v51.458h-8.329zm4.164-18.868c1.736 0 3.21-0.587 4.337-1.734 1.15-1.129 1.91-2.603 1.91-4.337 0-1.692-0.565-3.211-1.887-4.337-1.171-1.15-2.668-1.737-4.381-1.737-1.69 0-3.208 0.587-4.338 1.737-1.146 1.126-1.907 2.645-1.907 4.337 0 1.887 0.586 3.208 1.907 4.337 1.304 1.147 2.647 1.734 4.338 1.734zm63.54 71.455v-9.066c-4.555 3.405-9.456 5.098-14.53 5.098-6.07 0-10.995-2.081-14.595-6.07-3.577-3.947-5.485-9.436-5.485-16.266 0-7.156 1.908-12.84 5.854-17.177 3.795-4.163 8.719-6.245 14.748-6.245 4.922 0 9.647 1.52 14.009 4.557v-9.65c-3.968-2.082-8.5-3.037-13.619-3.037-9.456 0-16.827 3.037-22.335 8.894-5.466 5.854-8.285 13.813-8.285 23.42 0 8.543 2.45 15.722 7.548 21.209 5.312 5.637 12.102 8.5 20.428 8.5 6.438-0.178 11.707-1.523 16.262-4.167zm23.831-27.433c0-6.788 1.518-12.273 4.337-16.049 2.647-3.403 5.855-5.116 9.65-5.116 3.21 0 5.486 0.585 7.155 1.908v-9.846c-1.3-0.563-3.187-0.758-5.637-0.758-3.405 0-6.439 1.146-9.107 3.253-2.819 2.231-5.074 5.638-6.397 9.975h-0.216v-12.08h-9.433v58.985h9.454v-30.272zm54.279 31.443c8.892 0 16.048-2.863 21.36-8.543 5.29-5.641 7.936-13.229 7.936-22.686 0-9.647-2.427-17.021-7.372-22.51-4.9-5.483-11.711-8.132-20.603-8.132s-16.048 2.647-21.36 7.764c-5.681 5.641-8.674 13.599-8.674 23.813 0 8.891 2.429 16.265 7.548 21.751 5.29 5.68 12.295 8.521 21.165 8.521zm-13.445-48.055c3.6-3.795 8.329-5.683 14.182-5.683 6.074 0 10.627 1.888 14.01 5.683 3.404 3.969 5.097 9.63 5.097 17.197 0 7.198-1.519 12.859-4.729 16.654-3.208 3.969-7.936 6.071-14.183 6.071-6.071 0-10.777-2.104-14.377-6.071-3.577-3.99-5.291-9.456-5.291-16.654-0.368-7.156 1.519-13.01 5.291-17.197zm84.141 42.916c3.599-3.208 5.509-7.155 5.509-12.102 0-4.337-1.52-7.936-4.338-10.777-2.3-2.275-5.854-4.337-10.994-6.419-4.556-1.906-7.374-3.6-8.893-4.923-1.517-1.517-2.45-3.402-2.45-6.071 0-2.45 0.955-4.337 2.821-5.855 1.908-1.516 4.337-2.253 7.59-2.253 5.096 0 9.454 1.343 13.443 4.185v-9.456c-3.816-1.906-7.958-2.817-12.686-2.817-6.071 0-11.189 1.671-14.964 4.899-3.969 3.212-5.854 7.375-5.854 12.274 0 4.337 1.3 7.938 3.771 10.582 2.082 2.256 5.641 4.556 10.583 6.614 4.729 2.083 7.938 3.968 9.65 5.485 1.691 1.52 2.45 3.405 2.45 5.641 0 5.506-3.772 8.349-11.146 8.349-5.682 0-10.776-1.866-15.333-5.638v10.189c4.121 2.475 9.066 3.601 14.53 3.601 7.005-0.368 12.49-2.081 16.264-5.486zm45.019-56.73c-8.893 0-16.048 2.647-21.361 7.764-5.638 5.641-8.674 13.599-8.674 23.813 0 8.891 2.452 16.265 7.547 21.751 5.313 5.68 12.295 8.521 21.187 8.521 9.107 0 16.048-2.861 21.36-8.545 5.313-5.637 7.958-13.227 7.958-22.683 0-9.65-2.472-17.022-7.374-22.509-5.115-5.487-11.927-8.133-20.601-8.133zm18.345 31.012c0 7.198-1.518 12.859-4.727 16.654-3.21 3.969-7.938 6.071-14.184 6.071-6.074 0-10.778-2.104-14.379-6.071-3.577-3.99-5.29-9.456-5.29-16.654 0-7.59 1.888-13.444 5.683-17.393 3.576-3.773 8.306-5.682 14.182-5.682 5.854 0 10.561 1.907 13.964 5.682 3.037 4.163 4.729 9.824 4.729 17.393zm25.547 29.513h9.433v-51.068h13.813v-7.938h-13.814v-9.108c0-8.282 3.208-12.446 9.845-12.446 2.234 0 4.511 0.563 6.203 1.518v-8.521c-1.692-0.759-3.969-0.932-6.812-0.932-5.095 0-9.258 1.519-12.664 4.727-3.969 3.773-6.071 8.674-6.071 15.312v9.672h-9.978v7.936h9.978v50.876zm38.75-16.091c0 11.538 5.098 17.414 15.506 17.414 3.774 0 6.614-0.606 8.891-1.951v-8.11c-1.734 1.302-3.795 1.91-6.071 1.91-3.208 0-5.464-0.762-6.788-2.475-1.345-1.689-2.103-4.554-2.103-8.501v-33.286h14.961v-7.938h-14.961v-17.39c-3.253 1.127-6.44 2.082-9.456 3.034v14.355h-10.192v7.938h10.192v34.979zm1014.9 108.73c-3.209-3.034-7.004-4.553-11.709-4.553-4.77 0-8.719 1.519-11.928 4.771-3.209 3.188-4.729 7.155-4.729 11.711 0 4.728 1.52 8.675 4.705 11.709 3.211 3.036 7.156 4.556 11.928 4.556 4.705 0 8.674-1.52 11.928-4.729 3.188-3.253 4.879-7.004 4.879-11.709-0.174-4.771-1.887-8.719-5.096-11.754zm-1.517 22.338c-2.82 2.818-6.246 4.119-10.41 4.119-4.119 0-7.545-1.301-10.408-4.119-2.818-2.863-4.338-6.441-4.338-10.627 0-4.121 1.301-7.545 4.164-10.408 2.818-2.817 6.225-4.121 10.582-4.121 4.121 0 7.549 1.304 10.41 4.121 2.818 2.863 4.336 6.287 4.336 10.408 0 4.382-1.301 7.764-4.336 10.627zm-8.502-9.651c1.691-0.39 3.037-1.149 3.969-2.081 0.955-0.977 1.303-2.301 1.303-3.815 0-1.692-0.543-3.037-1.691-3.969-1.301-1.085-3.404-1.671-6.07-1.671h-6.029v21.164h3.037v-8.891h1.885c1.303 0 2.604 1.3 3.773 3.773l2.254 5.096h3.602l-2.818-5.683c-0.977-2.472-2.105-3.601-3.252-3.97zm-2.082-1.907h-3.252v-7.155h2.668c1.887 0 3.209 0.345 3.969 0.932 0.758 0.563 0.932 1.301 0.932 2.646 0 2.45-1.518 3.579-4.336 3.579zm-527.58-164.88h2.646v-21.187h7.002v-2.646h-16.652v2.646h7.006v21.187zm16.047-15.917c0-2.062 0-3.753-0.152-4.705 0.174 1.126 0.564 1.887 0.738 2.45l8.133 18.172h1.301l8.152-18.347c0.219-0.563 0.393-1.301 0.76-2.275-0.174 1.887-0.174 3.401-0.174 4.553v16.048h2.82v-23.812h-3.406l-7.371 16.438c-0.174 0.587-0.762 1.734-1.129 3.037h-0.217c-0.152-0.761-0.541-1.519-1.084-2.818l-7.373-16.655h-3.816v23.854h2.666v-15.917z" fill="#231f1f"/>
  </g>
 </g>
 <g transform="matrix(1.1075 0 0 1.1075 8.1709 -175.11)">
  <path d="m238.73 342.3v16.009l17.131 6.2352v-22.404l-10.736-3.9077z" fill="#fccf84" stroke-width="0"/>
  <path d="m238.73 342.3 6.3947-4.0672v6.3947z" fill="#f7b548" stroke-width="0"/>
  <g transform="matrix(.082344 .029971 0 .11304 242.84 344.52)">
   <path d="m57.55 0h7.425v10c12.513 0 25.025 0.025 37.537-0.038 2.113 0.087 4.438-0.062 6.275 1.2 1.287 1.85 1.138 4.2 1.225 6.325-0.062 21.7-0.037 43.388-0.024 65.075-0.062 3.638 0.337 7.35-0.425 10.938-0.5 2.6-3.625 2.662-5.713 2.75-12.95 0.037-25.912-0.025-38.875 0v11.25h-7.763c-19.05-3.463-38.138-6.662-57.212-10v-87.487c19.188-3.338 38.375-6.625 57.55-10.013z" fill="#207245"/>
   <path d="m64.975 13.75h41.25v78.75h-41.25v-7.5h10v-8.75h-10v-5h10v-8.75h-10v-5h10v-8.75h-10v-5h10v-8.75h-10v-5h10v-8.75h-10z" fill="#fff"/>
   <path d="m79.975 21.25h17.5v8.75h-17.5z" fill="#207245"/>
   <path d="m37.025 32.962c2.825-0.2 5.663-0.375 8.5-0.512a2607.3 2607.3 0 0 1-10.087 20.487c3.438 7 6.949 13.95 10.399 20.95a716.28 716.28 0 0 1-9.024-0.575c-2.125-5.213-4.713-10.25-6.238-15.7-1.699 5.075-4.125 9.862-6.074 14.838-2.738-0.038-5.476-0.15-8.213-0.263 3.212-6.287 6.312-12.625 9.624-18.875-2.812-6.438-5.9-12.75-8.8-19.15 2.75-0.163 5.5-0.325 8.25-0.475 1.862 4.888 3.899 9.712 5.438 14.725 1.649-5.312 4.112-10.312 6.225-15.45z" fill="#fff"/>
   <path d="m79.975 35h17.5v8.75h-17.5zm0 13.75h17.5v8.75h-17.5zm0 13.75h17.5v8.75h-17.5zm0 13.75h17.5v8.75h-17.5z" fill="#207245"/>
  </g>
 </g>
 <g transform="matrix(1.1075 0 0 1.1075 -.44265 -359.23)">
  <path d="m357.78 434.86v16.009l17.131 6.2352v-22.404l-10.736-3.9077z" fill="#fccf84" stroke-width="0"/>
  <path d="m357.78 434.86 6.3947-4.0672v6.3947z" fill="#f7b548" stroke-width="0"/>
  <g transform="matrix(.024006 .0087376 0 .024006 360.29 437.49)">
   <rect width="512" height="512" rx="15%" fill="#c80a0a"/>
   <path d="m413 302c-9-10-29-15-56-15-16 0-33 2-53 5a252 252 0 0 1-52-69c10-30 17-59 17-81 0-17-6-44-30-44-7 0-13 4-17 10-10 18-6 58 13 100a898 898 0 0 1-50 117c-53 22-88 46-91 65-2 9 4 24 25 24 31 0 65-45 91-91a626 626 0 0 1 92-24c38 33 71 38 87 38 32 0 35-23 24-35zm-186-191c8-12 26-8 26 16 0 16-5 42-15 72-18-42-18-75-11-88zm-127 280c3-16 33-38 80-57-26 44-52 72-68 72-10 0-13-9-12-15zm197-98a574 574 0 0 0-83 22 453 453 0 0 0 36-84 327 327 0 0 0 47 62zm13 4c32-5 59-4 71-2 29 6 19 41-13 33-23-5-42-18-58-31z" fill="#fff"/>
  </g>
 </g>
 <g stroke-width="1.1075">
  <path d="m500.71 259.16-26.879-9.3362 26.879-9.3362 26.868 9.3362z" fill="#f4ac99"/>
  <path d="m473.83 249.82v30.866l26.879 9.1923v-30.722z" fill="#e86e58"/>
  <path d="m527.61 249.82v30.866l-26.901 9.1923v-30.722z" fill="#cc5444"/>
  <path d="m521.81 259.03v16.059l-13.977 4.7733v-15.97z" fill="#e86e58"/>
  <path d="m526.81 271.46c0.52053 0 0.99675-0.32118 1.185-0.83063 0.23258-0.65343-0.0997-1.3733-0.7531-1.617l-8.1291-2.9017c-0.65343-0.24365-1.3733 0.0997-1.617 0.7531-0.23258 0.65343 0.0997 1.3733 0.7531 1.617l8.1291 2.9017c0.14397 0.0554 0.28795 0.0775 0.43192 0.0775z" fill="#f4ac99"/>
  <path d="m519.6 273.74c0.52053 0 0.99675-0.32117 1.185-0.83063 0.23257-0.65342-0.0997-1.3733-0.7531-1.617l-8.1291-2.9017c-0.65343-0.24365-1.3733 0.0997-1.617 0.75311-0.23257 0.65342 0.0997 1.3733 0.75311 1.617l8.1291 2.9017c0.14398 0.0554 0.28795 0.0775 0.43193 0.0775z" fill="#f4ac99"/>
 </g>
 <g transform="matrix(.20148 .073335 0 .35233 410.14 78.826)" fill="#812e23" aria-label="WWW">
  <path d="m364.98 446.87-7.6367 28.555h-3.3398l-5.6641-19.219q-0.2539-0.82031-0.48828-1.6406-0.21484-0.83984-0.41015-1.582-0.19532-0.76172-0.33203-1.3281-0.11719-0.58594-0.17579-0.87891-0.0391 0.29297-0.15625 0.85938-0.0977 0.5664-0.27343 1.3086-0.15625 0.74219-0.39063 1.582-0.21484 0.83985-0.46875 1.6992l-5.5078 19.199h-3.3398l-7.5781-28.555h3.457l4.5898 17.91q0.23437 0.89844 0.42968 1.7773 0.21485 0.85938 0.3711 1.6797 0.17578 0.82031 0.3125 1.6016t0.2539 1.5234q0.0977-0.76172 0.25391-1.582 0.15625-0.83985 0.33203-1.6992 0.19531-0.85938 0.41016-1.7383 0.23437-0.87891 0.48828-1.7578l5.1367-17.715h3.418l5.3516 17.852q0.27344 0.91797 0.50781 1.8164 0.23438 0.89844 0.41016 1.7578 0.19531 0.83985 0.33203 1.6211 0.15625 0.76172 0.27344 1.4453 0.13671-0.95703 0.33203-2.0117 0.19531-1.0547 0.44922-2.207 0.27343-1.1523 0.58593-2.3828l4.5898-17.891z"/>
  <path d="m401.91 446.87-7.6367 28.555h-3.3398l-5.6641-19.219q-0.25391-0.82031-0.48828-1.6406-0.21485-0.83984-0.41016-1.582-0.19531-0.76172-0.33203-1.3281-0.11719-0.58594-0.17578-0.87891-0.0391 0.29297-0.15625 0.85938-0.0977 0.5664-0.27344 1.3086-0.15625 0.74219-0.39062 1.582-0.21485 0.83985-0.46875 1.6992l-5.5078 19.199h-3.3398l-7.5781-28.555h3.457l4.5898 17.91q0.23437 0.89844 0.42969 1.7773 0.21484 0.85938 0.37109 1.6797 0.17578 0.82031 0.3125 1.6016t0.25391 1.5234q0.0976-0.76172 0.2539-1.582 0.15625-0.83985 0.33203-1.6992 0.19532-0.85938 0.41016-1.7383 0.23438-0.87891 0.48828-1.7578l5.1367-17.715h3.418l5.3516 17.852q0.27344 0.91797 0.50781 1.8164 0.23438 0.89844 0.41016 1.7578 0.19531 0.83985 0.33203 1.6211 0.15625 0.76172 0.27344 1.4453 0.13672-0.95703 0.33203-2.0117t0.44922-2.207q0.27344-1.1523 0.58594-2.3828l4.5898-17.891z"/>
  <path d="m438.84 446.87-7.6367 28.555h-3.3398l-5.6641-19.219q-0.2539-0.82031-0.48828-1.6406-0.21484-0.83984-0.41016-1.582-0.19531-0.76172-0.33203-1.3281-0.11718-0.58594-0.17578-0.87891-0.0391 0.29297-0.15625 0.85938-0.0977 0.5664-0.27344 1.3086-0.15625 0.74219-0.39062 1.582-0.21484 0.83985-0.46875 1.6992l-5.5078 19.199h-3.3398l-7.5781-28.555h3.457l4.5898 17.91q0.23438 0.89844 0.42969 1.7773 0.21484 0.85938 0.37109 1.6797 0.17579 0.82031 0.3125 1.6016 0.13672 0.78125 0.25391 1.5234 0.0977-0.76172 0.25391-1.582 0.15625-0.83985 0.33203-1.6992 0.19531-0.85938 0.41015-1.7383 0.23438-0.87891 0.48829-1.7578l5.1367-17.715h3.418l5.3516 17.852q0.27343 0.91797 0.50781 1.8164 0.23437 0.89844 0.41015 1.7578 0.19532 0.83985 0.33204 1.6211 0.15625 0.76172 0.27343 1.4453 0.13672-0.95703 0.33203-2.0117 0.19532-1.0547 0.44922-2.207 0.27344-1.1523 0.58594-2.3828l4.5898-17.891z"/>
 </g>
 <path d="m82.579 178.35v21.725c0 0.95722 4.0352 0.25431 9.0039-1.5542 4.9687-1.8085 9.0039-4.052 9.0039-5.0002v-21.725z" fill="#908d89" stroke-width=".82844"/>
 <path d="m91.568 173.36c-4.9612 1.8057-8.9888 4.0466-8.9888 4.9947 0 0.94811 4.0202 0.25979 8.9888-1.5487 4.9612-1.8057 8.9888-4.0466 8.9888-4.9947 0-0.94812-4.0201-0.25982-8.9888 1.5486z" fill="#fff" stroke-width=".82844"/>
 <g fill="#b3afab" stroke-width=".82844">
  <path d="m82.579 190.26c1.6562 0.33617 5.8269-0.84453 8.9964-1.9981 3.1845-1.1591 7.3627-3.0171 9.0114-4.5653v-1.5954l-0.2108 0.0867-0.11288 0.1505c-0.51946 0.69049-3.6437 2.5752-8.6877 4.411-5.0063 1.8222-8.1381 2.2145-8.6802 1.9104l-0.17315-0.0645-0.14304 0.052z"/>
  <path d="m82.579 184.89c1.6562 0.33618 5.8269-0.84451 9.0039-2.0008 3.1845-1.159 7.3552-3.0144 9.0039-4.5626v-1.5954l-0.2108 0.0867-0.11288 0.15049c-0.51946 0.69049-3.6437 2.5752-8.6877 4.411-5.0063 1.8222-8.1381 2.2145-8.6802 1.9104l-0.17315-0.0645-0.14304 0.052z"/>
  <path d="m82.579 195.64c1.6562 0.33618 5.8269-0.84451 9.0039-2.0008 3.1845-1.159 7.3552-3.0144 9.0039-4.5626v-1.6136l-0.2108 0.095-0.12046 0.16236c-0.51945 0.69048-3.6437 2.5752-8.6877 4.411-5.0063 1.8222-8.1381 2.2145-8.6802 1.9104l-0.17315-0.0645-0.14303 0.052v1.6136z"/>
 </g>
 <g transform="matrix(1.1075 0 0 1.1075 -11.462 -10.651)">
  <g transform="translate(-4,-18)">
   <path d="m213.51 257.96-33.36-11.58 33.36-11.59 33.35 11.59z" fill="#dddbda"/>
   <path d="m180.15 246.38v3.78l33.36 11.41v-3.61z" fill="#bbb8b4"/>
   <path d="m246.89 246.38v3.78l-33.38 11.41v-3.61z" fill="#908d89"/>
   <path d="m213.24 226.58-25.64-8.91 25.64-8.9 25.64 8.9z" fill="#dddbda"/>
   <path d="m187.6 217.67v28.75l25.64 8.77v-28.61z" fill="#bbb8b4"/>
   <path d="m238.91 217.67v28.75l-25.67 8.77v-28.61z" fill="#908d89"/>
   <path d="m212.96 222.17-13.48-4.68 13.48-4.68 13.47 4.68z" fill="#908d89"/>
   <path d="m215.05 208.44c0.15-0.44 0.57-0.76 1.06-0.77 0.63-0.01 1.14 0.5 1.15 1.12l0.07 7.79c0.01 0.63-0.49 1.14-1.12 1.15s-1.14-0.5-1.15-1.12l-0.07-7.79c-0.01-0.12 0.01-0.25 0.06-0.38z" fill="#bbb8b4"/>
   <path d="m209.14 210.43c0.15-0.44 0.57-0.76 1.06-0.77 0.63-0.01 1.14 0.5 1.15 1.12l0.07 7.79c0.01 0.63-0.49 1.14-1.12 1.15s-1.14-0.5-1.15-1.12l-0.07-7.79c0-0.13 0.02-0.26 0.06-0.38z" fill="#bbb8b4"/>
  </g>
  <g transform="matrix(.36365 0 0 .36365 42.625 57.206)">
   <path d="m472.94 434.43 1.468-4.7299 11.402-4.0599 2.3314 3.257 22.734-8.2745 3.3381 38.155-37.936 13.807z" fill="#fccf84" stroke-width="1.0158"/>
   <rect transform="matrix(.93969 -.34202 -.087156 .99619 0 0)" x="568.96" y="631.43" width="40.37" height="38.301" fill="#e29e3b" stroke-width="1.0336"/>
  </g>
  <g stroke-width=".54873">
   <path d="m190.92 223.12 13.164 4.495-0.0329 2.4902-13.164-4.5005z" fill="#0b7891"/>
   <path d="m187.77 222.54c0.4302 0.16297 0.77425 0.66536 0.76821 1.1241-6e-3 0.45832-0.35941 0.69831-0.78961 0.53625-0.43076-0.16247-0.77427-0.66537-0.76823-1.1236 6e-3 -0.45831 0.35942-0.69886 0.78963-0.53679z" fill="#fff"/>
   <path d="m196.88 226.8-3.6655-1.2463 0.0109-0.72035 3.6655 1.2464z" fill="#70d6e0"/>
   <path d="m187.75 215.39c0.4302 0.16227 0.77427 0.66537 0.76823 1.1241-6e-3 0.45831-0.35943 0.69831-0.79018 0.53604-0.4302-0.16226-0.77425-0.66537-0.76822-1.1236 6e-3 -0.45886 0.35997-0.69866 0.79017-0.53659z" fill="#fff"/>
   <path d="m190.71 215.91 13.164 4.7145-0.0329 2.4902-13.164-4.72z" fill="#0b7891"/>
   <path d="m196.67 219.65-3.6655-1.3012 0.0109-0.72035 3.6655 1.3012z" fill="#70d6e0"/>
   <path d="m191.09 208.4 12.988 4.8481-0.0329 2.5616-12.988-4.8481z" fill="#0b7891"/>
   <path d="m188.3 208.43c0.0884 0.44425-0.1498 0.75761-0.53226 0.70016-0.38192-0.0567-0.76384-0.46349-0.85163-0.90754-0.0884-0.44371 0.1498-0.7576 0.53227-0.70014 0.38191 0.0573 0.76329 0.46327 0.85162 0.90752z" fill="#fff"/>
   <path d="m197.1 212.3-3.6655-1.3616 0.0109-0.72034 3.6655 1.3616z" fill="#70d6e0"/>
  </g>
 </g>
</svg>
