<svg width="29.35mm" height="31.751mm" version="1.1" viewBox="0 0 29.35 31.751" xmlns="http://www.w3.org/2000/svg">
 <g transform="translate(-56.876 -322.66)">
  <flowRoot fill="#000000" font-family="sans-serif" font-size="40px" letter-spacing="0px" word-spacing="0px" style="line-height:1.25" xml:space="preserve"><flowRegion><rect x="-65.714" y="915.38" width="75.687" height="77.143"/></flowRegion><flowPara/></flowRoot>
  <g transform="matrix(1.2 0 0 1.2 150.54 125.01)">
   <ellipse cx="-74.742" cy="168.02" rx="3.3073" ry="3.3073"/>
   <ellipse cx="-68.134" cy="168.02" rx="2.6458" ry="2.6458"/>
   <ellipse cx="-61.526" cy="168.02" rx="1.9844" ry="1.9844"/>
   <ellipse cx="-54.919" cy="168.03" rx="1.3229" ry="1.3229"/>
   <ellipse cx="-74.742" cy="174.63" rx="3.3073" ry="3.3073"/>
   <ellipse cx="-68.134" cy="174.63" rx="2.6458" ry="2.6458"/>
   <ellipse cx="-61.526" cy="174.63" rx="1.9844" ry="1.9844"/>
   <ellipse cx="-54.919" cy="174.65" rx="1.3229" ry="1.3229"/>
   <ellipse cx="-74.738" cy="181.24" rx="3.3073" ry="3.3073"/>
   <ellipse cx="-68.13" cy="181.24" rx="2.6458" ry="2.6458"/>
   <ellipse cx="-61.522" cy="181.24" rx="1.9844" ry="1.9844"/>
   <ellipse cx="-54.915" cy="181.26" rx="1.3229" ry="1.3229"/>
   <ellipse cx="-74.738" cy="187.86" rx="3.3073" ry="3.3073"/>
   <ellipse cx="-68.13" cy="187.86" rx="2.6458" ry="2.6458"/>
   <ellipse cx="-61.522" cy="187.86" rx="1.9844" ry="1.9844"/>
   <ellipse cx="-54.914" cy="187.88" rx="1.3229" ry="1.3229"/>
  </g>
 </g>
</svg>
