<?xml version="1.0" encoding="iso-8859-1"?>
<!-- Generator: Adobe Illustrator 19.0.0, SVG Export Plug-In . SVG Version: 6.00 Build 0)  -->
<svg version="1.1" id="Layer_1" xmlns="http://www.w3.org/2000/svg" xmlns:xlink="http://www.w3.org/1999/xlink" x="0px" y="0px"
	 viewBox="0 0 512 512" style="enable-background:new 0 0 512 512;" xml:space="preserve">
<path style="fill:#FFCB5B;" d="M22.64,104.001h465.359c13.255,0,24,10.745,24,24V449.36c0,12.503-10.136,22.64-22.64,22.64l0,0
	H22.64C10.137,472,0,461.864,0,449.36l0,0V126.641C0,114.137,10.137,104.001,22.64,104.001z"/>
<path style="fill:#FFDB6F;" d="M503.999,140.56L280,266.721c-14.606,8.21-32.435,8.21-47.04,0L8,140.56
	c-4.97-2.869-8.023-8.18-8-13.919l0,0c0-12.503,10.136-22.64,22.64-22.64h466.72c12.503,0,22.64,10.136,22.64,22.64l0,0l0,0
	C512.022,132.38,508.97,137.691,503.999,140.56z"/>
<path style="fill:#F7B84E;" d="M511.999,127.2c-0.173,5.538-3.2,10.592-8,13.36L280,266.721c-14.606,8.21-32.435,8.21-47.04,0
	L8,140.56c-4.8-2.768-7.827-7.822-8-13.36l0,0v0.8v16c-0.011,5.528,2.832,10.67,7.52,13.6l223.039,139.36l0,0
	c15.392,8.787,25.047,25.001,25.44,42.72v51.76c0,26.819-21.741,48.56-48.56,48.56H72.001c-17.674,0-32,14.327-32,32H489.36
	c12.503,0,22.64-10.136,22.64-22.64l0,0V128.001C511.999,128.001,511.999,127.521,511.999,127.2L511.999,127.2z"/>
<g>
	<path style="fill:#FFE278;" d="M211.92,209.04L148.88,174c-7.733-4.276-10.535-14.011-6.259-21.744
		c2.862-5.176,8.346-8.351,14.259-8.256H160c4.418,0,8-3.582,8-8c0-4.418-3.582-8-8-8H64.001c-2.869-0.011-5.525,1.515-6.96,4
		c-2.143,3.864-0.749,8.733,3.114,10.877c0.002,0.001,0.004,0.002,0.006,0.003l144,80c3.543,2.639,8.556,1.905,11.194-1.639
		c2.639-3.543,1.905-8.556-1.639-11.194C213.162,209.636,212.559,209.297,211.92,209.04z"/>
	<path style="fill:#FFE278;" d="M192,128.001h48c4.418,0,8,3.582,8,8l0,0c0,4.418-3.582,8-8,8h-48c-4.418,0-8-3.582-8-8l0,0
		C184,131.583,187.582,128.001,192,128.001z"/>
</g>
<g>
	<path style="fill:#F7B84E;" d="M384,208v-48c0-8.837,7.163-16,16-16c8.837,0,16,7.163,16,16V190l16-8.96V160
		c0-17.674-14.327-32-32-32c-17.673,0-32,14.327-32,32v57.04L384,208z"/>
	<path style="fill:#F7B84E;" d="M456,104.001h-8v68l16-8.96v-51.04C463.999,107.582,460.417,104.001,456,104.001z"/>
</g>
<path style="fill:#F19920;" d="M279.52,266.8c-14.606,8.21-32.435,8.21-47.04,0l-224-125.839c0.827,0.782,1.71,1.504,2.64,2.16
	l219.36,136c15.507,9.629,35.133,9.629,50.639,0l86.88-53.68v12.88c-0.362,24.53,17.429,45.566,41.68,49.28
	c26.279,3.49,50.412-14.984,53.902-41.262c0.279-2.101,0.418-4.219,0.417-6.338v-65.28c-0.011-5.528,2.832-10.67,7.52-13.6
	l29.12-18.08c0.93-0.656,1.812-1.378,2.64-2.16L279.52,266.8z M448,240.001c0.089,17.672-14.167,32.072-31.839,32.16
	c-1.123,0.005-2.244-0.048-3.361-0.16c-16.747-2.126-29.18-16.562-28.8-33.44v-14.16c-0.011-5.528,2.832-10.67,7.52-13.6
	l24.48-15.12v20.32c0,4.418,3.582,8,8,8c4.418,0,8-3.582,8-8v-21.36c-0.011-5.528,2.832-10.67,7.52-13.6l8.48-5.04L448,240.001
	L448,240.001z"/>
<path style="fill:#A35425;" d="M408,40c-26.509,0-48,21.49-48,48v16h16V88.001c0-17.674,14.327-32,32-32s32,14.327,32,32v144
	c0,17.674-14.327,32-32,32s-32-14.327-32-32v-80c0-8.837,7.163-16,16-16s16,7.163,16,16v56c0,4.418,3.582,8,8,8s8-3.582,8-8v-56
	c0-17.674-14.327-32-32-32s-32,14.327-32,32v80c0,26.509,21.49,48,48,48s48-21.49,48-48v-144C456,61.491,434.509,40,408,40z"/>
<g>
</g>
<g>
</g>
<g>
</g>
<g>
</g>
<g>
</g>
<g>
</g>
<g>
</g>
<g>
</g>
<g>
</g>
<g>
</g>
<g>
</g>
<g>
</g>
<g>
</g>
<g>
</g>
<g>
</g>
</svg>
