<?xml version="1.0" encoding="iso-8859-1"?>
<!-- Generator: Adobe Illustrator 19.0.0, SVG Export Plug-In . SVG Version: 6.00 Build 0)  -->
<svg version="1.1" id="Layer_1" xmlns="http://www.w3.org/2000/svg" xmlns:xlink="http://www.w3.org/1999/xlink" x="0px" y="0px"
	 viewBox="0 0 512 512" style="enable-background:new 0 0 512 512;" xml:space="preserve">
<circle style="fill:#3689C9;" cx="408" cy="336.003" r="103.998"/>
<path style="fill:#FFFFFF;" d="M458.24,323.679c-6.789-5.656-16.877-4.739-22.535,2.049c-0.008,0.01-0.017,0.021-0.026,0.031
	l-11.68,14.08V288c0-8.837-7.163-16-16-16s-16,7.163-16,16v51.839l-11.68-14.08c-5.407-6.99-15.455-8.272-22.445-2.866
	c-6.99,5.407-8.272,15.455-2.866,22.445c0.239,0.309,0.489,0.609,0.751,0.9l40,48c5.665,6.782,15.755,7.688,22.537,2.023
	c0.734-0.612,1.411-1.29,2.023-2.023l40-48c5.656-6.789,4.739-16.877-2.049-22.535C458.261,323.696,458.25,323.688,458.24,323.679z"
	/>
<path style="fill:#DDDFE1;" d="M458.24,323.679c-1.12-0.909-2.358-1.662-3.68-2.24c2.524,5.568,1.655,12.088-2.24,16.8l-40,48
	c-5.035,5.937-13.611,7.39-20.32,3.44l3.76,4.56c5.665,6.782,15.755,7.688,22.537,2.023c0.734-0.612,1.411-1.29,2.023-2.023l40-48
	c5.656-6.789,4.739-16.877-2.049-22.535C458.26,323.696,458.25,323.688,458.24,323.679z"/>
<path style="fill:#1B6FAB;" d="M495.999,319.999c-8.837,0-16,7.163-16,16c0,39.765-32.236,71.999-71.999,71.999
	c-8.837,0-16,7.163-16,16c0,8.837,7.163,16,16,16c57.437,0,104-46.563,104-104C511.999,327.163,504.836,319.999,495.999,319.999z"/>
<path style="fill:#4C9FD7;" d="M320,351.999c8.837,0,16-7.163,16-16c0-39.765,32.236-71.999,71.999-71.999c8.837,0,16-7.163,16-16
	s-7.163-16-16-16c-57.437,0-104,46.563-104,104C304,344.836,311.163,351.999,320,351.999z"/>
<g>
	<path style="fill:#1B6FAB;" d="M424,287.999v51.839l8-9.6v-34.24c-0.014-6.287-3.706-11.983-9.44-14.56
		C423.498,283.499,423.989,285.735,424,287.999z"/>
	<path style="fill:#1B6FAB;" d="M466.24,331.679c-1.12-0.909-2.358-1.662-3.68-2.24c2.524,5.568,1.655,12.088-2.24,16.8l-40,48
		c-5.035,5.937-13.611,7.39-20.32,3.44l3.76,4.56c5.665,6.782,15.755,7.688,22.537,2.023c0.734-0.613,1.411-1.29,2.023-2.023l40-48
		c5.656-6.789,4.739-16.877-2.049-22.535C466.261,331.696,466.25,331.688,466.24,331.679z"/>
</g>
<path style="fill:#DDDFE1;" d="M424,339.839c-4.418,0-8-3.582-8-8v-51.839c-0.01-2.264-0.501-4.5-1.44-6.56
	c5.734,2.577,9.427,8.273,9.44,14.56V339.839L424,339.839z"/>
<path style="fill:#FFCB5B;" d="M273.04,319.199c9.302-74.533,77.263-127.413,151.795-118.11
	c27.515,3.434,53.322,15.196,73.964,33.71c3.358,2.873,8.408,2.479,11.279-0.879c1.222-1.428,1.902-3.242,1.921-5.121V96
	c0-13.255-10.745-24-24-24H22.64C10.137,72,0,82.136,0,94.639v322.72c0,12.503,10.136,22.64,22.64,22.64l0,0H300.8
	c4.418-0.044,7.964-3.66,7.921-8.079c-0.019-1.879-0.698-3.693-1.921-5.121C280.506,397.508,268.191,358.261,273.04,319.199z"/>
<path style="fill:#FFDB6F;" d="M503.999,108.56L280,234.719c-14.606,8.21-32.435,8.21-47.04,0L8,108.56
	c-4.97-2.869-8.023-8.181-8-13.92l0,0c0-12.503,10.136-22.64,22.64-22.64h466.72c12.503,0,22.64,10.136,22.64,22.64l0,0l0,0
	C512.022,100.378,508.97,105.69,503.999,108.56z"/>
<path style="fill:#F7B84E;" d="M511.999,95.2c-0.173,5.538-3.2,10.592-8,13.36L280,234.719c-14.606,8.21-32.435,8.21-47.04,0
	L8,108.56c-1.196-0.682-2.298-1.516-3.279-2.48c-0.817-0.825-1.541-1.737-2.16-2.72v-0.4c-1.466-2.416-2.266-5.175-2.32-8H0V96v16
	c-0.011,5.528,2.832,10.67,7.52,13.6l223.039,139.36l2.56,1.6c14.283,8.772,22.956,24.359,22.88,41.12v51.76
	c0,26.819-21.741,48.56-48.56,48.56H72.001c-17.674,0-32,14.327-32,32h260.8c4.418-0.044,7.964-3.66,7.921-8.079
	c-0.019-1.879-0.698-3.693-1.921-5.121c-49.896-56.144-44.83-142.105,11.314-191.999c51.525-45.791,129.161-45.791,180.686,0
	c3.358,2.873,8.408,2.479,11.279-0.879c1.222-1.428,1.902-3.242,1.921-5.121V96C511.999,96,511.999,95.52,511.999,95.2L511.999,95.2
	z"/>
<g>
	<path style="fill:#FFE278;" d="M211.92,177.039l-63.04-35.04c-7.733-4.276-10.535-14.011-6.259-21.744
		c2.862-5.176,8.346-8.351,14.259-8.256H160c4.418,0,8-3.582,8-8c0-4.418-3.582-8-8-8H64.001c-2.869-0.011-5.525,1.515-6.96,4
		c-2.143,3.864-0.749,8.733,3.114,10.877c0.002,0.001,0.004,0.002,0.006,0.003l144,80c3.543,2.639,8.556,1.905,11.194-1.639
		c2.639-3.543,1.905-8.556-1.639-11.194C213.162,177.634,212.559,177.296,211.92,177.039z"/>
	<path style="fill:#FFE278;" d="M192,96h48c4.418,0,8,3.582,8,8l0,0c0,4.418-3.582,8-8,8h-48c-4.418,0-8-3.582-8-8l0,0
		C184,99.581,187.582,96,192,96z"/>
</g>
<path style="fill:#F19920;" d="M279.52,234.799c-14.606,8.21-32.435,8.21-47.04,0l-224-125.84c0.827,0.782,1.71,1.504,2.64,2.16
	l219.36,136c15.507,9.629,35.133,9.629,50.639,0l219.36-136c0.93-0.656,1.812-1.378,2.64-2.16L279.52,234.799z"/>
<g>
</g>
<g>
</g>
<g>
</g>
<g>
</g>
<g>
</g>
<g>
</g>
<g>
</g>
<g>
</g>
<g>
</g>
<g>
</g>
<g>
</g>
<g>
</g>
<g>
</g>
<g>
</g>
<g>
</g>
</svg>
