<svg width="636" height="300" viewBox="0 0 636 300" fill="none" xmlns="http://www.w3.org/2000/svg">
<path d="M185.35 257.32C185.36 259.78 183.56 261.77 181.34 261.77C179.12 261.77 177.31 259.79 177.3 257.34C177.29 254.89 179.08 252.9 181.3 252.89C183.53 252.88 185.34 254.86 185.35 257.32Z" fill="#6D6A66"/>
<path d="M266.78 261.62C266.77 264.17 264.82 266.24 262.43 266.24C260.04 266.24 258.11 264.18 258.11 261.64C258.11 259.1 260.05 257.03 262.44 257.02C264.85 257 266.79 259.06 266.78 261.62Z" fill="#6D6A66"/>
<path d="M313.99 257.22C313.97 259.84 311.91 261.96 309.39 261.96C306.88 261.96 304.85 259.85 304.87 257.25C304.89 254.64 306.93 252.52 309.45 252.51C311.97 252.49 314.01 254.6 313.99 257.22Z" fill="#6D6A66"/>
<path d="M492.71 173.71L301.77 177.2L302.24 57.79L495.45 39.78L492.71 173.71Z" fill="#DDDBDA"/>
<path d="M317.95 255.34L267.11 260.36L267.46 140.19L318.87 136.9L317.95 255.34Z" fill="#CC5444"/>
<path d="M172.72 256.17L268.18 260.36L268.55 140.12L172.09 144.82L172.72 256.17Z" fill="#E86E58"/>
<path d="M268.63 140.09L168.04 144.82L167.99 135.32L268.41 130.11L268.63 140.09Z" fill="#FCCF84"/>
<path d="M324.23 140.38L268.62 140.17L268.41 130.11L324.32 130.07L324.23 140.38Z" fill="#EBA841"/>
<path d="M260.76 169.87L178.28 171.48L178.22 159.23L260.79 156.85L260.76 169.87Z" fill="#ED9583"/>
<path d="M260.72 188.38L178.37 189.06L178.31 177L260.75 175.4L260.72 188.38Z" fill="#ED9583"/>
<path d="M260.26 217.64L178.16 216.54L178.04 194.08L260.32 193.77L260.26 217.64Z" fill="#ED9583"/>
<path d="M260.2 246.1L178.3 243.34L178.18 221.01L260.25 222.35L260.2 246.1Z" fill="#ED9583"/>
<path d="M217.02 108.82C217.02 108.18 216.55 107.7 215.97 107.75L197.05 106.38L155.92 109.89C155.31 109.94 154.82 110.55 154.82 111.24L154.88 120.09L156.08 120L156.31 153.22L216.02 151.41L215.94 117.65L217.17 117.64L217.02 108.82Z" fill="#84817D"/>
<path d="M197.1 150.74L146.6 153.81L146.3 115.94L196.97 111.82L197.1 150.74Z" fill="#DDDBDA"/>
<path d="M197.1 150.74L146.6 153.81L146.56 148.59L197.08 146.19L197.1 150.74Z" fill="#6D6A66"/>
<path d="M198.07 116.7L145.16 120.87L145.09 112.25C145.08 111.45 145.64 110.76 146.34 110.7L196.85 106.45C197.51 106.39 198.04 106.94 198.05 107.67L198.07 116.7Z" fill="#9C9894"/>
<path d="M156.32 111.18L151.41 111.59L151.44 116.49L156.35 116.09L156.32 111.18Z" fill="white"/>
<path d="M191.32 108.26L186.23 108.68L186.25 113.68L191.34 113.27L191.32 108.26Z" fill="white"/>
<path d="M152.96 127.75L150.42 127.94L150.41 126.31L152.95 126.12L152.93 123.21L154.37 123.1L154.39 126.01L156.94 125.82L156.95 127.46L154.4 127.65L154.42 130.52L152.98 130.63L152.96 127.75Z" fill="#A7A4A0"/>
<path d="M185.63 125.52L185.62 123.63L192.73 123.09L192.74 124.99L185.63 125.52Z" fill="#A7A4A0"/>
<path d="M448.63 124.42L444.4 124.59C443.9 124.61 443.51 124.11 443.52 123.48L444.52 60.8401C444.53 60.2001 444.94 59.6501 445.45 59.6101L449.7 59.2801C450.2 59.2401 450.6 59.7301 450.59 60.3701L449.55 123.24C449.55 123.87 449.13 124.4 448.63 124.42Z" fill="#A3C9F6"/>
<path d="M444.03 92.0101L443.53 123.47C443.52 124.1 443.92 124.6 444.41 124.58L448.64 124.41C449.14 124.39 449.56 123.86 449.57 123.23L450.09 91.6501L444.03 92.0101Z" fill="#E86E58"/>
<path d="M462.71 61.7201L435.91 63.7601L436.01 57.4101L451.16 56.1901L462.74 60.1401L462.71 61.7201Z" fill="white"/>
<path d="M481.63 57.75L476.69 55.26L472.61 55.58L472 88.85L476.06 88.61L476.59 60.5L481.58 60.12L481.63 57.75Z" fill="#9C9894"/>
<path d="M477.37 124.46C478.63 124.41 479.67 123.1 479.7 121.54L480.19 95.79C480.22 94.22 479.22 93 477.96 93.07C476.7 93.14 475.66 94.47 475.63 96.04L475.15 121.72C475.12 123.28 476.11 124.51 477.37 124.46Z" fill="#E86E58"/>
<path d="M478.63 85.86L470.66 86.35L470.78 79.88L478.75 79.36L478.63 85.86Z" fill="#6D6A66"/>
<path d="M468.4 72.75L468.31 77.73C468.3 78.23 468.61 78.61 469.01 78.58L476.41 78.09C476.81 78.06 477.13 78.45 477.12 78.95L476.97 86.64C476.96 87.14 476.63 87.56 476.23 87.59L468.84 88.04C468.44 88.06 468.12 88.49 468.11 88.98L468.06 91.5C468.05 91.82 468.18 92.1 468.4 92.25L478.71 99.32C478.82 99.4 478.95 99.43 479.07 99.42L480.56 99.34C480.96 99.32 481.29 98.9 481.3 98.4L481.81 71.82C481.82 71.32 481.5 70.94 481.1 70.96L469.12 71.8C468.73 71.83 468.41 72.25 468.4 72.75Z" fill="white"/>
<path d="M393.93 74.1201L387.96 79.1701C387.96 79.1701 391.26 82.5501 395.6 78.7601C399.97 74.9301 393.93 74.1201 393.93 74.1201Z" fill="white"/>
<path d="M392.24 64.1201C388.86 64.3801 386.08 67.9501 385.64 72.2701L391.49 71.8401L394.83 80.5001C397.49 79.4801 399.73 75.7001 405.05 75.5901L429.38 73.8701C430.7 73.7801 431.8 72.3201 431.82 70.6201L431.83 69.7101C431.86 68.0101 430.8 66.7101 429.48 66.8101L405.05 68.6401C401.4 68.9101 398.6 67.7101 395.93 65.3301C395.92 65.3201 395.92 65.3201 395.91 65.3101C394.45 64.2301 393.17 64.0501 392.24 64.1201Z" fill="white"/>
<path d="M396.15 70.3701L397.81 74.6101C397.94 74.9501 397.83 75.3901 397.56 75.5901L395.75 76.9301C395.48 77.1301 395.16 77.0101 395.02 76.6701L393.37 72.4401C393.24 72.1001 393.35 71.6601 393.62 71.4601L395.43 70.1201C395.69 69.9101 396.02 70.0301 396.15 70.3701Z" fill="#CCCAC7"/>
<path d="M424.78 90.04L430.14 93.85C430.14 93.85 427.03 97.25 423.16 94.36C419.3 91.48 424.78 90.04 424.78 90.04Z" fill="white"/>
<path d="M426.55 80.91C429.65 80.7 432.14 83.54 432.44 87.38L427.05 87.72L423.81 95.84C421.42 95.23 419.5 92.14 414.75 92.65L393.8 93.9C392.69 93.97 391.81 92.85 391.83 91.4L391.84 90.63C391.86 89.18 392.77 87.95 393.87 87.88L414.9 86.55C418.15 86.34 420.69 84.93 423.16 82.48C423.17 82.47 423.17 82.47 423.18 82.46C424.54 81.29 425.7 80.96 426.55 80.91Z" fill="white"/>
<path d="M422.82 87.05L421.29 90.85C421.14 91.21 421.25 91.64 421.52 91.81L423.01 92.71C423.28 92.88 423.62 92.72 423.77 92.35L425.3 88.55C425.45 88.19 425.34 87.76 425.07 87.59L423.58 86.69C423.3 86.52 422.96 86.69 422.82 87.05Z" fill="#CCCAC7"/>
<path d="M392.14 107.04L387.4 110.94C387.4 110.94 390.02 113.67 393.47 110.73C396.92 107.78 392.14 107.04 392.14 107.04Z" fill="white"/>
<path d="M390.79 99.0901C388.11 99.2401 385.89 102.02 385.55 105.44L390.2 105.19L392.85 112.1C394.96 111.33 396.73 108.38 400.95 108.37L420.14 107.4C421.18 107.35 422.04 106.22 422.06 104.88L422.07 104.17C422.09 102.83 421.26 101.79 420.22 101.84L400.95 102.88C398.06 103.04 395.84 102.04 393.72 100.11C393.71 100.11 393.71 100.1 393.7 100.1C392.54 99.2201 391.53 99.0501 390.79 99.0901Z" fill="white"/>
<path d="M393.94 104.23L395.16 107.36C395.29 107.7 395.18 108.13 394.91 108.33L393.67 109.22C393.4 109.41 393.08 109.29 392.95 108.95L391.74 105.82C391.61 105.48 391.72 105.05 391.98 104.86L393.22 103.97C393.49 103.77 393.81 103.89 393.94 104.23Z" fill="#CCCAC7"/>
<path d="M428.35 118.64L432.15 121.4C432.15 121.4 429.94 123.77 427.2 121.68C424.46 119.59 428.35 118.64 428.35 118.64Z" fill="white"/>
<path d="M429.62 112.21C431.81 112.11 433.58 114.14 433.79 116.85L429.98 117.02L427.68 122.72C425.98 122.26 424.62 120.05 421.24 120.36L406.25 121C405.46 121.03 404.82 120.23 404.84 119.2L404.85 118.65C404.86 117.62 405.52 116.76 406.31 116.72L421.34 116.04C423.65 115.94 425.46 114.97 427.21 113.27L427.22 113.26C428.19 112.46 429.01 112.24 429.62 112.21Z" fill="white"/>
<path d="M426.89 116.69L425.96 118.98C425.81 119.34 425.92 119.77 426.19 119.94L426.96 120.42C427.23 120.59 427.58 120.44 427.72 120.08L428.65 117.79C428.8 117.43 428.69 117 428.42 116.83L427.65 116.35C427.37 116.18 427.03 116.33 426.89 116.69Z" fill="#CCCAC7"/>
<path d="M372.89 68.24C373.83 68.18 374.59 69.01 374.57 70.1C374.56 71.19 373.78 72.12 372.84 72.18C371.9 72.24 371.15 71.41 371.16 70.32C371.18 69.23 371.95 68.3 372.89 68.24ZM374.26 115.49L374.72 74.88C374.73 74.18 375.01 73.52 375.44 72.99C376.31 71.94 376.75 70.44 376.42 68.87C376.12 67.46 375.13 66.36 373.9 66.07C371.47 65.5 369.27 67.75 369.24 70.45C369.23 71.62 369.63 72.64 370.3 73.36C370.74 73.84 371.04 74.47 371.03 75.2L370.59 115.74C370.58 116.44 370.27 117.1 369.77 117.52C368.56 118.55 367.76 120.19 367.74 122.01C367.71 124.55 369.21 126.6 371.25 127.12L371.71 126.87L370.4 123.34L372.01 120.68L374.72 121.03L376.04 124.57L376.54 124.31C376.93 123.51 377.17 122.62 377.19 121.66C377.21 119.77 376.39 118.13 375.12 117.21C374.57 116.83 374.25 116.21 374.26 115.49Z" fill="white"/>
<path d="M362.56 68.76C363.42 68.7 364.11 69.47 364.1 70.47C364.09 71.47 363.38 72.32 362.52 72.38C361.66 72.44 360.97 71.67 360.98 70.67C361 69.67 361.7 68.81 362.56 68.76ZM363.84 112.16L364.23 74.86C364.24 74.22 364.49 73.61 364.89 73.13C365.68 72.17 366.09 70.79 365.78 69.35C365.51 68.06 364.6 67.04 363.47 66.78C361.25 66.26 359.24 68.33 359.22 70.8C359.21 71.88 359.58 72.82 360.19 73.47C360.59 73.91 360.86 74.49 360.86 75.16L360.49 112.41C360.48 113.05 360.2 113.66 359.74 114.05C358.63 115 357.9 116.51 357.89 118.18C357.87 120.51 359.24 122.4 361.1 122.87L361.52 122.64L360.32 119.4L361.79 116.95L364.27 117.27L365.48 120.52L365.93 120.28C366.28 119.55 366.51 118.72 366.52 117.84C366.54 116.1 365.78 114.6 364.63 113.76C364.13 113.39 363.84 112.81 363.84 112.16Z" fill="white"/>
<path d="M352.34 69.2701C353.12 69.2201 353.75 69.9101 353.74 70.8301C353.73 71.7401 353.09 72.5201 352.31 72.5701C351.53 72.6201 350.91 71.9201 350.92 71.0101C350.92 70.1001 351.56 69.3201 352.34 69.2701ZM353.53 108.86L353.85 74.8301C353.86 74.2401 354.09 73.6901 354.44 73.2501C355.16 72.3701 355.52 71.1101 355.25 69.8001C355 68.6201 354.18 67.6901 353.16 67.4501C351.15 66.9801 349.32 68.8601 349.3 71.1101C349.29 72.0901 349.63 72.9501 350.18 73.5501C350.55 73.9501 350.79 74.4801 350.79 75.0901L350.48 109.07C350.47 109.66 350.22 110.21 349.8 110.57C348.8 111.44 348.13 112.81 348.12 114.34C348.1 116.47 349.34 118.19 351.04 118.62L351.42 118.41L350.33 115.45L351.66 113.21L353.91 113.49L355.01 116.45L355.42 116.23C355.74 115.56 355.94 114.81 355.95 114C355.97 112.41 355.28 111.05 354.23 110.28C353.8 109.98 353.53 109.46 353.53 108.86Z" fill="white"/>
<path d="M342.54 69.75C343.24 69.7 343.81 70.33 343.8 71.16C343.79 71.98 343.22 72.69 342.52 72.74C341.82 72.79 341.26 72.16 341.26 71.33C341.26 70.5 341.84 69.8 342.54 69.75ZM343.64 105.58L343.9 74.78C343.9 74.25 344.11 73.75 344.43 73.35C345.07 72.56 345.4 71.42 345.15 70.23C344.92 69.16 344.18 68.32 343.26 68.11C341.45 67.68 339.81 69.38 339.79 71.42C339.78 72.31 340.09 73.08 340.58 73.63C340.91 73.99 341.13 74.48 341.13 75.02L340.88 105.78C340.88 106.31 340.64 106.81 340.27 107.13C339.37 107.92 338.77 109.16 338.76 110.55C338.74 112.48 339.87 114.03 341.39 114.42L341.74 114.23L340.75 111.56L341.95 109.53L343.97 109.78L344.96 112.46L345.33 112.26C345.62 111.65 345.8 110.97 345.81 110.24C345.82 108.8 345.2 107.57 344.26 106.87C343.88 106.6 343.64 106.12 343.64 105.58Z" fill="white"/>
<path d="M332.78 70.23C333.41 70.19 333.91 70.75 333.9 71.49C333.89 72.23 333.38 72.86 332.76 72.9C332.14 72.94 331.63 72.38 331.64 71.64C331.65 70.91 332.16 70.28 332.78 70.23ZM333.8 102.34L334.01 74.75C334.01 74.27 334.2 73.82 334.48 73.47C335.05 72.76 335.35 71.74 335.12 70.68C334.92 69.72 334.26 68.97 333.44 68.78C331.83 68.39 330.37 69.92 330.35 71.75C330.34 72.55 330.62 73.24 331.06 73.73C331.36 74.05 331.55 74.49 331.55 74.98L331.35 102.55C331.35 103.03 331.14 103.47 330.81 103.77C330.01 104.48 329.47 105.6 329.47 106.84C329.46 108.57 330.46 109.96 331.82 110.3L332.13 110.13L331.25 107.73L332.32 105.91L334.12 106.13L335 108.53L335.33 108.35C335.59 107.81 335.75 107.19 335.75 106.54C335.76 105.25 335.21 104.15 334.36 103.53C334.01 103.25 333.79 102.82 333.8 102.34Z" fill="white"/>
<path d="M323.87 70.66C324.42 70.62 324.86 71.12 324.86 71.78C324.86 72.43 324.41 72.99 323.85 73.03C323.3 73.07 322.86 72.57 322.86 71.91C322.87 71.26 323.32 70.7 323.87 70.66ZM324.78 99.09L324.95 74.65C324.95 74.23 325.11 73.83 325.37 73.52C325.87 72.89 326.13 71.99 325.93 71.05C325.75 70.2 325.17 69.54 324.45 69.37C323.03 69.03 321.74 70.38 321.73 72C321.73 72.7 321.97 73.32 322.36 73.75C322.62 74.04 322.79 74.42 322.79 74.86L322.63 99.27C322.63 99.69 322.45 100.09 322.15 100.35C321.44 100.98 320.97 101.97 320.97 103.07C320.96 104.6 321.84 105.83 323.04 106.13L323.31 105.98L322.53 103.86L323.47 102.25L325.06 102.44L325.84 104.56L326.13 104.4C326.36 103.92 326.5 103.38 326.5 102.8C326.51 101.66 326.02 100.68 325.28 100.13C324.97 99.9 324.78 99.52 324.78 99.09Z" fill="white"/>
<path d="M316.19 71.01C316.67 70.98 317.05 71.41 317.05 71.98C317.05 72.55 316.66 73.04 316.18 73.07C315.7 73.1 315.32 72.67 315.32 72.1C315.32 71.53 315.71 71.04 316.19 71.01ZM317 95.81L317.13 74.49C317.13 74.12 317.27 73.78 317.49 73.5C317.93 72.95 318.15 72.16 317.98 71.34C317.82 70.6 317.32 70.02 316.69 69.87C315.45 69.57 314.34 70.75 314.33 72.16C314.33 72.77 314.54 73.31 314.87 73.69C315.1 73.94 315.25 74.27 315.24 74.66L315.11 95.96C315.11 96.33 314.95 96.68 314.7 96.9C314.08 97.45 313.68 98.32 313.67 99.28C313.66 100.62 314.43 101.69 315.47 101.95L315.71 101.82L315.03 99.97L315.84 98.56L317.22 98.73L317.9 100.58L318.15 100.44C318.35 100.02 318.47 99.54 318.47 99.04C318.48 98.04 318.05 97.19 317.41 96.71C317.16 96.52 316.99 96.19 317 95.81Z" fill="white"/>
<path d="M336.62 155.09L447.16 152.81L447.38 139.43L336.71 142.6L336.62 155.09Z" fill="#6D6A66"/>
<path d="M336.62 155.09L447.16 152.81L447.34 142.03L336.69 145.02L336.62 155.09Z" fill="#F7B548"/>
<path d="M437.73 147.16C437.7 148.97 436.53 150.46 435.11 150.49C433.69 150.52 432.57 149.09 432.59 147.29C432.62 145.49 433.79 144 435.21 143.96C436.63 143.91 437.76 145.35 437.73 147.16Z" fill="white"/>
<path d="M417.08 147.65C417.1 145.86 418.25 144.39 419.64 144.35C421.03 144.31 422.15 145.74 422.12 147.53C422.09 149.32 420.94 150.8 419.55 150.83C418.16 150.86 417.06 149.44 417.08 147.65Z" fill="white"/>
<path d="M401.86 148.02C401.88 146.25 403.01 144.79 404.37 144.75C405.74 144.71 406.83 146.12 406.81 147.9C406.79 149.67 405.66 151.14 404.29 151.17C402.92 151.2 401.84 149.79 401.86 148.02Z" fill="white"/>
<path d="M386.91 148.38C386.93 146.63 388.03 145.18 389.37 145.14C390.71 145.1 391.79 146.5 391.77 148.26C391.75 150.02 390.64 151.47 389.3 151.49C387.96 151.53 386.89 150.13 386.91 148.38Z" fill="white"/>
<path d="M372.24 148.73C372.26 146.99 373.34 145.56 374.65 145.52C375.97 145.49 377.03 146.87 377.01 148.61C376.99 150.35 375.91 151.79 374.59 151.81C373.28 151.85 372.22 150.47 372.24 148.73Z" fill="white"/>
<path d="M357.83 149.08C357.84 147.36 358.9 145.94 360.2 145.9C361.5 145.87 362.53 147.24 362.52 148.96C362.5 150.69 361.44 152.11 360.15 152.14C358.85 152.17 357.82 150.8 357.83 149.08Z" fill="white"/>
<path d="M348.29 149.31C348.28 151.02 347.23 152.43 345.96 152.46C344.69 152.49 343.67 151.13 343.68 149.42C343.69 147.71 344.73 146.31 346 146.27C347.28 146.24 348.3 147.6 348.29 149.31Z" fill="white"/>
<path d="M484.53 147.3L455.72 148.26L455.85 139.47L484.69 138.35L484.53 147.3Z" fill="#F7B548"/>
<path d="M484.53 147.3L464.94 147.95L465.08 139.11L484.69 138.35L484.53 147.3Z" fill="#6D6A66"/>
<path d="M197.1 116.63V151.96L216.03 151.41L215.94 117.97L215.97 117.65L197.1 116.63Z" fill="#9C9894"/>
<path d="M198.05 112.69L183.63 113.85L183.6 107.56L180.94 107.79L180.93 105.13L162.07 106.75L162.09 109.37L158.68 109.66L158.72 115.87L145.12 116.97L145.15 120.86L198.07 116.7L198.05 112.69Z" fill="#6D6A66"/>
<path d="M202.42 149.4V154.25L245.43 153.57V148.61L202.42 149.4Z" fill="#EBA841"/>
<path d="M202.24 149.41L118.67 153.21L118.71 157.85L202.24 154.26V149.41Z" fill="#FCCF84"/>
<path d="M363.87 265.12L364.72 192.49C364.81 184.86 358.8 178.93 351.34 179.25C343.94 179.57 337.92 185.94 337.85 193.47L337.18 265.05C337.16 266.75 338.5 268.12 340.16 268.12H360.86C362.5 268.11 363.85 266.77 363.87 265.12Z" fill="#E86E58"/>
<path d="M355.7 243.15L338.01 243.37L338.26 217.83L355.99 217.4L355.7 243.15Z" fill="white"/>
<path d="M333.23 213.36L330.87 213.42L330.94 205.13C330.96 203.15 330.8 197.95 328.98 192.56C326.41 184.96 327.74 180.58 329.32 178.24C331.12 175.57 334.13 174.06 338.03 173.88L348.31 173.41L348.28 175.87L338 176.33C335.84 176.43 332.92 177.07 331.23 179.57C329.44 182.23 329.43 186.41 331.21 191.67C333.15 197.42 333.32 202.95 333.3 205.06L333.23 213.36Z" fill="#56534F"/>
<path d="M337.33 248.61L337.62 217.94C337.65 214.73 335.14 212.2 332.02 212.28C328.91 212.36 326.38 215.02 326.35 218.21L326.1 248.66C326.09 249.38 326.66 249.97 327.37 249.96L336.08 249.88C336.77 249.89 337.33 249.32 337.33 248.61Z" fill="#56534F"/>
<path d="M348.9 176.84L343.1 177.1L343.14 172.76L348.95 172.49L348.9 176.84Z" fill="#9C9894"/>
<path d="M351.34 179.25C350.69 179.28 350.06 179.37 349.43 179.49C354.78 181.39 358.55 186.55 358.48 192.79L357.6 268.12H360.86C362.5 268.12 363.85 266.78 363.86 265.12L364.71 192.49C364.81 184.86 358.8 178.93 351.34 179.25Z" fill="#CC5444"/>
<path d="M364.51 210.63L327.59 211.65L327.62 207.37L364.56 206.27L364.51 210.63Z" fill="#F7B548"/>
<path d="M367.17 172.31L355 172.87L355.05 168L366.61 162.28L366.12 160.74L347.81 167.32L347.68 179.84L354.93 179.53L354.97 175.45L366.12 174.95L368.67 175.36L370.06 174.26L367.17 172.31Z" fill="#56534F"/>
<path d="M351.36 177.69C348.97 177.79 347.06 175.9 347.08 173.46C347.1 171.02 349.06 168.95 351.45 168.83C353.84 168.71 355.77 170.61 355.74 173.06C355.72 175.51 353.75 177.59 351.36 177.69Z" fill="#A3C9F6"/>
<path d="M351.44 169.45C353.5 169.35 355.16 170.98 355.14 173.09C355.12 175.2 353.42 176.98 351.36 177.07C349.3 177.16 347.66 175.53 347.68 173.43C347.7 171.33 349.38 169.55 351.44 169.45ZM351.46 168.22C348.74 168.35 346.51 170.72 346.48 173.49C346.45 176.26 348.63 178.42 351.35 178.31C354.07 178.19 356.32 175.83 356.35 173.04C356.38 170.25 354.18 168.08 351.46 168.22Z" fill="#56534F"/>
</svg>
