<svg width="636" height="300" viewBox="0 0 636 300" fill="none" xmlns="http://www.w3.org/2000/svg">
<path d="M130.38 222.78V65.49C130.38 61.86 133.24 58.86 136.75 58.79L368.92 46.15C372.83 46.07 376.02 49.12 376.02 52.95V233.2C376.02 237.03 372.83 240.08 368.92 240L136.75 229.49C133.23 229.41 130.38 226.41 130.38 222.78Z" fill="#B2D5F8"/>
<path d="M249.52 142.86L341.67 142.51C345.16 142.51 347.99 145.3 347.99 148.73L348 172.59C348 176.03 345.17 178.79 341.68 178.77L249.52 178.05C246.18 178.02 243.47 175.28 243.47 171.92V148.95C243.47 145.58 246.18 142.86 249.52 142.86Z" fill="white"/>
<path d="M270.94 178.21L238.37 177.95C236.08 177.93 234.23 176.05 234.23 173.75V147.03C234.23 144.73 236.08 142.86 238.37 142.86L270.94 142.79V178.21Z" fill="#F7B548"/>
<path d="M249.52 185.39L341.68 186.27C345.17 186.3 348 189.12 348 192.55L348.41 217.19C348.41 220.63 345.58 223.37 342.09 223.3L249.52 220.57C246.18 220.51 243.47 217.74 243.47 214.38V191.41C243.47 188.05 246.18 185.35 249.52 185.39Z" fill="white"/>
<path d="M271.08 221.22L238.37 220.37C236.08 220.33 234.23 218.43 234.23 216.13V189.41C234.23 187.11 236.08 185.26 238.37 185.28L270.94 185.59L271.08 221.22Z" fill="#F7B548"/>
<path d="M410.15 63.07L410.29 41.69C410.29 37.83 407.06 34.76 403.09 34.86L167.39 50.14C163.82 50.22 160.93 53.25 160.93 56.9V75.04L410.15 63.07Z" fill="#84817D"/>
<path d="M320.75 202.36L282.97 201.71L282.98 199.43L320.76 200.06L320.75 202.36Z" fill="#B2B2B2"/>
<path d="M329.52 210.35L282.82 209.5V207.22L329.53 208.05L329.52 210.35Z" fill="#B2B2B2"/>
<path d="M327.25 159.23L284.26 159.07V156.79L327.25 156.92V159.23Z" fill="#B2B2B2"/>
<path d="M284.59 167.51L284.56 165.23L316.05 165.06L316.07 167.36L284.59 167.51Z" fill="#B2B2B2"/>
<path d="M262.51 160.53C261.49 155.79 259.97 153.84 258.3 153.84C257.28 153.84 256.3 154.45 255.3 154.85C254.31 155.24 250.65 155.26 249.72 154.84C248.74 154.39 247.74 153.82 246.73 153.82C245.08 153.82 243.56 155.75 242.55 160.46C241.54 165.17 242.17 168.27 244.2 168.28C245.72 168.29 247.39 165.51 249.1 164.83C250.21 164.38 252.39 164.49 252.39 164.49C252.39 164.49 254.81 164.41 255.92 164.87C257.63 165.57 259.32 168.38 260.84 168.38C262.89 168.37 263.53 165.27 262.51 160.53Z" fill="white"/>
<path d="M250.42 158.82C250.42 160 249.47 160.95 248.3 160.94C247.13 160.94 246.18 159.98 246.18 158.8C246.18 157.62 247.13 156.67 248.3 156.68C249.47 156.69 250.42 157.65 250.42 158.82Z" fill="#F7B548"/>
<path d="M259.04 158.85C259.04 160.03 258.09 160.98 256.91 160.98C255.74 160.98 254.78 160.02 254.78 158.84C254.78 157.66 255.73 156.71 256.91 156.71C258.08 156.71 259.04 157.67 259.04 158.85Z" fill="#F7B548"/>
<path d="M256.84 192.44L247.67 192.34C244.06 192.3 241.13 195.21 241.13 198.85V203.9C241.13 207.53 244.05 210.52 247.67 210.58L251.8 210.64L254.41 210.68L257.57 213.84C257.83 214.1 258.28 213.89 258.22 213.52L257.82 210.66C260.98 210.23 263.41 207.52 263.41 204.21V199.14C263.43 195.48 260.47 192.48 256.84 192.44Z" fill="white"/>
<path d="M249.39 204.87C249.39 205.74 248.69 206.44 247.82 206.43C246.95 206.42 246.25 205.7 246.25 204.83C246.25 203.96 246.95 203.26 247.82 203.27C248.69 203.28 249.39 204 249.39 204.87Z" fill="#F7B548"/>
<path d="M253.89 204.93C253.89 205.8 253.19 206.5 252.32 206.49C251.45 206.48 250.75 205.76 250.75 204.89C250.75 204.02 251.45 203.32 252.32 203.33C253.19 203.34 253.89 204.06 253.89 204.93Z" fill="#F7B548"/>
<path d="M258.41 205C258.41 205.87 257.7 206.57 256.83 206.56C255.96 206.55 255.26 205.83 255.26 204.96C255.26 204.09 255.96 203.39 256.83 203.4C257.7 203.41 258.41 204.12 258.41 205Z" fill="#F7B548"/>
<path d="M430.3 271.78C469.827 271.78 501.87 269.228 501.87 266.08C501.87 262.932 469.827 260.38 430.3 260.38C390.773 260.38 358.73 262.932 358.73 266.08C358.73 269.228 390.773 271.78 430.3 271.78Z" fill="#D1C5F4"/>
<path d="M424.46 227.73C422.41 219.43 419.63 202.58 424.87 188.43L434.44 193.48C429.69 206.31 432.62 221.25 434.33 227.76C434.47 228.29 429.56 228.81 424.46 227.73Z" fill="url(#paint0_linear)"/>
<path d="M424.46 227.73C422.41 219.43 419.63 202.58 424.87 188.43L434.44 193.48C429.69 206.31 432.62 221.25 434.33 227.76C434.47 228.29 429.56 228.81 424.46 227.73Z" fill="url(#paint1_linear)"/>
<path d="M434.3 227.66H426.54C426.26 230.16 428.88 243.34 408.64 260L410.8 269.16L444.63 269.14C445.81 269.14 446.5 268.22 446.15 267.04L434.3 227.66Z" fill="#522CD5"/>
<path d="M407.54 258.12C406.33 259.06 406.34 260.12 406.83 261.75L408.52 267.55C408.79 268.44 409.73 269.17 410.63 269.17H410.8C411.81 269.17 412.38 268.35 412.08 267.34L410.86 262.62C410.3 260.75 410.2 259.56 411.8 258.29C421.25 250.75 432.53 240.08 429.82 227.67H424.45C425.41 234.02 423.48 245.74 407.54 258.12Z" fill="url(#paint2_linear)"/>
<path d="M410.79 259.44C410.31 260.34 410.46 261.31 410.85 262.62L412.07 267.34C412.37 268.35 411.8 269.17 410.79 269.17H410.62C409.73 269.17 408.78 268.44 408.52 267.55L406.83 261.75C406.55 260.82 406.44 260.08 406.61 259.44H410.79Z" fill="url(#paint3_radial)"/>
<path d="M437.44 227.73C435.39 219.43 432.61 202.58 437.85 188.43L447.42 193.48C442.67 206.31 445.6 221.25 447.31 227.76C447.45 228.29 442.55 228.81 437.44 227.73Z" fill="url(#paint4_linear)"/>
<path d="M437.44 227.73C435.39 219.43 432.61 202.58 437.85 188.43L447.42 193.48C442.67 206.31 445.6 221.25 447.31 227.76C447.45 228.29 442.55 228.81 437.44 227.73Z" fill="url(#paint5_linear)"/>
<path d="M447.28 227.66H439.52L430.02 269.14L457.62 269.18C458.8 269.18 459.48 268.22 459.12 267.03L447.28 227.66Z" fill="#522CD5"/>
<path d="M420.41 258.19C419.2 259.13 419.52 260.95 420.01 262.57L421.5 267.54C421.77 268.43 422.71 269.16 423.61 269.16H433.37C434.38 269.16 434.95 268.34 434.65 267.33L433.33 262.18C432.77 260.31 432.67 259.12 434.27 257.85C443.72 250.31 447.24 240.07 444.54 227.66H437.44C438.39 234.02 436.35 245.82 420.41 258.19Z" fill="url(#paint6_linear)"/>
<path d="M423.61 269.16C422.72 269.16 421.77 268.43 421.51 267.54L420.02 262.57C419.7 261.51 419.46 260.36 419.67 259.43H433.09C432.85 260.21 433.01 261.07 433.34 262.18L434.66 267.33C434.96 268.34 434.39 269.16 433.38 269.16H423.61Z" fill="url(#paint7_radial)"/>
<path d="M437.54 196.35H427.56V197.65H437.54V196.35Z" fill="#A08BE8"/>
<path d="M437.54 183.83H427.56V185.13H437.54V183.83Z" fill="#A08BE8"/>
<path d="M373.06 113.61C375.13 121.08 387.33 135.63 398.6 139.86C405.44 142.43 408.99 134.49 402.02 131.87C394.47 129.03 383.45 117.02 381.84 111.18L373.06 113.61Z" fill="#8A6FE8"/>
<path d="M388.64 102.99L386.44 115.52C386.05 117.75 383.92 119.24 381.69 118.85C379.46 118.46 377.97 116.33 378.36 114.1L380.56 101.57C380.95 99.34 383.08 97.85 385.31 98.24C387.54 98.63 389.03 100.75 388.64 102.99Z" fill="#8A6FE8"/>
<path d="M371.69 121.05L363.97 117.36C361.92 116.36 361.07 113.89 362.06 111.84C363.06 109.79 365.53 108.94 367.58 109.93L375.5 113.71L371.69 121.05Z" fill="#8A6FE8"/>
<path d="M370.41 116.61L362.82 107.58C361.36 105.83 361.6 103.23 363.35 101.77C365.1 100.31 367.7 100.55 369.16 102.3L374.82 109L370.41 116.61Z" fill="#8A6FE8"/>
<path d="M374.96 114.43L369.62 103.9C368.58 101.87 369.39 99.38 371.42 98.35C373.45 97.31 375.94 98.12 376.97 100.15L382.41 110.87L374.96 114.43Z" fill="#8A6FE8"/>
<path d="M377.56 123.77C382.332 123.77 386.2 119.902 386.2 115.13C386.2 110.358 382.332 106.49 377.56 106.49C372.788 106.49 368.92 110.358 368.92 115.13C368.92 119.902 372.788 123.77 377.56 123.77Z" fill="url(#paint8_radial)"/>
<path d="M387.73 149.68C388.71 136.24 394.13 127.08 394.13 127.08L391.22 126.09L391.17 126.01C403.03 104.76 428.71 94.33 452.58 102.43C479.47 111.56 493.87 140.76 484.74 167.65C475.61 194.54 446.41 208.94 419.52 199.81C398.3 192.61 384.87 172.9 384.63 151.7C384.7 150.83 385.21 149.4 387.73 149.68Z" fill="url(#paint9_radial)"/>
<path d="M387.73 149.68C388.69 136.4 393.99 127.31 394.12 127.09L416.61 134.63C416.61 134.63 419.9 135.39 418.92 138.29C417.93 141.2 415.02 149.37 411.94 158.45C411.3 160.33 387.67 151.58 387.73 149.68Z" fill="url(#paint10_radial)"/>
<path d="M387.73 149.63C387.77 149.12 387.81 148.63 387.86 148.13C388.11 145.63 388.51 143.3 388.98 141.16C390.1 141.12 391.02 141.7 391.84 142.9C392.97 144.55 398.65 153.34 398.65 153.34L387.73 149.63Z" fill="#A08BE8"/>
<path d="M384.63 152.33C384.63 152.33 384.16 149.28 387.73 149.68C387.73 149.67 387.73 149.65 387.73 149.64L409.38 156.9C410.54 157.29 412.26 157.11 412.77 156.03C412.5 156.83 412.22 157.64 411.94 158.47C411.36 160.16 409.8 160.63 408.62 160.4C408.5 160.37 408.38 160.35 408.27 160.31L404.87 159.16L384.63 152.33Z" fill="#512BD4"/>
<path d="M385.7 161.53L469.66 190.04C466.69 192.6 463.44 194.8 459.99 196.62L389.36 172.64C387.73 169.09 386.49 165.37 385.7 161.53Z" fill="#D8CFF7"/>
<path d="M390.82 175.57C387.96 170.27 386.03 164.49 385.16 158.47L395.44 161.96L390.82 175.57Z" fill="#512BD4"/>
<path d="M450 99.47L459.43 102.6L461.31 92.48L454.54 90.23L450 99.47Z" fill="#8A6FE8"/>
<path d="M444.42 104.19C443.99 104.05 443.78 103.57 443.96 103.16C445.95 98.85 450.9 96.63 455.51 98.16C460.12 99.69 462.76 104.43 461.77 109.07C461.68 109.51 461.21 109.76 460.79 109.62L444.42 104.19Z" fill="url(#paint11_radial)"/>
<path d="M405.399 143.608C406.518 140.046 405.709 136.619 403.591 135.953C401.473 135.288 398.848 137.635 397.728 141.197C396.609 144.759 397.418 148.186 399.536 148.852C401.654 149.517 404.279 147.17 405.399 143.608Z" fill="#512BD4"/>
<path d="M402.74 139.04C403.67 140.9 402.92 143.16 401.07 144.09C399.8 144.73 398.34 144.58 397.24 143.82C397.29 142.99 397.45 142.1 397.73 141.21C398.28 139.46 399.19 138.01 400.23 137.06C401.28 137.31 402.22 138 402.74 139.04Z" fill="#8065E0"/>
<path d="M459.46 93.68C463.425 93.68 466.64 90.4654 466.64 86.5C466.64 82.5346 463.425 79.32 459.46 79.32C455.494 79.32 452.28 82.5346 452.28 86.5C452.28 90.4654 455.494 93.68 459.46 93.68Z" fill="#D8CFF7"/>
<path d="M367.13 146.11L374.61 140.05C381.64 148.08 388.21 155.03 395.69 158.48C410.59 165.36 427.17 154.63 431.56 151.4L438.59 160.61C425.05 167.99 398.09 185.77 367.13 146.11Z" fill="url(#paint12_linear)"/>
<path d="M437.23 164.14C442.444 164.14 446.67 159.914 446.67 154.7C446.67 149.486 442.444 145.26 437.23 145.26C432.016 145.26 427.79 149.486 427.79 154.7C427.79 159.914 432.016 164.14 437.23 164.14Z" fill="url(#paint13_radial)"/>
<path d="M288.029 87.61L377.859 102.43C381.189 102.98 383.439 106.12 382.889 109.45L379.139 132.21C378.589 135.54 375.449 137.79 372.119 137.24L282.289 122.42C278.959 121.87 276.709 118.73 277.259 115.4L281.009 92.64C281.559 89.32 284.699 87.07 288.029 87.61Z" fill="white"/>
<path d="M303.5 125.92L271.17 120.59C268.88 120.21 267.33 118.05 267.71 115.77L272.09 89.24C272.47 86.95 274.63 85.4 276.91 85.78L309.24 91.11L303.5 125.92Z" fill="#F7B548"/>
<path d="M370.16 137.62L371.12 128.48C371.39 126.05 373.62 124.43 376.1 124.87C378.57 125.31 380.36 127.64 380.09 130.07L379.1 139.44L370.16 137.62Z" fill="#8A6FE8"/>
<path d="M367.94 151.53L359.61 146.71C357.4 145.41 356.61 142.7 357.85 140.65C359.09 138.6 361.89 137.99 364.1 139.29L372.64 144.23L367.94 151.53Z" fill="#8A6FE8"/>
<path d="M367 141.45L362.78 132.81C361.67 130.5 362.54 127.82 364.71 126.81C366.89 125.81 369.55 126.87 370.66 129.18L374.99 138.04L367 141.45Z" fill="#8A6FE8"/>
<path d="M365.45 145.68L358.78 138.75C357.01 136.89 357.01 134.07 358.78 132.45C360.54 130.83 363.4 131.02 365.17 132.88L372.01 139.99L365.45 145.68Z" fill="#8A6FE8"/>
<path d="M381.49 142.75C380.55 137.64 375.6 133.97 370.45 134.56C365.29 135.15 361.88 139.77 362.83 144.88C363.77 149.99 368.72 153.66 373.87 153.07C379.02 152.48 382.43 147.86 381.49 142.75Z" fill="url(#paint14_radial)"/>
<path d="M214.49 141.64L101.82 142.64C100.87 142.65 100.11 143.42 100.11 144.36V207.58C100.11 208.52 100.87 209.29 101.81 209.3L214.48 210.73C215.44 210.74 216.22 209.97 216.22 209.01V143.35C216.22 142.41 215.44 141.64 214.49 141.64Z" fill="#3E8EED"/>
<path d="M181.7 196.09C193.066 196.09 202.28 186.876 202.28 175.51C202.28 164.144 193.066 154.93 181.7 154.93C170.334 154.93 161.12 164.144 161.12 175.51C161.12 186.876 170.334 196.09 181.7 196.09Z" fill="white"/>
<path d="M181.78 154.93L182.02 176.14L198.52 187.35C200.88 184 202.28 179.92 202.28 175.51C202.29 164.16 193.11 154.97 181.78 154.93Z" fill="#F7B548"/>
<path d="M182.02 176.03V176.14L198.52 187.35C200.88 184 202.28 179.92 202.28 175.51C202.28 174.05 202.12 172.63 201.83 171.26L182.02 176.03Z" fill="#0064DA"/>
<path d="M117.14 188.53H109.66V196.62H117.14V188.53Z" fill="#B2D5F8"/>
<path d="M128.91 172.18H121.43V196.62H128.91V172.18Z" fill="#B2D5F8"/>
<path d="M140.68 178.02H133.2V196.62H140.68V178.02Z" fill="#B2D5F8"/>
<path d="M152.46 165.14H144.98V196.62H152.46V165.14Z" fill="#B2D5F8"/>
<path d="M128.91 172.18H121.43V175.89H128.91V172.18Z" fill="white"/>
<path d="M152.46 165.14H144.98V173.27H152.46V165.14Z" fill="white"/>
<path d="M320.158 104.648L319.767 106.884L361.417 114.157L361.808 111.92L320.158 104.648Z" fill="#B2B2B2"/>
<path d="M319.007 112.966L318.639 115.206L349.269 120.231L349.637 117.991L319.007 112.966Z" fill="#B2B2B2"/>
<path d="M280.28 113.28L283.02 95.44L296.02 106.73L280.28 113.28Z" fill="white"/>
<defs>
<linearGradient id="paint0_linear" x1="427.833" y1="188.954" x2="420.403" y2="226.882" gradientUnits="userSpaceOnUse">
<stop stop-color="#522CD5"/>
<stop offset="0.4397" stop-color="#8A6FE8"/>
</linearGradient>
<linearGradient id="paint1_linear" x1="427.833" y1="188.954" x2="420.403" y2="226.882" gradientUnits="userSpaceOnUse">
<stop stop-color="#522CD5"/>
<stop offset="0.4397" stop-color="#8A6FE8"/>
</linearGradient>
<linearGradient id="paint2_linear" x1="424.403" y1="225.003" x2="404.146" y2="266.182" gradientUnits="userSpaceOnUse">
<stop stop-color="#522CD5"/>
<stop offset="0.4397" stop-color="#8A6FE8"/>
</linearGradient>
<radialGradient id="paint3_radial" cx="0" cy="0" r="1" gradientUnits="userSpaceOnUse" gradientTransform="translate(411.61 258.403) rotate(180) scale(8.65843)">
<stop offset="0.034" stop-color="#522CD5"/>
<stop offset="1" stop-color="#8A6FE8"/>
</radialGradient>
<linearGradient id="paint4_linear" x1="440.819" y1="188.954" x2="433.388" y2="226.882" gradientUnits="userSpaceOnUse">
<stop stop-color="#522CD5"/>
<stop offset="0.4397" stop-color="#8A6FE8"/>
</linearGradient>
<linearGradient id="paint5_linear" x1="440.819" y1="188.954" x2="433.388" y2="226.882" gradientUnits="userSpaceOnUse">
<stop stop-color="#522CD5"/>
<stop offset="0.4397" stop-color="#8A6FE8"/>
</linearGradient>
<linearGradient id="paint6_linear" x1="439.271" y1="225.078" x2="418.677" y2="266.942" gradientUnits="userSpaceOnUse">
<stop stop-color="#522CD5"/>
<stop offset="0.4397" stop-color="#8A6FE8"/>
</linearGradient>
<radialGradient id="paint7_radial" cx="0" cy="0" r="1" gradientUnits="userSpaceOnUse" gradientTransform="translate(424.558 251.118) rotate(180) scale(15.8111)">
<stop offset="0.034" stop-color="#522CD5"/>
<stop offset="0.9955" stop-color="#8A6FE8"/>
</radialGradient>
<radialGradient id="paint8_radial" cx="0" cy="0" r="1" gradientUnits="userSpaceOnUse" gradientTransform="translate(384.547 116.619) rotate(-72.4402) scale(28.9845)">
<stop stop-color="#8065E0"/>
<stop offset="0.8628" stop-color="#512BD4"/>
</radialGradient>
<radialGradient id="paint9_radial" cx="0" cy="0" r="1" gradientUnits="userSpaceOnUse" gradientTransform="translate(445.67 125.82) rotate(-150.882) scale(43.7776)">
<stop offset="0.4744" stop-color="#A08BE8"/>
<stop offset="0.8618" stop-color="#8065E0"/>
</radialGradient>
<radialGradient id="paint10_radial" cx="0" cy="0" r="1" gradientUnits="userSpaceOnUse" gradientTransform="translate(404.056 139.502) rotate(-150.882) scale(33.6319)">
<stop offset="0.2022" stop-color="#E1DFDD"/>
<stop offset="0.7337" stop-color="white"/>
</radialGradient>
<radialGradient id="paint11_radial" cx="0" cy="0" r="1" gradientUnits="userSpaceOnUse" gradientTransform="translate(454.203 103.491) rotate(-150.882) scale(7.57943)">
<stop stop-color="#8065E0"/>
<stop offset="0.8628" stop-color="#512BD4"/>
</radialGradient>
<linearGradient id="paint12_linear" x1="433.827" y1="135.703" x2="374.389" y2="168.484" gradientUnits="userSpaceOnUse">
<stop offset="0.3344" stop-color="#9780E6"/>
<stop offset="0.8488" stop-color="#8A6FE8"/>
</linearGradient>
<radialGradient id="paint13_radial" cx="0" cy="0" r="1" gradientUnits="userSpaceOnUse" gradientTransform="translate(438.303 150.826) rotate(-161.078) scale(14.0236)">
<stop stop-color="#8065E0"/>
<stop offset="0.8628" stop-color="#512BD4"/>
</radialGradient>
<radialGradient id="paint14_radial" cx="0" cy="0" r="1" gradientUnits="userSpaceOnUse" gradientTransform="translate(375.436 140.279) rotate(37.2328) scale(16.3902 15.2963)">
<stop stop-color="#8065E0"/>
<stop offset="0.8628" stop-color="#512BD4"/>
</radialGradient>
</defs>
</svg>
