<svg width="636" height="300" viewBox="0 0 636 300" fill="none" xmlns="http://www.w3.org/2000/svg">
<path d="M72.25 123.91V174.36L113.66 195.29V146.75L72.25 123.91Z" fill="#F7B548"/>
<path d="M153.37 127.3V172.66L113.69 195.32V146.75L153.37 127.3Z" fill="#E29E3B"/>
<path d="M153.37 127.23L113.66 104.46L72.25 123.84V123.91L113.87 146.75L153.37 127.3V127.23Z" fill="#FCCF84"/>
<path d="M224.93 222.44L144.59 224.62C139.89 224.75 136.06 220.86 136.06 215.94V160.2C136.06 155.28 139.89 151.33 144.59 151.39L224.93 152.4C229.21 152.45 232.66 156.28 232.66 160.95V213.78C232.66 218.45 229.2 222.32 224.93 222.44Z" fill="#6BA8F1"/>
<path d="M232.66 165.69V156.29C232.66 154.2 231.11 152.48 229.2 152.46L139.89 151.34C137.77 151.31 136.05 153.08 136.05 155.29V165.21L232.66 165.69Z" fill="#0064DA"/>
<path d="M147.22 158.82C147.22 160.31 146.06 161.51 144.64 161.5C143.21 161.49 142.05 160.27 142.05 158.77C142.05 157.27 143.21 156.07 144.64 156.09C146.06 156.11 147.22 157.33 147.22 158.82Z" fill="#6BA8F1"/>
<path d="M156.41 158.9C156.41 160.38 155.27 161.58 153.85 161.57C152.43 161.56 151.29 160.35 151.29 158.86C151.29 157.37 152.44 156.18 153.85 156.19C155.27 156.2 156.41 157.42 156.41 158.9Z" fill="#6BA8F1"/>
<path d="M165.52 158.98C165.52 160.46 164.39 161.64 162.99 161.63C161.59 161.62 160.45 160.41 160.45 158.93C160.45 157.45 161.59 156.26 162.99 156.28C164.38 156.29 165.52 157.5 165.52 158.98Z" fill="#6BA8F1"/>
<path d="M175.02 204.17L154.6 194.97V192.76L175.02 181.86V185.19L158.44 193.65L175.02 200.8V204.17Z" fill="white"/>
<path d="M192.43 176.91L181.13 209.46L177.66 209.53L189 176.91H192.43Z" fill="white"/>
<path d="M195 200.51L210.95 193.14L195 185.07V181.78L214.53 192.16V194.3L195 203.85V200.51Z" fill="white"/>
<path d="M390.14 171.43L390.27 183.32L267.33 187.91L266.21 173.26L390.14 171.43Z" fill="#CC5444"/>
<path d="M435.99 182.42L429.49 180.11L417.26 119.9C416.88 117.85 415.78 116.07 413.94 114.99C412.91 114.39 411.95 114.35 410.97 114.35C409.63 114.29 406.85 114.3 404.43 114.26C402.6 114.23 392.74 167.63 392.72 169.06L391.77 234.53C391.76 235.36 392.25 236.09 393.02 236.36C393.02 236.36 427.5 251.53 427.79 251.51C429.91 251.36 432.16 251.14 433.84 250.95C434.85 250.85 435.73 250.01 435.75 248.91L437.24 184.27C437.27 183.43 436.77 182.69 435.99 182.42Z" fill="#ED9583"/>
<path d="M429.57 183.27C429.57 183.27 426.91 182.1 423.06 180.42L411.16 120.17C410.78 118.13 409.42 116.22 407.58 115.14C404.27 113.2 400.68 114.59 400.12 118.02L391.97 169.67C390.22 169.86 388.67 170.06 388.48 170.08C387.5 170.21 386.66 171.07 386.65 172.16L385.77 235.1C385.76 235.93 386.25 236.65 387.02 236.93L426.92 251.41C428.23 251.89 429.66 250.88 429.69 249.47L430.83 185.12C430.85 184.28 430.34 183.54 429.57 183.27Z" fill="#D55D4B"/>
<path d="M269.63 171.65L270.22 174.44C316.35 173.59 387.62 172.26 389.14 172.15C391.41 171.99 391.97 169.6 391.97 169.6L269.63 171.65Z" fill="#ED9583"/>
<path d="M400.72 133.88L247.93 133.38L247.95 123.42L400.91 124.75C403.41 124.77 404.27 127.57 404.26 129.46C404.25 131.35 403.12 133.88 400.72 133.88Z" fill="#E86E58"/>
<path d="M345.79 152.21L351.73 152.12C354.87 152.07 357.32 154.63 357.21 157.82L354 248.28C353.89 251.42 351.28 253.97 348.17 253.97H342.29C339.19 253.97 336.77 251.43 336.87 248.3L339.93 158.06C340.03 154.88 342.66 152.26 345.79 152.21Z" fill="#797672"/>
<path d="M341.63 107.92L358.99 107.56C358.99 107.56 359.07 105.25 359.24 100.63C359.4 96.0098 363.77 94.0598 368.08 93.9598C372.39 93.8598 375.45 97.0398 375.45 97.0398L376.04 81.0198C376.04 81.0198 373.18 84.5698 368.64 84.6798C364.1 84.7898 360.89 79.5298 360.89 79.5298C360.89 79.5298 348.67 79.8298 341.9 79.9998C315.62 80.6498 310.38 112.69 310.38 112.69L313.93 113.08C313.93 113.08 325.08 92.8598 334.28 92.6498C343.5 92.4398 341.63 107.92 341.63 107.92Z" fill="#797672"/>
<path d="M377.53 98.3798L384.16 98.2298C385.35 98.1998 386.34 97.1998 386.39 95.9998L386.93 81.7798C386.98 80.5698 386.05 79.6098 384.86 79.6398L378.21 79.7998C377.03 79.8298 376.03 80.8298 375.98 82.0398L375.46 96.2398C375.43 97.4498 376.35 98.4098 377.53 98.3798Z" fill="#797672"/>
<path d="M339.62 167.02L356.88 166.81L358.98 107.56L341.63 107.92L339.62 167.02Z" fill="#F7B548"/>
<path d="M360.2 79.5498C360.62 79.5398 360.88 79.5298 360.88 79.5298C360.88 79.5298 364.09 84.7798 368.63 84.6698C373.17 84.5598 376.03 81.0098 376.03 81.0098L375.44 97.0298C375.44 97.0298 372.38 93.8598 368.07 93.9498C364.34 94.0298 360.57 95.5098 359.52 98.9098L360.2 79.5498Z" fill="#56534F"/>
<path d="M275.6 111.29L266.68 95.7001C266.41 95.2401 265.76 95.2701 265.49 95.7601C264.09 98.3001 261.17 105.46 264.78 116.61C265.22 117.99 275.6 111.29 275.6 111.29Z" fill="#1572E0"/>
<path d="M262.69 116.98C267 114.16 281.7 104.52 284.21 102.7C287.16 100.56 287.04 99.85 286.21 98.12C285.51 96.67 280.85 89.14 279.38 86.76C279.16 86.41 279.39 85.93 279.8 85.88C282.25 85.55 289.47 85.47 296.13 94.19C302.52 102.56 296.19 114.97 293.47 120.21C290.97 125.02 290.01 128.99 290.59 132.15L312.42 208.11C313.61 212.26 311.66 216.96 307.68 218.72C303.12 220.73 298.1 218.34 296.77 213.71L274.73 137.25C271.99 128.75 265.05 121.27 262.47 118.71C261.98 118.22 262.09 117.38 262.69 116.98Z" fill="#6BA8F1"/>
<path d="M270.92 119.54L277.03 129.65C277.52 130.46 278.57 130.67 279.38 130.13L284.82 126.48C285.63 125.94 285.89 124.84 285.4 124.03L279.28 113.9C278.79 113.09 277.74 112.88 276.93 113.42L271.49 117.08C270.69 117.64 270.43 118.73 270.92 119.54Z" fill="#56534F"/>
<path d="M272.13 121.55L275.81 127.64L284.18 122.02L280.5 115.92L272.13 121.55Z" fill="#B3AFAB"/>
<path d="M309.06 87.0998L304.85 76.0898V76.0498L300.13 76.8998L298.61 88.9598C298.61 88.9598 301.59 93.8798 302.85 100.22L308.77 150.91L313.47 150.12L307.55 99.2498C307.34 92.7798 309.06 87.0998 309.06 87.0998Z" fill="#CCCAC7"/>
<path d="M320.53 162.85C316.43 160.61 315.55 156.23 319.57 153L303.55 155.7C308.14 157.48 308.19 162.03 304.78 165.52C304.34 165.97 321.04 163.13 320.53 162.85Z" fill="#1572E0"/>
<path d="M318.54 153.38L304.59 155.73C303.78 155.87 303.04 155.31 302.95 154.48L302.47 150.41C302.37 149.58 302.95 148.8 303.76 148.66L317.71 146.3C318.53 146.16 319.26 146.72 319.36 147.55L319.83 151.64C319.94 152.46 319.36 153.24 318.54 153.38Z" fill="#3E8EED"/>
<path d="M304.36 166.52L309.19 207.77C309.6 211.26 312.72 213.64 316.17 213.09L320.51 212.4C323.97 211.85 326.44 208.57 326.04 205.07L321.24 163.71C321.17 163.14 320.67 162.76 320.11 162.85L305.25 165.33C304.69 165.42 304.3 165.95 304.36 166.52Z" fill="#3E8EED"/>
<path d="M314.43 207.48C313.56 207.62 312.77 207.02 312.67 206.14L308.83 173.27C308.73 172.38 309.35 171.55 310.22 171.41C311.09 171.27 311.88 171.87 311.99 172.75L315.83 205.64C315.92 206.51 315.3 207.34 314.43 207.48Z" fill="#1572E0"/>
<path d="M321.26 206.39C320.39 206.53 319.6 205.93 319.5 205.05L315.67 172.14C315.57 171.25 316.19 170.42 317.06 170.27C317.93 170.13 318.73 170.73 318.83 171.61L322.66 204.53C322.75 205.42 322.13 206.25 321.26 206.39Z" fill="#1572E0"/>
<path d="M277.29 263.73C277.29 263.73 425.68 251.68 427.86 251.56C429.42 251.48 429.84 250.07 429.86 249.19C429.9 246.92 430.92 187.95 430.96 185.89C431 183.82 430.34 183.59 429.09 183.01C427.27 182.15 423.3 180.53 423.3 180.53L271.2 185.43L277.29 263.73Z" fill="#E86E58"/>
<path d="M429.71 183.29C428.11 182.52 423.08 180.41 423.08 180.41L271.13 185.38L271.33 188C292.6 187.54 399.84 184.22 429.71 183.29Z" fill="#ED9583"/>
<path d="M279.47 187.76L272.5 185.24L258.9 120.74C258.47 118.51 256.99 116.43 255 115.25C253.89 114.59 252.77 114.33 251.72 114.33C250.24 114.39 247.86 114.47 245.12 114.59C243.16 114.68 233.43 172.78 233.43 174.33L233.39 245.64C233.39 246.54 233.93 247.33 234.75 247.64C234.75 247.64 271.74 264.22 272.05 264.2C274.31 264.04 276.71 263.8 278.5 263.6C279.58 263.5 280.51 262.58 280.51 261.38L280.85 189.79C280.85 188.87 280.3 188.07 279.47 187.76Z" fill="#ED9583"/>
<path d="M272.96 188.44C272.96 188.44 270.1 187.16 265.97 185.33L252.39 121.03C251.96 118.8 250.48 116.72 248.5 115.55C244.94 113.44 241.13 114.95 240.58 118.7L233.31 172.27C231.45 172.47 229.13 172.74 228.93 172.77C227.89 172.91 227 173.84 227 175.03V246.27C227 247.17 227.54 247.96 228.36 248.27L271.11 264.1C272.51 264.62 274.03 263.53 274.04 261.99L274.34 190.47C274.33 189.54 273.79 188.74 272.96 188.44Z" fill="#D55D4B"/>
<path d="M373.66 265.02L373.55 151.05C373.55 149.33 374.95 147.93 376.68 147.92L455.6 147.29C457.16 147.28 458.41 148.59 458.4 150.21L457.85 258.2C457.84 259.8 456.58 261.2 455.04 261.33L376.76 267.82C375.05 267.96 373.66 266.71 373.66 265.02Z" fill="#625F5B"/>
<path d="M380.93 258.03L380.89 157.49C380.89 156.95 381.33 156.51 381.87 156.5L450.85 155.58C451.35 155.57 451.75 155.99 451.74 156.5L451.3 252.62C451.3 253.13 450.9 253.57 450.4 253.61L381.91 258.92C381.36 258.96 380.93 258.56 380.93 258.03Z" fill="#8DBCF4"/>
<path d="M386.07 252.73L386.06 173.61C386.06 173.07 386.5 172.63 387.03 172.62L446.01 171.23C446.51 171.22 446.91 171.63 446.91 172.14L446.58 248.26C446.58 248.77 446.17 249.21 445.68 249.25L387.03 253.62C386.5 253.65 386.07 253.26 386.07 252.73Z" fill="white"/>
<path d="M433.74 167.12L425.21 167.3C424.4 167.32 424.02 166.76 424.02 166.1C424.03 162.56 421.1 159.77 417.59 159.83C414.1 159.89 411.09 162.74 411.08 166.27C411.08 166.86 410.94 167.6 409.79 167.62L400.82 167.81C399.82 167.83 399.01 168.66 399.01 169.67L399 176.65C399 177.65 399.81 178.44 400.8 178.42L433.7 177.52C434.65 177.49 435.43 176.68 435.43 175.7L435.45 168.88C435.46 167.87 434.69 167.1 433.74 167.12ZM417.58 163.75C419.02 163.72 420.19 164.89 420.18 166.36C420.18 167.83 419.01 169.04 417.57 169.07C416.13 169.1 414.95 167.93 414.96 166.46C414.96 164.99 416.13 163.78 417.58 163.75Z" fill="#FDD696"/>
<path d="M399.01 175.32V176.63C399.01 177.63 399.82 178.42 400.81 178.4L433.71 177.5C434.66 177.47 435.44 176.66 435.44 175.68V174.4L399.01 175.32Z" fill="#F7B548"/>
<path d="M424.74 190.97L393.73 192.08V189.39L424.75 188.32L424.74 190.97Z" fill="#C4C1BE"/>
<path d="M424.71 202.48L393.72 203.82V201.13L424.72 199.84L424.71 202.48Z" fill="#C4C1BE"/>
<path d="M424.68 213.97L393.71 215.54L393.72 212.85L424.69 211.33L424.68 213.97Z" fill="#C4C1BE"/>
<path d="M424.65 225.44L393.71 227.24V224.56L424.66 222.81L424.65 225.44Z" fill="#C4C1BE"/>
<path d="M424.62 236.89L393.7 238.92V236.24L424.63 234.27L424.62 236.89Z" fill="#C4C1BE"/>
<path d="M456.48 204.58C456.47 205.71 455.59 206.66 454.51 206.71C453.43 206.76 452.55 205.89 452.55 204.76C452.56 203.63 453.44 202.68 454.52 202.63C455.61 202.58 456.48 203.46 456.48 204.58Z" fill="#84817D"/>
<path d="M439.97 189.1C439.96 191.18 438.32 192.93 436.29 193.01C434.26 193.09 432.61 191.45 432.62 189.36C432.63 187.27 434.28 185.52 436.32 185.45C438.35 185.38 439.98 187.02 439.97 189.1Z" fill="#549BEF"/>
<path d="M439.93 200.44C439.92 202.52 438.28 204.28 436.25 204.37C434.22 204.46 432.58 202.84 432.58 200.75C432.59 198.66 434.24 196.9 436.27 196.82C438.31 196.74 439.94 198.36 439.93 200.44Z" fill="#C4C1BE"/>
<path d="M439.89 211.76C439.88 213.84 438.24 215.6 436.22 215.71C434.19 215.82 432.55 214.21 432.56 212.13C432.57 210.04 434.22 208.27 436.25 208.18C438.26 208.08 439.9 209.68 439.89 211.76Z" fill="#549BEF"/>
<path d="M439.84 223.06C439.83 225.13 438.19 226.91 436.17 227.03C434.14 227.15 432.5 225.56 432.51 223.48C432.52 221.4 434.17 219.62 436.2 219.51C438.22 219.4 439.85 220.99 439.84 223.06Z" fill="#C4C1BE"/>
<path d="M439.8 234.35C439.79 236.42 438.15 238.21 436.13 238.34C434.11 238.48 432.47 236.9 432.47 234.82C432.48 232.74 434.13 230.95 436.15 230.83C438.18 230.7 439.81 232.28 439.8 234.35Z" fill="#C4C1BE"/>
<path d="M468.18 177.31L449.74 203.33L442.01 197.62L460.64 171.51L468.18 177.31Z" fill="#F7B548"/>
<path d="M449.74 203.33L440.38 207.88L442.01 197.62L449.74 203.33Z" fill="#C4C1BE"/>
<path d="M444.98 205.64L440.38 207.88L441.18 202.84L444.98 205.64Z" fill="#797673"/>
<path d="M468.23 177.251L449.74 203.331L446.77 201.141L465.33 175.021L468.23 177.251Z" fill="#F7B548"/>
<path d="M460.53 171.66L464.03 166.76C464.59 165.98 465.63 165.81 466.36 166.37L471.24 170.15C471.96 170.71 472.1 171.79 471.55 172.57L468.08 177.46L460.53 171.66Z" fill="#E86E58"/>
<path d="M517.89 136.37L505.86 135.96V84.1699L517.89 84.9199V136.37Z" fill="#E86E58"/>
<path d="M525.06 136.61L517.89 136.37V73.8901L525.06 74.3801V136.61Z" fill="#0064DA"/>
<path d="M536.68 136.14L532.66 136.84L525.02 86.5099L529.07 85.9199L536.68 136.14Z" fill="#76AFF2"/>
<path d="M472.9 133.04C472.9 133.04 476.3 135.71 479 134.79C481.7 133.86 482.6 129.82 482.6 129.82L510.23 112.29L498.84 65.0601L493.53 68.4701L466.49 84.9601L425.69 83.3601L437.77 131.29L472.9 133.04Z" fill="#0064DA"/>
<path d="M494.64 63.23C494.64 63.23 472.67 73.9 469.04 75.97C465.39 78.04 464.7 84.17 466.07 88.36C467.44 92.55 474.94 124.42 474.94 124.42L503.9 106.95L494.64 63.23Z" fill="#F7B548"/>
<path d="M429.5 77.9101C429.5 77.9101 456.42 77.7201 459.88 78.2001C463.32 78.6801 465.15 80.8501 466.07 85.5301C466.98 90.2101 474.94 124.25 474.94 124.25L441.54 124.65L429.5 77.9101Z" fill="#FCCF84"/>
<path d="M440.83 127.49L472.82 129.46C472.82 129.46 473.2 126.74 475.24 125.8C477.27 124.86 480.13 126.67 480.13 126.67L506.09 110.08L496.86 66.68L494.65 63.23L503.03 106.15L474.5 123.38L442.26 122.08L429.5 77.82V83.32L440.83 127.49Z" fill="#8DBCF4"/>
<path d="M229.31 129.71L167.1 127.62V43.6699L212.06 47.0299L229.31 65.5199V129.71Z" fill="#D5D3D0"/>
<path d="M212.06 47.0298L229.32 65.5198L212.29 64.3998L212.06 47.0298Z" fill="#B3AFAB"/>
<path d="M209.94 106.17L160.92 103.96C157.33 103.8 154.41 100.8 154.41 97.2497V83.3097C154.41 79.7697 157.33 77.0697 160.92 77.2697L209.94 80.1097C213.35 80.3097 216.1 83.2497 216.1 86.6897V100.23C216.1 103.67 213.35 106.33 209.94 106.17Z" fill="#B3AFAB"/>
<path d="M546.02 227.01L494.96 227.75V147.83L531.81 148.8L546.02 165.64V227.01Z" fill="#A3C9F6"/>
<path d="M531.81 148.8L546.02 165.64L532 165.39L531.81 148.8Z" fill="#76AFF2"/>
<path d="M530.07 205.39L489.91 205.51C486.98 205.52 484.6 202.8 484.6 199.43V186.15C484.6 182.78 486.98 180.07 489.91 180.1L530.07 180.5C532.87 180.53 535.14 183.21 535.14 186.49V199.42C535.14 202.71 532.88 205.38 530.07 205.39Z" fill="#76AFF2"/>
</svg>
